/* XPM */
static char * unreadmail_xpm[] = {
"16 16 2 1",
"  	c None",
"+ 	c #ffcc66",
"                ",
"                ",
"                ",
"                ",
"   ++++++++++   ",
"   +        +   ",
"   ++      ++   ",
"   + +    + +   ",
"   +  +  +  +   ",
"   +   ++   +   ",
"   +        +   ",
"   ++++++++++   ",
"                ",
"                ",
"                ",
"                "};
