<?xml version="1.0" encoding="UTF-8" standalone="no"?>
<!-- Created with Inkscape (http://www.inkscape.org/) -->

<svg
   xmlns:dc="http://purl.org/dc/elements/1.1/"
   xmlns:cc="http://creativecommons.org/ns#"
   xmlns:rdf="http://www.w3.org/1999/02/22-rdf-syntax-ns#"
   xmlns:svg="http://www.w3.org/2000/svg"
   xmlns="http://www.w3.org/2000/svg"
   xmlns:sodipodi="http://sodipodi.sourceforge.net/DTD/sodipodi-0.dtd"
   xmlns:inkscape="http://www.inkscape.org/namespaces/inkscape"
   width="12.7mm"
   height="5.291667mm"
   viewBox="0 0 12.699999 5.2916672"
   version="1.1"
   id="svg5"
   xml:space="preserve"
   inkscape:version="0.92.2 5c3e80d, 2017-08-06"
   sodipodi:docname="icewm.svg"><metadata
     id="metadata19"><rdf:RDF><cc:Work
         rdf:about=""><dc:format>image/svg+xml</dc:format><dc:type
           rdf:resource="http://purl.org/dc/dcmitype/StillImage" /><dc:title /></cc:Work></rdf:RDF></metadata><sodipodi:namedview
     id="namedview7"
     pagecolor="#ffffff"
     bordercolor="#666666"
     borderopacity="1.0"
     inkscape:pageshadow="2"
     inkscape:pageopacity="0"
     inkscape:pagecheckerboard="true"
     inkscape:deskcolor="#d1d1d1"
     inkscape:document-units="mm"
     showgrid="false"
     showborder="true"
     inkscape:showpageshadow="true"
     borderlayer="false"
     inkscape:zoom="11.313709"
     inkscape:cx="29.630827"
     inkscape:cy="6.4699949"
     inkscape:window-width="1920"
     inkscape:window-height="1010"
     inkscape:window-x="-6"
     inkscape:window-y="-6"
     inkscape:window-maximized="1"
     inkscape:current-layer="layer1"
     showguides="true"
     inkscape:guide-bbox="true" /><defs
     id="defs2"><inkscape:path-effect
       effect="powerclip"
       id="path-effect4178"
       is_visible="true"
       lpeversion="1"
       inverse="true"
       flatten="false"
       hide_clip="false"
       message="Use fill-rule evenodd on &lt;b&gt;fill and stroke&lt;/b&gt; dialog if no flatten result after convert clip to paths." /><clipPath
       clipPathUnits="userSpaceOnUse"
       id="clipPath4174"><ellipse
         style="display:none;opacity:1;fill:#008000;fill-opacity:1;stroke-width:0.930452;-inkscape-stroke:none;stop-color:#000000"
         id="ellipse4176"
         cx="33.411034"
         cy="72.276894"
         rx="52.766674"
         ry="105.16649" /></clipPath></defs><g
     inkscape:label="logo"
     inkscape:groupmode="layer"
     id="layer1"
     transform="translate(76.794708,-126.64449)"><path
       style="fill:#000000;stroke-width:0.0135319"
       id="path248"
       d="" /><path
       inkscape:connector-curvature="0"
       sodipodi:nodetypes="ccccsacccscscc"
       id="path1942"
       d="m -76.039893,127.89353 c 0,0 -0.05025,0.70238 -0.17479,1.02034 -0.277722,0.23701 -0.161919,0.56633 -0.268013,0.81894 -0.132849,0.35485 -0.180978,0.82524 -0.180978,0.82524 0,0 0.318428,0.46746 0.468627,0.56127 0.150197,0.0938 0.42828,0.23834 0.666735,0.28702 0.386248,0.0788 1.185021,-0.003 1.185021,-0.003 l 0.01706,-0.68806 0.01122,-2.87975 c 0,0 -0.0072,-0.30975 -0.240202,-0.41419 -0.26756,-0.11996 -0.27914,-0.11968 -0.536909,-0.11446 -0.275009,-0.002 -0.575655,-0.0125 -0.765584,0.24471 -0.106386,0.14411 -0.163005,0.23582 -0.182211,0.34168 z"
       style="opacity:1;fill:#214478;fill-opacity:1;stroke:none;stroke-width:0.22017887px;stroke-linecap:butt;stroke-linejoin:miter;stroke-miterlimit:4;stroke-dasharray:none;stroke-dashoffset:0;stroke-opacity:1" /><path
       inkscape:connector-curvature="0"
       sodipodi:nodetypes="ccccccccccccccccccccccc"
       id="path1930"
       d="m -69.441509,128.25296 0.882192,0.0117 0.05277,0.97663 0.183252,-0.55296 0.480867,-0.002 0.271937,0.45773 0.02105,-0.91098 1.377643,0.006 0.538624,0.93378 0.500261,-0.93349 0.958667,-0.005 -0.0025,3.14263 -1.019421,6.6e-4 0.01161,-0.8947 -0.196501,0.37265 -0.460203,-0.003 -0.216409,-0.37291 -0.0033,0.88512 -1.474871,0.004 -0.494975,-0.97803 -0.545077,0.97951 -0.829644,-0.0325 z"
       style="opacity:1;fill:#214478;fill-opacity:1;stroke:none;stroke-width:0.2583774px;stroke-linecap:butt;stroke-linejoin:miter;stroke-miterlimit:4;stroke-dasharray:none;stroke-dashoffset:0;stroke-opacity:1" /><path
       inkscape:connector-curvature="0"
       sodipodi:nodetypes="ccccccccccsccscc"
       id="path1841"
       d="m -71.633687,128.38142 -0.113438,3.01411 2.172108,0.01 -0.01434,-0.76923 c 0,0 -0.736217,0.0556 -0.758152,-0.009 -0.02193,-0.065 -0.01202,-0.45028 -0.01202,-0.45028 l 0.771032,-4.6e-4 0.01936,-0.77772 -0.739281,0.0225 -0.02636,-0.23067 c 0,0 0.01902,-0.0741 0.06574,-0.10256 0.0467,-0.0284 0.672701,0.0165 0.672701,0.0165 l 0.0041,-0.80294 c 0,0 -0.759707,-0.22389 -1.388225,-0.0608 -0.21545,0.0559 -0.653275,0.14122 -0.653275,0.14122 z"
       style="opacity:1;fill:#214478;fill-opacity:1;stroke:none;stroke-width:0.22169128px;stroke-linecap:butt;stroke-linejoin:miter;stroke-miterlimit:4;stroke-dasharray:none;stroke-dashoffset:0;stroke-opacity:1" /><path
       inkscape:connector-curvature="0"
       sodipodi:nodetypes="cccsccsccscccccc"
       id="path842"
       d="m -74.138975,128.44298 -0.0026,2.96085 2.546139,-0.006 c 0,0 0.15177,-0.0948 0.168827,-0.48557 0.01707,-0.39074 -0.02727,-0.64291 -0.02727,-0.64291 l -0.580938,0.002 c 0,0 0.01095,0.20184 -0.08024,0.27443 -0.172899,0.13767 -0.326213,-0.0572 -0.326213,-0.0572 l -0.0075,-1.2579 c 0.0734,-0.12541 0.19174,-0.14845 0.278761,-0.0971 0.06581,0.0389 0.05273,0.22767 0.05273,0.22767 l 0.671344,-8.3e-4 0.004,-0.83225 c 0,0 -0.04059,-0.13933 -0.323558,-0.22422 -0.737576,-0.24806 -0.827853,-0.55229 -1.990693,-0.12167 z"
       style="fill:#214478;fill-opacity:1;stroke:none;stroke-width:0.24526432px;stroke-linecap:butt;stroke-linejoin:miter;stroke-opacity:1" /><path
       id="path1194"
       style="fill:#000000;fill-opacity:1;stroke-width:0.0100406"
       d="m -74.87167,127.40808 c -0.258521,0.1783 -0.778186,0.12276 -0.873082,0.38372 -0.144991,0.49861 -0.02949,1.0742 -0.429294,1.47415 -0.06997,0.42284 -0.21989,0.83449 -0.450226,1.192 0.534099,0.48589 1.253299,0.9518 2.023429,0.70204 0.134795,-0.54266 0.01763,-1.26347 0.05692,-1.87365 -0.04608,-0.6257 0.17476,-1.39662 -0.301874,-1.88812 z"
       inkscape:connector-curvature="0" /><path
       style="fill:#91aebd;fill-opacity:1;stroke-width:0.0100406"
       d="m -75.399755,131.133 c -0.08087,-0.0174 -0.171116,-0.0836 -0.350595,-0.17626 -0.133782,-0.069 -0.132751,-0.0528 -0.22609,-0.10795 -0.02288,-0.0134 -0.149877,-0.088 -0.198065,-0.12217 -0.100785,-0.0715 -0.23305,-0.17431 -0.249917,-0.20473 -0.01067,-0.0193 0.205112,0.0594 0.30309,0.0432 0.138043,-0.0226 0.21379,-0.0467 0.287371,-0.0908 0.100518,-0.0603 0.142057,-0.0579 0.311046,0.0175 0.04866,0.0217 0.09857,0.0381 0.110923,0.0365 0.02645,-0.005 0.08913,-0.0813 0.123399,-0.15267 0.03872,-0.0806 0.05543,-0.1784 0.06846,-0.40082 0.0091,-0.15614 0.0095,-0.25087 0.0013,-0.37262 l -0.01092,-0.16323 0.04185,-0.0339 c 0.09413,-0.0765 0.249672,-0.23984 0.297885,-0.31265 0.09452,-0.14275 0.119288,-0.24916 0.08781,-0.37725 -0.01549,-0.063 -0.02354,-0.0658 -0.06451,-0.10639 -0.0549,-0.0545 -0.08012,-0.0873 -1.64e-4,-0.0355 0.02991,0.0195 0.09537,0.0479 0.174558,0.16241 l 0.06732,0.0973 v 1.12654 1.12653 l -0.02277,0.006 c -0.01251,0.004 -0.108212,0.0171 -0.212652,0.0309 -0.213436,0.0285 -0.435464,0.0329 -0.539382,0.0106 z m -1.04706,-0.63043 -0.02453,-0.0273 0.02783,0.0242 c 0.0153,0.0134 0.02183,0.0234 0.02183,0.0252 0,0.008 -0.0022,0.004 -0.02512,-0.0219 z"
       id="path250"
       sodipodi:nodetypes="csssscsssssscsssssscccssccscsss"
       inkscape:connector-curvature="0" /><path
       style="fill:#a3c2d5;fill-opacity:1;stroke-width:0.0100406"
       d="m -76.337719,130.5828 c -0.01832,-0.005 -0.06556,-0.0368 -0.108936,-0.0751 l -0.07659,-0.0676 0.02157,-0.0361 c 0.06301,-0.10513 0.205079,-0.37696 0.240144,-0.45947 0.0317,-0.0745 0.05238,-0.15388 0.09746,-0.3737 0.06366,-0.31029 0.06473,-0.31303 0.172107,-0.43345 0.165403,-0.1855 0.186379,-0.2472 0.208349,-0.61283 0.0064,-0.10412 0.01985,-0.16723 0.02548,-0.20502 0.003,-0.0291 0.176129,-0.34751 0.176129,-0.39254 0,-0.009 0.0037,-0.0216 0.0065,-0.0216 0.0027,0 0.04686,0.031 0.0956,0.0648 0.04875,0.0337 0.08614,0.065 0.08743,0.066 0.0013,7.7e-4 0.01003,0.0373 0.01903,0.0807 0.03549,0.17139 0.116484,0.26192 0.338533,0.36317 0.116873,0.0532 0.112113,0.0597 0.126346,0.0771 0.0012,0.002 0.01809,0.0248 0.04422,0.0508 0.04082,0.0406 0.05413,0.0541 0.06769,0.12005 0.02056,0.1 0.0053,0.23386 -0.08923,0.3766 -0.04833,0.0729 -0.204369,0.2367 -0.298014,0.31264 l -0.04199,0.0339 0.0087,0.0996 c 0.01824,0.21109 0.005,0.56522 -0.0268,0.71248 -0.02892,0.13429 -0.118171,0.27902 -0.17204,0.27902 -0.01361,0 -0.05539,-0.0152 -0.09281,-0.0337 -0.07834,-0.0388 -0.164148,-0.066 -0.20897,-0.0659 -0.01708,2e-5 -0.05609,0.0147 -0.08669,0.0326 -0.09801,0.0575 -0.157632,0.0777 -0.298456,0.10142 -0.09632,0.0162 -0.181198,0.0183 -0.23469,0.006 z"
       id="path1876"
       sodipodi:nodetypes="sscssssscssssssssssscsssscsss"
       inkscape:connector-curvature="0" /><path
       style="fill:#cce0ed;fill-opacity:1;stroke-width:0.0100406"
       d="m -74.700341,128.73444 c -0.04174,-0.0544 -0.09637,-0.11369 -0.121407,-0.13176 -0.02503,-0.018 -0.120349,-0.0703 -0.2118,-0.11604 -0.236897,-0.11852 -0.301806,-0.18865 -0.339447,-0.36667 -0.0086,-0.0402 -0.01786,-0.0772 -0.02075,-0.0817 -0.0029,-0.005 -0.04496,-0.0356 -0.09349,-0.0688 l -0.08825,-0.0605 -0.0075,0.0355 c -0.01464,0.069 -0.163457,0.39277 -0.175232,0.38116 -0.0025,-0.003 0.02149,-0.13905 0.05316,-0.30369 l 0.05759,-0.29934 0.06439,-0.006 c 0.103497,-0.01 0.18733,-0.034 0.397102,-0.11645 0.20102,-0.079 0.340458,-0.12657 0.347362,-0.1187 0.01133,0.013 0.12278,0.2829 0.167564,0.40592 l 0.05185,0.14246 -0.0027,0.40176 -0.0027,0.40177 z"
       id="path3297"
       sodipodi:nodetypes="sccssccsscccccscccs"
       inkscape:connector-curvature="0" /><path
       style="fill:#cce0ed;fill-opacity:1;stroke:#000000;stroke-width:0.09053636;stroke-dasharray:none;stroke-opacity:1"
       d="m -69.092665,129.84631 c 0,-0.96019 0.0052,-1.2681 0.02214,-1.2834 0.0142,-0.013 0.08692,-0.0202 0.202953,-0.0202 h 0.180811 v 0.74619 c 0,0.41042 0.0065,0.74622 0.01441,0.74622 0.0079,0 0.121819,-0.2191 0.253092,-0.4869 l 0.238675,-0.48689 0.155751,0.005 0.155754,0.005 0.222472,0.49049 c 0.12236,0.26975 0.228975,0.49047 0.23692,0.49047 0.008,0 0.01445,-0.34144 0.01441,-0.75878 l -3.8e-5,-0.75878 0.203896,0.005 c 0.19821,0.005 0.20438,0.006 0.22144,0.0472 0.01051,0.0253 0.01753,0.5382 0.01753,1.28172 v 1.2398 l -0.179893,-2.6e-4 -0.17989,-2.5e-4 -0.34498,-0.68302 c -0.189739,-0.37568 -0.355481,-0.68302 -0.36832,-0.68302 -0.01284,0 -0.17825,0.30562 -0.367587,0.67914 l -0.344248,0.67911 -0.177664,0.005 -0.17766,0.005 z m 2.384593,-0.009 0.0048,-1.27014 0.06721,-0.0201 c 0.03867,-0.0116 0.109904,-0.0161 0.167808,-0.0107 l 0.100609,0.01 0.348802,0.68755 c 0.191839,0.37815 0.357103,0.68525 0.367251,0.68244 0.01015,-0.003 0.175244,-0.31313 0.36688,-0.68962 l 0.348426,-0.68452 h 0.142259 c 0.11439,0 0.148243,0.006 0.172797,0.0306 0.02784,0.0279 0.03053,0.14119 0.03053,1.28279 v 1.25213 h -0.202955 -0.202952 v -0.79931 c 0,-0.4396 -0.0054,-0.79432 -0.01217,-0.78822 -0.0066,0.006 -0.109563,0.21295 -0.228588,0.45972 l -0.216415,0.44867 -0.19661,0.005 -0.19661,0.005 -0.228343,-0.42399 -0.228347,-0.42398 -0.0015,0.75878 -0.0014,0.75877 h -0.203069 -0.203069 z"
       id="path392"
       sodipodi:nodetypes="scscssscccsscccssccccsscccsccsscscscscscccscscccccccccc"
       inkscape:connector-curvature="0" /><path
       style="fill:#cce0ed;fill-opacity:1;stroke:#000000;stroke-width:0.09053636;stroke-dasharray:none;stroke-opacity:1"
       d="m -73.709923,129.85325 c 0,-1.46785 -0.02307,-1.31426 0.19748,-1.31426 0.221737,0 0.199787,-0.14539 0.199787,1.32342 v 1.24728 h -0.198635 -0.198632 z m 0.983161,1.23432 c -0.172675,-0.0494 -0.316044,-0.1794 -0.346906,-0.3145 -0.01216,-0.0532 -0.01623,-0.36235 -0.01311,-0.99321 l 0.0046,-0.9159 0.03668,-0.0677 c 0.04386,-0.0809 0.13028,-0.15499 0.244804,-0.20983 l 0.08398,-0.0403 h 0.413159 c 0.407899,0 0.414131,3.9e-4 0.489903,0.0356 0.09015,0.042 0.176602,0.12414 0.218462,0.20792 0.02256,0.0452 0.02994,0.0941 0.03021,0.20056 l 4.03e-4,0.14081 h -0.190689 -0.190687 l -8.6e-5,-0.0614 c -8.9e-5,-0.10215 -0.02805,-0.16808 -0.08431,-0.19927 -0.0445,-0.0245 -0.0811,-0.0281 -0.300696,-0.0281 l -0.250021,-4e-5 -0.0519,0.0421 -0.05189,0.0421 v 0.89779 0.89776 l 0.05189,0.0422 0.0519,0.0421 0.25003,-1.6e-4 c 0.1677,-1.4e-4 0.263105,-0.006 0.289751,-0.0181 0.05445,-0.0246 0.09529,-0.105 0.09532,-0.18732 l 2.4e-5,-0.0686 h 0.190688 0.190688 v 0.13436 c 0,0.11533 -0.0058,0.14491 -0.0408,0.20877 -0.04494,0.082 -0.115453,0.14501 -0.21787,0.19475 -0.06367,0.031 -0.08651,0.0327 -0.448468,0.0356 -0.29737,0.003 -0.397581,-0.002 -0.454948,-0.018 z m 1.736317,-0.006 c -0.12779,-0.0419 -0.245103,-0.12893 -0.294284,-0.21863 l -0.04159,-0.0759 v -0.96315 -0.96313 l 0.04449,-0.0774 c 0.05182,-0.0902 0.160645,-0.17195 0.28583,-0.21484 0.0779,-0.0267 0.123368,-0.0288 0.623712,-0.0288 h 0.539688 v 0.15165 0.15163 l -0.488641,1.5e-4 c -0.538025,1.5e-4 -0.549079,0.002 -0.595876,0.0867 -0.02406,0.0437 -0.02777,0.0953 -0.02782,0.38612 l -2.2e-5,0.33577 h 0.508499 0.508504 v 0.15165 0.15164 h -0.508504 -0.508499 v 0.35431 c 0,0.38025 0.008,0.42765 0.08132,0.47424 0.0323,0.0207 0.100233,0.0235 0.534017,0.0235 h 0.49702 v 0.15165 0.15163 l -0.536312,-6.3e-4 c -0.488843,-4e-4 -0.543853,-0.003 -0.621535,-0.0283 z"
       id="path394"
       sodipodi:nodetypes="ssscccscssccccscscccccsccccccccccscccscsccccscccssscccccscccccccssscccccc"
       inkscape:connector-curvature="0" /></g></svg>