<?xml version="1.0" encoding="UTF-8" standalone="no"?>
<!-- Created with Inkscape (http://www.inkscape.org/) -->

<svg
   width="12.7mm"
   height="5.291667mm"
   viewBox="0 0 12.699999 5.2916672"
   version="1.1"
   id="svg5"
   xml:space="preserve"
   inkscape:version="1.3-dev (525abead9, 2022-04-19, custom)"
   sodipodi:docname="icewm.svg"
   xmlns:inkscape="http://www.inkscape.org/namespaces/inkscape"
   xmlns:sodipodi="http://sodipodi.sourceforge.net/DTD/sodipodi-0.dtd"
   xmlns="http://www.w3.org/2000/svg"
   xmlns:svg="http://www.w3.org/2000/svg"
   xmlns:rdf="http://www.w3.org/1999/02/22-rdf-syntax-ns#"
   xmlns:cc="http://creativecommons.org/ns#"
   xmlns:dc="http://purl.org/dc/elements/1.1/"><metadata
     id="metadata19"><rdf:RDF><cc:Work
         rdf:about=""><dc:format>image/svg+xml</dc:format><dc:type
           rdf:resource="http://purl.org/dc/dcmitype/StillImage" /><dc:title /></cc:Work></rdf:RDF></metadata><sodipodi:namedview
     id="namedview7"
     pagecolor="#ffffff"
     bordercolor="#666666"
     borderopacity="1.0"
     inkscape:pageshadow="2"
     inkscape:pageopacity="0"
     inkscape:pagecheckerboard="true"
     inkscape:deskcolor="#d1d1d1"
     inkscape:document-units="mm"
     showgrid="false"
     showborder="true"
     inkscape:showpageshadow="true"
     borderlayer="false"
     inkscape:zoom="11.313709"
     inkscape:cx="25.721009"
     inkscape:cy="6.2755727"
     inkscape:window-width="1600"
     inkscape:window-height="1136"
     inkscape:window-x="0"
     inkscape:window-y="0"
     inkscape:window-maximized="1"
     inkscape:current-layer="layer1" /><defs
     id="defs2"><inkscape:path-effect
       effect="powerclip"
       id="path-effect4178"
       is_visible="true"
       lpeversion="1"
       inverse="true"
       flatten="false"
       hide_clip="false"
       message="Use fill-rule evenodd on &lt;b&gt;fill and stroke&lt;/b&gt; dialog if no flatten result after convert clip to paths." /><clipPath
       clipPathUnits="userSpaceOnUse"
       id="clipPath4174"><ellipse
         style="display:none;opacity:1;fill:#008000;fill-opacity:1;stroke-width:0.930452;-inkscape-stroke:none;stop-color:#000000"
         id="ellipse4176"
         cx="33.411034"
         cy="72.276894"
         rx="52.766674"
         ry="105.16649" /></clipPath></defs><g
     inkscape:label="logo"
     inkscape:groupmode="layer"
     id="layer1"
     transform="translate(76.794708,-126.64449)"><path
       style="fill:#000000;stroke-width:0.0135319"
       id="path248"
       d="" /><g
       id="g953"
       transform="matrix(1.0033795,0,0,1.0033795,0.12617275,-0.18190415)"><path
         style="opacity:1;fill:#214478;fill-opacity:1;stroke:none;stroke-width:0.255354px;stroke-linecap:butt;stroke-linejoin:miter;stroke-miterlimit:4;stroke-dasharray:none;stroke-dashoffset:0;stroke-opacity:1"
         d="m -71.513208,127.42444 c 0,0 -0.05689,0.83438 -0.197904,1.21211 -0.314449,0.28154 -0.183331,0.67276 -0.303457,0.97285 -0.150416,0.42152 -0.204911,0.98033 -0.204911,0.98033 0,0 0.360538,0.5553 0.5306,0.66675 0.170061,0.11144 0.484919,0.28314 0.754908,0.34097 0.437326,0.0937 1.341733,-0.003 1.341733,-0.003 l 0.01932,-0.81737 0.0127,-3.42098 c 0,0 -0.0082,-0.36796 -0.271966,-0.49202 -0.302943,-0.14251 -0.316055,-0.14217 -0.607912,-0.13597 -0.311377,-0.002 -0.651783,-0.0149 -0.866829,0.2907 -0.120455,0.1712 -0.18456,0.28013 -0.206307,0.40589 z"
         id="path1942"
         sodipodi:nodetypes="ccccsacccscscc"
         inkscape:connector-curvature="0" /><path
         style="opacity:1;fill:#214478;fill-opacity:1;stroke:none;stroke-width:0.299655px;stroke-linecap:butt;stroke-linejoin:miter;stroke-miterlimit:4;stroke-dasharray:none;stroke-dashoffset:0;stroke-opacity:1"
         d="m -70.568576,127.58618 0.998857,0.0139 0.05975,1.16018 0.207486,-0.65689 0.544458,-0.002 0.307899,0.54375 0.02383,-1.08218 1.55983,0.007 0.609854,1.10928 0.566417,-1.10894 1.085446,-0.006 -0.0028,3.73325 -1.154232,7.8e-4 0.01314,-1.06286 -0.222486,0.44271 -0.521062,-0.003 -0.245029,-0.443 -0.0038,1.05148 -1.669915,0.004 -0.560433,-1.16185 -0.617159,1.16361 -0.939361,-0.0386 z"
         id="path1930"
         sodipodi:nodetypes="ccccccccccccccccccccccc"
         inkscape:connector-curvature="0" /><path
         style="opacity:1;fill:#214478;fill-opacity:1;stroke:none;stroke-width:0.257108px;stroke-linecap:butt;stroke-linejoin:miter;stroke-miterlimit:4;stroke-dasharray:none;stroke-dashoffset:0;stroke-opacity:1"
         d="m -73.173187,127.73879 -0.12844,3.58057 2.459357,0.0113 -0.01625,-0.91379 c 0,0 -0.833577,0.0661 -0.858412,-0.0107 -0.02483,-0.0771 -0.01361,-0.53491 -0.01361,-0.53491 l 0.872996,-5.4e-4 0.02193,-0.92388 -0.837048,0.0267 -0.02985,-0.27403 c 0,0 0.02154,-0.088 0.07444,-0.12182 0.05287,-0.0338 0.761662,0.0195 0.761662,0.0195 l 0.0047,-0.95386 c 0,0 -0.860174,-0.26595 -1.57181,-0.0723 -0.243943,0.0664 -0.739667,0.16776 -0.739667,0.16776 z"
         id="path1841"
         sodipodi:nodetypes="ccccccccccsccscc"
         inkscape:connector-curvature="0" /><path
         style="fill:#214478;fill-opacity:1;stroke:none;stroke-width:0.284447px;stroke-linecap:butt;stroke-linejoin:miter;stroke-opacity:1"
         d="m -76.009787,127.81191 -0.0029,3.51731 2.882853,-0.007 c 0,0 0.17184,-0.11258 0.191153,-0.57682 0.01932,-0.46417 -0.03088,-0.76373 -0.03088,-0.76373 l -0.657765,0.002 c 0,0 0.0124,0.23976 -0.09084,0.326 -0.195765,0.16353 -0.369354,-0.068 -0.369354,-0.068 l -0.0085,-1.4943 c 0.0831,-0.14899 0.217097,-0.17635 0.315626,-0.11526 0.07452,0.0462 0.0597,0.27046 0.0597,0.27046 l 0.760125,-0.001 0.0046,-0.98866 c 0,0 -0.04595,-0.1655 -0.366346,-0.26636 -0.835116,-0.29467 -0.937333,-0.65607 -2.253953,-0.14452 z"
         id="path842"
         sodipodi:nodetypes="cccsccsccscccccc"
         inkscape:connector-curvature="0" /></g><path
       id="path1194"
       style="fill:#000000;fill-opacity:1;stroke-width:0.011684"
       d="m -70.301528,127.09454 c -0.2937,0.21252 -0.884076,0.14632 -0.991885,0.45737 -0.16472,0.59433 -0.0335,1.28041 -0.487708,1.75712 -0.07948,0.50401 -0.24981,0.99467 -0.511489,1.4208 0.606776,0.57917 1.423837,1.1345 2.298759,0.8368 0.153137,-0.64682 0.02003,-1.50599 0.06467,-2.2333 -0.05236,-0.7458 0.198539,-1.6647 -0.342951,-2.25055 z" /><path
       style="fill:#91aebd;fill-opacity:1;stroke-width:0.011684"
       d="m -70.901472,131.53446 c -0.09187,-0.0207 -0.194399,-0.0997 -0.3983,-0.21009 -0.151987,-0.0823 -0.150815,-0.063 -0.256855,-0.12867 -0.026,-0.0161 -0.170271,-0.10489 -0.225016,-0.14562 -0.114498,-0.0852 -0.26476,-0.20777 -0.283923,-0.24403 -0.01212,-0.023 0.233021,0.0708 0.344332,0.0516 0.156826,-0.0271 0.24288,-0.0556 0.326474,-0.10827 0.114195,-0.0719 0.161387,-0.0691 0.35337,0.0209 0.05528,0.0258 0.111985,0.0454 0.126017,0.0434 0.03005,-0.005 0.101258,-0.0969 0.14019,-0.18197 0.04399,-0.0961 0.06297,-0.21265 0.07778,-0.47776 0.0104,-0.18612 0.0108,-0.29903 0.0015,-0.44414 l -0.01241,-0.19457 0.04755,-0.0405 c 0.106931,-0.0912 0.283644,-0.28586 0.338418,-0.37265 0.107388,-0.17016 0.13552,-0.29699 0.09975,-0.44966 -0.01759,-0.0751 -0.02674,-0.0784 -0.07328,-0.12682 -0.06237,-0.065 -0.09102,-0.10397 -1.86e-4,-0.0423 0.03398,0.0232 0.108344,0.0572 0.198311,0.19358 l 0.07648,0.11593 v 1.34277 1.34276 l -0.02587,0.007 c -0.01422,0.004 -0.122937,0.0203 -0.241587,0.0369 -0.242478,0.034 -0.494718,0.0392 -0.612777,0.0126 z m -1.189534,-0.75144 -0.02787,-0.0327 0.03161,0.0289 c 0.01739,0.0159 0.0248,0.0279 0.0248,0.03 0,0.009 -0.0025,0.004 -0.02854,-0.0261 z"
       id="path250"
       sodipodi:nodetypes="csssscsssssscsssssscccssccscsss"
       inkscape:connector-curvature="0" /><path
       style="fill:#a3c2d5;fill-opacity:1;stroke-width:0.011684"
       d="m -71.967065,130.87865 c -0.02081,-0.005 -0.07449,-0.0439 -0.123758,-0.0895 l -0.08701,-0.0805 0.0245,-0.043 c 0.07158,-0.12531 0.232985,-0.44933 0.272821,-0.54768 0.03601,-0.0889 0.0595,-0.18341 0.110723,-0.44542 0.07232,-0.36986 0.07353,-0.37312 0.195527,-0.51666 0.187908,-0.2211 0.211739,-0.29465 0.236698,-0.73045 0.0072,-0.12412 0.02256,-0.19933 0.02895,-0.24438 0.0034,-0.0347 0.200095,-0.41422 0.200095,-0.46789 0,-0.0101 0.0043,-0.0257 0.0073,-0.0257 0.003,0 0.05323,0.0369 0.108615,0.0772 0.05539,0.0402 0.09786,0.0775 0.09934,0.0786 0.0015,9.1e-4 0.0114,0.0444 0.02162,0.0962 0.04032,0.20428 0.132333,0.3122 0.384597,0.43288 0.132776,0.0635 0.127369,0.0711 0.143539,0.0918 0.0014,0.002 0.02054,0.0296 0.05024,0.0606 0.04638,0.0484 0.06149,0.0645 0.0769,0.1431 0.02336,0.11915 0.0061,0.27874 -0.101372,0.44889 -0.05491,0.087 -0.232177,0.28213 -0.338564,0.37265 l -0.0477,0.0405 0.0098,0.11876 c 0.02073,0.25161 0.0056,0.67371 -0.03045,0.84924 -0.03286,0.16007 -0.13425,0.33257 -0.195449,0.33257 -0.01547,0 -0.06292,-0.0181 -0.105442,-0.0402 -0.089,-0.0463 -0.186483,-0.0786 -0.237404,-0.0785 -0.0194,2e-5 -0.06372,0.0175 -0.09848,0.0389 -0.11134,0.0685 -0.179081,0.0926 -0.339067,0.12088 -0.109423,0.0192 -0.205853,0.0219 -0.266625,0.007 z"
       id="path1876"
       sodipodi:nodetypes="sscssssscssssssssssscsssscsss"
       inkscape:connector-curvature="0" /><path
       style="fill:#cce0ed;fill-opacity:1;stroke-width:0.011684"
       d="m -70.106888,128.67549 c -0.04741,-0.0649 -0.109479,-0.13552 -0.137926,-0.15705 -0.02844,-0.0215 -0.136726,-0.0838 -0.240621,-0.13832 -0.26913,-0.14126 -0.342872,-0.22485 -0.385635,-0.43704 -0.0097,-0.048 -0.02029,-0.0919 -0.02357,-0.0973 -0.0032,-0.006 -0.05108,-0.0424 -0.106207,-0.082 l -0.100258,-0.0721 -0.0085,0.0423 c -0.01662,0.0823 -0.185697,0.46816 -0.199075,0.45433 -0.0028,-0.003 0.02441,-0.16575 0.06039,-0.36199 l 0.06543,-0.3568 0.07316,-0.007 c 0.11758,-0.0114 0.212819,-0.0406 0.451135,-0.13881 0.228374,-0.0941 0.386785,-0.15086 0.394628,-0.14148 0.01288,0.0155 0.139487,0.3372 0.190365,0.48383 l 0.05891,0.16982 -0.003,0.47887 -0.003,0.47888 z"
       id="path3297"
       sodipodi:nodetypes="sccssccsscccccscccs"
       inkscape:connector-curvature="0" /><path
       style="fill:#cce0ed;fill-opacity:1;stroke:#000000;stroke-width:0.105355;stroke-dasharray:none;stroke-opacity:1"
       d="m -70.284578,129.73465 c 0,-1.1445 0.006,-1.51152 0.02515,-1.52975 0.01614,-0.0155 0.09875,-0.0241 0.23057,-0.0241 h 0.205413 v 0.88943 c 0,0.4892 0.0073,0.88945 0.01637,0.88945 0.0089,0 0.138396,-0.26116 0.28753,-0.58035 l 0.271153,-0.58037 0.176944,0.005 0.176948,0.005 0.252744,0.58463 c 0.139009,0.32154 0.260131,0.58463 0.269158,0.58463 0.0091,0 0.01641,-0.40699 0.01637,-0.90443 l -4.3e-5,-0.90443 0.23164,0.006 c 0.225182,0.006 0.23219,0.007 0.251571,0.0562 0.01194,0.0301 0.01992,0.64151 0.01992,1.52776 v 1.47777 l -0.204371,-3e-4 -0.204368,-3.1e-4 -0.391922,-0.81412 c -0.215556,-0.44779 -0.403852,-0.81412 -0.418437,-0.81412 -0.01458,0 -0.202505,0.36427 -0.417605,0.80949 l -0.39109,0.80947 -0.201839,0.005 -0.201836,0.005 z m 2.709067,-0.0101 0.0054,-1.51396 0.07636,-0.024 c 0.04393,-0.0137 0.124859,-0.0191 0.190641,-0.0127 l 0.1143,0.0114 0.396263,0.81952 c 0.217944,0.45074 0.405695,0.81679 0.417224,0.81345 0.01154,-0.003 0.199088,-0.37324 0.4168,-0.822 l 0.395837,-0.81592 h 0.161617 c 0.129955,0 0.168414,0.007 0.19631,0.0365 0.03162,0.0333 0.03469,0.16831 0.03469,1.52903 v 1.49248 h -0.230572 -0.230568 v -0.95273 c 0,-0.52399 -0.0062,-0.9468 -0.01382,-0.93953 -0.0075,0.007 -0.124471,0.25383 -0.259693,0.54797 l -0.245863,0.5348 -0.223362,0.005 -0.223363,0.005 -0.259414,-0.50536 -0.259418,-0.50536 -0.0017,0.90442 -0.0016,0.90442 h -0.230701 -0.230701 z"
       id="path392"
       sodipodi:nodetypes="scscssscccsscccssccccsscccsccsscscscscscccscscccccccccc"
       inkscape:connector-curvature="0" /><path
       style="fill:#cce0ed;fill-opacity:1;stroke:#000000;stroke-width:0.105355;stroke-dasharray:none;stroke-opacity:1"
       d="m -75.653055,129.74292 c 0,-1.7496 -0.02621,-1.56653 0.224351,-1.56653 0.251909,0 0.226972,-0.1733 0.226972,1.57745 v 1.48671 h -0.225663 -0.22566 z m 1.116939,1.47125 c -0.19617,-0.0588 -0.359047,-0.21382 -0.394108,-0.37486 -0.01381,-0.0635 -0.01844,-0.43191 -0.0149,-1.18386 l 0.0052,-1.09172 0.04167,-0.0807 c 0.04982,-0.0964 0.148006,-0.18473 0.278115,-0.2501 l 0.09542,-0.048 h 0.469377 c 0.463402,0 0.470483,4.7e-4 0.556565,0.0424 0.102409,0.05 0.200633,0.14796 0.248188,0.24783 0.02562,0.0539 0.03402,0.11221 0.03432,0.23905 l 4.58e-4,0.16784 h -0.216636 -0.216635 l -9.8e-5,-0.0731 c -1e-4,-0.12177 -0.03186,-0.20036 -0.09578,-0.23752 -0.05056,-0.0293 -0.09214,-0.0335 -0.341612,-0.0335 l -0.284042,-4e-5 -0.05896,0.0501 -0.05895,0.0501 v 1.07012 1.0701 l 0.05895,0.0502 0.05896,0.0501 0.284052,-1.9e-4 c 0.190519,-1.6e-4 0.298906,-0.007 0.329178,-0.0216 0.06186,-0.0294 0.108253,-0.12516 0.108286,-0.22329 l 2.7e-5,-0.0818 h 0.216635 0.216635 v 0.16016 c 0,0.13746 -0.0066,0.17272 -0.04635,0.24884 -0.05106,0.0978 -0.131163,0.17285 -0.247515,0.23214 -0.07233,0.0369 -0.09828,0.039 -0.509492,0.0424 -0.337834,0.003 -0.451681,-0.002 -0.516853,-0.0214 z m 1.97258,-0.007 c -0.145178,-0.0499 -0.278454,-0.15369 -0.334326,-0.26061 l -0.04725,-0.0904 v -1.14803 -1.14801 l 0.05055,-0.0923 c 0.05887,-0.1075 0.182505,-0.20494 0.324724,-0.25607 0.0885,-0.0318 0.140154,-0.0343 0.70858,-0.0343 h 0.613124 v 0.18075 0.18075 l -0.555131,1.7e-4 c -0.611234,1.7e-4 -0.623792,0.002 -0.676957,0.10327 -0.02734,0.0521 -0.03155,0.11358 -0.0316,0.46023 l -2.6e-5,0.40024 h 0.577692 0.577695 v 0.18075 0.18075 h -0.577695 -0.577692 v 0.42232 c 0,0.45324 0.0091,0.50973 0.09238,0.56527 0.03669,0.0246 0.113873,0.028 0.606682,0.028 h 0.56465 v 0.18076 0.18074 l -0.609289,-7.5e-4 c -0.555361,-4.9e-4 -0.617856,-0.003 -0.706107,-0.0338 z"
       id="path394"
       sodipodi:nodetypes="ssscccscssccccscscccccsccccccccccscccscsccccscccssscccccscccccccssscccccc"
       inkscape:connector-curvature="0" /></g></svg>
