<?xml version="1.0" encoding="UTF-8" standalone="no"?>
<!-- Created with Inkscape (http://www.inkscape.org/) -->

<svg
   xmlns:dc="http://purl.org/dc/elements/1.1/"
   xmlns:cc="http://creativecommons.org/ns#"
   xmlns:rdf="http://www.w3.org/1999/02/22-rdf-syntax-ns#"
   xmlns:svg="http://www.w3.org/2000/svg"
   xmlns="http://www.w3.org/2000/svg"
   xmlns:sodipodi="http://sodipodi.sourceforge.net/DTD/sodipodi-0.dtd"
   xmlns:inkscape="http://www.inkscape.org/namespaces/inkscape"
   width="32"
   height="32"
   viewBox="0 0 8.4666668 8.4666668"
   version="1.1"
   id="svg5"
   xml:space="preserve"
   inkscape:version="0.92.2 5c3e80d, 2017-08-06"
   sodipodi:docname="icewm-button.svg"><metadata
     id="metadata21"><rdf:RDF><cc:Work
         rdf:about=""><dc:format>image/svg+xml</dc:format><dc:type
           rdf:resource="http://purl.org/dc/dcmitype/StillImage" /><dc:title></dc:title></cc:Work></rdf:RDF></metadata><sodipodi:namedview
     id="namedview7"
     pagecolor="#ffffff"
     bordercolor="#666666"
     borderopacity="1.0"
     inkscape:pageshadow="2"
     inkscape:pageopacity="0"
     inkscape:pagecheckerboard="true"
     inkscape:deskcolor="#d1d1d1"
     inkscape:document-units="mm"
     showgrid="false"
     showborder="true"
     inkscape:showpageshadow="true"
     borderlayer="false"
     inkscape:zoom="16"
     inkscape:cx="9.8878485"
     inkscape:cy="19.863758"
     inkscape:window-width="1352"
     inkscape:window-height="858"
     inkscape:window-x="2732"
     inkscape:window-y="311"
     inkscape:window-maximized="0"
     inkscape:current-layer="layer1"
     showguides="true"
     inkscape:guide-bbox="true"
     units="px" /><defs
     id="defs2"><inkscape:path-effect
       effect="powerclip"
       id="path-effect4178"
       is_visible="true"
       lpeversion="1"
       inverse="true"
       flatten="false"
       hide_clip="false"
       message="Use fill-rule evenodd on &lt;b&gt;fill and stroke&lt;/b&gt; dialog if no flatten result after convert clip to paths." /><clipPath
       clipPathUnits="userSpaceOnUse"
       id="clipPath4174"><ellipse
         style="display:none;opacity:1;fill:#008000;fill-opacity:1;stroke-width:0.93045199"
         id="ellipse4176"
         cx="33.411034"
         cy="72.276894"
         rx="52.766674"
         ry="105.16649" /><path
         id="lpe_path-effect4178"
         style="opacity:1;fill:#008000;fill-opacity:1;stroke-width:0.93045199"
         class="powerclip"
         d="M 8.9359093,-4.8085251 H 140.66266 V 140.45365 H 8.9359093 Z M 86.177708,72.276894 A 52.766674,105.16649 0 0 0 33.411034,-32.889595 52.766674,105.16649 0 0 0 -19.35564,72.276894 52.766674,105.16649 0 0 0 33.411034,177.44338 52.766674,105.16649 0 0 0 86.177708,72.276894 Z"
         inkscape:connector-curvature="0" /></clipPath></defs><g
     inkscape:label="logo"
     inkscape:groupmode="layer"
     id="layer1"
     transform="translate(-4.5490799,-232.14424)"><circle
       style="fill:#214478;fill-opacity:1;stroke-width:0.06768"
       id="circle3912"
       cx="8.7824135"
       cy="236.37758"
       r="4.2333331" /><circle
       style="fill:#cce0ed;fill-opacity:1;stroke-width:0.06733625"
       id="circle3474"
       cx="8.7824135"
       cy="236.37758"
       r="4.2118378" /><circle
       style="fill:#214478;fill-opacity:1;stroke-width:0.064095"
       id="path3420"
       cx="8.7824135"
       cy="236.37758"
       r="4.0090885" /><path
       style="fill:#91aebd;fill-opacity:1;stroke-width:0.01955885"
       d="m 8.4536715,239.84884 c -0.156334,-0.034 -0.330805,-0.16419 -0.67778,-0.34597 -0.258636,-0.1355 -0.25664,-0.10368 -0.437088,-0.21187 -0.04423,-0.0265 -0.289746,-0.17273 -0.382906,-0.23981 -0.194838,-0.14029 -0.450538,-0.34216 -0.483146,-0.40185 -0.02062,-0.0378 0.396526,0.11662 0.585942,0.0849 0.26687,-0.0446 0.413308,-0.0916 0.555558,-0.1783 0.194322,-0.11841 0.274631,-0.11382 0.601324,0.0344 0.09407,0.0427 0.190566,0.0748 0.214444,0.0713 0.05112,-0.007 0.172306,-0.1596 0.238556,-0.29965 0.07484,-0.15822 0.107137,-0.35018 0.132354,-0.78674 0.0177,-0.30649 0.01837,-0.49244 0.0026,-0.73138 l -0.02113,-0.32041 0.08092,-0.0668 c 0.181961,-0.15029 0.482672,-0.47074 0.575881,-0.61366 0.182737,-0.28021 0.230613,-0.48906 0.169737,-0.74046 -0.02992,-0.12357 -0.0455,-0.12897 -0.124685,-0.20883 -0.10614,-0.10705 -0.154898,-0.17124 -3.38e-4,-0.0695 0.05782,0.0381 0.184367,0.0942 0.337462,0.31874 l 0.130136,0.19091 v 2.21119 2.2112 l -0.04401,0.011 c -0.0242,0.006 -0.209201,0.0334 -0.411104,0.0608 -0.412623,0.0559 -0.841856,0.0645 -1.042753,0.0208 z m -2.024213,-1.23744 -0.04742,-0.0538 0.05379,0.0474 c 0.02958,0.0261 0.0422,0.0459 0.0422,0.0494 0,0.0153 -0.0042,0.007 -0.04857,-0.043 z"
       id="path250"
       sodipodi:nodetypes="csssscsssssscsssssscccssccscsss"
       inkscape:connector-curvature="0" /><path
       style="fill:#000000;stroke-width:0.227373"
       id="path248"
       d=""
       inkscape:connector-curvature="0" /><path
       style="fill:#a3c2d5;fill-opacity:1;stroke-width:0.01955885"
       d="m 6.6403655,238.7689 c -0.0354,-0.008 -0.126775,-0.0724 -0.210597,-0.14739 l -0.148061,-0.13251 0.0417,-0.0707 c 0.121798,-0.20635 0.396466,-0.73994 0.464257,-0.9019 0.06127,-0.14638 0.101252,-0.30201 0.188415,-0.73345 0.123052,-0.60908 0.125153,-0.61445 0.332727,-0.85082 0.319758,-0.3641 0.360312,-0.48521 0.402784,-1.20287 0.0121,-0.20439 0.03839,-0.32825 0.04927,-0.40241 0.0059,-0.0572 0.340501,-0.68213 0.340501,-0.7705 0,-0.0165 0.0073,-0.0423 0.01255,-0.0423 0.0053,0 0.09058,0.0608 0.184829,0.12707 0.09425,0.0663 0.166526,0.12778 0.169047,0.12942 0.0025,0.002 0.01939,0.073 0.03679,0.15835 0.06861,0.3364 0.225188,0.51412 0.654463,0.71286 0.225945,0.1046 0.216743,0.11718 0.244256,0.15131 0.0025,0.003 0.03495,0.0488 0.08549,0.0998 0.07893,0.0796 0.104639,0.10625 0.130851,0.23566 0.03974,0.19621 0.01024,0.45899 -0.172502,0.7392 -0.09344,0.14329 -0.395093,0.46459 -0.57613,0.61367 l -0.08117,0.0668 0.01665,0.19559 c 0.03527,0.41432 0.0095,1.1094 -0.05182,1.39846 -0.05593,0.26358 -0.22845,0.54765 -0.332596,0.54765 -0.02632,0 -0.107066,-0.0298 -0.179428,-0.0663 -0.151451,-0.0763 -0.317334,-0.12935 -0.403985,-0.12928 -0.03301,2e-5 -0.108425,0.0289 -0.16759,0.0641 -0.189467,0.11272 -0.304739,0.15248 -0.576987,0.19905 -0.186201,0.0318 -0.350297,0.0359 -0.453713,0.0113 z"
       id="path1876"
       sodipodi:nodetypes="sscssssscssssssssssscsssscsss"
       inkscape:connector-curvature="0" /><path
       style="fill:#cce0ed;fill-opacity:1;stroke-width:0.01955885"
       d="m 9.8058025,235.14087 c -0.08068,-0.10679 -0.186298,-0.22317 -0.234706,-0.25863 -0.04841,-0.0354 -0.232666,-0.13794 -0.409461,-0.22775 -0.457972,-0.23265 -0.583459,-0.37027 -0.656229,-0.71971 -0.01649,-0.0792 -0.03454,-0.15134 -0.04011,-0.16036 -0.0056,-0.009 -0.0869,-0.0698 -0.180731,-0.13511 l -0.170604,-0.11872 -0.01452,0.0696 c -0.02827,0.13548 -0.315998,0.77093 -0.338763,0.74816 -0.0047,-0.005 0.04154,-0.27295 0.102775,-0.59611 l 0.111333,-0.58754 0.124498,-0.0116 c 0.200088,-0.0187 0.362151,-0.0669 0.767691,-0.22859 0.388622,-0.15491 0.658186,-0.24842 0.671531,-0.23297 0.02192,0.0254 0.237366,0.55528 0.323944,0.79675 l 0.100259,0.27963 -0.0051,0.78858 -0.0051,0.78859 z"
       id="path3297"
       inkscape:connector-curvature="0"
       sodipodi:nodetypes="sccccccscscsscccccs" /><path
       inkscape:connector-curvature="0"
       sodipodi:nodetypes="ccccccccccccccccccccccc"
       id="path1930"
       d="m 6.3228025,236.22686 0.8388929,0.0106 0.05018,0.9287 0.1742578,-0.52583 0.4572654,-0.001 0.2585899,0.43527 0.020016,-0.86627 1.3100262,0.007 0.5121885,0.88794 0.4757078,-0.88766 0.911614,-0.004 -0.0024,2.9884 -0.969387,6.2e-4 0.01099,-0.85079 -0.186855,0.35437 -0.4376168,-0.003 -0.205787,-0.3546 -0.0031,0.84167 -1.4024836,0.004 -0.470681,-0.93002 -0.5183229,0.93143 -0.7889245,-0.031 z"
       style="opacity:1;fill:#214478;fill-opacity:1;stroke:none;stroke-width:0.24569587px;stroke-linecap:butt;stroke-linejoin:miter;stroke-miterlimit:4;stroke-dasharray:none;stroke-dashoffset:0;stroke-opacity:1" /><path
       inkscape:connector-curvature="0"
       sodipodi:nodetypes="ccccccccccsccscc"
       id="path1841"
       d="m 8.8902693,233.65729 -0.1078698,2.86617 2.0654965,0.009 -0.01362,-0.73147 c 0,0 -0.700081,0.0529 -0.72094,-0.009 -0.02085,-0.0617 -0.01139,-0.42817 -0.01139,-0.42817 l 0.733188,-4.5e-4 0.01841,-0.73954 -0.702995,0.0213 -0.02506,-0.21935 c 0,0 0.01808,-0.0705 0.06252,-0.0975 0.04441,-0.027 0.639682,0.0158 0.639682,0.0158 l 0.0038,-0.76354 c 0,0 -0.722417,-0.21289 -1.3200868,-0.0579 -0.2048753,0.0532 -0.6212112,0.13431 -0.6212112,0.13431 z"
       style="opacity:1;fill:#214478;fill-opacity:1;stroke:none;stroke-width:0.21081035px;stroke-linecap:butt;stroke-linejoin:miter;stroke-miterlimit:4;stroke-dasharray:none;stroke-dashoffset:0;stroke-opacity:1" /><path
       inkscape:connector-curvature="0"
       sodipodi:nodetypes="cccsccsccscccccc"
       id="path842"
       d="m 6.5079446,233.71582 -0.00246,2.81553 2.4211709,-0.007 c 0,0 0.1443217,-0.0902 0.1605407,-0.46173 0.016233,-0.37156 -0.025932,-0.61136 -0.025932,-0.61136 l -0.5524248,0.001 c 0,0 0.010411,0.19194 -0.076301,0.26096 -0.1644128,0.13086 -0.3102021,-0.0544 -0.3102021,-0.0544 l -0.00714,-1.19616 c 0.069797,-0.1192 0.1823292,-0.14118 0.265079,-0.0923 0.062579,0.037 0.050143,0.21649 0.050143,0.21649 l 0.6383936,-7.7e-4 0.0038,-0.79142 c 0,0 -0.038598,-0.13251 -0.3076775,-0.21321 -0.7013752,-0.23589 -0.7872212,-0.52519 -1.8929874,-0.11577 z"
       style="fill:#214478;fill-opacity:1;stroke:none;stroke-width:0.23322642px;stroke-linecap:butt;stroke-linejoin:miter;stroke-opacity:1" /><path
       style="fill:#cce0ed;fill-opacity:1;stroke:#000000;stroke-width:0.086;stroke-dasharray:none;stroke-opacity:1;stroke-miterlimit:4"
       d="m 6.6545247,237.74201 c 0,-0.91306 0.00495,-1.20586 0.021053,-1.22042 0.013505,-0.0119 0.082653,-0.0192 0.192992,-0.0192 h 0.1719364 v 0.70956 c 0,0.39029 0.00617,0.7096 0.0137,0.7096 0.00751,0 0.1158395,-0.20834 0.2406699,-0.463 l 0.2269606,-0.463 0.1481069,0.004 0.1481101,0.004 0.2115526,0.4664 c 0.1163547,0.25651 0.2177365,0.4664 0.2252917,0.4664 0.00762,0 0.013745,-0.32467 0.0137,-0.72153 l -3.62e-5,-0.72154 0.1938884,0.004 c 0.1884817,0.004 0.1943488,0.007 0.2105715,0.0449 0.00999,0.0241 0.016669,0.51178 0.016669,1.21881 v 1.17895 l -0.1710636,0.001 -0.1710608,-2.4e-4 -0.3280477,-0.64949 c -0.1804264,-0.35724 -0.3380336,-0.6495 -0.3502425,-0.6495 -0.012199,0 -0.1695012,0.29061 -0.3495452,0.6458 l -0.3273521,0.64578 -0.168944,0.004 -0.1689402,0.004 z m 2.2675539,-0.009 0.00456,-1.20778 0.063912,-0.0192 c 0.036772,-0.0106 0.1045095,-0.0152 0.1595718,-0.0106 l 0.095671,0.009 0.3316818,0.65381 c 0.182424,0.35958 0.339576,0.6516 0.349226,0.64894 0.0096,-0.003 0.1666438,-0.29777 0.3488738,-0.65577 l 0.331325,-0.65093 h 0.135274 c 0.108771,0 0.140973,0.007 0.164316,0.0291 0.02648,0.0265 0.02903,0.13431 0.02903,1.21982 v 1.19068 H 10.74253 10.549539 V 238.18 c 0,-0.41803 -0.005,-0.75533 -0.01152,-0.74953 -0.0062,0.007 -0.104188,0.20248 -0.217369,0.43716 l -0.205792,0.42665 -0.1869618,0.004 -0.18696,0.004 -0.217135,-0.40317 -0.2171395,-0.40319 -0.00143,0.72155 -0.00132,0.72153 H 9.1107531 8.9176511 Z"
       id="path392"
       sodipodi:nodetypes="scscssscccsscccssccccsscccsccsscscscscscccscscccccccccc"
       inkscape:connector-curvature="0" /><path
       style="fill:#cce0ed;fill-opacity:1;stroke:#000000;stroke-width:0.086;stroke-dasharray:none;stroke-opacity:1;stroke-miterlimit:4"
       d="m 6.915938,235.05689 c 0,-1.39581 -0.021937,-1.24977 0.1877874,-1.24977 0.2108538,0 0.1899813,-0.1382 0.1899813,1.25847 v 1.18606 H 7.1048208 6.915938 Z m 0.9349061,1.17373 c -0.1641999,-0.047 -0.3005322,-0.17059 -0.3298794,-0.29907 -0.011563,-0.0506 -0.015432,-0.34456 -0.012477,-0.94447 l 0.00437,-0.87093 0.03488,-0.0644 c 0.041707,-0.0768 0.123886,-0.14732 0.2327887,-0.19953 l 0.079857,-0.0383 H 8.253264 c 0.3878788,0 0.3938049,3.9e-4 0.4658578,0.0338 0.085725,0.0399 0.1679342,0.11801 0.2077395,0.19771 0.021452,0.0429 0.028469,0.0894 0.028727,0.19072 l 3.824e-4,0.13386 H 8.7746576 8.5933299 l -8.18e-5,-0.0583 c -8.47e-5,-0.0971 -0.026673,-0.15983 -0.080173,-0.18949 -0.042316,-0.0233 -0.077119,-0.0268 -0.2859374,-0.0268 l -0.2377497,-2e-5 -0.049352,0.0401 -0.049344,0.0401 v 0.85374 0.85369 l 0.049344,0.0401 0.049352,0.0401 0.2377582,-1.5e-4 c 0.1594691,-1.3e-4 0.2501915,-0.007 0.2755296,-0.0172 0.051777,-0.0233 0.090612,-0.0999 0.090642,-0.17812 l 2.27e-5,-0.0652 h 0.1813288 0.1813288 v 0.12769 c 0,0.10967 -0.00552,0.13774 -0.038797,0.19852 -0.042735,0.0779 -0.1097864,0.1379 -0.2071768,0.18519 -0.060546,0.0295 -0.082264,0.0311 -0.4264563,0.0338 -0.2827748,0.003 -0.3780673,-0.001 -0.4326187,-0.0171 z m 1.6510961,-0.007 c -0.121519,-0.0397 -0.233073,-0.12266 -0.2798403,-0.2079 l -0.039549,-0.0722 v -0.91587 -0.91586 l 0.042307,-0.0737 c 0.049277,-0.0857 0.1527603,-0.1635 0.2718013,-0.20429 0.07408,-0.0254 0.117312,-0.0274 0.5930978,-0.0274 h 0.513202 v 0.14418 0.14417 l -0.464659,1.5e-4 c -0.5116178,1.3e-4 -0.5221298,0.001 -0.5666298,0.0824 -0.02288,0.0416 -0.02641,0.0906 -0.02646,0.36716 l -2.1e-5,0.31929 h 0.4835418 0.483545 v 0.14418 0.14417 H 10.028731 9.5451902 v 0.33692 c 0,0.36159 0.0076,0.40666 0.07733,0.45097 0.03072,0.0197 0.09531,0.0223 0.5078058,0.0223 h 0.472627 v 0.14417 0.14418 l -0.50999,-6e-4 c -0.4648498,-3.7e-4 -0.5171598,-0.003 -0.5910288,-0.0269 z"
       id="path394"
       sodipodi:nodetypes="ssscccscssccccscscccccsccccccccccscccscsccccscccssscccccscccccccssscccccc"
       inkscape:connector-curvature="0" /></g><g
     inkscape:groupmode="layer"
     id="layer2"
     inkscape:label="effect"
     transform="translate(0,-126.99999)" /></svg>