/* XPM */
static char * icewm_xpm[] = {
"48 20 167 2",
"  	c None",
". 	c #2E2E2E",
"+ 	c #4F4F4F",
"@ 	c #343434",
"# 	c #1A1A1A",
"$ 	c #444444",
"% 	c #B9B9B9",
"& 	c #EEEEEE",
"* 	c #000000",
"= 	c #848484",
"- 	c #D3D3D3",
"; 	c #9F9F9F",
"> 	c #00131C",
", 	c #003955",
"' 	c #00AAFF",
") 	c #2D2D2D",
"! 	c #353535",
"~ 	c #D4D4D4",
"{ 	c #696969",
"] 	c #171717",
"^ 	c #002538",
"/ 	c #5F5F5F",
"( 	c #E0E0E0",
"_ 	c #0097E2",
": 	c #0084C6",
"< 	c #1B1B1B",
"[ 	c #4E4E4E",
"} 	c #1E1E1E",
"| 	c #323232",
"1 	c #010101",
"2 	c #111111",
"3 	c #C8C8C8",
"4 	c #005E8D",
"5 	c #0071AA",
"6 	c #004B71",
"7 	c #ECECEC",
"8 	c #060606",
"9 	c #BEBEBE",
"0 	c #9E9E9E",
"a 	c #6E6E6E",
"b 	c #E7E7E7",
"c 	c #EDEDED",
"d 	c #BBBBBB",
"e 	c #B1B1B1",
"f 	c #040404",
"g 	c #9D9D9D",
"h 	c #8E8E8E",
"i 	c #A5A5A5",
"j 	c #7F7F7F",
"k 	c #1F1F1F",
"l 	c #303030",
"m 	c #020202",
"n 	c #E3E3E3",
"o 	c #E8E8E8",
"p 	c #C3C3C3",
"q 	c #0589CB",
"r 	c #056392",
"s 	c #666666",
"t 	c #D1D1D1",
"u 	c #747474",
"v 	c #A1A1A1",
"w 	c #6D6D6D",
"x 	c #565656",
"y 	c #7A7A7A",
"z 	c #585858",
"A 	c #0F0F0F",
"B 	c #1C1C1C",
"C 	c #D8D8D8",
"D 	c #E5E5E5",
"E 	c #0D587E",
"F 	c #232323",
"G 	c #313131",
"H 	c #717171",
"I 	c #898989",
"J 	c #AAAAAA",
"K 	c #9B9B9B",
"L 	c #797979",
"M 	c #676767",
"N 	c #6F6F6F",
"O 	c #4D4D4D",
"P 	c #C0C0C0",
"Q 	c #8F8F8F",
"R 	c #CCCCCC",
"S 	c #0C0C0C",
"T 	c #828282",
"U 	c #D5D5D5",
"V 	c #606060",
"W 	c #A8A8A8",
"X 	c #7C7C7C",
"Y 	c #B2B2B2",
"Z 	c #808080",
"` 	c #7E7E7E",
" .	c #646464",
"..	c #4C4C4C",
"+.	c #5B5B5B",
"@.	c #A4A4A4",
"#.	c #A3A3A3",
"$.	c #EBEBEB",
"%.	c #272727",
"&.	c #393939",
"*.	c #929292",
"=.	c #989898",
"-.	c #656565",
";.	c #C1C1C1",
">.	c #888888",
",.	c #5D5D5D",
"'.	c #3B3B3B",
").	c #A7A7A7",
"!.	c #C4C4C4",
"~.	c #ADADAD",
"{.	c #AEAEAE",
"].	c #4B4B4B",
"^.	c #262626",
"/.	c #131313",
"(.	c #0D0D0D",
"_.	c #1D1D1D",
":.	c #363636",
"<.	c #6C6C6C",
"[.	c #707070",
"}.	c #ABABAB",
"|.	c #C6C6C6",
"1.	c #727272",
"2.	c #6A6A6A",
"3.	c #8B8B8B",
"4.	c #8D8D8D",
"5.	c #818181",
"6.	c #5A5A5A",
"7.	c #D2D2D2",
"8.	c #CFCFCF",
"9.	c #525252",
"0.	c #6B6B6B",
"a.	c #757575",
"b.	c #999999",
"c.	c #909090",
"d.	c #919191",
"e.	c #C9C9C9",
"f.	c #CDCDCD",
"g.	c #A2A2A2",
"h.	c #636363",
"i.	c #9A9A9A",
"j.	c #939393",
"k.	c #575757",
"l.	c #DDDDDD",
"m.	c #A6A6A6",
"n.	c #E9E9E9",
"o.	c #0B0B0B",
"p.	c #282828",
"q.	c #878787",
"r.	c #7B7B7B",
"s.	c #A9A9A9",
"t.	c #D7D7D7",
"u.	c #BFBFBF",
"v.	c #D6D6D6",
"w.	c #737373",
"x.	c #959595",
"y.	c #B7B7B7",
"z.	c #777777",
"A.	c #858585",
"B.	c #5E5E5E",
"C.	c #686868",
"D.	c #EAEAEA",
"E.	c #C7C7C7",
"F.	c #BDBDBD",
"G.	c #C5C5C5",
"H.	c #979797",
"I.	c #4A4A4A",
"J.	c #AFAFAF",
"                                                                                                ",
"                                                                                                ",
"                                                                                                ",
"                                                                                                ",
"                                    . + + @   # + + @   # + + # + + + @ $ # + + + #             ",
"                                    . % & & * = & & - * ; & & # & & & ; * + & & & +             ",
"        > , , *                     . ; & & # - & & & @ % & & * & & & & * ; & & & +             ",
"        , ' ' *                     ) ! ~ & { & & & & { & & ; * & & % & # % - & & +         * * ",
"        , ' ' * ] * , , ^ * . * > , , > * ; & & & ; & & & & { * & & ; & + & ; & & +       * / ( ",
"        , ' ' * > _ ' ' ' : ] , ' ' ' ' , < & & ; + & & & & + * & & [ } | 1 * & & +       2 ( 3 ",
"        , ' ' * 4 ' 5 * 4 6 > _ ' 6 6 ' _ < & & { # & & & & * * & 7 8 9 0 a < b c +     @ d ( e ",
"        , ' ' * 5 ' , ] ] ] * ' ' 5 5 5 5 < & & # * % & & % * * c f g h i j + k l m   * g n o p ",
"        , ' ' * 6 ' 5 , _ q > : ' 6 6 5 r + & - * . = & & ; . * 1 s t u v v w x y z A B C - D o ",
"        , ' ' * * 4 ' ' _ E . > : ' ' : > F + @ ]   # + + # 1 G H I J K L ; I M N N O y P Q R b ",
"        * * * *   * * * * ]   . * * * * }               S B T U i V W X L Y Z `  ...+.P @.e #.$.",
"                                                  8 %.&.x % b *.@.=.` -.; ;.>.s ,.'.).).!.~.{.o ",
"                        ].^.. B /.m (.< _.2 _.) :.<.[.I }.& |.>.*.1.h 2.!.3.4.5.6.>.7.K 4.~.8.!.",
"                      ] 9.0.a.X j 5.3.Q *.b.c.c.Q d.e.f.!.7.Z g.e h.+.i >.i.j.2.k.l.m.W  .; n.!.",
"              1 o.p... .<.u ` q.h Q 0 m.Y ).r.0 s.U t.u.v.I L w.r.<.x.y.Q J 4.z.4.U A.>...d C t ",
"            1 u B.h.C.a u L ` j r.Z *.3.A.0 7.D.t E.F.v.b.` Z h.C.}.G.5.e.).; H.E.y N I.O E.!.J."};
