/* XPM */
static char * minimizeO_xpm[] = {
"25 46 56 1",
" 	c #201D1D",
".	c #1C1919",
"+	c #1E1C1C",
"@	c #4E5058",
"#	c #181A1A",
"$	c #171A19",
"%	c #1A1C1C",
"&	c #000214",
"*	c #080E08",
"=	c #7AB7F0",
"-	c #7AB7EF",
";	c #7AB8EF",
">	c #7AB8EE",
",	c #79B7EE",
"'	c #090F09",
")	c #0C0A0C",
"!	c #63A6E2",
"~	c #62A6E2",
"{	c #0D0A0D",
"]	c #0C0B0C",
"^	c #5199DA",
"/	c #0D0B0D",
"(	c #0C0C0C",
"_	c #438DD3",
":	c #0D0C0C",
"<	c #3581CB",
"[	c #0E0C0D",
"}	c #1C69B6",
"|	c #0E0C0E",
"1	c #002F6D",
"2	c #0D0E10",
"3	c #001644",
"4	c #F1FFFF",
"5	c #101215",
"6	c #00154C",
"7	c #171A20",
"8	c #001852",
"9	c #001955",
"0	c #21242B",
"a	c #001A5E",
"b	c #262B35",
"c	c #001C67",
"d	c #001D67",
"e	c #001E67",
"f	c #292F3B",
"g	c #002375",
"h	c #002376",
"i	c #002476",
"j	c #2D3340",
"k	c #003BA9",
"l	c #303745",
"m	c #0054C3",
"n	c #343B49",
"o	c #373E4F",
"p	c #3C4355",
"q	c #313441",
" .++++ .++++ .++++  .++++",
"@@@@@@@@@@@@@@@@@@@@@@@@@",
"#########################",
"$%&&&&&&&&&&&&&&&&&&&&&##",
"*&&======-=====-;>>,,,&&'",
")&!~~~~~~~~~~~~~!!~~~~~&{",
"]&^^^^^^^^^^^^^^^^^^^^^&/",
"(&_____________________&(",
":&<<<<<<<<<<<<<<<<<<<<<&:",
"[&}}}}}}}}}}}}}}}}}}}}}&[",
"|&111111111111111111111&|",
"2&333333444444444333333&2",
"5&666666444444444666666&5",
"7&899999444444444999999&7",
"0&aaaaaaaaaaaaaaaaaaaaa&0",
"b&ccccccccccccccdddeeee&b",
"f&ghhhhhhhhhhhhhhhhiiii&f",
"j&kkkkkkkkkkkkkkkkkkkkk&j",
"l&&mmmmmmmmmmmmmmmmmmm&&l",
"nn&&&&&&&&&&&&&&&&&&&&&nn",
"ooooooooooooooooooooooooo",
"ppppppppppppppppppppppppp",
"qqqqqqqqqqqqqqqqqqqqqqqqq",
" .++++ .+++ .+++ .+ .++++",
"@@@@@@@@@@@@@@@@@@@@@@@@@",
"#########################",
"$%&&&&&&&&&&&&&&&&&&&&&##",
"*&&======-=====-;>>,,,&&'",
")&!~~~~~~~~~~~~~!!~~~~~&{",
"]&^^^^^^^^^^^^^^^^^^^^^&/",
"(&_____________________&(",
":&<<<<<<<<<<<<<<<<<<<<<&:",
"[&}}}}}}}}}}}}}}}}}}}}}&[",
"|&111111111111111111111&|",
"2&333333444444444333333&2",
"5&666666444444444666666&5",
"7&899999444444444999999&7",
"0&aaaaaaaaaaaaaaaaaaaaa&0",
"b&ccccccccccccccdddeeee&b",
"f&ghhhhhhhhhhhhhhhhiiii&f",
"j&kkkkkkkkkkkkkkkkkkkkk&j",
"l&&mmmmmmmmmmmmmmmmmmm&&l",
"nn&&&&&&&&&&&&&&&&&&&&&nn",
"ooooooooooooooooooooooooo",
"ppppppppppppppppppppppppp",
"qqqqqqqqqqqqqqqqqqqqqqqqq"};
