/* XPM */
static char * abs_xpm[] = {
"16 16 6 1",
" 	c None",
".	c #800080",
"+	c #000000",
"@	c #010101",
"#	c #131313",
"$	c #080808",
"                ",
"  .           . ",
"  .           . ",
"  .           . ",
"  .   ++  ++  . ",
"  .  +++++++@ . ",
"  .  #  ++ ++ . ",
"  .     +$    . ",
"  .     +     . ",
"  .    $+     . ",
"  . ++ ++  #  . ",
"  . ++++++++  . ",
"  .  ++  ++   . ",
"  .           . ",
"  .           . ",
"  .           . "};
