/* XPM */
static char * app_48x48_xpm[] = {
"48 48 295 2",
"  	c None",
". 	c #BEBEBE",
"+ 	c #B2B2B2",
"@ 	c #A3A4A7",
"# 	c #A1A2A6",
"$ 	c #A1A2A5",
"% 	c #A9AAAB",
"& 	c #BABABB",
"* 	c #A4A5A8",
"= 	c #B1B2B2",
"- 	c #B9B9B9",
"; 	c #B1B1B2",
"> 	c #727884",
", 	c #586178",
"' 	c #636A7B",
") 	c #A3A3A5",
"! 	c #3B3B3B",
"~ 	c #000000",
"{ 	c #C2C2C3",
"] 	c #7F838C",
"^ 	c #767A85",
"/ 	c #929292",
"( 	c #101010",
"_ 	c #A4A5A7",
": 	c #656C7F",
"< 	c #636E8A",
"[ 	c #677390",
"} 	c #687391",
"| 	c #616C87",
"1 	c #717684",
"2 	c #959595",
"3 	c #0C0C0C",
"4 	c #CECECE",
"5 	c #8D9096",
"6 	c #6A707F",
"7 	c #999A9B",
"8 	c #1E1E1E",
"9 	c #94969B",
"0 	c #5F687F",
"a 	c #6A7694",
"b 	c #7380A1",
"c 	c #7482A3",
"d 	c #7481A3",
"e 	c #6D7999",
"f 	c #5F6982",
"g 	c #82858E",
"h 	c #787878",
"i 	c #010101",
"j 	c #D9D9D9",
"k 	c #9C9DA1",
"l 	c #666D7D",
"m 	c #98999C",
"n 	c #3A3A3A",
"o 	c #B7B7B7",
"p 	c #82868F",
"q 	c #6D7A99",
"r 	c #7785A7",
"s 	c #7A88AA",
"t 	c #7683A4",
"u 	c #5E677E",
"v 	c #93959A",
"w 	c #4F4F4F",
"x 	c #AAABAD",
"y 	c #8D8F95",
"z 	c #5C5C5C",
"A 	c #AFAFB0",
"B 	c #717785",
"C 	c #626D88",
"D 	c #717D9E",
"E 	c #7986A9",
"F 	c #7987AA",
"G 	c #65718E",
"H 	c #646C7E",
"I 	c #9D9EA0",
"J 	c #272727",
"K 	c #B8B8B8",
"L 	c #737885",
"M 	c #80838C",
"N 	c #7C7C7C",
"O 	c #020202",
"P 	c #66718E",
"Q 	c #7381A1",
"R 	c #7A87AA",
"S 	c #717D9D",
"T 	c #626C88",
"U 	c #707684",
"V 	c #0D0D0D",
"W 	c #C3C3C3",
"X 	c #80848D",
"Y 	c #737884",
"Z 	c #919192",
"` 	c #7A88AB",
" .	c #7885A7",
"..	c #5F6983",
"+.	c #CFCFCF",
"@.	c #8E9197",
"#.	c #9A9B9C",
"$.	c #212121",
"%.	c #B6B6B6",
"&.	c #82868E",
"*.	c #6E7A99",
"=.	c #5F687E",
"-.	c #94959A",
";.	c #DADADA",
">.	c #9D9FA2",
",.	c #676D7D",
"'.	c #3D3D3D",
").	c #717784",
"!.	c #7481A2",
"~.	c #66728F",
"{.	c #9E9EA0",
"].	c #ABACAE",
"^.	c #6B7180",
"/.	c #8C8F95",
"(.	c #5E5E5E",
"_.	c #949495",
":.	c #B8B9B9",
"<.	c #747985",
"[.	c #7E828B",
"}.	c #7D7D7D",
"|.	c #030303",
"1.	c #6A7593",
"2.	c #777878",
"3.	c #C5C5C5",
"4.	c #81858E",
"5.	c #717783",
"6.	c #939394",
"7.	c #0E0E0E",
"8.	c #5E6882",
"9.	c #6D7998",
"0.	c #7683A5",
"a.	c #4E4E4E",
"b.	c #D0D0D0",
"c.	c #909298",
"d.	c #69707F",
"e.	c #9B9C9E",
"f.	c #222222",
"g.	c #AEAFAF",
"h.	c #707D9D",
"i.	c #9E9FA1",
"j.	c #DBDBDB",
"k.	c #9E9FA3",
"l.	c #97989C",
"m.	c #3F3F3F",
"n.	c #646C7F",
"o.	c #7987A9",
"p.	c #717E9E",
"q.	c #626D89",
"r.	c #949595",
"s.	c #ACADAE",
"t.	c #8B8D94",
"u.	c #626262",
"v.	c #353535",
"w.	c #B9BABA",
"x.	c #757A86",
"y.	c #7D818B",
"z.	c #818181",
"A.	c #B6B6B7",
"B.	c #5E6982",
"C.	c #737FA0",
"D.	c #64708C",
"E.	c #60687A",
"F.	c #A4A4A5",
"G.	c #A9A9A9",
"H.	c #83868F",
"I.	c #939494",
"J.	c #7684A5",
"K.	c #6C7997",
"L.	c #5F6881",
"M.	c #878A91",
"N.	c #707070",
"O.	c #979797",
"P.	c #919399",
"Q.	c #696F7F",
"R.	c #9B9C9D",
"S.	c #242424",
"T.	c #A4A4A6",
"U.	c #606B85",
"V.	c #797D88",
"W.	c #888889",
"X.	c #9FA0A3",
"Y.	c #656C7C",
"Z.	c #96989C",
"`.	c #424242",
" +	c #6D7382",
".+	c #979899",
"++	c #646464",
"@+	c #ACACAD",
"#+	c #6A7081",
"$+	c #686E7E",
"%+	c #8E8F8F",
"&+	c #BCBDBD",
"*+	c #646B7E",
"=+	c #9B9B9E",
"-+	c #595959",
";+	c #B0B0B1",
">+	c #757A87",
",+	c #606B86",
"'+	c #A3A4A6",
")+	c #656B7C",
"!+	c #939599",
"~+	c #606060",
"{+	c #A8A8A8",
"]+	c #83878F",
"^+	c #B2B3B4",
"/+	c #6E7382",
"(+	c #868990",
"_+	c #737373",
":+	c #949494",
"<+	c #6A7695",
"[+	c #7583A4",
"}+	c #616C88",
"|+	c #959596",
"1+	c #7A7E89",
"2+	c #787D88",
"3+	c #898989",
"4+	c #464646",
"5+	c #AAABAB",
"6+	c #646B7C",
"7+	c #636E8B",
"8+	c #727F9F",
"9+	c #797979",
"0+	c #CACACA",
"a+	c #888B93",
"b+	c #6D7381",
"c+	c #161616",
"d+	c #7E7E7F",
"e+	c #D5D5D5",
"f+	c #676E7E",
"g+	c #2E2E2E",
"h+	c #0F0F0F",
"i+	c #989999",
"j+	c #A5A6A8",
"k+	c #929499",
"l+	c #B3B3B4",
"m+	c #6F7583",
"n+	c #85888F",
"o+	c #707171",
"p+	c #BEBEBF",
"q+	c #7A7F8A",
"r+	c #777C87",
"s+	c #8A8A8B",
"t+	c #070707",
"u+	c #6A7594",
"v+	c #CBCBCB",
"w+	c #898C93",
"x+	c #6C7280",
"y+	c #99999A",
"z+	c #181818",
"A+	c #D6D6D6",
"B+	c #989A9E",
"C+	c #9A9B9D",
"D+	c #313131",
"E+	c #959696",
"F+	c #A5A6A9",
"G+	c #686F7E",
"H+	c #919398",
"I+	c #515151",
"J+	c #B3B4B5",
"K+	c #727273",
"L+	c #C0C0C0",
"M+	c #7C808B",
"N+	c #767B86",
"O+	c #8C8C8D",
"P+	c #090909",
"Q+	c #CBCBCC",
"R+	c #8B8D95",
"S+	c #1A1A1A",
"T+	c #D7D7D7",
"U+	c #999A9E",
"V+	c #333333",
"W+	c #A7A8AA",
"X+	c #909297",
"Y+	c #545454",
"Z+	c #B5B5B6",
"`+	c #767676",
" @	c #677391",
".@	c #C1C1C2",
"+@	c #757A85",
"@@	c #8D8D8E",
"#@	c #0A0A0A",
"$@	c #626A7B",
"%@	c #576177",
"&@	c #586177",
"*@	c #727783",
"=@	c #969696",
"-@	c #CDCDCD",
";@	c #AEAEAF",
">@	c #9E9F9F",
",@	c #9C9DA0",
"'@	c #9B9DA0",
")@	c #9D9EA1",
"!@	c #7B7B7B",
"~@	c #0B0B0B",
"{@	c #171717",
"                                                                                                ",
"                                                                                                ",
"                                                                                                ",
"                                                                                                ",
"        . + @ # # # # # $ %                                                     & * = -         ",
"          ; > , , , , , , ' ) ! ~                                             { ] ^ / ( ~ ~ ~   ",
"            _ : < [ } } [ | 1 2 3 ~                                         4 5 6 7 8 ~ ~ ~ ~ ~ ",
"              9 0 a b c d e f g h i ~                                     j k l m n ~ ~ ~ ~ ~   ",
"              o p f q r s t a u v w ~ ~                                   x 6 y z ~ ~ ~ ~ ~     ",
"                A B C D E F b G H I J ~                                 K L M N O ~ ~ ~ ~       ",
"                  _ : P Q R E S T U 2 V ~                             W X Y Z 3 ~ ~ ~ ~ ~       ",
"                    9 0 a t `  .q ..g h i ~                         +.@.6 #.$.~ ~ ~ ~ ~         ",
"                    %.&...*. .` t a =.-.w ~ ~                     ;.>.,.m '.~ ~ ~ ~ ~           ",
"                      A ).C S E R !.~.: {.J ~                     ].^./.(.~ ~ ~ ~ ~             ",
"                        _ : ~.Q R E S C 1 _.V ~                 :.<.[.}.|.~ ~ ~ ~               ",
"                          9 =.1.t `  .q ..g 2.i ~             3.4.5.6.7.~ ~ ~ ~ ~               ",
"                          o p 8.9.r ` 0.a 0 v a.~ ~         b.c.d.e.f.~ ~ ~ ~ ~                 ",
"                            g.).T h.E F b P : i.J ~       j.k.,.l.m.~ ~ ~ ~ ~                   ",
"                              _ n.P b F o.p.q.1 r.V ~     s.^.t.u.~ ~ ~ ~ ~                     ",
"                                9 0 a t ` r q ..g h i v.w.x.y.z.|.~ ~ ~ ~                       ",
"                                A.g B.q r F C.D.E.F.m.G.H.5.I.( ~ ~ ~ ~ ~                       ",
"                                  A 1 T h.J.K.L.M.N.O.P.Q.R.S.~ ~ ~ ~ ~                         ",
"                                    T.n.P *.U.V.W.N X.Y.Z.`.~ ~ ~ ~ ~                           ",
"                                      9 u C  +.+++@+#+$+%+i ~ ~ ~ ~                             ",
"                                      &+^.*+=+-+;+>+,+u v w ~ ~ ~                               ",
"                                      '+)+!+~+{+]+..9.P n.I J ~ ~                               ",
"                                    ^+/+(+_+:+v 0 <+[+h.}+U |+3 ~                               ",
"                                  . 1+2+3+4+5+6+7+8+o.r q B.4.9+i ~                             ",
"                                0+a+b+.+c+O d+g f q r ` t a 0 v a.~ ~                           ",
"                              e+Z.f+e.g+~ ~ h+i+B q.p.o.F b P n.i.J ~                           ",
"                              j+$+k+w ~ ~ ~ ~ g+_ : P b R E h.C 1 |+3 ~                         ",
"                            l+m+n+o+i ~ ~ ~ ~     9 0 a 0.` r e B.g 9+~ ~                       ",
"                          p+q+r+s+t+~ ~ ~ ~ ~     A.p ..q  .` t u+u v w ~ ~                     ",
"                        v+w+x+y+z+~ ~ ~ ~ ~         g.).C S E R Q ~.: I J ~                     ",
"                      A+B+f+C+D+~ ~ ~ ~ ~             T.: ~.!.R E S C 1 E+3 ~                   ",
"                      F+G+H+I+~ ~ ~ ~ ~                 9 =.1.t `  .*...4.9+i ~                 ",
"                    J+m+H.K+i ~ ~ ~ ~                   o p ..q  .` t a 0 v a.~ ~               ",
"                  L+M+N+O+P+~ ~ ~ ~ ~                     A 1 T S E R Q ~.: {.J ~               ",
"                Q+R+x+y+S+~ ~ ~ ~ ~                         T.H G b F E D q.B E+3 ~             ",
"              T+U+f+e.V+~ ~ ~ ~ ~                             9 =.a t s r q f g 9+i ~           ",
"              W+G+X+Y+~ ~ ~ ~ ~                               o p f e c c b a 0 v w ~ ~         ",
"            Z+1 &.`+i ~ ~ ~ ~                                   g.).| [ } }  @< : I J ~         ",
"          .@[.+@@@#@~ ~ ~ ~ ~                                     T.$@%@, , , , &@*@=@3 ~       ",
"        -@;@X.>@S+~ ~ ~ ~ ~                                         '+,@'@'@'@'@'@)@@+!@i ~     ",
"              ~@~ ~ ~ ~ ~                                           {@7.7.7.7.7.7.7.7.7.i ~ ~   ",
"            ~ ~ ~ ~ ~ ~                                               ~ ~ ~ ~ ~ ~ ~ ~ ~ ~ ~ ~   ",
"            ~ ~ ~ ~ ~                                                   ~ ~ ~ ~ ~ ~ ~ ~ ~ ~ ~ ~ ",
"                                                                                                "};
