/* XPM */
static char * app_32x32_xpm[] = {
"32 32 141 2",
"  	c None",
". 	c #B2B2B3",
"+ 	c #757A87",
"@ 	c #697082",
"# 	c #697081",
"$ 	c #999B9F",
"% 	c #B8B8BA",
"& 	c #7F828C",
"* 	c #868686",
"= 	c #999BA0",
"- 	c #626B84",
"; 	c #6A7694",
"> 	c #6B7796",
", 	c #676F83",
"' 	c #797A7B",
") 	c #020202",
"! 	c #C6C6C7",
"~ 	c #797D89",
"{ 	c #848689",
"] 	c #0D0D0D",
"^ 	c #000000",
"/ 	c #878A93",
"( 	c #65708D",
"_ 	c #7683A4",
": 	c #7885A8",
"< 	c #737988",
"[ 	c #575757",
"} 	c #868A92",
"| 	c #86898F",
"1 	c #212121",
"2 	c #B3B3B4",
"3 	c #747A89",
"4 	c #6B7695",
"5 	c #7886A8",
"6 	c #7684A5",
"7 	c #65708C",
"8 	c #848790",
"9 	c #2F2F2F",
"0 	c #989BA0",
"a 	c #80838D",
"b 	c #3E3E3E",
"c 	c #A8A9AB",
"d 	c #676F84",
"e 	c #6F7C9C",
"f 	c #7987AA",
"g 	c #7380A1",
"h 	c #636D86",
"i 	c #898A8F",
"j 	c #111111",
"k 	c #A9ABAE",
"l 	c #757A86",
"m 	c #5E5E5E",
"n 	c #7381A1",
"o 	c #6F7C9B",
"p 	c #7A7A7C",
"q 	c #B9BABB",
"r 	c #747985",
"s 	c #77787A",
"t 	c #030303",
"u 	c #7684A6",
"v 	c #6A7695",
"w 	c #C7C7C8",
"x 	c #797E89",
"y 	c #85878A",
"z 	c #0F0F0F",
"A 	c #B4B4B4",
"B 	c #65718D",
"C 	c #878B93",
"D 	c #868990",
"E 	c #242424",
"F 	c #888A8E",
"G 	c #9A9CA1",
"H 	c #7E828C",
"I 	c #404040",
"J 	c #ABACAF",
"K 	c #616161",
"L 	c #7885A7",
"M 	c #677390",
"N 	c #525252",
"O 	c #939495",
"P 	c #747986",
"Q 	c #040404",
"R 	c #B3B4B4",
"S 	c #747A88",
"T 	c #727F9F",
"U 	c #646D85",
"V 	c #8A8A8A",
"W 	c #7A7F8A",
"X 	c #86878B",
"Y 	c #101010",
"Z 	c #636D88",
"` 	c #7B7B7B",
" .	c #878B94",
"..	c #353535",
"+.	c #7F838D",
"@.	c #7D828D",
"#.	c #747474",
"$.	c #97999E",
"%.	c #636D87",
"&.	c #666E83",
"*.	c #AAABAE",
"=.	c #767A86",
"-.	c #797979",
";.	c #9B9C9F",
">.	c #656E84",
",.	c #717E9E",
"'.	c #565757",
").	c #78797A",
"!.	c #585858",
"~.	c #7D818C",
"{.	c #66728F",
"].	c #7785A7",
"^.	c #848890",
"/.	c #C7C7C7",
"(.	c #7D7E7F",
"_.	c #888B94",
":.	c #161616",
"<.	c #848891",
"[.	c #BABABC",
"}.	c #797A7C",
"|.	c #C8C8C9",
"1.	c #86888B",
"2.	c #898C95",
"3.	c #262626",
"4.	c #6B7795",
"5.	c #9B9DA2",
"6.	c #434343",
"7.	c #ACADB0",
"8.	c #636364",
"9.	c #C0C0C1",
"0.	c #7F828B",
"a.	c #7A7B7D",
"b.	c #050505",
"c.	c #686E7F",
"d.	c #676E80",
"e.	c #7F7F7F",
"f.	c #767676",
"g.	c #464646",
"h.	c #444444",
"i.	c #454545",
"j.	c #131313",
"                                                                ",
"                                                                ",
"                                                                ",
"      . + @ @ @ # $                                 % & *       ",
"        = - ; > ; , ' )                           ! ~ { ] ^ ^ ^ ",
"          / ( _ : ; < [ ^                         } | 1 ^ ^ ^   ",
"          2 3 4 5 6 7 8 9 ^                     0 a b ^ ^ ^     ",
"            c d e f g h i j ^                 k l m ^ ^ ^       ",
"              $ h n f o d p )               q r s t ^ ^ ^       ",
"                / ( u 5 v < [ ^           w x y z ^ ^ ^         ",
"                A < ; 5 u B 8 9 ^         C D E ^ ^ ^           ",
"                  c , o f g h F j ^     G H I ^ ^ ^             ",
"                    = h g f e d ' )   J l K ^ ^ ^               ",
"                      / 7 6 L M x N O P p Q ^ ^ ^               ",
"                      R S ; T U y V W X Y ^ ^ ^                 ",
"                        c , Z D `  .W ..^ ^ ^                   ",
"                          +.@.#.$.%.&.' ) ^                     ",
"                        *.=.-.;.>.,.; < '.^                     ",
"                      q r ).!.~.{.].6 7 ^.9 ^                   ",
"                    /.x y z t (.d e f g h F j ^                 ",
"                    _.D E ^ ^ :.= h g f o , ' )                 ",
"                  G & I ^ ^ ^     / B u 5 ; < [ ^               ",
"                J l K ^ ^ ^       R S v 5 u B <.9 ^             ",
"              [.r }.Q ^ ^ ^         c d o f n h F j ^           ",
"            |.W 1.Y ^ ^ ^             = h g f e d ' )           ",
"            2.| 3.^ ^ ^                 / 7 6 5 4.S [ ^         ",
"          5.H 6.^ ^ ^                   R S ; : _ ( <.9 ^       ",
"        7.l 8.^ ^ ^                       c d ; > ; - i j ^     ",
"      9.0.a.b.^ ^ ^                         = c.d.d.d.r e.)     ",
"        f.Y ^ ^ ^                             g.h.h.h.h.i.j.^   ",
"        ^ ^ ^ ^                                 ^ ^ ^ ^ ^ ^ ^ ^ ",
"                                                                "};
