/* XPM */
static char * book_xpm[] = {
"16 16 40 1",
" 	c None",
".	c #000000",
"+	c #3E8A89",
"@	c #328381",
"#	c #63A19F",
"$	c #599A99",
"%	c #49918F",
"&	c #3A8886",
"*	c #2C7F7E",
"=	c #72AAA9",
"-	c #7AAFAE",
";	c #529695",
">	c #408B8A",
",	c #318281",
"'	c #227978",
")	c #A3C7C7",
"!	c #80B2B1",
"~	c #8BB9B8",
"{	c #67A3A2",
"]	c #559897",
"^	c #428D8B",
"/	c #237A78",
"(	c #14716F",
"_	c #001E1D",
":	c #13706E",
"<	c #036765",
"[	c #207876",
"}	c #1E7775",
"|	c #0F6E6C",
"1	c #026664",
"2	c #267C7A",
"3	c #187371",
"4	c #0A6B69",
"5	c #297E7C",
"6	c #1D7675",
"7	c #FFFFFF",
"8	c #C9C9C9",
"9	c #B2D0D0",
"0	c #92BDBC",
"a	c #8D8D8D",
"                ",
"        ..      ",
"      ..+@.     ",
"    ..#$%&*.    ",
"  ..=-=#;>,'.   ",
" .)!-~-{]^@/(.  ",
" ._)!-=#;>,':<. ",
" .[_)!#$%&*}|11.",
" .1[_)!%+@234.. ",
"  .1[_)!@56..78 ",
"   .1[_90..778a.",
"    .1[_.778a.. ",
"     .1.78a..   ",
"      ..a..     ",
"       ..       ",
"                "};
