/* XPM */
static char * dict_xpm[] = {
"16 16 14 1",
" 	c None",
".	c #000000",
"+	c #FFFFFF",
"@	c #808080",
"#	c #808000",
"$	c #FF0000",
"%	c #800000",
"&	c #00FF00",
"*	c #008000",
"=	c #0000FF",
"-	c #000080",
";	c #FFFF00",
">	c #C0C0C0",
",	c #00FFFF",
"                ",
"  .+.++@++@+..  ",
" .+.++@++@+.#.  ",
" $%.&*=-.;###.  ",
" $%.&*=-.;###.  ",
" $%.&*=-.;###.  ",
" $%.&*=-.;###.  ",
" $%.&*=-.;>>..  ",
" $%.&*=.,;>>+.  ",
" $%.&*=>&,>+>>. ",
" $%.&*=>>&#>>>. ",
" $%.&*=>>>#;>>. ",
" $%.&*=.>>>;,.. ",
" ........>>&..  ",
"         ....   ",
"                "};
