/* XPM */
static char * emelfm_xpm[] = {
"16 16 84 1",
" 	c None",
".	c #020202",
"+	c #404000",
"@	c #141414",
"#	c #FFFFC0",
"$	c #FFFF00",
"%	c #808000",
"&	c #3E3E3E",
"*	c #FFFFFF",
"=	c #E9E9E9",
"-	c #484848",
";	c #727272",
">	c #003D5A",
",	c #757575",
"'	c #A4A4A4",
")	c #CBCBCB",
"!	c #E4E4E4",
"~	c #82C3D9",
"{	c #0873A5",
"]	c #003C5B",
"^	c #464646",
"/	c #D3EDF6",
"(	c #85C4D9",
"_	c #0770A1",
":	c #4F4F4F",
"<	c #56B0CD",
"[	c #72B9D4",
"}	c #91C9DB",
"|	c #C1E1ED",
"1	c #79BFD6",
"2	c #3F3F3F",
"3	c #2B2B2B",
"4	c #127FB1",
"5	c #0787B6",
"6	c #38A2C5",
"7	c #58AECD",
"8	c #70B8D3",
"9	c #0B5482",
"0	c #0E5C8D",
"a	c #0F6698",
"b	c #1175A4",
"c	c #127CAD",
"d	c #404040",
"e	c #81A0B0",
"f	c #286C8F",
"g	c #0E5E91",
"h	c #0F6596",
"i	c #1172A4",
"j	c #57A1C0",
"k	c #D5D5D5",
"l	c #D7D7D7",
"m	c #CBC9C8",
"n	c #88A6B5",
"o	c #276C8C",
"p	c #276892",
"q	c #D1D1D1",
"r	c #CCCCCC",
"s	c #C5C5C5",
"t	c #BFBFBF",
"u	c #C1BEBE",
"v	c #6E6D6D",
"w	c #454545",
"x	c #C0C0C0",
"y	c #CECECE",
"z	c #CACACA",
"A	c #C6C6C6",
"B	c #BBBBBB",
"C	c #B6B6B6",
"D	c #AEAEAE",
"E	c #323232",
"F	c #606060",
"G	c #AFAFAF",
"H	c #B5B5B5",
"I	c #B0B0B0",
"J	c #AAAAAA",
"K	c #6C6B6B",
"L	c #2E2E2E",
"M	c #585858",
"N	c #9D9D9D",
"O	c #A7A7A7",
"P	c #6A6969",
"Q	c #393939",
"R	c #292929",
"S	c #3A3835",
"    .+++        ",
"   @+#$$%       ",
"  &+*#$+=-.-;.  ",
"  +*#$+>,')!==. ",
" +*#$+%%~{],')=^",
"+##$$$$$$%/(_>,:",
" ++%##$$+<[}|/12",
"  3+*#$+455678|2",
"  +*#$+90abc558d",
" +*#$%%%ef9ghijd",
"+##$$$$$klmno9pd",
" ++%#$+%qrstsuvw",
"   %$+xyzAxBCDv^",
"  %$+ .EFGBHIJKw",
" +$+     .LMNOPQ",
" ++         .RS "};
