/* XPM */
static char * find_xpm[] = {
"16 16 9 1",
" 	c None",
".	c #000000",
"+	c #DCDCDC",
"@	c #C3C3C3",
"#	c #A0A0A0",
"$	c #800000",
"%	c #FFFFFF",
"&	c #FF8000",
"*	c #C05800",
"     ...        ",
"   ..#@#..      ",
"  .#@@+@@#.     ",
" .#@+%%++@#.    ",
" .@+%+++++@.    ",
".#@%++++++@#.   ",
".@+%+++++@+@.   ",
".#@++++++@@#.   ",
" .@+++++@+@.    ",
" .#@++@@+@#.    ",
"  .#@@+@@#.$.   ",
"   ..#@#..$&$.  ",
"     ...  .$&$. ",
"           .$*$.",
"            .$. ",
"             .  "};
