/* XPM */
static char * ftp_xpm[] = {
"16 16 149 2",
"  	c None",
". 	c #020202",
"+ 	c #484848",
"@ 	c #141414",
"# 	c #CBCBCB",
"$ 	c #E9E9E9",
"% 	c #2F2F2F",
"& 	c #3E3E3E",
"* 	c #006B9E",
"= 	c #003D5A",
"- 	c #757575",
"; 	c #A4A4A4",
"> 	c #727272",
", 	c #282828",
"' 	c #C1E1ED",
") 	c #D3EDF6",
"! 	c #79BFD6",
"~ 	c #E4E4E4",
"{ 	c #202121",
"] 	c #3CB9ED",
"^ 	c #3AA3C5",
"/ 	c #77BCD6",
"( 	c #82C3D9",
"_ 	c #0873A5",
": 	c #003C5B",
"< 	c #464646",
"[ 	c #1E1E1E",
"} 	c #19AFEE",
"| 	c #39629B",
"1 	c #1C3E65",
"2 	c #436471",
"3 	c #8C908F",
"4 	c #81C2D8",
"5 	c #85C4D9",
"6 	c #0770A1",
"7 	c #4F4F4F",
"8 	c #376EA9",
"9 	c #837640",
"0 	c #F2D271",
"a 	c #9EAE95",
"b 	c #4F86C7",
"c 	c #56B0CD",
"d 	c #72B9D4",
"e 	c #91C9DB",
"f 	c #3F3F3F",
"g 	c #B8C9B8",
"h 	c #FEE0BF",
"i 	c #F0E6C1",
"j 	c #D3C286",
"k 	c #B0B168",
"l 	c #6C8179",
"m 	c #26529B",
"n 	c #152C42",
"o 	c #0787B6",
"p 	c #38A2C5",
"q 	c #58AECD",
"r 	c #70B8D3",
"s 	c #255082",
"t 	c #E7E1C6",
"u 	c #FFF5EA",
"v 	c #EEDEAB",
"w 	c #E4D081",
"x 	c #B89A53",
"y 	c #4D789C",
"z 	c #2E5CAD",
"A 	c #1F3C6E",
"B 	c #657281",
"C 	c #127CAD",
"D 	c #404040",
"E 	c #4A84BE",
"F 	c #E6DDCB",
"G 	c #FFF0E5",
"H 	c #F7D186",
"I 	c #DCBC6F",
"J 	c #4D78A9",
"K 	c #417ACE",
"L 	c #3363B3",
"M 	c #21427D",
"N 	c #152C43",
"O 	c #0E5E91",
"P 	c #0F6596",
"Q 	c #1172A4",
"R 	c #57A1C0",
"S 	c #26395F",
"T 	c #80ABDA",
"U 	c #6F90AB",
"V 	c #F2D795",
"W 	c #7C9B9A",
"X 	c #89A2B5",
"Y 	c #518EDF",
"Z 	c #457DD0",
"` 	c #2F60B0",
" .	c #1E407C",
"..	c #88A6B5",
"+.	c #276C8C",
"@.	c #0B5482",
"#.	c #276892",
"$.	c #223859",
"%.	c #5086C7",
"&.	c #76A9DD",
"*.	c #6F97B8",
"=.	c #DABA6F",
"-.	c #5884BE",
";.	c #4E7BA6",
">.	c #3A6EB9",
",.	c #2551A6",
"'.	c #1E3656",
").	c #BFBFBF",
"!.	c #C5C5C5",
"~.	c #C1BEBE",
"{.	c #6E6D6D",
"].	c #454545",
"^.	c #2A588C",
"/.	c #588FD4",
"(.	c #63A0DA",
"_.	c #498ED4",
":.	c #D5B76E",
"<.	c #A9984A",
"[.	c #575854",
"}.	c #1E3D64",
"|.	c #232C3E",
"1.	c #656F7C",
"2.	c #BBBBBB",
"3.	c #B6B6B6",
"4.	c #AEAEAE",
"5.	c #172944",
"6.	c #3D74A4",
"7.	c #4276BC",
"8.	c #3972CC",
"9.	c #AE9637",
"0.	c #5E5831",
"a.	c #27313C",
"b.	c #B5B5B5",
"c.	c #B0B0B0",
"d.	c #AAAAAA",
"e.	c #6C6B6B",
"f.	c #2E5C8A",
"g.	c #405256",
"h.	c #484837",
"i.	c #374231",
"j.	c #2E2E2E",
"k.	c #585858",
"l.	c #9D9D9D",
"m.	c #A7A7A7",
"n.	c #6A6969",
"o.	c #393939",
"p.	c #5C5A50",
"q.	c #292929",
"r.	c #3A3835",
"        . +                     ",
"      @ # $ + + %               ",
"    & * = - ; # $ + . + > .     ",
"    , ' ) ! * = - ; # ~ $ $ .   ",
"    { ] ^ / ' ) ( _ : - ; # $ < ",
"    [ } | 1 2 3 4 ' ) 5 6 = - 7 ",
"    8 9 0 a b | 1 c d e ' ) ! f ",
"  8 g h i j k l m n o p q r ' f ",
"  s t u v w x y z A B C o o r D ",
"s E F G H I J K L M N O P Q R D ",
"S T U V W X Y Z `  .n ..+.@.#.D ",
"$.%.&.*.=.-.;.>.,.'.n ).!.~.{.].",
"  ^./.(._.:.<.[.}.|.1.2.3.4.{.< ",
"  5.6.7.8.9.9 0.a.n 2.b.c.d.e.].",
"    n }.f.g.h.i.n . j.k.l.m.n.o.",
"        n n n p.        . q.r.  "};
