/* XPM */
static char * gimp_xpm[] = {
"16 16 6 1",
" 	c None",
".	c #000000",
"+	c #808080",
"@	c #585858",
"#	c #FFFFFF",
"$	c #C3C3C3",
"                ",
"                ",
".           .   ",
"..         .    ",
".+.      ...    ",
".++......++.    ",
" .++++++#+#.    ",
" .@@+++#.#.   . ",
"  .@@++$#$#.... ",
"  .@@++++++++.. ",
"   .@@+.@@@@@.. ",
"    .@@@..@..   ",
"     ......     ",
"                ",
"                ",
"                "};
