/* XPM */
static char * kdevelop_xpm[] = {
"16 16 138 2",
"  	c None",
". 	c #658B5B",
"+ 	c #54784A",
"@ 	c #527E47",
"# 	c #598E4A",
"$ 	c #80A377",
"% 	c #82A278",
"& 	c #98C28D",
"* 	c #90BD84",
"= 	c #80B371",
"- 	c #70AB60",
"; 	c #4C7A40",
"> 	c #3E6E32",
", 	c #8DB084",
"' 	c #ADCFA4",
") 	c #B4D3AA",
"! 	c #A0C796",
"~ 	c #7DB36E",
"{ 	c #6AA857",
"] 	c #548D45",
"^ 	c #3B752B",
"/ 	c #7B9D72",
"( 	c #ACCEA3",
"_ 	c #BFDAB9",
": 	c #C9DFC4",
"< 	c #99C38E",
"[ 	c #85B778",
"} 	c #6EAB5E",
"| 	c #5D964D",
"1 	c #438232",
"2 	c #286418",
"3 	c #8AAD80",
"4 	c #D1E4CD",
"5 	c #F4F4F4",
"6 	c #F3F7F3",
"7 	c #F1F6EF",
"8 	c #D4E5CF",
"9 	c #71AC61",
"0 	c #5E984F",
"a 	c #448633",
"b 	c #2B6A1A",
"c 	c #BAD6B2",
"d 	c #F1F6F0",
"e 	c #F8FAF7",
"f 	c #F5F9F4",
"g 	c #F2F6F0",
"h 	c #C3CAC1",
"i 	c #9FA79D",
"j 	c #85B877",
"k 	c #438732",
"l 	c #317B1D",
"m 	c #236511",
"n 	c #59814E",
"o 	c #8BB77F",
"p 	c #D8E8D4",
"q 	c #EBF0EA",
"r 	c #F1F6F1",
"s 	c #999D98",
"t 	c #878B86",
"u 	c #888D86",
"v 	c #C0C8BD",
"w 	c #BCD7B5",
"x 	c #579247",
"y 	c #41852F",
"z 	c #2F7A1B",
"A 	c #205B10",
"B 	c #508542",
"C 	c #7BAE6B",
"D 	c #E9F0E6",
"E 	c #939692",
"F 	c #888D87",
"G 	c #898D88",
"H 	c #858A83",
"I 	c #8D938C",
"J 	c #EFF4EE",
"K 	c #E9F1E7",
"L 	c #508D40",
"M 	c #3B8328",
"N 	c #2A7815",
"O 	c #18470C",
"P 	c #569046",
"Q 	c #69A55A",
"R 	c #E8F1E6",
"S 	c #F3F7F2",
"T 	c #878C85",
"U 	c #838981",
"V 	c #9FA59D",
"W 	c #F2F7F1",
"X 	c #E5EEE2",
"Y 	c #458833",
"Z 	c #327D1E",
"` 	c #287314",
" .	c #17430B",
"..	c #528645",
"+.	c #BDD8B5",
"@.	c #EFF5EE",
"#.	c #F4F8F3",
"$.	c #8B9189",
"%.	c #878E85",
"&.	c #F5F8F4",
"*.	c #F0F5EE",
"=.	c #AECBA7",
"-.	c #377F24",
";.	c #2B7816",
">.	c #19480C",
",.	c #3F7531",
"'.	c #699A5D",
").	c #DDE9DA",
"!.	c #EEF4EC",
"~.	c #868C84",
"{.	c #EDF3EB",
"].	c #D7E4D3",
"^.	c #579347",
"/.	c #297715",
"(.	c #287214",
"_.	c #153D0A",
":.	c #356C26",
"<.	c #609553",
"[.	c #ACC8A6",
"}.	c #DAE7D7",
"|.	c #D1E0CD",
"1.	c #A9C7A2",
"2.	c #529141",
"3.	c #287613",
"4.	c #246A12",
"5.	c #16410B",
"6.	c #286518",
"7.	c #286319",
"8.	c #2F771C",
"9.	c #2B7118",
"0.	c #277213",
"a.	c #246A11",
"b.	c #1B4E0D",
"c.	c #153E0A",
"d.	c #1F5910",
"e.	c #1A4A0E",
"f.	c #19490D",
"g.	c #153C0A",
"                                ",
"            . + @ #             ",
"        $ % & * = - ; >         ",
"      , ' ) ' ! * ~ { ] ^       ",
"    / ( _ : _ ' < [ } | 1 2     ",
"    3 ) 4 5 6 7 8 & 9 0 a b     ",
"  . & c d e f g h i j | k l m   ",
"  n o p q r s t u v w x y z A   ",
"  B C D E F G H I J K L M N O   ",
"  P Q R S T T U V W X Y Z `  .  ",
"    ..+.@.#.$.%.&.*.=.-.;.>.    ",
"    ,.'.).d !.~.{.].^./.(._.    ",
"      :.<.[.}.|.1.2.3.4.5.      ",
"        6.7.8.9.0.a.b.c.        ",
"            d.e.f.g.            ",
"                                "};
