/* XPM */
static char * kfm_xpm[] = {
"16 16 95 2",
"  	c None",
". 	c #3A3A3A",
"+ 	c #141414",
"@ 	c #282828",
"# 	c #000000",
"$ 	c #606060",
"% 	c #C0C0C0",
"& 	c #9B9B9B",
"* 	c #363636",
"= 	c #555555",
"- 	c #B0B0B0",
"; 	c #939393",
"> 	c #818181",
", 	c #262626",
"' 	c #312928",
") 	c #464646",
"! 	c #898989",
"~ 	c #5C5C5C",
"{ 	c #5A5A5A",
"] 	c #5F5F5F",
"^ 	c #242424",
"/ 	c #545454",
"( 	c #727272",
"_ 	c #666666",
": 	c #AAAAAA",
"< 	c #9D9D9D",
"[ 	c #656565",
"} 	c #515151",
"| 	c #212121",
"1 	c #696969",
"2 	c #BDBDBD",
"3 	c #E8E8E8",
"4 	c #B5B5B5",
"5 	c #686868",
"6 	c #4F4F4F",
"7 	c #202020",
"8 	c #636363",
"9 	c #F0F0F0",
"0 	c #F9F9F9",
"a 	c #E6E6E6",
"b 	c #B2B2B2",
"c 	c #646464",
"d 	c #4C4C4C",
"e 	c #4A4A4A",
"f 	c #6D6D6D",
"g 	c #B8B8B8",
"h 	c #F8F8F8",
"i 	c #F7F7F7",
"j 	c #616161",
"k 	c #494949",
"l 	c #1B1B1B",
"m 	c #DDDDDD",
"n 	c #D0BBB2",
"o 	c #946B43",
"p 	c #692608",
"q 	c #DBDBDB",
"r 	c #8B8B8B",
"s 	c #39302F",
"t 	c #3F0602",
"u 	c #2A2929",
"v 	c #A2A2A2",
"w 	c #DFDFDF",
"x 	c #F0DED2",
"y 	c #DFBBA0",
"z 	c #E2E2E2",
"A 	c #979797",
"B 	c #303030",
"C 	c #A9A9A9",
"D 	c #E1E1E1",
"E 	c #E3C5AE",
"F 	c #D46300",
"G 	c #6B2401",
"H 	c #E3E1E1",
"I 	c #A5A5A5",
"J 	c #292929",
"K 	c #87592B",
"L 	c #DFA473",
"M 	c #BF5500",
"N 	c #A8A8A8",
"O 	c #7C4713",
"P 	c #DD9358",
"Q 	c #794410",
"R 	c #D5782C",
"S 	c #AE4900",
"T 	c #9F9F9F",
"U 	c #D3D3D3",
"V 	c #D7D7D7",
"W 	c #612900",
"X 	c #AF4600",
"Y 	c #9E3F00",
"Z 	c #4E1D0B",
"` 	c #D5D3D3",
" .	c #353535",
"..	c #343232",
"+.	c #353130",
"              . +               ",
"      @ #   $ % & *             ",
"      @ # = % - ; > ,           ",
"      ' ) % ! ~ { ] > ^         ",
"      / % ( _ : < [ } > |       ",
"    = % ( 1 2 3 3 4 5 6 > 7     ",
"  $ % ( 8 2 9 0 0 a b c d > |   ",
"e % f 8 g 9 h h h i 9 b j k > l ",
"  @ , < m 0 n o p n 0 q r s t   ",
"    u v w 0 o x y p 0 z A B     ",
"    . C D 0 o E F G 0 H I J     ",
"    . C D 0 K L M G 0 H N J     ",
"    . C D 0 O P M G 0 H C J     ",
"    . C D 0 Q R S G 0 H N J     ",
"    . T U V W X Y Z V ` T J     ",
"      .  ...J J J J +. .J @     "};
