/* XPM */
static char * kformula_xpm[] = {
"16 16 10 1",
" 	c None",
".	c #323232",
"+	c #BE00BE",
"@	c #B300B3",
"#	c #000000",
"$	c #A500A5",
"%	c #8D008D",
"&	c #641964",
"*	c #730073",
"=	c #460046",
"     .........  ",
"    .+++++++++. ",
"    .+........+.",
"    .+.       . ",
"    .@.  .###.  ",
" .. .@.    #    ",
".@. .@.  .###.  ",
".$$..$.         ",
" .$..$. %%%%%%% ",
" .%%.%.         ",
"  .%%%.  .# #.  ",
"  .&**.   # #   ",
"   .**.   # #   ",
"   .==.  . #    ",
"    ..    ##    ",
"                "};
