/* XPM */
static char * khelpcenter_xpm[] = {
"16 16 111 2",
"  	c None",
". 	c #565656",
"+ 	c #4C4C4C",
"@ 	c #AC0000",
"# 	c #9A0303",
"$ 	c #891A1A",
"% 	c #FCFCFC",
"& 	c #C55454",
"* 	c #E5AAAA",
"= 	c #DB9A9A",
"- 	c #840F0F",
"; 	c #820B0B",
"> 	c #FFFFFF",
", 	c #FDFDFD",
"' 	c #E8E8E8",
") 	c #EFEFEF",
"! 	c #9E0000",
"~ 	c #A90000",
"{ 	c #C14A4A",
"] 	c #CE6F6F",
"^ 	c #7B0808",
"/ 	c #AB0E0E",
"( 	c #BF4242",
"_ 	c #F8F8F8",
": 	c #D8D5D5",
"< 	c #8D8D8D",
"[ 	c #353535",
"} 	c #470000",
"| 	c #620101",
"1 	c #7F0000",
"2 	c #9C0000",
"3 	c #9F9F9F",
"4 	c #373636",
"5 	c #D98C8C",
"6 	c #A70C0C",
"7 	c #847373",
"8 	c #343434",
"9 	c #600101",
"0 	c #927575",
"a 	c #F8F7F7",
"b 	c #E4E4E4",
"c 	c #313030",
"d 	c #A42929",
"e 	c #EDC4C4",
"f 	c #C05959",
"g 	c #6F0000",
"h 	c #430000",
"i 	c #555454",
"j 	c #DEDEDE",
"k 	c #BABABA",
"l 	c #960000",
"m 	c #DB9090",
"n 	c #960B0B",
"o 	c #585858",
"p 	c #FEFEFE",
"q 	c #D7D7D7",
"r 	c #363535",
"s 	c #840000",
"t 	c #BD4242",
"u 	c #6E0000",
"v 	c #330000",
"w 	c #6E0505",
"x 	c #CF7272",
"y 	c #A90202",
"z 	c #4F0000",
"A 	c #3D3D3D",
"B 	c #D6D6D6",
"C 	c #393939",
"D 	c #DCA3A3",
"E 	c #890000",
"F 	c #3D0000",
"G 	c #A2A2A2",
"H 	c #423B3B",
"I 	c #820707",
"J 	c #BC5353",
"K 	c #6A0000",
"L 	c #390000",
"M 	c #3F3F3F",
"N 	c #FBFBFB",
"O 	c #E5E5E5",
"P 	c #967777",
"Q 	c #6E0707",
"R 	c #525151",
"S 	c #967979",
"T 	c #C35C5C",
"U 	c #991414",
"V 	c #4E0000",
"W 	c #404040",
"X 	c #C34E4E",
"Y 	c #E29797",
"Z 	c #800A0A",
"` 	c #7D1212",
" .	c #545454",
"..	c #BCBCBC",
"+.	c #F7F6F6",
"@.	c #630000",
"#.	c #280000",
"$.	c #590606",
"%.	c #7B0000",
"&.	c #A71212",
"*.	c #C76262",
"=.	c #ECC0C0",
"-.	c #C76666",
";.	c #F2F2F2",
">.	c #E7E7E7",
",.	c #111111",
"'.	c #5A0000",
").	c #8B0C0C",
"!.	c #9B2C2C",
"~.	c #9A9A9A",
"{.	c #C5C5C5",
"                                ",
"            . + @ # $           ",
"        . . % % & * = - ;       ",
"      ; > , ' ) ! ~ { ] @ ^     ",
"    / ( _ : < [ } | 1 2 , 3 4   ",
"    & 5 6 7 8       9 0 a b c   ",
"  d e f g h           i j _ k 4 ",
"  l m n h               o p q r ",
"  s t u v               w x y z ",
"  A , B C               ^ D E F ",
"  A p , G H           I e J K L ",
"    M N O P Q       R S T U V   ",
"    W , > X Y Z `  ...+.) @.#.  ",
"      $.%.&.*.=.-.% ;.>.3 ,.    ",
"        z '.K ).!.~.{.,.,.      ",
"            z #.#.,.,.          "};
