/* XPM */
static char * kivio_xpm[] = {
"16 16 257 2",
"  	c None",
". 	c #AA0707",
"+ 	c #B6B906",
"@ 	c #0B057B",
"# 	c #FCFDDF",
"$ 	c #740000",
"% 	c #F8FB00",
"& 	c #630000",
"* 	c #0A0287",
"= 	c #0A02A1",
"- 	c #07007E",
"; 	c #0A019B",
"> 	c #070084",
", 	c #040054",
"' 	c #B60000",
") 	c #140D92",
"! 	c #7C0000",
"~ 	c #9D0909",
"{ 	c #9FA100",
"] 	c #06006D",
"^ 	c #A3A500",
"/ 	c #0D0592",
"( 	c #9A0000",
"_ 	c #0E05A2",
": 	c #8E0303",
"< 	c #CE1C1C",
"[ 	c #28219F",
"} 	c #060072",
"| 	c #160E9B",
"1 	c #C10303",
"2 	c #8A0101",
"3 	c #130C84",
"4 	c #690000",
"5 	c #08008E",
"6 	c #09018A",
"7 	c #050061",
"8 	c #F7FA01",
"9 	c #F5F800",
"0 	c #737400",
"a 	c #80820C",
"b 	c #D4D573",
"c 	c #F4F5B9",
"d 	c #D5D672",
"e 	c #898B00",
"f 	c #D9DC00",
"g 	c #F3F628",
"h 	c #CB0909",
"i 	c #F5F80C",
"j 	c #1F18A0",
"k 	c #130BA5",
"l 	c #251CB2",
"m 	c #C72828",
"n 	c #DC2A2A",
"o 	c #F3F500",
"p 	c #D8DA06",
"q 	c #2C25A4",
"r 	c #DFE200",
"s 	c #1911A3",
"t 	c #C01C1C",
"u 	c #EE3939",
"v 	c #2D25B9",
"w 	c #FF5858",
"x 	c #C5C65C",
"y 	c #AEA6FF",
"z 	c #AAAC02",
"A 	c #F9FABA",
"B 	c #B31414",
"C 	c #1911A8",
"D 	c #C80000",
"E 	c #9C9E00",
"F 	c #999B00",
"G 	c #0D068C",
"H 	c #AFB102",
"I 	c #8F9000",
"J 	c #C1C30B",
"K 	c #04004F",
"L 	c #F1F308",
"M 	c #D5D812",
"N 	c #EAED05",
"O 	c #AFA8FF",
"P 	c #EAED01",
"Q 	c #E23E3E",
"R 	c #F2F504",
"S 	c #F6F7B9",
"T 	c #1F17AD",
"U 	c #D5D816",
"V 	c #BCB5FF",
"W 	c #9E0101",
"X 	c #850101",
"Y 	c #B7BA38",
"Z 	c #FDFEDF",
"` 	c #848500",
" .	c #960000",
"..	c #F6F900",
"+.	c #D11414",
"@.	c #D7D903",
"#.	c #DCDE72",
"$.	c #6F67EF",
"%.	c #5A52E0",
"&.	c #A29AFF",
"*.	c #08026F",
"=.	c #040058",
"-.	c #FD5656",
";.	c #433BBF",
">.	c #8E8F0F",
",.	c #C4C60B",
"'.	c #DBDC5D",
").	c #F7FA02",
"!.	c #F6F902",
"~.	c #C0C212",
"{.	c #C6C901",
"].	c #E7E974",
"^.	c #EDF002",
"/.	c #FD4949",
"(.	c #E1E300",
"_.	c #93940F",
":.	c #949500",
"<.	c #F5F806",
"[.	c #5D55DD",
"}.	c #8D86FF",
"|.	c #EDEF76",
"1.	c #EDEF17",
"2.	c #E1E273",
"3.	c #5049CD",
"4.	c #4D45D2",
"5.	c #4E47CB",
"6.	c #A3A40C",
"7.	c #F9FC00",
"8.	c #FFFFFF",
"9.	c #808080",
"0.	c #818181",
"a.	c #828282",
"b.	c #838383",
"c.	c #848484",
"d.	c #858585",
"e.	c #868686",
"f.	c #878787",
"g.	c #888888",
"h.	c #898989",
"i.	c #8A8A8A",
"j.	c #8B8B8B",
"k.	c #8C8C8C",
"l.	c #8D8D8D",
"m.	c #8E8E8E",
"n.	c #8F8F8F",
"o.	c #909090",
"p.	c #919191",
"q.	c #929292",
"r.	c #939393",
"s.	c #949494",
"t.	c #959595",
"u.	c #969696",
"v.	c #979797",
"w.	c #989898",
"x.	c #999999",
"y.	c #9A9A9A",
"z.	c #9B9B9B",
"A.	c #9C9C9C",
"B.	c #9D9D9D",
"C.	c #9E9E9E",
"D.	c #9F9F9F",
"E.	c #A0A0A0",
"F.	c #A1A1A1",
"G.	c #A2A2A2",
"H.	c #A3A3A3",
"I.	c #A4A4A4",
"J.	c #A5A5A5",
"K.	c #A6A6A6",
"L.	c #A7A7A7",
"M.	c #A8A8A8",
"N.	c #A9A9A9",
"O.	c #AAAAAA",
"P.	c #ABABAB",
"Q.	c #ACACAC",
"R.	c #ADADAD",
"S.	c #AEAEAE",
"T.	c #AFAFAF",
"U.	c #B0B0B0",
"V.	c #B1B1B1",
"W.	c #B2B2B2",
"X.	c #B3B3B3",
"Y.	c #B4B4B4",
"Z.	c #B5B5B5",
"`.	c #B6B6B6",
" +	c #B7B7B7",
".+	c #B8B8B8",
"++	c #B9B9B9",
"@+	c #BABABA",
"#+	c #BBBBBB",
"$+	c #BCBCBC",
"%+	c #BDBDBD",
"&+	c #BEBEBE",
"*+	c #BFBFBF",
"=+	c #C0C0C0",
"-+	c #C1C1C1",
";+	c #C2C2C2",
">+	c #C3C3C3",
",+	c #C4C4C4",
"'+	c #C5C5C5",
")+	c #C6C6C6",
"!+	c #C7C7C7",
"~+	c #C8C8C8",
"{+	c #C9C9C9",
"]+	c #CACACA",
"^+	c #CBCBCB",
"/+	c #CCCCCC",
"(+	c #CDCDCD",
"_+	c #CECECE",
":+	c #CFCFCF",
"<+	c #D0D0D0",
"[+	c #D1D1D1",
"}+	c #D2D2D2",
"|+	c #D3D3D3",
"1+	c #D4D4D4",
"2+	c #D5D5D5",
"3+	c #D6D6D6",
"4+	c #D7D7D7",
"5+	c #D8D8D8",
"6+	c #D9D9D9",
"7+	c #DADADA",
"8+	c #DBDBDB",
"9+	c #DCDCDC",
"0+	c #DDDDDD",
"a+	c #DEDEDE",
"b+	c #DFDFDF",
"c+	c #E0E0E0",
"d+	c #E1E1E1",
"e+	c #E2E2E2",
"f+	c #E3E3E3",
"g+	c #E4E4E4",
"h+	c #E5E5E5",
"i+	c #E6E6E6",
"j+	c #E7E7E7",
"k+	c #E8E8E8",
"l+	c #E9E9E9",
"m+	c #EAEAEA",
"n+	c #EBEBEB",
"o+	c #ECECEC",
"p+	c #EDEDED",
"q+	c #EEEEEE",
"r+	c #EFEFEF",
"s+	c #F0F0F0",
"t+	c #F1F1F1",
"u+	c #F2F2F2",
"v+	c #F3F3F3",
"w+	c #F4F4F4",
"x+	c #F5F5F5",
"y+	c #F6F6F6",
"z+	c #F7F7F7",
"A+	c #F8F8F8",
"B+	c #F9F9F9",
"C+	c #FAFAFA",
"D+	c #FBFBFB",
"E+	c #FCFCFC",
"F+	c #FDFDFD",
"G+	c #FEFEFE",
"H+	c #FFFFFF",
"O V }.3.[ 3 @ > 6   ,.          ",
"&.y %.s / - } }   U ,.~.        ",
"$.[._ = > =.=.  1.M J + H       ",
";.j ; > , K   <.R N p + z ^     ",
"[ G > , K   ).% % 9 ^.@.z { 6.  ",
") 6 ] ,   8 7.7.7.7...P {.E :.  ",
"/ 5 }   !.7.7.7.7.7.% o f F I Y ",
"; ;   i 8 7.7.7.7.7.7.9 (.^ e _.",
"=   g L 8 7.7.7.7.7.7.9 r { ` >.",
"k =   < n u /.w -.Q m B . W  .( ",
"v C )   B t < +.h h 1 ' ( ! $ d ",
"4.l | @   ~ ~ . 1 D ' 2 4 4 a   ",
"5.T _ * *.  : : 2 ( $ & & 0     ",
"q | = ; - ]   X ! $ 4 & 0       ",
"3 @ > 5 > - -   ! $ 4 a         ",
"@ ] 7 7 ] - > 5   !             "};
