/* XPM */
static char * konqueror_xpm[] = {
"16 16 141 2",
"  	c None",
". 	c #594E37",
"+ 	c #594D33",
"@ 	c #234C80",
"# 	c #264F81",
"$ 	c #594D34",
"% 	c #A87A2B",
"& 	c #DDBC6D",
"* 	c #D2CDA0",
"= 	c #6192D4",
"- 	c #3574AE",
"; 	c #21497B",
"> 	c #0B3059",
", 	c #185AA5",
"' 	c #F6D08C",
") 	c #F2E8BB",
"! 	c #F0EDC7",
"~ 	c #CBD0BD",
"{ 	c #729195",
"] 	c #ADBA67",
"^ 	c #3D6CB0",
"/ 	c #10499F",
"( 	c #13365E",
"_ 	c #1C5DA6",
": 	c #B3C9BC",
"< 	c #FFE8CA",
"[ 	c #FFF6ED",
"} 	c #EFE8CC",
"| 	c #E4D083",
"1 	c #B6B475",
"2 	c #B4A945",
"3 	c #52768D",
"4 	c #1758BA",
"5 	c #103D89",
"6 	c #133861",
"7 	c #1F477B",
"8 	c #E2E3C1",
"9 	c #FAF0E3",
"0 	c #EEDEB6",
"a 	c #E8D483",
"b 	c #D2B65B",
"c 	c #7E785E",
"d 	c #3476B2",
"e 	c #1D5BC3",
"f 	c #0F43A1",
"g 	c #19324F",
"h 	c #264E80",
"i 	c #3F8BCA",
"j 	c #E2D8B9",
"k 	c #FFF4EB",
"l 	c #FFEBD3",
"m 	c #F2CF7E",
"n 	c #EFCA74",
"o 	c #3077E6",
"p 	c #2B78E0",
"q 	c #215EC5",
"r 	c #1448A8",
"s 	c #213852",
"t 	c #2D2A18",
"u 	c #244C7D",
"v 	c #569AE8",
"w 	c #88A0AF",
"x 	c #FFECCD",
"y 	c #EDD09B",
"z 	c #6387A2",
"A 	c #877E69",
"B 	c #518DD1",
"C 	c #3B89EA",
"D 	c #3480E6",
"E 	c #2164C7",
"F 	c #1348B7",
"G 	c #1D395B",
"H 	c #332F1B",
"I 	c #244C7E",
"J 	c #5A9CEA",
"K 	c #80B7EE",
"L 	c #DAC75B",
"M 	c #86AC86",
"N 	c #4B91E4",
"O 	c #4189E4",
"P 	c #337CE2",
"Q 	c #2B74D8",
"R 	c #1757C0",
"S 	c #103F97",
"T 	c #17335A",
"U 	c #232A3C",
"V 	c #28527F",
"W 	c #5798E2",
"X 	c #6EADED",
"Y 	c #6C9EAD",
"Z 	c #AFB663",
"` 	c #577DA9",
" .	c #476A7E",
"..	c #356DA2",
"+.	c #2563C0",
"@.	c #114FB6",
"#.	c #143C7A",
"$.	c #1A2E49",
"%.	c #192631",
"&.	c #103258",
"*.	c #5399E9",
"=.	c #6FAEED",
"-.	c #4C9EEC",
";.	c #3496F2",
">.	c #9E9B68",
",.	c #B9A843",
"'.	c #8B7C49",
").	c #49515B",
"!.	c #123D74",
"~.	c #1D3551",
"{.	c #000000",
"].	c #143A6A",
"^.	c #175CAA",
"/.	c #377ECF",
"(.	c #397CD9",
"_.	c #1C6AD8",
":.	c #BF992F",
"<.	c #9F9246",
"[.	c #7A6B3E",
"}.	c #685C32",
"|.	c #20324B",
"1.	c #202F48",
"2.	c #184874",
"3.	c #15559D",
"4.	c #2264AE",
"5.	c #10519D",
"6.	c #777245",
"7.	c #7B7540",
"8.	c #584C35",
"9.	c #444E34",
"0.	c #292B2A",
"a.	c #143858",
"b.	c #12355D",
"c.	c #1B466D",
"d.	c #1E3E5B",
"e.	c #364834",
"f.	c #393F30",
"g.	c #303422",
"h.	c #212C2F",
"i.	c #21271F",
"j.	c #262F1A",
"                                ",
"            . + @ #             ",
"        $ % & * = - ; >         ",
"      , ' ) ! ~ { ] ^ / (       ",
"    _ : < [ } | 1 2 3 4 5 6     ",
"    7 8 [ 9 0 a b c d e f g     ",
"  h i j k l m n c o p q r s t   ",
"  u v w x y z A B C D E F G H   ",
"  I J K w L M N O P Q R S T U   ",
"  V W X X Y Z `  ...+.@.#.$.%.  ",
"    &.*.=.-.;.>.,.'.).!.~.{.    ",
"    ].^./.(._.:.<.[.}.|.1.{.    ",
"      2.3.4.5.6.7.8.9.0.{.      ",
"        a.b.c.d.e.f.g.{.        ",
"            h.i.j.{.            ",
"                                "};
