/* XPM */
static char * kpresenter_xpm[] = {
"16 16 17 1",
" 	c None",
".	c #000000",
"+	c #C000C0",
"@	c #FF0000",
"#	c #00FFFF",
"$	c #C0C000",
"%	c #008080",
"&	c #00C0C0",
"*	c #FFFF00",
"=	c #FFFFFF",
"-	c #008000",
";	c #00FF00",
">	c #DCDCDC",
",	c #A0A0A0",
"'	c #0000FF",
")	c #000080",
"!	c #004000",
"                ",
"                ",
"     .......    ",
"  ...+++.@#...  ",
"  .$$..##@%&.$. ",
"  ...###@*@%.$. ",
" ..###@@*=*@@.. ",
".##-#;.>@*@#%.. ",
".##-;.>,.@-#%&. ",
" .#;.').-@;-%%. ",
" .#.').;;-!!##. ",
"  .').;-!!##... ",
" .').;!!##....  ",
".>,.#!##..      ",
".,..##..        ",
"..  ..          "};
