/* XPM */
static char * kugar_xpm[] = {
"16 16 124 2",
"  	c None",
". 	c #6F6146",
"+ 	c #806F50",
"@ 	c #90826C",
"# 	c #9B8C6B",
"$ 	c #948058",
"% 	c #A99876",
"& 	c #A4936F",
"* 	c #A38D66",
"= 	c #A5957D",
"- 	c #BFB38E",
"; 	c #735310",
"> 	c #876D4A",
", 	c #CEB892",
"' 	c #AC9363",
") 	c #8C733B",
"! 	c #BEAB7B",
"~ 	c #B39660",
"{ 	c #AE9F88",
"] 	c #C6B79B",
"^ 	c #A08957",
"/ 	c #897550",
"( 	c #66553B",
"_ 	c #B9A573",
": 	c #DAC592",
"< 	c #89714C",
"[ 	c #775F34",
"} 	c #947941",
"| 	c #B1935A",
"1 	c #B89A61",
"2 	c #BB9E6B",
"3 	c #C1B293",
"4 	c #E6D9B5",
"5 	c #9B8960",
"6 	c #9A8A75",
"7 	c #8C7A59",
"8 	c #BFB37D",
"9 	c #8D7D63",
"0 	c #755C2A",
"a 	c #B99F62",
"b 	c #C1A163",
"c 	c #77694A",
"d 	c #AC997A",
"e 	c #AC9868",
"f 	c #E1DFC3",
"g 	c #EAE6C0",
"h 	c #E4D9A3",
"i 	c #8D7559",
"j 	c #967A38",
"k 	c #D1AD6B",
"l 	c #CAAC76",
"m 	c #C7A76C",
"n 	c #B49D72",
"o 	c #B49D6C",
"p 	c #FEFEE1",
"q 	c #DED8BF",
"r 	c #F8F6DC",
"s 	c #FFFFD9",
"t 	c #FCFAC4",
"u 	c #EFE3AB",
"v 	c #CCB681",
"w 	c #E7C27E",
"x 	c #CDAC6C",
"y 	c #9F8348",
"z 	c #BEA46B",
"A 	c #947336",
"B 	c #7E6434",
"C 	c #FFFFCE",
"D 	c #FFFDBD",
"E 	c #FFF0A9",
"F 	c #FDDD96",
"G 	c #846C42",
"H 	c #BB9B5F",
"I 	c #584B31",
"J 	c #90764A",
"K 	c #C6AE72",
"L 	c #D8B778",
"M 	c #A08A58",
"N 	c #BE9E60",
"O 	c #B9A67C",
"P 	c #8B6D2A",
"Q 	c #F5DAA0",
"R 	c #ECD799",
"S 	c #A8834B",
"T 	c #896235",
"U 	c #835D2D",
"V 	c #D8B36E",
"W 	c #EECB84",
"X 	c #977935",
"Y 	c #9B7A31",
"Z 	c #E7C78E",
"` 	c #DDBB78",
" .	c #A37E44",
"..	c #A17C54",
"+.	c #F7CF80",
"@.	c #F4D494",
"#.	c #E7BF78",
"$.	c #C0A677",
"%.	c #A4794A",
"&.	c #AA845B",
"*.	c #906E49",
"=.	c #6F5229",
"-.	c #CAA460",
";.	c #FFD685",
">.	c #F5CF7D",
",.	c #EAC279",
"'.	c #BB9C64",
").	c #9D7943",
"!.	c #AB8155",
"~.	c #9B713C",
"{.	c #A4835A",
"].	c #9A7C5E",
"^.	c #6B4F23",
"/.	c #ECC87F",
"(.	c #B49866",
"_.	c #93713C",
":.	c #AC9177",
"<.	c #8F7857",
"[.	c #80673E",
"}.	c #B18E4D",
"|.	c #907A51",
"1.	c #CFB16F",
"2.	c #BC9B60",
"3.	c #DAB772",
"          . . . . . +           ",
"      @ # $ # % & $ # * *       ",
"    = = - ; > , , ' ) ! ' ~     ",
"  { { ] ^ / ( _ : < [ } | 1 2   ",
"  = 3 4 5 6 7 8 ! 6 9 0 a b b   ",
"c d e 4 f 9 6 g h i 9 j k l l m ",
"( n 0 o p q r s t u v w x y z b ",
"( A < B s s s C D E F w G ; y H ",
"I } J [ h t : z K v F L B ; M N ",
"( O P ) Q R S T T U V W X Y K x ",
"+ d _ z Z `  .....U S +.@.@.#.` ",
"  n $.l m  .%.S &.*.=.-.;.>.,.  ",
"  o 2 '.).!.%.~.{.].G ^.V +./.  ",
"    (.| _.].:.<.> i [.=.}.W     ",
"      2 y [.$ |.|.$ |.) 1.      ",
"          z 2.2.b k 3.          "};
