/* XPM */
static char * modem_xpm[] = {
"16 16 125 2",
"  	c None",
". 	c #BEC0C1",
"+ 	c #C7C8C7",
"@ 	c #C5C5C5",
"# 	c #C8C8C8",
"$ 	c #C7C7C7",
"% 	c #C6C6C6",
"& 	c #A3ABB1",
"* 	c #8A99A2",
"= 	c #D8D6D8",
"- 	c #DDDBDD",
"; 	c #DCDADC",
"> 	c #DAD8DA",
", 	c #DBD9DB",
"' 	c #CDCCCD",
") 	c #9FA9AF",
"! 	c #9D9D9D",
"~ 	c #767776",
"{ 	c #777877",
"] 	c #B9B8B9",
"^ 	c #919191",
"/ 	c #4C4B4C",
"( 	c #4D6070",
"_ 	c #517898",
": 	c #4A4D52",
"< 	c #4B5158",
"[ 	c #4F6D86",
"} 	c #4A484A",
"| 	c #4E4D4E",
"1 	c #CBCACB",
"2 	c #4A4C51",
"3 	c #5592C2",
"4 	c #5697C9",
"5 	c #558FBD",
"6 	c #4C5865",
"7 	c #4B535C",
"8 	c #5AAEEE",
"9 	c #5699CC",
"0 	c #4A4D53",
"a 	c #4B4F56",
"b 	c #5592C1",
"c 	c #4D5B69",
"d 	c #5593C3",
"e 	c #5595C6",
"f 	c #8A8E4F",
"g 	c #7B7C3A",
"h 	c #393839",
"i 	c #4D5C6B",
"j 	c #4C5661",
"k 	c #4A4C50",
"l 	c #4F6C85",
"m 	c #4C5966",
"n 	c #53715B",
"o 	c #E4E400",
"p 	c #A3A24E",
"q 	c #B8B860",
"r 	c #EAEA51",
"s 	c #9F9F2F",
"t 	c #7A7B53",
"u 	c #B2B2B2",
"v 	c #B7B7B7",
"w 	c #CFCDCF",
"x 	c #57672F",
"y 	c #77760C",
"z 	c #8D8D0C",
"A 	c #999839",
"B 	c #969600",
"C 	c #9C9B49",
"D 	c #E2E250",
"E 	c #ABAB1B",
"F 	c #75766F",
"G 	c #7D7F7D",
"H 	c #798287",
"I 	c #758690",
"J 	c #C1C03F",
"K 	c #CACA47",
"L 	c #DFDF37",
"M 	c #B0B003",
"N 	c #C4C236",
"O 	c #818000",
"P 	c #FFFF52",
"Q 	c #B0B038",
"R 	c #9F9F9F",
"S 	c #BCBCBC",
"T 	c #A9AAA9",
"U 	c #B9B9B9",
"V 	c #BCBF41",
"W 	c #C9C955",
"X 	c #ABAB53",
"Y 	c #AAA941",
"Z 	c #EDED06",
"` 	c #D9D82F",
" .	c #7B7A02",
"..	c #EBEB44",
"+.	c #87851E",
"@.	c #C3C5C7",
"#.	c #919281",
"$.	c #FDFD86",
"%.	c #D6D62E",
"&.	c #B7B73C",
"*.	c #E8E800",
"=.	c #D9D72F",
"-.	c #89870F",
";.	c #6D6C00",
">.	c #B8B62A",
",.	c #515000",
"'.	c #989A9C",
").	c #868540",
"!.	c #FBFA29",
"~.	c #FFFF86",
"{.	c #FFFF85",
"].	c #D9D739",
"^.	c #838100",
"/.	c #5A5900",
"(.	c #656914",
"_.	c #44583C",
":.	c #607167",
"<.	c #C5C43B",
"[.	c #FBFB28",
"}.	c #989615",
"|.	c #5B5D0C",
"1.	c #3D554B",
"2.	c #617167",
"3.	c #5F6113",
"4.	c #3C554D",
"          . + @ # @ $ % &       ",
"      * = - ; > - > ; , > '     ",
"      ) ! ~ ~ ~ ~ ~ ~ ~ { ]     ",
"      ) ^ / ( _ : < [ } | 1     ",
"      ) ^ / 2 3 4 5 6 } | 1     ",
"      ) ^ / } 7 8 9 0 } | 1     ",
"      ) ^ / a b c d e 0 | 1     ",
"      f g h i j } k l m | 1     ",
"  n o p q r s t u v v v v w     ",
"  x y z A B C D E F G G H I     ",
"    J K L M N O P Q R S T U     ",
"  V W X Y Z `  ...+.@ $ % & @.  ",
"#.$.%.&.*.=.-.;.>.,.> ; , > ' '.",
").!.~.{.].-.^./.(._.            ",
"  :.<.[.}.^.|.1.                ",
"      2.3.4.                    "};
