/* XPM */
static char * lan_xpm[] = {
"16 16 25 1",
" 	c None",
".	c #000000",
"+	c #808080",
"@	c #FFFFFF",
"#	c #DCDCDC",
"$	c #DADADA",
"%	c #035961",
"&	c #45989F",
"*	c #2C8A93",
"=	c #056F79",
"-	c #03464D",
";	c #C3C3C3",
">	c #DBEBED",
",	c #05656D",
"'	c #05717B",
")	c #034D54",
"!	c #BDBDBD",
"~	c #CFCFCF",
"{	c #056D76",
"]	c #02474E",
"^	c #A0A0A0",
"/	c #05707A",
"(	c #056D77",
"_	c #BFBFBF",
":	c #EBEAEB",
"   .........  +.",
"   .@@@##$#.  +.",
"   .@%&*=-;.  +.",
"   .@*>&*,;.  +.",
"   .@%&*')!.  +.",
"   .#;;;;;;.  +.",
"...........   +.",
".@@@##~#.#;.++@.",
".@%&*{];.^^...+.",
".@*>&*/;....  +.",
".@%&*(]_.     +.",
".#;;;;;;.     +.",
" .......      +.",
".@:::##;.+++++@.",
".:^^^^^^....... ",
".........       "};
