/* XPM */
static char * _500_setup_t_xpm[] = {
/* width height ncols cpp */
"16 16 10 2",
  /* Colors */
  "00 c #000000",
  "01 c #000080",
  "02 c #C0C0C0",
  "03 c #808080",
  "04 c #00FF00",
  "05 c #FFFF00",
  "06 c #0000FF",
  "07 c #00FFFF",
  "08 c #FFFFFF",
  ".. s None c None",
  "............03080808080808080300",
  "............03010606060606080300",
  "............03010601010101080300",
  "........030303010101010101080300",
  "......03080803010101010101080300",
  "..030303030203010101010101080300",
  "03080803020203020202020202020300",
  "..030300020203030303030303030200",
  "..030800020203050502000303030200",
  "..030800020307070508080202020200",
  "..0308000307020705080202000000..",
  "..030200030202070000020200......",
  "..030200030202020004070700......",
  "..030200030302080204020200......",
  "..0302000000080802050400........",
  "..000000....0003030000..........",
};
