/* XPM */
static char * _016_template_t_xpm[] = {
/* width height ncols cpp */
"16 16 8 2",
  /* Colors */
  "00 c #000000",
  "01 c #000080",
  "02 c #C0C0C0",
  "03 c #808080",
  "04 c #FFFF00",
  "05 c #0000FF",
  "06 c #FFFFFF",
  ".. s None c None",
  "....03030303030303030303030303..",
  "....03040204020402040204020400..",
  "....03030303030303030303030300..",
  "....03060606060606060606060200..",
  "....03060606060605060606060200..",
  "....03060606060605060606060200..",
  "....03060606050601060506060200..",
  "....03060606060101010606060200..",
  "....03060505010106010105050200..",
  "....03060606060101010606060200..",
  "....03060606050601060506060200..",
  "....03060606060605060606060200..",
  "....03060606060605060606060200..",
  "....03060606060606060606060200..",
  "....03020202020202020202020200..",
  "....00000000000000000000000000..",
};
