/* XPM */
static char * _005_spreadsheet_template_t_xpm[] = {
/* width height ncols cpp */
"16 16 9 2",
  /* Colors */
  "00 c #000000",
  "01 c #000080",
  "02 c #800080",
  "03 c #C0C0C0",
  "04 c #808080",
  "05 c #FFFF00",
  "06 c #0000FF",
  "07 c #FFFFFF",
  ".. s None c None",
  "....04040404040404040404040404..",
  "....04050305030503050305030500..",
  "....04040404040404040404040400..",
  "....04070707070707070707070300..",
  "....04070303030303030303030300..",
  "....04070304040304040404030300..",
  "....04070303030303030303030300..",
  "....04070304040307070707030300..",
  "....04070303030303030301030300..",
  "....04070304040307070201030300..",
  "....04070303030303060201030300..",
  "....04070304040306000201030300..",
  "....04070303030303030303030300..",
  "....04070707070707070707070300..",
  "....04030303030303030303030300..",
  "....00000000000000000000000000..",
};
