/* XPM */
static char * _011_global_document_xpm[] = {
/* width height ncols cpp */
"16 16 8 2",
  /* Colors */
  "00 c #000000",
  "01 c #000080",
  "02 c #C0C0C0",
  "03 c #808080",
  "04 c #0000FF",
  "05 c #00FFFF",
  "06 c #FFFFFF",
  ".. s None c None",
  "................................",
  "....030303030303..030303030303..",
  "....030606060600..030606060600..",
  "....030604040600..030106060600..",
  "....03060606060005030106010600..",
  "....03060404060001030103030300..",
  "....03060606060001030606060600..",
  "....00000000000004000000000000..",
  "........050101040504010105......",
  "....03030303030301030303030303..",
  "....03060606060004030606060600..",
  "....03060302060004030603030600..",
  "....03060202060005030606060600..",
  "....030603030600..030603030600..",
  "....030606060600..030606060600..",
  "....000000000000..000000000000..",
};
