/* XPM */
static char * _006_drawing_document_xpm[] = {
/* width height ncols cpp */
"16 16 11 2",
  /* Colors */
  "00 c #000000",
  "01 c #008000",
  "02 c #808000",
  "03 c #000080",
  "04 c #C0C0C0",
  "05 c #808080",
  "06 c #FFFF00",
  "07 c #0000FF",
  "08 c #00FFFF",
  "09 c #FFFFFF",
  ".. s None c None",
  "....05050505050505050505050500..",
  "....05090909090909090909090400..",
  "....05090004040400040400090400..",
  "....05090408060806080604090500..",
  "....05090406080808080904050905..",
  "....05090408060806090903070500..",
  "....05090406080809090307030005..",
  "....05090008060909030703000400..",
  "....05090408090903070300090400..",
  "....05090409090606030004090400..",
  "....05090409090602000904090400..",
  "....05090409060201090904090400..",
  "....05090004040400040400090400..",
  "....05090909090909090909090400..",
  "....05040404040404040404040400..",
  "....00000000000000000000000000..",
};
