/* XPM */
static char * _015_math_document_xpm[] = {
/* width height ncols cpp */
"16 16 5 2",
  /* Colors */
  "00 c #000000",
  "01 c #C0C0C0",
  "02 c #808080",
  "03 c #FFFFFF",
  ".. s None c None",
  "....02020202020202020202020200..",
  "....02030303030303030303030100..",
  "....02030101010101010101030100..",
  "....02030303030303030303030100..",
  "....02030300000000000000030100..",
  "....02030303000003030100030100..",
  "....02030303030000030303030100..",
  "....02030303030300000303030100..",
  "....02030303030000030303030100..",
  "....02030303000003030100030100..",
  "....02030300000000000000030100..",
  "....02030303030303030303030100..",
  "....02030101010101010101030100..",
  "....02030303030303030303030100..",
  "....02010101010101010101010100..",
  "....00000000000000000000000000..",
};
