/* XPM */
static char * online_xpm[] = {
"16 16 5 1",
" 	c None",
".	c #000000",
"+	c #F8FCF8",
"@	c #00FC00",
"#	c #F8FC00",
"       ..       ",
"      .+@. ...  ",
"  .. .+@@...+@. ",
" .+...+@@..+@@. ",
" .+@..+@@.+@@.  ",
"  .+@..+..+@.   ",
"....+@.......   ",
".+@@..+##.+@..  ",
" .++@.+##.+@@@. ",
" ......+#..+@@..",
"..+@@.......... ",
".+@@..+@.+@..   ",
".++..+@..+@@@.  ",
" .. .+@...+@@.  ",
"    .+.. ..+..  ",
"    ...    ..   "};
