/* XPM */
static char * sync_xpm[] = {
"16 16 14 1",
" 	c None",
".	c #C0FFC0",
"+	c #00C000",
"@	c #008000",
"#	c #004000",
"$	c #000000",
"%	c #400000",
"&	c #005900",
"*	c #00B500",
"=	c #006A00",
"-	c #001500",
";	c #005E00",
">	c #002500",
",	c #001D00",
"               .",
"              .+",
"             .+@",
"            .+@#",
"           .+@#$",
"  .@      .+@#$ ",
" .++@    .+@#%  ",
"$#@++@  .+@#$   ",
" $#@++@.+@#%    ",
"  %#@+++@#%     ",
"   $#@+@#$      ",
"    $&*=$       ",
"     -;>        ",
"      ,         ",
"                ",
"                "};
