/* XPM */
static char * whell_xpm[] = {
"16 16 167 2",
"  	c None",
". 	c #4C90B3",
"+ 	c #D2CBB0",
"@ 	c #756939",
"# 	c #0E537A",
"$ 	c #005185",
"% 	c #DB956A",
"& 	c #FFFFE9",
"* 	c #000000",
"= 	c #4E8CAC",
"- 	c #603B22",
"; 	c #EBB088",
"> 	c #C5855F",
", 	c #FFFFFF",
"' 	c #FFFFF3",
") 	c #FFFEEE",
"! 	c #FDF5D6",
"~ 	c #FFFFFB",
"{ 	c #D08A5A",
"] 	c #004778",
"^ 	c #622700",
"/ 	c #D1966E",
"( 	c #E1D9BC",
"_ 	c #F5F3E3",
": 	c #DBD1AC",
"< 	c #E5DCBC",
"[ 	c #FFFDE3",
"} 	c #DFD19D",
"| 	c #CB7F50",
"1 	c #361F12",
"2 	c #4E85A5",
"3 	c #5190B4",
"4 	c #3485B0",
"5 	c #656560",
"6 	c #514417",
"7 	c #FFFEEA",
"8 	c #473911",
"9 	c #473F1A",
"0 	c #B0A986",
"a 	c #D0C799",
"b 	c #4B472E",
"c 	c #003764",
"d 	c #656562",
"e 	c #D79361",
"f 	c #FFFFEC",
"g 	c #F8CBAA",
"h 	c #733E17",
"i 	c #CCC197",
"j 	c #D9CB95",
"k 	c #645632",
"l 	c #2F739E",
"m 	c #FFF9E9",
"n 	c #A5996E",
"o 	c #504419",
"p 	c #030000",
"q 	c #C17B49",
"r 	c #EEE9D0",
"s 	c #713F1E",
"t 	c #A49870",
"u 	c #C6B883",
"v 	c #A89552",
"w 	c #FFF5DA",
"x 	c #FFFFF7",
"y 	c #F9F7E9",
"z 	c #FFFFEE",
"A 	c #EFEFE1",
"B 	c #C8BB88",
"C 	c #B99E34",
"D 	c #DFDED2",
"E 	c #FFFCEB",
"F 	c #CABD91",
"G 	c #C9B87C",
"H 	c #EEE3B3",
"I 	c #585032",
"J 	c #FFF5DD",
"K 	c #ABA079",
"L 	c #483B13",
"M 	c #EDE8CF",
"N 	c #AC9130",
"O 	c #322700",
"P 	c #1F1904",
"Q 	c #99906B",
"R 	c #D1C496",
"S 	c #AA9133",
"T 	c #2B2411",
"U 	c #3B382B",
"V 	c #004377",
"W 	c #F6E5C1",
"X 	c #DED2B2",
"Y 	c #48401A",
"Z 	c #FCCFAB",
"` 	c #753E1E",
" .	c #BEA032",
"..	c #312701",
"+.	c #E09D70",
"@.	c #0C1420",
"#.	c #FDFCF4",
"$.	c #BEAB5F",
"%.	c #433C22",
"&.	c #403820",
"*.	c #578EAF",
"=.	c #3E7FA9",
"-.	c #F6E9CB",
";.	c #B2AA88",
">.	c #7A503A",
",.	c #001E43",
"'.	c #DEDCD1",
").	c #1D1905",
"!.	c #2D1510",
"~.	c #D19677",
"{.	c #E3DCB0",
"].	c #B69C3B",
"^.	c #000004",
"/.	c #00416D",
"(.	c #00396E",
"_.	c #F0E2B9",
":.	c #CEC597",
"<.	c #CDC295",
"[.	c #A18E4C",
"}.	c #FFFAEA",
"|.	c #7D703B",
"1.	c #F7F9F3",
"2.	c #DAD5A1",
"3.	c #B49629",
"4.	c #000411",
"5.	c #393317",
"6.	c #4F90B6",
"7.	c #FFEBDA",
"8.	c #B66430",
"9.	c #140300",
"0.	c #D9CA94",
"a.	c #C8BA89",
"b.	c #D2C8A0",
"c.	c #CDBF90",
"d.	c #BCA656",
"e.	c #B59C3B",
"f.	c #000412",
"g.	c #262008",
"h.	c #7D4726",
"i.	c #572306",
"j.	c #BD8159",
"k.	c #281002",
"l.	c #0F2D45",
"m.	c #594118",
"n.	c #A08842",
"o.	c #C6B174",
"p.	c #AA9134",
"q.	c #40371B",
"r.	c #2E2000",
"s.	c #753A16",
"t.	c #A1724E",
"u.	c #804521",
"v.	c #5998BE",
"w.	c #0F0601",
"x.	c #1F313E",
"y.	c #5C9BC1",
"z.	c #5592B9",
"A.	c #3F85B7",
"B.	c #EBD9A7",
"C.	c #2A210D",
"D.	c #3B290C",
"E.	c #5D9DC6",
"F.	c #5A9AC0",
"G.	c #5399C3",
"H.	c #7A3307",
"I.	c #56B1E0",
"J.	c #C9BE93",
".             + @               ",
"# $ %         & *               ",
"= - ; >   , ' , ) !     ~ {     ",
"# ] ^ / , , ( _ : < [ } | 1 *   ",
"2 3 4 , , 5 6 7 8 9 0 a b *     ",
"# c , , d e * f * g h i j k     ",
"2 l m n o p q , r s * t u v     ",
"+ w x y z f , A B C D E F G H + ",
"I * J K L * M B N O P Q R S T U ",
"# V W X Y Z `  ...+.@.#.$.%.&.  ",
"2 *.=.-.;.>.,.'.).!.~.{.].^.    ",
"# /.(._.:.<.[.}.|.1.2.3.4.5.    ",
"2 6.7.8.9.0.a.b.c.d.e.f.g.h.    ",
"# i.j.k.l.m.n.o.p.q.* r.s.t.u.  ",
"2 v.w.x.y.z.A.B.C.D.E.F.G.H.I.  ",
"# # # # # # # J.U # # # # # # # "};
