/* XPM */
static char * winamp_xpm[] = {
"16 16 148 2",
"  	c None",
". 	c #454544",
"+ 	c #545353",
"@ 	c #636262",
"# 	c #717070",
"$ 	c #7F7E7D",
"% 	c #8B8989",
"& 	c #929191",
"* 	c #949393",
"= 	c #8D8B8B",
"- 	c #999797",
"; 	c #AAA8A8",
"> 	c #BBB9B9",
", 	c #C5C3C2",
"' 	c #C3C2B9",
") 	c #4D4C4C",
"! 	c #5D5C5C",
"~ 	c #6D6D6C",
"{ 	c #918F8F",
"] 	c #9F9E9D",
"^ 	c #A9A8A7",
"/ 	c #ACABAA",
"( 	c #9F9E9E",
"_ 	c #BCBAB9",
": 	c #CECDCC",
"< 	c #E0DEDD",
"[ 	c #EAE8DD",
"} 	c #D3D1CB",
"| 	c #565555",
"1 	c #656564",
"2 	c #777675",
"3 	c #B3B1B1",
"4 	c #C1BFBF",
"5 	c #C6C5C4",
"6 	c #DBD9D8",
"7 	c #A6A571",
"8 	c #9E9D77",
"9 	c #D4D3D2",
"0 	c #61605F",
"a 	c #706F6F",
"b 	c #81807F",
"c 	c #959493",
"d 	c #AAA9A8",
"e 	c #D8D7D6",
"f 	c #E4E2E0",
"g 	c #A4A371",
"h 	c #4B4B0E",
"i 	c #CECCC4",
"j 	c #D2D1D0",
"k 	c #696968",
"l 	c #7B7A7A",
"m 	c #8F8E8D",
"n 	c #A1A09F",
"o 	c #B6B4B3",
"p 	c #CDCCCB",
"q 	c #D4D2CC",
"r 	c #7D7C1D",
"s 	c #D0CFAF",
"t 	c #D6D5D4",
"u 	c #9D9C6D",
"v 	c #4A4A0C",
"w 	c #7A7961",
"x 	c #D9D8D7",
"y 	c #727171",
"z 	c #858483",
"A 	c #9A9998",
"B 	c #B0AFAE",
"C 	c #9A995F",
"D 	c #5F5F02",
"E 	c #AAA93A",
"F 	c #D9D8D5",
"G 	c #A1A06C",
"H 	c #3E3E01",
"I 	c #43431D",
"J 	c #CECCC8",
"K 	c #908E8E",
"L 	c #A5A4A3",
"M 	c #D3D1D1",
"N 	c #CBCAB9",
"O 	c #535303",
"P 	c #575700",
"Q 	c #909011",
"R 	c #78782E",
"S 	c #494903",
"T 	c #292902",
"U 	c #8D8C7C",
"V 	c #888786",
"W 	c #9A9999",
"X 	c #C7C5C4",
"Y 	c #D9D7D6",
"Z 	c #868549",
"` 	c #424207",
" .	c #474700",
"..	c #868611",
"+.	c #434300",
"@.	c #343402",
"#.	c #34341C",
"$.	c #D3D2D0",
"%.	c #BCBABA",
"&.	c #BCBA99",
"*.	c #525211",
"=.	c #2A2A03",
"-.	c #2D2D02",
";.	c #767610",
">.	c #3C3C02",
",.	c #202003",
"'.	c #959489",
").	c #DAD8D4",
"!.	c #56551F",
"~.	c #414115",
"{.	c #3F3F2A",
"].	c #A6A694",
"^.	c #5A5A09",
"/.	c #3B3B0B",
"(.	c #373627",
"_.	c #9C9B79",
":.	c #282800",
"<.	c #54533E",
"[.	c #CCCAC6",
"}.	c #706F44",
"|.	c #383812",
"1.	c #A6A59B",
"2.	c #807F7E",
"3.	c #B5B4B3",
"4.	c #575721",
"5.	c #525238",
"6.	c #D8D6D4",
"7.	c #BFBDB3",
"8.	c #595940",
"9.	c #767575",
"0.	c #B9B7B7",
"a.	c #9B9A7E",
"b.	c #706F51",
"c.	c #D8D6D5",
"d.	c #D1D0CF",
"e.	c #CCCAC8",
"f.	c #6A6A69",
"g.	c #EDEBDD",
"h.	c #989797",
"i.	c #616060",
"j.	c #CCCAB9",
"k.	c #ABAAA9",
"l.	c #787777",
"m.	c #686867",
"n.	c #595857",
"o.	c #949292",
"p.	c #6A6969",
"q.	c #4F4E4E",
". + @ # $ % & * & = - ; > , , ' ",
") ! ~ $ { ] ^ / ^ ( ; _ : < [ } ",
"| 1 2 % ] 3 4 5 4 3 _ : 6 7 8 9 ",
"0 a b c d 4 e f e , : 6 g h i j ",
"k l m n o p q r s t 6 u v w x , ",
"y z A B , x C D E F G H I J p o ",
"l K L > M N O P Q R S T U x 4 d ",
"V W B X Y Z `  ...+.@.#.$.p o ] ",
"c ^ %.M &.*.=.-.;.>.,.'.x 4 d c ",
"] o p ).!.~.{.].^./.(.6 p o ] % ",
"d 4 x _.:.<.[.Y }.|.1.M %.^ c 2.",
"3.p i 4.5.6.: M 7.8.Y X B W V 9.",
"0.9 a.b.c.: _ , d.e.: > L K l f.",
"3.} g.< : _ ; 3 4 , > ; h.z y i.",
"^ j., , > ; - ] ^ k.L h.V l.m.n.",
"h.L k.k.L h.V % & o.m z l.p.! q."};
