/* XPM */
static char * wizard_xpm[] = {
"16 16 5 1",
" 	c None",
".	c #000000",
"+	c #FFFFFF",
"@	c #C3C3C3",
"#	c #808080",
"                ",
" .............. ",
".++++++++.+++++.",
".+++++..+.+@@@#.",
".+++++..+.+...#.",
".+++++..+.+@.@#.",
".+...+..+.+@@@#.",
".++++++++.#####.",
" ...............",
"   .+++++++++++.",
"   .+....++..++.",
"   .+++++++++++.",
"   .+........++.",
"   .+++++++++++.",
"    ........... ",
"                "};
