/* XPM */
static char * xcalc_xpm[] = {
"16 16 5 1",
" 	c None",
".	c #808080",
"+	c #FFFFFF",
"@	c #000000",
"#	c #DCDCDC",
"                ",
" .............. ",
".+++++++++++++@ ",
".+##@@@@@@@@@#@ ",
".+##@+++++++.#@ ",
".+##.........#@ ",
".+############@ ",
".+.@#.@#.@#.@#@ ",
".+@@#@@#@@#@@#@ ",
".+.@#.@#.@#.@#@ ",
".+@@#@@#@@#@@#@ ",
".+.@#.@#.@#.@#@ ",
".+@@#@@#@@#@@#@ ",
".#############@ ",
" @@@@@@@@@@@@@  ",
"                "};
