/* XPM */
static char * maximize_xpm[] = {
"18 36 5 1",
"  c #c0c0c0",
". c #000000",
"t c #FFFFFF",
"b c #808080",
"d c #808080",
"tttttttttttttttttd",
"t                b",
"t                b",
"t  ............  b",
"t  ............  b",
"t  .          .  b",
"t  .          .  b",
"t  .          .  b",
"t  .          .  b",
"t  .          .  b",
"t  .          .  b",
"t  .          .  b",
"t  .          .  b",
"t  .          .  b",
"t  ............  b",
"t                b",
"t                b",
"dbbbbbbbbbbbbbbbbb",
"bbbbbbbbbbbbbbbbbd",
"b                t",
"b                t",
"b  ............  t",
"b  ............  t",
"b  .          .  t",
"b  .          .  t",
"b  .          .  t",
"b  .          .  t",
"b  .          .  t",
"b  .          .  t",
"b  .          .  t",
"b  .          .  t",
"b  .          .  t",
"b  ............  t",
"b                t",
"b                t",
"dttttttttttttttttt"};
