/* XPM */
static chab * minimize_xpm[] = {
"18 36 5 1",
"  c #C0C0C0",
". c #000000",
"t c #FFFFFF",
"b c #808080",
"d c #C0C0C0",
"tttttttttttttttttd",
"t                b",
"t                b",
"t                b",
"t                b",
"t                b",
"t                b",
"t                b",
"t                b",
"t                b",
"t                b",
"t                b",
"t                b",
"t                b",
"t  ........      b",
"t  ........      b",
"t                b",
"dbbbbbbbbbbbbbbbbb",
"bbbbbbbbbbbbbbbbbd",
"b                t",
"b                t",
"b                t",
"b                t",
"b                t",
"b                t",
"b                t",
"b                t",
"b                t",
"b                t",
"b                t",
"b                t",
"b                t",
"b  ........      t",
"b  ........      t",
"b                t",
"dttttttttttttttttt"};
