/* XPM */
static char * a_xpm[] = {
"9 20 2 1",
".	c #000000",
"+	c #00F000",
".........",
"....+....",
"...+.+...",
"..+...+..",
".+.....+.",
".+.....+.",
".+++++++.",
".+.....+.",
".+.....+.",
".........",
".........",
".........",
".........",
".........",
".........",
".........",
".........",
".........",
".........",
"........."};
