/* XPM */
static char * n0_xpm[] = {
"14 20 2 1",
" 	c #000",
".	c #0F0",
"              ",
"  ..........  ",
" . ........ . ",
" ..        .. ",
" ..        .. ",
" ..        .. ",
" ..        .. ",
" ..        .. ",
" .          . ",
"              ",
"              ",
" .          . ",
" ..        .. ",
" ..        .. ",
" ..        .. ",
" ..        .. ",
" ..        .. ",
" . ........ . ",
"  ..........  ",
"              "};
