/* XPM */
static char * frameATL_xpm[] = {
"30 30 90 1",
" 	c None",
".	c #66667E",
"+	c #88879D",
"@	c #A8A7BF",
"#	c #9594AB",
"$	c #D1D1DE",
"%	c #FCFCFC",
"&	c #FFFFFF",
"*	c #D7D8E2",
"=	c #F2F1F3",
"-	c #87879B",
";	c #E4E3E8",
">	c #D0D0E0",
",	c #BCBCCF",
"'	c #E6E6ED",
")	c #D2D2E0",
"!	c #B1B0C4",
"~	c #C0C1D1",
"{	c #D2D2DF",
"]	c #B5B4C9",
"^	c #A4A3BE",
"/	c #C7C7D4",
"(	c #ACABC4",
"_	c #C6C8D7",
":	c #B8B7CF",
"<	c #AFAEC7",
"[	c #B1B3C8",
"}	c #B4B6C7",
"|	c #C7C9D7",
"1	c #B6B9C9",
"2	c #B6B8C9",
"3	c #B7B8C9",
"4	c #C9CAD8",
"5	c #B6B8C8",
"6	c #B9BCCB",
"7	c #BABBCC",
"8	c #BABCCC",
"9	c #BABCCB",
"0	c #CACCD8",
"a	c #BEC0CE",
"b	c #BEC0CF",
"c	c #BDC0CF",
"d	c #CCCEDA",
"e	c #C1C4D2",
"f	c #C1C4D1",
"g	c #C2C4D1",
"h	c #C2C4D2",
"i	c #CFCFDA",
"j	c #C5C7D5",
"k	c #C4C8D4",
"l	c #C4C8D5",
"m	c #C4C7D4",
"n	c #D0D2DB",
"o	c #CBCDD9",
"p	c #CACED9",
"q	c #CACED8",
"r	c #CBCDD8",
"s	c #D2D4DD",
"t	c #CFD2DC",
"u	c #D0D2DC",
"v	c #D0D2DD",
"w	c #D5D6DD",
"x	c #D5D8E1",
"y	c #D5D7E0",
"z	c #D6D8E0",
"A	c #D7D8DE",
"B	c #DCDEE5",
"C	c #DCDEE6",
"D	c #D9D9DF",
"E	c #E3E5EB",
"F	c #E3E4EA",
"G	c #E3E5EA",
"H	c #DCDBE0",
"I	c #EAEBEF",
"J	c #EAEBF0",
"K	c #DEDDE1",
"L	c #F0F2F4",
"M	c #F1F1F4",
"N	c #F0F1F4",
"O	c #E0E0E1",
"P	c #F7F7F9",
"Q	c #F7F7F8",
"R	c #E2E1E2",
"S	c #FBFCFD",
"T	c #FCFBFD",
"U	c #FBFCFC",
"V	c #E4E3E3",
"W	c #BCBDCD",
"X	c #9898A7",
"Y	c #777792",
"     .........................",
"   ..+@@@@@@@@@@@@@@@@@@@@@@@@",
"  .#$%&&&&&&&&&&&&&&&&&&&&&&&&",
" .#*%=************************",
" -*%;>,,,,,,,,,,,,,,,,,,,,,,,,",
".@'),!@@@@@@@@@@@@@@@@@@@@@@@@",
".~{]^^^^^^^^^^^^^^^^^^^^^^^^^^",
".~/(((((((((((((((((((((((((((",
"._:<<<<<<<<<<<<<<<<<<<<<<<<<<<",
"._[[[[[[[[[[[[[[[[[[[[[[[[[[[[",
"._}}}}}}}}}}}}}}}}}}}}}}}}}}}}",
"._}}}}}}}}}}}}}}}}}}}}}}}}}}}}",
".|}121333333333333333333333333",
".45678999999999999999999999999",
".0abbcaaaaaaaaaaaaaaaaaaaaaaaa",
".defgehhhhhhhhhhhhhhhhhhhhhhhh",
".ijkklmmmmmmmmmmmmmmmmmmmmmmmm",
".noopqrrrrrrrrrrrrrrrrrrrrrrrr",
".stuuvuuuuuuuuuuuuuuuuuuuuuuuu",
".wxyxzxxxxxxxxxxxxxxxxxxxxxxxx",
".ABCBBBBBBBBBBBBBBBBBBBBBBBBBB",
".DEFGFGGGGGGGGGGGGGGGGGGGGGGGG",
".HIIJIIIIIIIIIIIIIIIIIIIIIIIII",
".KLMNNNNNNNNNNNNNNNNNNNNNNNNNN",
".OPQPQPPPPPPPPPPPPPPPPPPPPPPPP",
".RST%USSSSSSSSSSSSSSSSSSSSSSSS",
".N&&&&&&&&&&&&&&&&&&&&&&&&&&&&",
".PVVVVVVVVVVVVVVVVVVVVVVVVVVVV",
".PWWWWWWWWWWWWWWWWWWWWWWWWWWWW",
".PXYYYYYYYYYYYYYYYYYYYYYYYYYYY"};
