/* XPM */
static char * frameATR_xpm[] = {
"30 30 90 1",
" 	c None",
".	c #66667E",
"+	c #A8A7BF",
"@	c #88879D",
"#	c #FFFFFF",
"$	c #FCFCFC",
"%	c #D1D1DE",
"&	c #9594AB",
"*	c #D7D8E2",
"=	c #F2F1F3",
"-	c #BCBCCF",
";	c #D0D0E0",
">	c #E4E3E8",
",	c #87879B",
"'	c #B1B0C4",
")	c #D2D2E0",
"!	c #E6E6ED",
"~	c #A4A3BE",
"{	c #B5B4C9",
"]	c #D2D2DF",
"^	c #C0C1D1",
"/	c #ACABC4",
"(	c #C7C7D4",
"_	c #AFAEC7",
":	c #B8B7CF",
"<	c #C6C8D7",
"[	c #B1B3C8",
"}	c #B4B6C7",
"|	c #B7B8C9",
"1	c #B6B9C9",
"2	c #B6B8C9",
"3	c #C7C9D7",
"4	c #BABCCB",
"5	c #BABCCC",
"6	c #BABBCC",
"7	c #B9BCCB",
"8	c #B6B8C8",
"9	c #C9CAD8",
"0	c #BEC0CE",
"a	c #BDC0CF",
"b	c #BEC0CF",
"c	c #CACCD8",
"d	c #C2C4D2",
"e	c #C1C4D2",
"f	c #C2C4D1",
"g	c #C1C4D1",
"h	c #CCCEDA",
"i	c #C4C7D4",
"j	c #C4C8D5",
"k	c #C4C8D4",
"l	c #C5C7D5",
"m	c #CFCFDA",
"n	c #CBCDD8",
"o	c #CACED8",
"p	c #CACED9",
"q	c #CBCDD9",
"r	c #D0D2DB",
"s	c #D0D2DC",
"t	c #D0D2DD",
"u	c #CFD2DC",
"v	c #D2D4DD",
"w	c #D5D8E1",
"x	c #D6D8E0",
"y	c #D5D7E0",
"z	c #D5D6DD",
"A	c #DCDEE5",
"B	c #DCDEE6",
"C	c #D7D8DE",
"D	c #E3E5EA",
"E	c #E3E4EA",
"F	c #E3E5EB",
"G	c #D9D9DF",
"H	c #EAEBEF",
"I	c #EAEBF0",
"J	c #DCDBE0",
"K	c #F0F1F4",
"L	c #F1F1F4",
"M	c #F0F2F4",
"N	c #DEDDE1",
"O	c #F7F7F9",
"P	c #F7F7F8",
"Q	c #E0E0E1",
"R	c #FBFCFD",
"S	c #FBFCFC",
"T	c #FCFBFD",
"U	c #E2E1E2",
"V	c #E4E3E3",
"W	c #BCBDCD",
"X	c #777792",
"Y	c #9898A7",
".........................     ",
"++++++++++++++++++++++++@..   ",
"########################$%&.  ",
"************************=$*&. ",
"------------------------;>$*, ",
"++++++++++++++++++++++++'-)!+.",
"~~~~~~~~~~~~~~~~~~~~~~~~~~{]^.",
"///////////////////////////(^.",
"___________________________:<.",
"[[[[[[[[[[[[[[[[[[[[[[[[[[[[<.",
"}}}}}}}}}}}}}}}}}}}}}}}}}}}}<.",
"}}}}}}}}}}}}}}}}}}}}}}}}}}}}<.",
"||||||||||||||||||||||||121}3.",
"44444444444444444444444456789.",
"000000000000000000000000abb0c.",
"ddddddddddddddddddddddddefgeh.",
"iiiiiiiiiiiiiiiiiiiiiiiijkklm.",
"nnnnnnnnnnnnnnnnnnnnnnnnopqqr.",
"sssssssssssssssssssssssstssuv.",
"wwwwwwwwwwwwwwwwwwwwwwwwxwywz.",
"AAAAAAAAAAAAAAAAAAAAAAAAAABAC.",
"DDDDDDDDDDDDDDDDDDDDDDDDEDEFG.",
"HHHHHHHHHHHHHHHHHHHHHHHHHIHHJ.",
"KKKKKKKKKKKKKKKKKKKKKKKKKKLMN.",
"OOOOOOOOOOOOOOOOOOOOOOOOPOPOQ.",
"RRRRRRRRRRRRRRRRRRRRRRRRS$TRU.",
"############################K.",
"VVVVVVVVVVVVVVVVVVVVVVVVVVVVO.",
"WWWWWWWWWWWWWWWWWWWWWWWWWWWWO.",
"XXXXXXXXXXXXXXXXXXXXXXXXXXXYO."};
