/* XPM */
static char * frameAB_xpm[] = {
"2 4 4 1",
" 	c None",
".	c #66667E",
"+	c #A8A9BB",
"@	c #FBFCFD",
"..",
"++",
"@@",
".."};
