/* XPM */
static char * maximizeO_xpm[] = {
"23 52 113 2",
"  	c None",
". 	c #BCBCCF",
"+ 	c #A8A7BF",
"@ 	c #A4A3BE",
"# 	c #848CA2",
"$ 	c #6B758F",
"% 	c #ACABC4",
"& 	c #8A93AB",
"* 	c #DEDDEB",
"= 	c #FDFDFE",
"- 	c #FFFFFF",
"; 	c #AFAEC7",
"> 	c #E2E2EF",
", 	c #F8F8FB",
"' 	c #B1B3C8",
") 	c #F5F4F9",
"! 	c #F3F2F8",
"~ 	c #B4B6C7",
"{ 	c #E5E4EF",
"] 	c #EDECF3",
"^ 	c #E5E5EF",
"/ 	c #EAE9F1",
"( 	c #EBE9F1",
"_ 	c #494958",
": 	c #B7B8C9",
"< 	c #E7E7F0",
"[ 	c #E7E7F1",
"} 	c #8C8BAB",
"| 	c #BABCCB",
"1 	c #E3E3ED",
"2 	c #BEC0CE",
"3 	c #BEC0CF",
"4 	c #C2C4D2",
"5 	c #E3E3EE",
"6 	c #E0E1EB",
"7 	c #C4C7D4",
"8 	c #E1E2ED",
"9 	c #DDDDEA",
"0 	c #C5C7D4",
"a 	c #CBCDD8",
"b 	c #DDDEEB",
"c 	c #DBDCE8",
"d 	c #CBCED8",
"e 	c #D0D2DC",
"f 	c #DBDCE9",
"g 	c #D7D8E5",
"h 	c #CFD2DC",
"i 	c #D5D8E1",
"j 	c #D7D8E8",
"k 	c #D1D2E2",
"l 	c #D6D7E0",
"m 	c #DCDEE5",
"n 	c #D4D5E5",
"o 	c #CECFDF",
"p 	c #DCDEE6",
"q 	c #E3E5EA",
"r 	c #D1D3E4",
"s 	c #C9C9DC",
"t 	c #E3E4EB",
"u 	c #EAEBEF",
"v 	c #CCCFE2",
"w 	c #C5C6D9",
"x 	c #C4C6D9",
"y 	c #EAEBF0",
"z 	c #F0F1F4",
"A 	c #C9CBE1",
"B 	c #C0C0D6",
"C 	c #F0F1F5",
"D 	c #F7F7F9",
"E 	c #A2A5C7",
"F 	c #B6B8D3",
"G 	c #F6F7F8",
"H 	c #FBFCFD",
"I 	c #9CA4B9",
"J 	c #FBFCFC",
"K 	c #E4E3E3",
"L 	c #6C7690",
"M 	c #BCBDCD",
"N 	c #777792",
"O 	c #7B8399",
"P 	c #4F596F",
"Q 	c #D8D7E9",
"R 	c #ECE9F8",
"S 	c #8D90AE",
"T 	c #8387AD",
"U 	c #9C9EB5",
"V 	c #8B8FB2",
"W 	c #A1A3BB",
"X 	c #9498B9",
"Y 	c #A6A9BE",
"Z 	c #252536",
"` 	c #9DA0BD",
" .	c #AEB0C3",
"..	c #6E6D8F",
"+.	c #A7ABC5",
"@.	c #B1B3C7",
"#.	c #B2B4CD",
"$.	c #BABBCE",
"%.	c #BDBED3",
"&.	c #BFC1D2",
"*.	c #C6C7DB",
"=.	c #C0C0D4",
"-.	c #CED0E1",
";.	c #C3C4D5",
">.	c #D6D6E6",
",.	c #C7C7D9",
"'.	c #DBDBE9",
").	c #C6C6DB",
"!.	c #CDCDE1",
"~.	c #D3D1E4",
"{.	c #FEFBFF",
"].	c #5B667E",
"^.	c #535C72",
". . . . . . . . . . . . . . . . . . . . . . . ",
"+ + + + + + + + + + + + + + + + + + + + + + + ",
"@ @ # $ $ $ $ $ $ $ $ $ $ $ $ $ $ $ $ $ # @ @ ",
"% # & * = - - - - - - - - - - - - - = * & # % ",
"; $ > , , , , , , , , , , , , , , , , , > $ ; ",
"' $ ) ! ! ! ! ! ! ! ! ! ! ! ! ! ! ! ! ! ) $ ' ",
"~ $ { ] ] ] ] ] ] ] ] ] ] ] ] ] ] ] ] ] { $ ~ ",
"~ $ ^ / / ( _ _ _ _ _ _ _ _ _ _ _ / / / ^ $ ~ ",
": $ ^ < [ - } } } } } } } } } } _ [ < < ^ $ : ",
"| $ < 1 1 - } } } } } } } } } } _ 1 1 1 < $ | ",
"2 $ ^ 1 1 - _ - - - - - - - - - _ 1 1 1 ^ $ 3 ",
"4 $ 5 6 6 - _ 6 6 6 6 6 6 6 6 - _ 6 6 6 5 $ 4 ",
"7 $ 8 9 9 - _ 9 9 9 9 9 9 9 9 - _ 9 9 9 8 $ 0 ",
"a $ b c c - _ c c c c c c c c - _ c c c b $ d ",
"e $ f g g - _ g g g g g g g g - _ g g g f $ h ",
"i $ j k k - _ k k k k k k k k - _ k k k j $ l ",
"m $ n o o - _ o o o o o o o o - _ o o o n $ p ",
"q $ r s s - _ _ _ _ _ _ _ _ _ _ _ s s s r $ t ",
"u $ v w w - - - - - - - - - - - - w w x v $ y ",
"z $ A B B B B B B B B B B B B B B B B B A $ C ",
"D $ E F F F F F F F F F F F F F F F F F E $ G ",
"H I & E E E E E E E E E E E E E E E E E & I J ",
"- K I $ $ $ $ L $ L L $ $ $ $ $ $ $ $ $ I K - ",
"K K K K K K K K K K K K K K K K K K K K K K K ",
"M M M M M M M M M M M M M M M M M M M M M M M ",
"N N N N N N N N N N N N N N N N N N N N N N N ",
". . . . . . . . . . . . . . . . . . . . . . . ",
"+ + + + + + + + + + + + + + + + + + + + + + + ",
"@ @ O P P P P P P P P P P P P P P P P P O @ @ ",
"% O P Q R R R R R R R R R R R R R R R Q P O % ",
"; P Q S S S S S S S S S S S S S S S S S Q P ; ",
"' P T U U U U U U U U U U U U U U U U U T P ' ",
"~ P V W W W W W W W W W W W W W W W W W V P ~ ",
"~ P X Y Y Y Z Z Z Z Z Z Z Z Z Z Z Y Y Y X P ~ ",
": P `  . .- ....................Z  . . .` P : ",
"| P +.@.@.- ....................Z @.@.@.+.P | ",
"2 P #.$.$.- Z - - - - - - - - - Z $.$.$.#.P 3 ",
"4 P %.&.&.- Z &.&.&.&.&.&.&.&.- Z &.&.&.%.P 4 ",
"7 P *.=.=.- Z =.=.=.=.=.=.=.=.- Z =.=.=.*.P 0 ",
"a P -.;.;.- Z ;.;.;.;.;.;.;.;.- Z ;.;.;.-.P d ",
"e P >.,.,.- Z ,.,.,.,.,.,.,.,.- Z ,.,.,.>.P h ",
"i P '.).).- Z ).).).).).).).).- Z ).).).'.P l ",
"m P '.!.!.- Z !.!.!.!.!.!.!.!.- Z !.!.!.'.P p ",
"q P '.~.~.- Z Z Z Z Z Z Z Z Z Z Z ~.~.~.'.P t ",
"u P '.Q Q - - - - - - - - - - - - Q Q Q '.P y ",
"z P {.R R R R R R R R R R R R R R R R R {.P C ",
"D P Q {.{.{.{.{.{.{.{.{.{.{.{.{.{.{.{.{.Q P G ",
"H O ].Q - - - - - - - - - - - - - - - Q P O J ",
"- K O P P P P ^.P ^.^.P P P P P P P P P O K - ",
"K K K K K K K K K K K K K K K K K K K K K K K ",
"M M M M M M M M M M M M M M M M M M M M M M M ",
"N N N N N N N N N N N N N N N N N N N N N N N "};
