/* XPM */
static char * menubg_xpm[] = {
"1 11 11 1",
" 	c None",
".	c #F4F6F7",
"+	c #F4F5F8",
"@	c #F2F3F6",
"#	c #F0F0F4",
"$	c #EDECF1",
"%	c #E7E8EE",
"&	c #E2E4EB",
"*	c #DDDFE7",
"=	c #D8DAE3",
"-	c #D3D5E0",
".",
".",
"+",
"@",
"#",
"$",
"%",
"&",
"*",
"=",
"-"};
