/* XPM */
static char *about_16x16_xpm[] = {
"16 16 4 1",
"0	c #00006D",
"1	c #0000B6",
"2	c #FFFFFF",
" 	c None",
"      2222      ",
"    22000022    ",
"   2001111002   ",
"  201111111102  ",
" 20111122111102 ",
" 20111111111102 ",
"2011112221111102",
"2011111221111102",
"2011111221111102",
"2011111221111102",
" 20111122111102 ",
" 20111222211102 ",
"  201111111102  ",
"   2001111002   ",
"    22000022    ",
"      2222      "
};
