/* XPM */
static char *cancel_logout[] = {
/* columns rows colors chars-per-pixel */
"16 16 60 1 ",
"  c #1F2F1E",
". c #202F1E",
"X c #21321E",
"o c #3F2819",
"O c #143120",
"+ c #6D1810",
"@ c #462917",
"# c #4B341A",
"$ c #752612",
"% c #7E3A10",
"& c #5A382D",
"* c #613E34",
"= c #2B4234",
"- c #5C402C",
"; c #674A36",
": c #3A5348",
"> c #78564B",
", c #5B6C63",
"< c #637770",
"1 c #BA0D05",
"2 c #8A2A10",
"3 c #823D15",
"4 c #BF2C0F",
"5 c #8D281F",
"6 c #CE0B09",
"7 c #FA0100",
"8 c #F31402",
"9 c #E00202",
"0 c #CC3617",
"q c #DC381E",
"w c #C92B0F",
"e c #F7300A",
"r c #DC382B",
"t c #974918",
"y c #CC401A",
"u c #CF4C1C",
"i c #F85019",
"p c #E94B17",
"a c #CC5422",
"s c #D54525",
"d c #F65B22",
"f c #E25229",
"g c #F76B2D",
"h c #FC7335",
"j c #E96C38",
"k c #DC672F",
"l c #916F66",
"z c #F98648",
"x c #F59353",
"c c #FAAD72",
"v c #FEA56C",
"b c #7F8F8E",
"n c #7F908F",
"m c #808C8A",
"M c #FEB886",
"N c #F0BEBA",
"B c #FEC79C",
"V c #F5C3B7",
"C c #F6CBC2",
"Z c #FFFDFD",
/* pixels */
",,,,,,,,,,,,,,,,",
",OX3;::::::;$XO,",
",OtxkCZZn,lfp2 ,",
",%zBcjVZm#yggp$,",
",#acBxa->yghi4@,",
",O#axvzu0ghd4oO,",
",OO#azxhhhdw#OO,",
",OOXlfzzggs>=OO,",
",OOXlshhgiqN:O ,",
",OO>sghdiier* O,",
",O>yghd0wee81oO,",
",#0ghd0NN18771o,",
",$phdsNZZ>1779+,",
",O2p4CZZZ<>692 ,",
",O 5lbbb,O,*+ O,",
",,,<,,,,,,,,,,,,"
};
