/* XPM */
static char * communicator_composer_32x32_xpm[] = {
"32 32 12 1",
" 	c None",
".	c #008080",
"+	c #0000FF",
"@	c #C0C0C0",
"#	c #000000",
"$	c #FFFFFF",
"%	c #808080",
"&	c #FFFF00",
"*	c #000080",
"=	c #800000",
"-	c #808000",
";	c #00FFFF",
".+.+.+.+.+.+.+.+.+.+.+.+.+.+.+.+",
"+.+.+.+.+.+.+.+.+.+.+.+.+.+.+.@#",
".+.+.+.+.+.+.+.+.+.+.+.+.+.+.@# ",
"+.+.+.+.+.+.+.+.+$+.+.+.+.+.@#  ",
".+.+.+.+.+.+.+.+$$$%.+.+.+.@#   ",
"+.+.+.+.+.+.+.+$&$@$%%+.+.@#    ",
".+.+.++*++++.+$$$$$@$@%+.@#     ",
"+.+.+.@%***+&$$$$$&$@@@%%#      ",
".+.+.+%$=-=**$$$$$$@$@@@@%#     ",
"+.+.+.%%$--=*@$$&$&$@$@@@@%#    ",
".+.+.+.%&=--=#$$$@$@$@$@@@@%#   ",
"+.+.++@%&$&=-=**&$&$@$@@@@@@@#  ",
".+.+@@$-&&$-=-#%@$$@$@$@@@@@@@% ",
"+.+@&$&-%-&$#+##%@&$@$@@@@@@$%##",
".+$$$$$$$$%$+####%@@$@$@@@@$%##@",
"+@&$$$$$$$&%@.####%@@$@$@@$%##%@",
".+$$$$$$$$$#...####%@$$@@$%#%@  ",
"+.+$&$$$$$$$&%;.####%@$@$%#%    ",
".+.+$$$$$$$$$$%$.####%@$%#%@    ",
"+.+.+$&$&$&$&$&%@.####%%%%@     ",
".+.+.*$$$$$$$$$$%@.####%%@      ",
"+.+.+.*$&$&$&$&&&%@.####%%      ",
".+.+.+.#$$$$$$$$$$%@.####%#     ",
"+.+.+.+.#$&$&$&$&@$%@#@#**@#    ",
".+.+.+.@%#$$$$$$@$#@%@.+.##@#%  ",
"+.+.+.@# @#$&$&@$#@@ %+@#.##@#% ",
".+.+.@#  @@#@$@$#@@%  #% #.##@#%",
"+.+.@#    @@#@$#@@%    #%;#.###%",
".+.@#      @@%#@@%      #%.#.###",
"+.@#        @@@@%        #%.#.##",
".@#          @@%          #%.###",
"+#            %            #### "};
