/* XPM */
static char * communicator_abook_32x32_xpm[] = {
"32 32 11 1",
" 	c None",
".	c #0000FF",
"+	c #008080",
"@	c #808080",
"#	c #000000",
"$	c #C0C0C0",
"%	c #FFFFFF",
"&	c #000080",
"*	c #008000",
"=	c #FF0000",
"-	c #808000",
".+.+.+.+.+.+.+.+.+.+.+.+.+.+.+.@",
"+.+.+.+.+.+.+.+.+.+.+.+.+.+.+.@#",
".+.+.+.+.+.$$$$$$$$$$$$$$$#+.@# ",
"+.+.+.+.+.+$$$$$$$$$$$$$$$#.@#  ",
".+.+.+.+.+.$$+++++++++++$$#@#   ",
"+.+.+.+.+.+$$++%++++++++$$##    ",
".+.+.+.+.+.$$++%++++++++$$#     ",
"+.+.+.+.+.+$$+++++++++++$$#     ",
".+.+.+.+.+.$$+++++++++++$$#     ",
"+.+.+.+.+.+$$+++++++++++$$#     ",
".+.+.+.+.+.$$+++++++++++$$#     ",
"+.+.+.+.+.+$$+++++++++++$$#     ",
".+.+.+.+.+.$$$$$$$$$$$$$$$#     ",
"+.+.+.+.+.+$$$$$$$$$$$$$$$#     ",
".+.+.+.+.+.################     ",
"+.+.+.+.+.++..@@@@@@@@@@        ",
".+.+.+$$$$$$$$$$$$$$$$$$$$$$$$@ ",
"+.+.+.$$$$$$$$$$$$$$$$$$$$$$$$@ ",
".+.+.+$$$$$$$$$$$$&&$$$@@@@@$$@ ",
"+.+.+.$$$$$$$$$$$&**&$$$$$$$$$@ ",
".+.+.+$$$$$$$$$$$&**&$$$$$$$$$@ ",
"+.+.+.$$$$&&$$$$$$&@$$$$$$&&$$@ ",
".+.+.+$$$&==&$$&&    &&$$&--&@@ ",
"+.+.+.@@ &==& &**&  &**& &--&   ",
".+.+.@@   &&  &***&&***&  &&    ",
"+.+.@# &&    &&********&&    && ",
".+.@# &==&  &==&******&--&  &--&",
"+.@#  &===&&===&******&---&&---&",
".@#   &========&&&&&&&&--------&",
"@#    &========&      &--------&",
"#     &========&      &--------&",
"      &&&&&&&&&&      &&&&&&&&&&"};
