/* XPM */
static char * communicator_browser_32x32_xpm[] = {
"32 32 10 1",
" 	c None",
".	c #0000FF",
"+	c #008080",
"@	c #800000",
"#	c #000000",
"$	c #808000",
"%	c #C0C0C0",
"&	c #FFFF00",
"*	c #808080",
"=	c #FFFFFF",
".+.+.+.+.+.+.+.+.+.+.+.+.+.+.+.+",
"+.+.+.+.+.+.+.@#$.#.+.+.+.+.+.%#",
".+.+.+.+.+.+.+@%@#.#.+.+.+.+.%# ",
"+.+.+####.+.+.$&@##.+.+.+##.*#  ",
".+.+#$@###.+#+$=##.#.+.+#$&##   ",
"+.+.#&$@####@#*%@###+.+#$&*@#*  ",
".+.+.#%$@#@#@%%&*@$@##.$%*@#%*  ",
"+.+.+.#%$$*&%&$%*&%$$@@%*@#%**  ",
".+.+.+.#=&&$$$*%@$$&&%%*@#%**   ",
"+.+.+.@%==&@##*&@#+#@%$@#%**    ",
".+.+.+*=$$=%#+*&@#.%$@&$#**     ",
"+.+.+$%%$@#=%#*=@#%$@#&%@#      ",
".+.+.*%$@#.#%%*%@%$@#*@%$#      ",
"+.+.@%&@##+.#&*%$$##*=#&$@      ",
".@@@*%$$#@@@#$=&%$@*%%*$*#@@@@@*",
"%%&%$&&@&&=%%=&%&%$%&&%%&&%&&%*#",
"#***%%%*****%&%&%%@*@@##%*$$$$*#",
"####$%$#@@@@%*&%%*@#   #&%#@###*",
".#.#$%@#.+.%$#%%**%@# %$&*@#%%**",
"+.#.$&%##.%$@#=@# @&@#%&*@#**** ",
".+.+.$&@#%$@##=@#  @%$&%*@#     ",
"+.+.+@&%$$##*#=@#  #$%%*##*     ",
".+.+.+@%%##*=#%$##@@*&=*@#%*    ",
"+.+.+.#%&$@##@&$#@$$=%@$$@#%*   ",
".+.+.$%@@=%$@$%$$$&*$@$*&*@#%*  ",
"+.+.$&%$@@$&%%=%=*$@@$#@$&*#%** ",
".+.$%$$@###$$$&$@@@$##  @$&*#%* ",
"+.+@*$@#%* ##$=@%###     @**#** ",
".+.#@##%*   #$%*#%*       ##**  ",
"+.%##%%*     @%*#%*             ",
".%#  **      @*$#%*             ",
"+#            ##**              "};
