/* XPM */
static char * emacs_32x32_xpm[] = {
"32 32 270 2",
"  	c None",
". 	c #191502",
"+ 	c #65491E",
"@ 	c #97663B",
"# 	c #533C19",
"$ 	c #513D15",
"% 	c #BE8148",
"& 	c #4C351A",
"* 	c #5C411F",
"= 	c #221F00",
"- 	c #C18448",
"; 	c #BB7E49",
"> 	c #99673B",
", 	c #392D0A",
"' 	c #3B2915",
") 	c #2D1F10",
"! 	c #7F5532",
"~ 	c #5A3C23",
"{ 	c #20160B",
"] 	c #312708",
"^ 	c #845834",
"/ 	c #B17745",
"( 	c #A8743D",
"_ 	c #4D351B",
": 	c #926239",
"< 	c #EC9E5C",
"[ 	c #B57A47",
"} 	c #000000",
"| 	c #AF7645",
"1 	c #F4A460",
"2 	c #C1814C",
"3 	c #140E06",
"4 	c #754E2E",
"5 	c #C3834C",
"6 	c #33250F",
"7 	c #CF8C50",
"8 	c #5B431A",
"9 	c #9D6A3E",
"0 	c #B27746",
"a 	c #C5844D",
"b 	c #C5854D",
"c 	c #20150C",
"d 	c #916139",
"e 	c #2E220C",
"f 	c #CE8A51",
"g 	c #573C1F",
"h 	c #895C36",
"i 	c #F2A25F",
"j 	c #573D28",
"k 	c #BC8150",
"l 	c #EA9D5C",
"m 	c #D18C52",
"n 	c #4E341E",
"o 	c #734D2D",
"p 	c #5D3E24",
"q 	c #EFA05E",
"r 	c #25190E",
"s 	c #251B0B",
"t 	c #9C683D",
"u 	c #EAEAEA",
"v 	c #BDBDBD",
"w 	c #494949",
"x 	c #666666",
"y 	c #141414",
"z 	c #181818",
"A 	c #454545",
"B 	c #3A2717",
"C 	c #4C331D",
"D 	c #241A0B",
"E 	c #E89C5B",
"F 	c #EC9F5D",
"G 	c #E59A5A",
"H 	c #4D3622",
"I 	c #686868",
"J 	c #4D4D4D",
"K 	c #343434",
"L 	c #C1C1C1",
"M 	c #EDEDED",
"N 	c #FFFFFF",
"O 	c #CECECE",
"P 	c #6C6C6C",
"Q 	c #828282",
"R 	c #ABABAB",
"S 	c #D6D6D6",
"T 	c #AEAEAE",
"U 	c #1E1E1E",
"V 	c #20201E",
"W 	c #684629",
"X 	c #99673C",
"Y 	c #A46E40",
"Z 	c #7A5230",
"` 	c #D58F54",
" .	c #7E5531",
"..	c #3A3A3A",
"+.	c #959595",
"@.	c #F3F3F3",
"#.	c #DFDFDF",
"$.	c #A5A5A5",
"%.	c #B0B0B0",
"&.	c #6A6A6A",
"*.	c #6B6B6B",
"=.	c #8F8F8F",
"-.	c #848484",
";.	c #E1E1E1",
">.	c #707070",
",.	c #392716",
"'.	c #DC9456",
").	c #6F4A2B",
"!.	c #563921",
"~.	c #432D1A",
"{.	c #C9874F",
"].	c #523924",
"^.	c #958E89",
"/.	c #464646",
"(.	c #717171",
"_.	c #323232",
":.	c #8E8E8E",
"<.	c #C9C9C9",
"[.	c #BEBEBE",
"}.	c #AAAAAA",
"|.	c #818181",
"1.	c #232323",
"2.	c #38361F",
"3.	c #2F2F28",
"4.	c #372515",
"5.	c #E39859",
"6.	c #97653B",
"7.	c #402B19",
"8.	c #797979",
"9.	c #BABABA",
"0.	c #444444",
"a.	c #272727",
"b.	c #7B7B7B",
"c.	c #999999",
"d.	c #535353",
"e.	c #C0C0C0",
"f.	c #CFCFCF",
"g.	c #646464",
"h.	c #120C06",
"i.	c #714C2C",
"j.	c #946B48",
"k.	c #545250",
"l.	c #DDDDDD",
"m.	c #0A0A0A",
"n.	c #9A9A9A",
"o.	c #080808",
"p.	c #6E6EDD",
"q.	c #3324D5",
"r.	c #0707F1",
"s.	c #A8A8EA",
"t.	c #5B5B5B",
"u.	c #777777",
"v.	c #4E4E4E",
"w.	c #474747",
"x.	c #6868EA",
"y.	c #3825DA",
"z.	c #0000C4",
"A.	c #A3A3BC",
"B.	c #4A4A4A",
"C.	c #41403D",
"D.	c #A6A6A6",
"E.	c #3B3B3B",
"F.	c #B7B7B7",
"G.	c #969696",
"H.	c #787878",
"I.	c #D5D5D5",
"J.	c #C2C2C2",
"K.	c #979797",
"L.	c #161615",
"M.	c #3E3D38",
"N.	c #8A8A88",
"O.	c #A2A2A2",
"P.	c #FDFDFD",
"Q.	c #353535",
"R.	c #3C3C3C",
"S.	c #808080",
"T.	c #838383",
"U.	c #313131",
"V.	c #D7D7D7",
"W.	c #EEEEEE",
"X.	c #727272",
"Y.	c #303030",
"Z.	c #2C2C2C",
"`.	c #6F6F6F",
" +	c #9C9C9C",
".+	c #C4C4C4",
"++	c #E4E4E4",
"@+	c #F6F6F6",
"#+	c #C8C8C8",
"$+	c #BFBFBF",
"%+	c #BCBCBC",
"&+	c #5D5D5B",
"*+	c #D4D4D4",
"=+	c #0F0F0F",
"-+	c #D9D9D9",
";+	c #DBDBDB",
">+	c #858585",
",+	c #363636",
"'+	c #F2F2F2",
")+	c #545454",
"!+	c #484848",
"~+	c #929292",
"{+	c #393939",
"]+	c #392B22",
"^+	c #3F2F23",
"/+	c #474544",
"(+	c #A1A1A1",
"_+	c #868686",
":+	c #24160D",
"<+	c #562B0B",
"[+	c #0E0A01",
"}+	c #E7E7E7",
"|+	c #A3A3A3",
"1+	c #6F370F",
"2+	c #8B4513",
"3+	c #5A2C0C",
"4+	c #211004",
"5+	c #5B2D0C",
"6+	c #371B07",
"7+	c #D8D8D8",
"8+	c #585858",
"9+	c #B8B8B8",
"0+	c #373737",
"a+	c #050505",
"b+	c #52290B",
"c+	c #5C2E0C",
"d+	c #592C0C",
"e+	c #753A10",
"f+	c #301706",
"g+	c #834111",
"h+	c #2E2E2E",
"i+	c #C6C6C6",
"j+	c #5A5A5A",
"k+	c #C7C7C7",
"l+	c #070300",
"m+	c #5A2D0C",
"n+	c #4A240A",
"o+	c #552A0B",
"p+	c #6E360F",
"q+	c #482409",
"r+	c #909090",
"s+	c #C5C5C5",
"t+	c #B5B5B5",
"u+	c #515151",
"v+	c #555555",
"w+	c #616161",
"x+	c #414141",
"y+	c #1C0E03",
"z+	c #3E1E08",
"A+	c #53290B",
"B+	c #1A0D03",
"C+	c #424242",
"D+	c #CDCDCD",
"E+	c #E5E5E5",
"F+	c #595959",
"G+	c #8B8B8B",
"H+	c #110802",
"I+	c #763A10",
"J+	c #69340E",
"K+	c #64310D",
"L+	c #4B4B4B",
"M+	c #D2D2D2",
"N+	c #ADADAD",
"O+	c #3F1F08",
"P+	c #482309",
"Q+	c #311806",
"R+	c #1A1A1A",
"S+	c #0C0B00",
"T+	c #17160D",
"U+	c #18170F",
"                                                                ",
"                                              .                 ",
"                                              + @ #             ",
"                                                $ % &           ",
"              *                                   = - ;         ",
"            > ,             '     ) ! ~ {           ] ^ /       ",
"          > (         _ : : < [ } | 1 1 2 3           4 5       ",
"        6 7 8         9 1 1 1 1 0 a 1 1 1 b c         9 d       ",
"      e f g         h 1 i : j k l l l m n o p       h q r       ",
"      5 1 s       t 1 1 5 } u v } w x y } z x A   B : C         ",
"      5 1 D     h E F G H I J K L M N O P Q R S L L T U V       ",
"      5 1 W   X Y Z `  .I ..+.N @.#.#.$.%.&.*.=.R -.;.N N >.    ",
"      ,.'.l ).!.~.{.].^./.(._.w :.<.[.}.T v |.1.    2.3.3.      ",
"        4.5.1 1 6.7.8.9.0.>.a.b.c.b.d.e.[.[.f.g.                ",
"          h.i.j.k.u l.m.n.o.p.q.r.s.t.J [.[.[.-.                ",
"            } 9.N N u.v.l.w.x.y.z.A.} B.[.[.[.|.                ",
"          C.N D.K } U N E.F.N G.t.H.I.J.[.[.[.K.L.              ",
"          M.N.    w B.D.=.O.P.G.w.Q.u L [.[.[.[.R.              ",
"                w.x G.S.T.U.O.N >.V.W.S [.[.[.[.X.              ",
"              Y.I.Z.+.x `.>. +.+++N N @+#+$+[.[.%+&+            ",
"              R.*+c.=+0.S >.+.N S.-+N N N ;+[.#+>+,+            ",
"              R.e.'+)+-.:.D.!+S.~+{+ +]+^+/+(+_+:+<+[+          ",
"              R.$+}+t.O Z.x &.|+t.t.:.1+2+3+4+} 5+6+            ",
"                T.7+X.8+9+t.~+1.P 0+a+b+c+d+e+f+g+}             ",
"                h+i+O j+)+J A k+}  +} l+m+n+o+p+q+              ",
"                  r+s+t+u+v+J w+x+} }   y+z+A+A+B+              ",
"                  C+9.D+E+x #+F+a.G+P   H+I+J+K+y+              ",
"                    L+:..+#.(.M+} N+B.    O+P+Q+                ",
"                        -.N+t+*+I R+S+                          ",
"                          h+t+[.}                               ",
"                            T+U+                                ",
"                                                                "};
