/* XPM */
static char * folder_16x16_xpm[] = {
/* width height num_colors chars_per_pixel */
"16 16 4 1",
/* colors */
" 	s None	c none",
".	c white",
"*	c #C0C0C0",
"#	c black",
/* pixels */
"                ",
"                ",
"  ########      ",
"  #......##     ",
"  #......#*#    ",
"  #......#**#   ",
"  #......#####  ",
"  #..........#  ",
"  #..........#  ",
"  #..........#  ",
"  #..........#  ",
"  #..........#  ",
"  #..........#  ",
"  #..........#  ",
"  ############  ",
"                "};
