/* XPM */
static char *focus_32x32[] = {
/* columns rows colors chars-per-pixel */
"32 32 3 1 ",
"  c black",
". c white",
"X c None",
/* pixels */
"XXXXXXXXXXXXXX.  .XXXXXXXXXXXXXX",
"XXXXXXXXXXXXXX.  .XXXXXXXXXXXXXX",
"XXXXXXXXXXXX..    ..XXXXXXXXXXXX",
"XXXXXXXXX...        ...XXXXXXXXX",
"XXXXXXXX.              .XXXXXXXX",
"XXXXXX..                ..XXXXXX",
"XXXXX.     ....  ....     .XXXXX",
"XXXXX.    .XXX.  .XXX.    .XXXXX",
"XXXX.   ..XXXX.  .XXXX..   .XXXX",
"XXX.    .XXXXX.  .XXXXX.    .XXX",
"XXX.   .XXXXXX.  .XXXXXX.   .XXX",
"XXX.  .XXXXXXXX..XXXXXXXX.  .XXX",
"XX.   .XXXXXXXXXXXXXXXXXX.   .XX",
"XX.   .XXXXXXXXXXXXXXXXXX.   .XX",
"..    .....XXXXXXXXXX.....    ..",
"           .XXXXXXXX.           ",
"           .XXXXXXXX.           ",
"..    .....XXXXXXXXXX.....    ..",
"XX.   .XXXXXXXXXXXXXXXXXX.   .XX",
"XX.   .XXXXXXXXXXXXXXXXXX.   .XX",
"XXX.  .XXXXXXXX..XXXXXXXX.  .XXX",
"XXX.   .XXXXXX.  .XXXXXX.   .XXX",
"XXX.    .XXXXX.  .XXXXX.    .XXX",
"XXXX.   ..XXXX.  .XXXX..   .XXXX",
"XXXXX.    .XXX.  .XXX.    .XXXXX",
"XXXXX.     ....  ....     .XXXXX",
"XXXXXX..                ..XXXXXX",
"XXXXXXXX.              .XXXXXXXX",
"XXXXXXXXX...        ...XXXXXXXXX",
"XXXXXXXXXXXX..    ..XXXXXXXXXXXX",
"XXXXXXXXXXXXXX.  .XXXXXXXXXXXXXX",
"XXXXXXXXXXXXXX.  .XXXXXXXXXXXXXX"
};
