/* XPM */
static char * fte_16x16_xpm[] = {
"16 16 2 1",
" 	c None",
".	c #FF0000",
"                ",
" .....          ",
" .              ",
" ....           ",
" .              ",
" .   .....      ",
"       .        ",
"       .        ",
"       .        ",
"       .  ..... ",
"          .     ",
"          ....  ",
"          .     ",
"          ..... ",
"                ",
"                "};
