/* XPM */
static char *magick[] = {
/* columns rows colors chars-per-pixel */
"32 32 8 1",
"  c #2c9b28791ed1",
". c #44a638002600",
"X c #4f5948713895",
"o c #63285fed573d",
"O c #a33ea1dea049",
"+ c #d3c9d3fed3a1",
"@ c #c655c255bc80",
"# c #8fca835e6e00",
/* pixels */
"++++++++++++++++++++++++++++++++",
"++++++++++++++++++++++++++++++++",
"++++++++++++++++++++++++++++++++",
"+++++++++++++++++++++++++++@++++",
"++++++++++++++++++++++++++@O++++",
"+++++@+++++++++@@+++++++++OO++++",
"++++++O@+++++++O#++++++++OoO++++",
"++++++OO@@OooXXX.ooO@+++OooO@+++",
"++++++@#o.           O@OoooO@+++",
"++++++@#.            o#ooooO@@++",
"++++++@O.            XoooXoO@@++",
"++++++@@#XX....    .XXXoXXoOO@++",
"+++++++++O#O@@OoXXXXXXXXXooOO@++",
"+OooO@++@++++++@ooXXX..XXooO@@++",
"OoOX #+O o+++Oo+ooXX....XoOO@@++",
"oOOo XOO o++OX OooXX... XoOO@+++",
"oXoX.Xoo###+@XoooXX...  ooO@@+++",
"o XXooooo#o#O#ooXXX... XoOO@++++",
"O.XooooooooooooX.X...  XoO@+++++",
"+OooooXXXooooXX.XoXXX.XoOO@@++++",
"++O#oXXXXXXX.  Xoo####OOOOoXoO++",
"+++@OX       .Xoo. .o#OO@O.XooO@",
"+++@@OoX    XXX.     XooOOOooOO+",
"++++@OOOooX        XXoooOOOO@@@+",
"++++@@OOOoooXXXXoooooOOOOOOO@@@+",
"+++++@@@OOOOOooOOOOOOO@@@@@@@@++",
"+++++++@@@@OOOOOO@@@@@++++@+++++",
"++++++++++@@@@@@@+++++++++++++++",
"++++++++++++++++++++++++++++++++",
"++++++++++++++++++++++++++++++++",
"++++++++++++++++++++++++++++++++",
"++++++++++++++++++++++++++++++++"
};
