/* XPM */
static char * gimp_32x32_xpm[] = {
"32 32 65 1",
" 	c None",
".	c #020202",
"+	c #A69E82",
"@	c #22221A",
"#	c #706A5A",
"$	c #474236",
"%	c #D9D9D6",
"&	c #525251",
"*	c #988F79",
"=	c #C1BFBB",
"-	c #1F1E19",
";	c #828282",
">	c #605A4A",
",	c #312E27",
"'	c #BDBAB9",
")	c #141311",
"!	c #827B69",
"~	c #34322E",
"{	c #ECECEB",
"]	c #726250",
"^	c #696251",
"/	c #49463B",
"(	c #B2B0AA",
"_	c #3C3930",
":	c #0E0E0C",
"<	c #7D7666",
"[	c #ABA9A5",
"}	c #DEDEDE",
"|	c #584D3D",
"1	c #656565",
"2	c #0C0A09",
"3	c #7D7D7D",
"4	c #433E33",
"5	c #6E6E6A",
"6	c #CACACA",
"7	c #949494",
"8	c #B69A7E",
"9	c #565656",
"0	c #4F4A3E",
"a	c #8D8474",
"b	c #927A5A",
"c	c #585344",
"d	c #6E6656",
"e	c #888886",
"f	c #3C3C3C",
"g	c #6A5C48",
"h	c #F4F4F2",
"i	c #727272",
"j	c #0A0606",
"k	c #64645E",
"l	c #524E40",
"m	c #9A9686",
"n	c #9E9A92",
"o	c #645E4E",
"p	c #7E664A",
"q	c #424242",
"r	c #2B2922",
"s	c #5E5546",
"t	c #78715E",
"u	c #A6A091",
"v	c #6A6654",
"w	c #E6E6E6",
"x	c #968A72",
"y	c #4E4E4E",
"z	c #767676",
"                                ",
"                                ",
"                                ",
"                                ",
"                                ",
"                                ",
"                          #^    ",
"       u                  #>    ",
"       +*                #v|    ",
"        *!              d^o     ",
"        *at>          d#^>c     ",
"        <x!t^o     o^dd^os4     ",
"        [ua!mum!td^^o>>sc0)     ",
"       =6{u({h{=tdoscl0l0r.     ",
"  9if-e3/}h%e3{w<d>|/$44@.      ",
"  ;[y,1e7w%'ffw%t^s04__-..      ",
" )91ff&!u*a';(%'^>l/4_rj..      ",
"  ~qq&kd<!!au[n!oc0$__-..       ",
"  ~q915ovttt##^o0$$4_~j..       ",
"   &1z#lsodv^o>l4l4__-..        ",
"    #^0/0lcc0$~0dg$4,)2j        ",
"     4~,,rrrr,4svsgpp]|$        ",
"       ):2)-,_00r).2|b8=73      ",
"          j2:::j.....   66k~    ",
"             .....         )~   ",
"                            rf  ",
"                                ",
"                                ",
"                                ",
"                                ",
"                                ",
"                                "};
