/* XPM */
static char *hlp32[] = {
/* columns rows colors chars-per-pixel */
"32 32 93 2 ",
"   c #7C3232",
".  c #7D3333",
"X  c #7E3333",
"o  c #773F3F",
"O  c #783F3F",
"+  c #7F3D3D",
"@  c #7F3E3E",
"#  c #666262",
"$  c #666363",
"%  c gray40",
"&  c #676767",
"*  c #686969",
"=  c #696D6D",
"-  c #6A6C6C",
";  c #6A6D6D",
":  c #686E6E",
">  c #6F6F6F",
",  c #7C6565",
"<  c #7D6565",
"1  c #6A7070",
"2  c #6B7070",
"3  c #6F7171",
"4  c gray44",
"5  c #717070",
"6  c #7C7676",
"7  c #787E7E",
"8  c #7A7E7E",
"9  c #7C7E7E",
"0  c #951F1F",
"q  c #B41313",
"w  c #992626",
"e  c #8A3C3C",
"r  c #9F3A3A",
"t  c #A22222",
"y  c #A52828",
"u  c #A22E2E",
"i  c #A32E2E",
"p  c #AB2A2A",
"a  c #AE2C2C",
"s  c #AF2C2C",
"d  c #BD2424",
"f  c #B72A2A",
"g  c #B92E2E",
"h  c #A53030",
"j  c #A43434",
"k  c #A53434",
"l  c #C61D1D",
"z  c #C22525",
"x  c #C32525",
"c  c #C92828",
"v  c #CB2929",
"b  c #CB2B2B",
"n  c #CA2E2E",
"m  c #CE2E2E",
"M  c #CF2E2E",
"N  c #CF2F2F",
"B  c #DC2929",
"V  c #C53030",
"C  c #C63030",
"Z  c #CD3131",
"A  c #CE3131",
"S  c #CD3737",
"D  c #E33434",
"F  c #E43B3B",
"G  c #E83A3A",
"H  c #E83D3D",
"J  c #BB4444",
"K  c #BB4545",
"L  c #BB4646",
"P  c #BC4646",
"I  c #917878",
"U  c #957F7F",
"Y  c #C94545",
"T  c #CA4949",
"R  c #D14242",
"E  c #DA4444",
"W  c #DA4747",
"Q  c #E14242",
"!  c #EB4141",
"~  c #E44B4B",
"^  c #F14848",
"/  c #DB9200",
"(  c #7D8080",
")  c #818282",
"_  c #838383",
"`  c #858A8A",
"'  c #939A9A",
"]  c #9A9D9D",
"[  c gray62",
"{  c #A38C8C",
"}  c #A09A9A",
"|  c #9FA0A0",
" . c None",
/* pixels */
" . . . . . . . . . . .- - - - - - - - - -  . . . . . . . . . . .",
" . . . . . . . . .; - - -  . . . . . .- - - ;  . . . . . . . . .",
" . . . . . .- -  .; ;  . . . . . . . . . .; ;  .- -  . . . . . .",
" . . . . .; : * / /  . . . .& % % &  . . . ./ / * : ;  . . . . .",
" . . . .- =  . ./ / # 1 3 5 4 > > 4 5 3 2 $ / /  . .= -  . . . .",
" . . .; =  . . .X O / , 6 ( ) _ _ ) ( 6 < / o .  . . .= ;  . . .",
" . .- :  . . .x s h k / U ' ] [ [ ] ' U / j u p z  . . .: -  . .",
" . .- *  . .x v N A C K / { } | | } { / L V n b c z  . .* -  . .",
" . . ./ / . a N G ! E Y J / I ` ` I / P T W H D b p   / /  . . .",
" .; ; / / O h Z ! ^ Q S f r / 7 7 / r g R ~ ^ H n i o / / ; ;  .",
" .- ;  .# / k C E Q B l t e / 8 8 / e y M F ~ W V j / #  .; -  .",
"- -  . .1 , / K Y S l q 0 + / 9 9 / @ w d m R T L / , 1  . .- - ",
"- -  . .3 6 U / J f t 0 0 e  . . . .e 0 w y g P / U 6 3  . .- - ",
"-  . . .5 ( ' { / r e + e  . . . . . .e @ e r / { ' ( 5  . . .- ",
"-  . .& 4 ) ] } I / / /  . . . . . . . ./ / / I } ] ) 4 &  . .- ",
"-  . .% > _ [ | ` 7 8 9  . . . . . . . .9 8 7 ` | [ _ > %  . .- ",
"-  . .% > _ [ | ` 7 8 9  . . . . . . . .9 8 7 ` | [ _ > %  . .- ",
"-  . .& 4 ) ] } I / / /  . . . . . . . ./ / / I } ] ) 4 &  . .- ",
"-  . . .5 ( ' { / r e @ e  . . . . . .e @ e r / { ' ( 5  . . .- ",
"- -  . .3 6 U / P g y w 0 e  . . . .e 0 w y g P / U 6 3  . .- - ",
"- -  . .1 , / L T R m d w @ / 9 9 / @ w d m R T L / , 1  . .- - ",
" .- ;  .# / j V W ~ F M y e / 8 8 / e y M F ~ W V j / #  .; -  .",
" .; ; / / o i n H ^ ~ R g r / 7 7 / r g R ~ ^ H n i o / / ; ;  .",
" . . ./ /   p b D H W T P / I ` ` I / P T W H D b p   / /  . . .",
" . .- *  . .z c b n V L / { } | | } { / L V n b c z  . .* -  . .",
" . .- :  . . .z p u j / U ' ] [ [ ] ' U / j u p z  . . .: -  . .",
" . . .; =  . . .. o / < 6 ( ) _ _ ) ( 6 < / o .  . . .= ;  . . .",
" . . . .- =  . ./ / $ 2 3 5 4 > > 4 5 3 2 $ / /  . .= -  . . . .",
" . . . . .; : * / /  . . . .& % % &  . . . ./ / * : ;  . . . . .",
" . . . . . .- -  .; ;  . . . . . . . . . .; ;  .- -  . . . . . .",
" . . . . . . . . .; - - -  . . . . . .- - - ;  . . . . . . . . .",
" . . . . . . . . . . .- - - - - - - - - -  . . . . . . . . . . ."
};
