/* XPM */
static char *help_16x16_xpm[] = {
"16 16 39 1",
"A	c #676D6F",
"B	c #6A6C6C",
"C	c #6A6C6D",
"D	c #727063",
"E	c #797878",
"F	c #7A7B7B",
"G	c #9F3525",
"H	c #90342E",
"I	c #90352F",
"J	c #B82D2E",
"K	c #A13929",
"L	c #A1392A",
"M	c #BB3031",
"N	c #C22224",
"O	c #C12526",
"P	c #C42628",
"Q	c #C93032",
"R	c #D33C3C",
"S	c #E33C3C",
"T	c #E53D3E",
"U	c #AE651C",
"V	c #AF651C",
"W	c #BB562F",
"X	c #BD5430",
"Y	c #BE5430",
"Z	c #BC5831",
"a	c #927046",
"b	c #927146",
"c	c #A07E47",
"d	c #A07E48",
"e	c #D54242",
"f	c #A58133",
"g	c #A58134",
"h	c #A58234",
"i	c #9B8562",
"j	c #AA8763",
"k	c #AA8863",
"l	c #999898",
" 	c None",
"     CBBBBC     ",
"   Dg  FF  hD   ",
"  A VVEFFEVV A  ",
" D PMYjllkXJO D ",
" fVMTRWiiZeSJUf ",
"C VYRNGddLQeXV C",
"B EjWGH  IKZjE B",
"BFFlic    cilFFB",
"BFFlic    cilFFB",
"B EjZKI  IKZjE B",
"C VXeQLddLQeXV C",
" fUJSeZiiZeSJUf ",
" D OJXkllkXJO D ",
"  A VVEFFEVV A  ",
"   Dh  FF  hD   ",
"     CBBBBC     "
};
