/* XPM */
static char *hibernate_16x16_xpm[] = {
/* columns rows colors chars-per-pixel */
"16 16 22 1 ",
"  c None",
". c #00369C",
"X c #00369D",
"o c #00379D",
"O c #043A9F",
"+ c #093FA3",
"@ c #093FA4",
"# c #0A40A4",
"$ c #0C42A5",
"% c #1C50B0",
"& c #2B5EBB",
"* c #2F61BE",
"= c #3A6BC5",
"- c #4A79D1",
"; c #4C7BD2",
": c #4D7BD2",
"> c #4D7CD3",
", c #5381D7",
"< c #5684D9",
"1 c #5785D9",
"2 c #5785DA",
"3 c #5885DA",
/* pixels */
"       <<       ",
"       <<       ",
"    <  <<  <    ",
"   <<  <<  <<   ",
"  <<<  <<  <<<  ",
"  <<<  <<  <<<  ",
" <<<   <,   >>; ",
" <<3   =%   @@# ",
" <-*   +X   XXX ",
" &$X        XXX ",
"  XXX      XXX  ",
"  XXXX    XXXX  ",
"   XXXXXXXXXX   ",
"    XXXXXXXX    ",
"      XXXX      ",
"                "
};
