/* XPM */
static char * hibernate_32x32_xpm[] = {
"32 32 3 1",
" 	c None",
".	c #5684D9",
"+	c #00379D",
"              ....              ",
"              ....              ",
"              ....              ",
"              ....              ",
"        ..    ....    ..        ",
"        ..    ....    ..        ",
"      ....    ....    ....      ",
"      ....    ....    ....      ",
"    ......    ....    ......    ",
"    ......    ....    ......    ",
"    ......    ....    ......    ",
"    ......    ....    ......    ",
"  ......      ....      ......  ",
"  ......      ....      ......  ",
"  ......      ...+      ++++++  ",
"  ......      .+++      ++++++  ",
"  ......      ++++      ++++++  ",
"  ....++      ++++      ++++++  ",
"  ..++++                ++++++  ",
"  ++++++                ++++++  ",
"    ++++++            ++++++    ",
"    ++++++            ++++++    ",
"    ++++++++        ++++++++    ",
"    ++++++++        ++++++++    ",
"      ++++++++++++++++++++      ",
"      ++++++++++++++++++++      ",
"        ++++++++++++++++        ",
"        ++++++++++++++++        ",
"            ++++++++            ",
"            ++++++++            ",
"                                ",
"                                "};
