/* XPM */
static char *magick[] = {
/* columns rows colors chars-per-pixel */
"32 32 4 1",
"  c #9f0740",
". c none",
"X c #ac9fa4",
"o c #64414e",
/* pixels */
"................................",
"................................",
"................................",
"................................",
"................................",
"...............XXX XX...........",
".............         XX........",
"............X          X.X......",
"............X          XXX......",
"..............        ooXX.X....",
"..............X      ooXoXX.....",
"..............X      oooXXXX....",
"..............X      ooooX......",
"..............X      ooooXX.....",
"..............X      oooXXX.....",
"..............X     ooooXX......",
"........X.....X      ooooX......",
".......    X..X     ooooXXX.....",
"......     XXXX    oooooXX......",
"......      XXX   o ooooXX......",
"......      XX    o ooooXX......",
"......      o   o ooooooX.X.....",
".......         o ooooooXX......",
".......X      o oooooooXX.......",
"........Xo   o o ooooooXX.X.....",
"........XXXoooooooooooXXX.......",
"........X.XooooooooooXXX........",
"..........XXXXXoXooXXXX.........",
".........X.XXXXXXXXXXX..........",
"..............XXXX.X............",
"............X...................",
"................................"
};
