/* XPM */
static char * xlock_32x32_xpm[] = {
"34 34 173 2",
"  	c None",
". 	c #000000",
"+ 	c #FEFEFC",
"@ 	c #BEBEBC",
"# 	c #EEEEEE",
"$ 	c #3F0000",
"% 	c #C6C6C6",
"& 	c #767674",
"* 	c #585858",
"= 	c #C49874",
"- 	c #FDFDEC",
"; 	c #808080",
"> 	c #FEFAA5",
", 	c #F6F294",
"' 	c #E7E7E7",
") 	c #E1DF5C",
"! 	c #B7B7B7",
"~ 	c #E1E1E1",
"{ 	c #996F55",
"] 	c #757575",
"^ 	c #E1DE5A",
"/ 	c #B9B9B9",
"( 	c #E5E5E5",
"_ 	c #E2E1DF",
": 	c #E1DE59",
"< 	c #E4E4E4",
"[ 	c #E1BA8E",
"} 	c #F0F0D3",
"| 	c #D6D351",
"1 	c #B3B3B3",
"2 	c #E2E2E2",
"3 	c #DBD853",
"4 	c #B0B0B0",
"5 	c #D8D8D8",
"6 	c #4A4A4C",
"7 	c #07538E",
"8 	c #0C8DF1",
"9 	c #07528C",
"0 	c #CFCE3E",
"a 	c #D4D43C",
"b 	c #D4D33B",
"c 	c #D4D33A",
"d 	c #D4D339",
"e 	c #D4D338",
"f 	c #D4D337",
"g 	c #D4D236",
"h 	c #D4D235",
"i 	c #D4D234",
"j 	c #06497D",
"k 	c #B1B1B0",
"l 	c #ADADAD",
"m 	c #DFDFDF",
"n 	c #D7D7D7",
"o 	c #7CC1F7",
"p 	c #07518A",
"q 	c #070739",
"r 	c #11113A",
"s 	c #0A0A2C",
"t 	c #070700",
"u 	c #070717",
"v 	c #070728",
"w 	c #07072B",
"x 	c #07073B",
"y 	c #070727",
"z 	c #064A7F",
"A 	c #06487B",
"B 	c #AEAEAD",
"C 	c #AAAAAA",
"D 	c #DEDEDE",
"E 	c #D5D5D5",
"F 	c #FFFFFF",
"G 	c #075088",
"H 	c #064F87",
"I 	c #064D83",
"J 	c #064B81",
"K 	c #ABABAB",
"L 	c #A7A7A7",
"M 	c #DDDDDD",
"N 	c #FEFAA6",
"O 	c #A4A4A4",
"P 	c #DCDCDC",
"Q 	c #D4D4D4",
"R 	c #A5A5A4",
"S 	c #A1A1A1",
"T 	c #DBDBDB",
"U 	c #D2D2D2",
"V 	c #A2A2A2",
"W 	c #9E9E9E",
"X 	c #DADADA",
"Y 	c #9F9F9F",
"Z 	c #9A9A9A",
"` 	c #D1D1D1",
" .	c #064779",
"..	c #9C9C9C",
"+.	c #979797",
"@.	c #D9D9D9",
"#.	c #D0D0D0",
"$.	c #999999",
"%.	c #949494",
"&.	c #064E85",
"*.	c #969696",
"=.	c #919191",
"-.	c #CFCFD0",
";.	c #939393",
">.	c #8F8F8F",
",.	c #CECECE",
"'.	c #CBCBCB",
").	c #C8C8C8",
"!.	c #C5C5C5",
"~.	c #C2C2C2",
"{.	c #BFBFBF",
"].	c #BCBCBC",
"^.	c #B6B6B6",
"/.	c #AEAEAE",
"(.	c #A6A6A6",
"_.	c #9D9D9D",
":.	c #9B9B9B",
"<.	c #989898",
"[.	c #959595",
"}.	c #929292",
"|.	c #909090",
"1.	c #BBBBBB",
"2.	c #B8B8B8",
"3.	c #AFAFAF",
"4.	c #ACACAC",
"5.	c #A9A9A9",
"6.	c #A3A3A3",
"7.	c #A0A0A0",
"8.	c #8A918A",
"9.	c #009000",
"0.	c #8B8F8B",
"a.	c #CACACA",
"b.	c #B5B5B5",
"c.	c #B2B2B2",
"d.	c #B1B1B1",
"e.	c #879187",
"f.	c #38FB30",
"g.	c #8B928B",
"h.	c #111113",
"i.	c #2F2F2E",
"j.	c #4D4D4E",
"k.	c #646464",
"l.	c #808081",
"m.	c #B1B1AF",
"n.	c #D9D9DB",
"o.	c #CDCDCE",
"p.	c #A2A2A4",
"q.	c #7A7A7A",
"r.	c #555555",
"s.	c #2A2A2A",
"t.	c #0A0A0B",
"u.	c #20201F",
"v.	c #373737",
"w.	c #414142",
"x.	c #494949",
"y.	c #515153",
"z.	c #5B5B5B",
"A.	c #616162",
"B.	c #6F6F71",
"C.	c #6B6B6D",
"D.	c #5E5E60",
"E.	c #505051",
"F.	c #454545",
"G.	c #31312F",
"H.	c #0C0C0D",
"I.	c #898989",
"J.	c #DBDBD9",
"K.	c #C9C9C7",
"L.	c #4C4C4C",
"M.	c #797977",
"N.	c #797978",
"O.	c #7B7B7B",
"P.	c #6F6F6E",
"                                                                    ",
"    . . . . . . . . . . . . . . . . . . . . . . . . . . . . . .     ",
"  . + + + + + + + + + + + + + + + + + + + + + + + + + + + + + @ .   ",
"  . + # $ $ $ $ $ $ $ $ . . . . . . . . . . . . $ $ $ $ $ $ % & .   ",
"  . + * = = = = = = = . - - - - - - - - - - - - . = = = = = * & .   ",
"  . + ; = = = = = = . - > > > > > > > > . . . . , . = = = = ; & .   ",
"  . + ' $ $ $ $ $ . - > > > > > . . . > > > > . > ) . $ $ $ ! & .   ",
"  . + ' ~ { { { { . - > . . ] > > ] . > > . . > > ^ . { { ! / & .   ",
"  . + ( _ = = = = . - > > . > > . ] > > . > > > > : . = = ! ! & .   ",
"  . + < ~ [ [ [ [ . } > ] . . > . . . > . . . . > | . [ [ ! 1 & .   ",
"  . + 2 . . . . . . . - > > > > > > > > > > > > 3 . . . . . 4 & .   ",
"  . + ~ 5 6 7 7 8 9 9 . 0 a b c c d e f g h i i . . j j + k l & .   ",
"  . + m n 6 7 7 o 9 p p q r s t t t u v w w x y z j j A + B C & .   ",
"  . + D E 6 8 o F o 8 p G G H . . . . I I J o z z j j A + K L & .   ",
"  . + M E 6 7 9 o p p G G G . g N N g . 8 o F o 8 j A A + L O & .   ",
"  . + P Q 6 7 9 8 p p G G H . g N N g . J J o z j 8 A A + R S & .   ",
"  . + T U 6 9 9 p p G G . . . . . . . J 8 z 8 j j o A A + V W & .   ",
"  . + X U 6 9 9 p p G . g N g . I I I J o z z 8 o F o 8 + Y Z & .   ",
"  . + X ` 6 9 p p p G . g N g . I I 8 o F o 8 j j o A  .+ ..+.& .   ",
"  . + @.#.6 9 p p G G H . . . I I I J J o z j j A 8  . .+ $.%.& .   ",
"  . + 5 #.6 p p p G G H H &.&.I I J J z 8 j j j A A  . .+ *.=.& .   ",
"  . + 5 -.6 + + + + + + + + + + + + + + + + + + + + + + + ;.>.& .   ",
"  . + 5 E ` ,.'.).!.~.{.]./ ^.1 /.l C (.O S _.:.<.[.}.|.>.>.>.& .   ",
"  . + n Q ` ,.'.).!.~.{.1.2.^.1 3.4.5.(.6.7._.Z +.%.8.9.9.0.>.& .   ",
"  . + n Q ` ,.a.).!.~.{.1.2.b.c.d.4.5.(.6.7._.$.*.%.e.9.f.g.>.& .   ",
"  . @ & & & & & & & & & & & & & & & & & & & & & & & & & & & & & .   ",
"    . . . . . . . . . . . . . . . . . . . . . . . . . . . . . .     ",
"                  . h.i.j.k.l.Z m.n.o.p.q.r.s.t.                    ",
"                  . u.v.w.x.y.z.A.B.C.D.E.F.G.H.                    ",
"            . . . . . . . . . . . . . . . . . . . . .               ",
"          . I.J.J.J.J.J.J.J.J.J.J.J.J.J.J.J.J.J.J.J.K..             ",
"          . L.M.q.N.M.M.M.M.N.q.M.M.M.O.M.M.M.M.M.M.P..             ",
"            . . . . . . . . . . . . . . . . . . . . .               ",
"                                                                    "};
