/* XPM */
static char * navigator_16x16_xpm[] = {
"16 16 9 1",
" 	c None",
".	c #7D7D7D",
"+	c #007D7D",
"@	c #000000",
"#	c #00007D",
"$	c #007D00",
"%	c #0000FF",
"&	c #BEBEBE",
"*	c #00FFFF",
"................",
".+@+@+@+@+@+@+@+",
".@+@+@+@+@+@+@+@",
".+@+#$#+#+#$#$#$",
".@+#+#+#+#+#+#+#",
".+#+#+%++#+#+#+#",
".#+#+#++&.#%+#+#",
".+#+#+#.+.#+#+%+",
".+%+#+#%&#@+#++.",
".&&$%++*.+.%+%&+",
".++++*.+..+&+*.+",
".%+&+.+.+.++&..#",
".#*+++.@.+@++.&@",
".@&+..+@&@..+++.",
".+.++@&+*.++@..+",
".&.&.++&+.+.++.+"};
