/* XPM */
static char * netscape_16x16_xpm[] = {
"16 16 10 1",
" 	c None",
".	c #008080",
"+	c #0000FF",
"@	c #FF0000",
"#	c #FFFF00",
"$	c #000080",
"%	c #C0C0C0",
"&	c #FFFFFF",
"*	c #000000",
"=	c #808080",
".+.+@#+$%$.+.+.+",
"+.+.+#@%&%$  .+*",
".  + $%&%  $.+**",
"+.##@=&&===   **",
".#.@+#+##@@+#***",
"+#@.+=*%*=*   **",
"  #@.  &  =$@  *",
"+.##@ %&%=**#@@*",
" +.##@%&%=***#@@",
"+.+.  @&%=****@ ",
".+ + # #@=****@ ",
"+.+   @##@@     ",
".+.  * @@#@@@@@ ",
"+.   *%&%=**    ",
".+***=%& = *****",
"+   =*====***   "};
