/* XPM */
static char *acro2[] = {
/* width height num_colors chars_per_pixel */
"    16    16        2            1",
/* colors */
". c none s none",
"a c #ff0000",
/* pixels */
"......a.........",
".....a.a........",
".....a.a........",
".....a.a........",
"......aa........",
"......aa........",
"......aa........",
".....a..a.......",
".....a...aa.....",
".....a..aaaaa..a",
"....a.aa.....aaa",
"....a...........",
"...a............",
".a.a............",
"a.a.............",
"aa.............."
};
