/* XPM */
static char * programs_16x16_xpm[] = {
"16 16 116 2",
"  	c None",
". 	c #564602",
"+ 	c #826A02",
"@ 	c #625622",
"# 	c #FECE02",
"$ 	c #7E817A",
"% 	c #2D3225",
"& 	c #BBBDBA",
"* 	c #020202",
"= 	c #D9DDDA",
"- 	c #4A594E",
"; 	c #566658",
"> 	c #5B6357",
", 	c #FECE06",
"' 	c #FECE12",
") 	c #FED21E",
"! 	c #FED62A",
"~ 	c #FED636",
"{ 	c #FEDA42",
"] 	c #FEDA4E",
"^ 	c #FEDE5E",
"/ 	c #E5C86B",
"( 	c #CC930A",
"_ 	c #786A41",
": 	c #627067",
"< 	c #FEEA9A",
"[ 	c #FEEEA6",
"} 	c #FECE0E",
"| 	c #FED21A",
"1 	c #FED226",
"2 	c #FED632",
"3 	c #FEDA3E",
"4 	c #FEDA4A",
"5 	c #FEDE5A",
"6 	c #FEE266",
"7 	c #B6A56F",
"8 	c #E5BE5E",
"9 	c #676241",
"0 	c #5D6A60",
"a 	c #FEEEA2",
"b 	c #FEEEAE",
"c 	c #FED216",
"d 	c #FED222",
"e 	c #FED62E",
"f 	c #FED63A",
"g 	c #FEDA46",
"h 	c #FEDE52",
"i 	c #FEDE62",
"j 	c #92958F",
"k 	c #9BAC9B",
"l 	c #D6ECDA",
"m 	c #445346",
"n 	c #465344",
"o 	c #D9DDD9",
"p 	c #FEF2B6",
"q 	c #AEB2AC",
"r 	c #7A8473",
"s 	c #F6FFEC",
"t 	c #DEEACE",
"u 	c #6C7764",
"v 	c #283324",
"w 	c #868F83",
"x 	c #FEF2BE",
"y 	c #FEDE56",
"z 	c #59675F",
"A 	c #E3EBE1",
"B 	c #EAF6DF",
"C 	c #D7E3CA",
"D 	c #7B8571",
"E 	c #101B14",
"F 	c #364337",
"G 	c #D3D8D4",
"H 	c #F7E5C5",
"I 	c #E29F28",
"J 	c #6C602A",
"K 	c #C8D3BB",
"L 	c #EEFBE4",
"M 	c #93A293",
"N 	c #09120C",
"O 	c #6F4F0D",
"P 	c #1F240B",
"Q 	c #B3B5AA",
"R 	c #F1CA94",
"S 	c #F5A836",
"T 	c #FAAC1E",
"U 	c #AD8F4B",
"V 	c #D1DFC9",
"W 	c #C28427",
"X 	c #4C3509",
"Y 	c #E7A631",
"Z 	c #E2A324",
"` 	c #EDBB5D",
" .	c #FEE26E",
"..	c #FEC443",
"+.	c #E09502",
"@.	c #20180A",
"#.	c #667565",
"$.	c #B6842A",
"%.	c #FFB62C",
"&.	c #F8C74F",
"*.	c #F8B616",
"=.	c #F3DDB1",
"-.	c #FEE26A",
";.	c #FEE276",
">.	c #F0C050",
",.	c #B48323",
"'.	c #62686F",
").	c #7A7D7B",
"!.	c #625F4C",
"~.	c #F3B325",
"{.	c #FFC000",
"].	c #EEBC2C",
"^.	c #FEFAE6",
"/.	c #DEBB6E",
"(.	c #EDB614",
"_.	c #DDCB97",
"                                ",
"                                ",
"    . + + + + + + + .           ",
"  @ # # # # # # # # $ % &       ",
"* + + + + + + + + = - ; > * *   ",
"* , ' ) ! ~ { ] ^ / ( _ : < [ * ",
"* } | 1 2 3 4 5 6 7 8 9 0 a b * ",
"* c d e f g h i j k l m n o p * ",
"* ) ! ~ { ] 5 q r s t u v w x * ",
"* 1 2 3 4 y i z A B C D E F G * ",
"* e f g h H I J K L M N O P Q * ",
"* ~ { ] 5 R S T U V W X Y Z ` * ",
"* 3 4 y i  ...+.@.#.$.%.&.*.=.* ",
"* g h ^ -.;.>.,.'.).!.~.{.].^.* ",
"  * * * * * * * * * * /.(._.*   ",
"                                "};
