/* XPM */
static char * programs_32x32_xpm[] = {
"32 32 220 2",
"  	c None",
". 	c #020202",
"+ 	c #FECE02",
"@ 	c #939B91",
"# 	c #505C4D",
"$ 	c #6E736B",
"% 	c #828282",
"& 	c #030802",
"* 	c #131B0C",
"= 	c #101206",
"- 	c #41443B",
"; 	c #C7CBC4",
"> 	c #4A5345",
", 	c #98A690",
"' 	c #262D20",
") 	c #212B1D",
"! 	c #9CA49A",
"~ 	c #CCD7D2",
"{ 	c #4A4C46",
"] 	c #6D7C74",
"^ 	c #D1DEC4",
"/ 	c #5A6553",
"( 	c #8F988E",
"_ 	c #BCAC52",
": 	c #C29B0F",
"< 	c #695924",
"[ 	c #556353",
"} 	c #253227",
"| 	c #FECE06",
"1 	c #FECE0E",
"2 	c #FECE12",
"3 	c #FED21A",
"4 	c #FED21E",
"5 	c #FED226",
"6 	c #FED62A",
"7 	c #FED632",
"8 	c #FED636",
"9 	c #FEDA3E",
"0 	c #FEDA42",
"a 	c #FEDA4A",
"b 	c #FEDA4E",
"c 	c #FEDE56",
"d 	c #FEDE5E",
"e 	c #D6B568",
"f 	c #EDAA00",
"g 	c #EEB00A",
"h 	c #EB9B07",
"i 	c #DA8F20",
"j 	c #454329",
"k 	c #344031",
"l 	c #FEEA92",
"m 	c #FEEA9A",
"n 	c #FEEA9E",
"o 	c #FEEEA6",
"p 	c #FECE0A",
"q 	c #FED216",
"r 	c #FED222",
"s 	c #FED62E",
"t 	c #FED63A",
"u 	c #FEDA46",
"v 	c #FEDE5A",
"w 	c #FEDE62",
"x 	c #DDDDD1",
"y 	c #CB9010",
"z 	c #D19A36",
"A 	c #BE9751",
"B 	c #394639",
"C 	c #FEEA96",
"D 	c #FEEEA2",
"E 	c #FEEEAA",
"F 	c #FEDE52",
"G 	c #FEE266",
"H 	c #7E8483",
"I 	c #989F81",
"J 	c #DDD5A3",
"K 	c #C5D3BD",
"L 	c #829687",
"M 	c #768172",
"N 	c #FEEEAE",
"O 	c #AAACA8",
"P 	c #DDEAD2",
"Q 	c #CBDFC8",
"R 	c #CEDBBE",
"S 	c #68725D",
"T 	c #293222",
"U 	c #3E4B42",
"V 	c #59675A",
"W 	c #D3D4D4",
"X 	c #FEEEB2",
"Y 	c #0B1205",
"Z 	c #ABB9A3",
"` 	c #E6F4DA",
" .	c #D4E1C6",
"..	c #2D382A",
"+.	c #FEF2B6",
"@.	c #C2CDB8",
"#.	c #939D8B",
"$.	c #F9FFEF",
"%.	c #E1EED5",
"&.	c #DAE7CD",
"*.	c #7C8777",
"=.	c #313B2C",
"-.	c #343F30",
";.	c #535F51",
">.	c #FEF2BA",
",.	c #EDEEF2",
"'.	c #6C7866",
").	c #FEE276",
"!.	c #EDF9E6",
"~.	c #EBF7E4",
"{.	c #ABB89E",
"].	c #2B362B",
"^.	c #91916C",
"/.	c #FEF2BE",
"(.	c #858E83",
"_.	c #D8E0D4",
":.	c #F4FAF8",
"<.	c #E4F2DB",
"[.	c #677161",
"}.	c #FEF2C2",
"|.	c #F7FCFE",
"1.	c #7A826D",
"2.	c #424D3E",
"3.	c #18231D",
"4.	c #FEF2C6",
"5.	c #EBC476",
"6.	c #DCA004",
"7.	c #E7F8E1",
"8.	c #717C6C",
"9.	c #1D2417",
"0.	c #090F0B",
"a.	c #463503",
"b.	c #36320D",
"c.	c #FEF6CA",
"d.	c #F3E7D4",
"e.	c #E8B23C",
"f.	c #E99327",
"g.	c #FFA407",
"h.	c #927718",
"i.	c #4F4216",
"j.	c #CFE0D3",
"k.	c #475648",
"l.	c #07120D",
"m.	c #AE6D0E",
"n.	c #78775D",
"o.	c #FEF6CE",
"p.	c #ED8E16",
"q.	c #F69D2A",
"r.	c #F4A432",
"s.	c #FFAC22",
"t.	c #FFB11E",
"u.	c #C67D04",
"v.	c #AFBAA8",
"w.	c #DBAE50",
"x.	c #785515",
"y.	c #C37F1B",
"z.	c #FCB22A",
"A.	c #C8931D",
"B.	c #CA9529",
"C.	c #F4A619",
"D.	c #ECD19A",
"E.	c #E8BC79",
"F.	c #F8AF43",
"G.	c #F7C76E",
"H.	c #F3B949",
"I.	c #FFB115",
"J.	c #BD7201",
"K.	c #626B5B",
"L.	c #CED7C8",
"M.	c #A3AA8B",
"N.	c #E8890B",
"O.	c #F28B0C",
"P.	c #66450D",
"Q.	c #F9B737",
"R.	c #FAC44C",
"S.	c #FCC442",
"T.	c #F89A06",
"U.	c #EAC988",
"V.	c #E8DABD",
"W.	c #FAB40C",
"X.	c #392403",
"Y.	c #C2CAAB",
"Z.	c #B29452",
"`.	c #FCBD3A",
" +	c #FBB100",
".+	c #F7F7F6",
"++	c #FEE26A",
"@+	c #F2EEDA",
"#+	c #F9AA07",
"$+	c #FDBC0A",
"%+	c #000401",
"&+	c #C68B23",
"*+	c #F9C658",
"=+	c #F7C241",
"-+	c #FEFADE",
";+	c #FEE26E",
">+	c #FEE272",
",+	c #E8B64A",
"'+	c #FBBA04",
")+	c #7F4B0E",
"!+	c #4F3807",
"~+	c #FABF25",
"{+	c #DDAA31",
"]+	c #EEF0F9",
"^+	c #FEFAE2",
"/+	c #D4D2CC",
"(+	c #DF9B1A",
"_+	c #DBDCDE",
":+	c #817C6F",
"<+	c #EFA919",
"[+	c #FCC40A",
"}+	c #FFC400",
"|+	c #FEFAE6",
"1+	c #FEE67A",
"2+	c #FEE682",
"3+	c #D6DAE2",
"4+	c #F2A700",
"5+	c #FEFAEA",
"6+	c #CBB386",
"7+	c #C5BCAF",
"                                                                ",
"                                                                ",
"                                                                ",
"                                                                ",
"          . . . . . . . . . . . . . . . .                       ",
"        . + + + + + + + + + + + + + + + + @ # $                 ",
"    % . + + + + + + + + + + + + + + + + $ & * = -               ",
"    . + + + + + + + + + + + + + + + + ; * > , ' ) !             ",
"  . + + + + + + + + + + + + + + + + + ~ { ] ^ / ) (             ",
"  . . . . . . . . . . . . . . . . . . _ : < ] [ } ( . . . . .   ",
"  . + | 1 2 3 4 5 6 7 8 9 0 a b c d e f g h i j k ! l m n o .   ",
"  . | p 2 q 4 r 6 s 8 t 0 u b c v w x y h z A j B ( C n D E .   ",
"  . p 1 q 3 r 5 s 7 t 9 u a F v d G H I J K L } { M m D E N .   ",
"  . 1 2 3 4 5 6 7 8 9 0 a b c d w O k P Q R S T U V W o N X .   ",
"  . 2 q 4 r 6 s 8 t 0 u b F v w O Y Z `  .^ V ..U V ( E X +..   ",
"  . q 3 r 5 s 7 t 9 u a F c d @.* #.$.%.&.&.*.=.-.;.[ ~ +.>..   ",
"  . 3 4 5 6 7 8 9 0 a b c v ,.k '.).!.~.P ^ {.k ) ].# ^.>./..   ",
"  . 4 r 6 s 8 t 0 u b F v d (.} _.:.~.<.&. . .[.) ) B [ ; }..   ",
"  . r 5 s 7 t 9 u a F c |.x B S $.` %.P P @.1.2.3.3.T 2.(.4..   ",
"  . 5 6 7 8 9 0 a b c |.5.6...V 7.%.%.P %.8.9.0.a.b.3...V c..   ",
"  . 6 s 8 t 0 u b F d.e.f.g.h.i.^.<.&.<.j.k.T l.m.y l.* n.o..   ",
"  . s 7 t 9 u a F c d.p.q.r.s.t.u.v.7.K w.x.l.& y.z.A.B.C.D..   ",
"  . 7 8 9 0 a b c v w E.F.G.H.I.J.K.L.M.N.O.P.x.Q.Q.R.S.T.U..   ",
"  . 8 t 0 u b F v d G V.G.G.W.g.X.].Y.O Z.T.s.Q.`.R.R. +e..+.   ",
"  . t 9 u a F c d w ++@+H.#+$+m.%+& =.^.8.&+z.F.*+=+$+f V.-+.   ",
"  . 9 0 a b c v w G ;+>+,+ +'+)+%+-.{ = & !+`.H.~+'+'+{+]+^+.   ",
"  . 0 u b F v d G ++>+)./+(+(+I H /+_+O (.:+<+W.'+[+}+5.|.|+.   ",
"  . u a F c d w ++;+).1+2+3+W C m D o N X >.e 4+'+}+6.; |+5+.   ",
"  . . . . . . . . . . . . . . . . . . . . . . 6+,+w.7+. . . .   ",
"                                                                ",
"                                                                ",
"                                                                "};
