/* XPM */
static char * run_32x32_xpm[] = {
"32 32 85 1",
" 	c None",
".	c #000000",
"+	c #D9D9D9",
"@	c #F5F5F5",
"#	c #959595",
"$	c #E9E9E9",
"%	c #E5E5E5",
"&	c #BABABA",
"*	c #7E7E7E",
"=	c #B5B5B5",
"-	c #7A7A7A",
";	c #8A8A8A",
">	c #ADADAD",
",	c #A5A5A5",
"'	c #525252",
")	c #B2B2B2",
"!	c #757575",
"~	c #424242",
"{	c #A2A2A2",
"]	c #858585",
"^	c #454545",
"/	c #EDEDED",
"(	c #DDDDDD",
"_	c #9D9D9D",
":	c #9A9A9A",
"<	c #E2E2E2",
"[	c #C5C5C5",
"}	c #4A4A4A",
"|	c #020202",
"1	c #F2F2F2",
"2	c #D5D5D5",
"3	c #E1E1E1",
"4	c #828282",
"5	c #868686",
"6	c #323232",
"7	c #D2D2D2",
"8	c #CDCDCD",
"9	c #CACACA",
"0	c #C1C1C1",
"a	c #727272",
"b	c #252525",
"c	c #9E9E9E",
"d	c #DADADA",
"e	c #BDBDBD",
"f	c #6E6E6E",
"g	c #222222",
"h	c #0E0E0E",
"i	c #C6C6C6",
"j	c #BEBEBE",
"k	c #2A2A2A",
"l	c #AAAAAA",
"m	c #C9C9C9",
"n	c #929292",
"o	c #797979",
"p	c #515151",
"q	c #5A5A5A",
"r	c #7D7D7D",
"s	c #C2C2C2",
"t	c #0A0A0A",
"u	c #4E4E4E",
"v	c #0D0D0D",
"w	c #060606",
"x	c #3A3A3A",
"y	c #121212",
"z	c #4D4D4D",
"A	c #B6B6B6",
"B	c #A9A9A9",
"C	c #8D8D8D",
"D	c #1D1D1D",
"E	c #5D5D5D",
"F	c #B9B9B9",
"G	c #6A6A6A",
"H	c #656565",
"I	c #464646",
"J	c #3E3E3E",
"K	c #1A1A1A",
"L	c #363636",
"M	c #151515",
"N	c #767676",
"O	c #353535",
"P	c #161616",
"Q	c #626262",
"R	c #1E1E1E",
"S	c #919191",
"T	c #555555",
"              ....              ",
"             .+@+#.             ",
"             .$%&*.             ",
"             .$%&*.             ",
"     ....    .$%=-.    ....     ",
"    .;>=,.  .'$%)!~.  .{{]^.    ",
"    .>/$(_..#:%<[,;;.._++)}|    ",
"    .)$((@_>@1(22(3(4{+[[56|    ",
"    .,(<(<1/((+27778(2890ab|    ",
"     .c1((3((d227889889efgh     ",
"      ._1<d222777889iij_k.      ",
"      .>$((d8){cl=jim[e_^b      ",
"     .n@ddd8)op}qr)jsss&nkt     ",
" ....u:@(d2)o}v|wx{&sse=_6vyyy. ",
".r$$$$%(222{zv.  .6&0j&Al5;:BB>.",
".C%%$%(d227{p|    D8[e&=)BB>>>_.",
".4&&AA[d778,Ew    bdmeF=>:C4**!.",
".G**o!{d778=rx.  ~f<9&A):HI~~~J.",
" ....~;3889j>{6Dka@+e=),-D||||. ",
"     .;(889[0&e923deF==,qK.     ",
"      .4(89[sjs[ime==){-D.      ",
"      .l29[[sseeeA=))),4LM      ",
"     .l<[[s00ej&&&=){l>,NOP     ",
"    .)<i[el>F&=F=>l,-5l)lGk|    ",
"    .)<[&fIQncl=>:NED^;,)lG|    ",
"    .#=]a^..}zo{_HDK.K~],,G|    ",
"    .HQu~.  .D!,C}|.  RL]]-.    ",
"     ....    .Sl;I.    |||.     ",
"             .))ST.             ",
"             .))ST.             ",
"             .e{]'.             ",
"              ....              "};
