/* XPM */
static char * run_16x16_xpm[] = {
"16 16 12 1",
" 	c None",
".	c #000000",
"+	c #FFFFFF",
"@	c #808080",
"#	c #DCDCDC",
"$	c #A0A0A0",
"%	c #C3C3C3",
"&	c #B7B7B7",
"*	c #BEBEBE",
"=	c #C5C5C5",
"-	c #CCCCCC",
";	c #D3D3D3",
"       ..       ",
"  ..  .+@.  ..  ",
" .#+...+@...+$. ",
" .@%+#@&&$#+%@. ",
"  .$&&&&&*=-@.  ",
"  .@&&$@$=-;-.  ",
" ..#&$@..+;-#.. ",
".++&&@.  .+=*++.",
".@@&&$.  .+*&@@.",
" ..@*=+..+*&$.. ",
"  .*=-;++*&&&.  ",
"  .+-;-=*&&&@.  ",
" .+%@-#*&@&+%@. ",
" .$@...+@...#$. ",
"  ..  .+@.  ..  ",
"       ..       "};
