/* XPM */
static char *key16_xpm[] = {
"16 16 84 2",
"AA	c #534D43",
"BA	c #5B554D",
"CA	c #575752",
"DA	c #5A5851",
"EA	c #5A5953",
"FA	c #5F5A51",
"GA	c #5D5A52",
"HA	c #5C5A53",
"IA	c #5B5A55",
"JA	c #5D5C55",
"KA	c #5E5C54",
"LA	c #5E5D55",
"MA	c #5E5E57",
"NA	c #5E5E58",
"OA	c #605D55",
"PA	c #625E55",
"QA	c #605F57",
"RA	c #5F605A",
"SA	c #686357",
"TA	c #606058",
"UA	c #62615B",
"VA	c #656158",
"WA	c #62625E",
"XA	c #6F675D",
"YA	c #666661",
"ZA	c #676761",
"aA	c #656662",
"bA	c #676662",
"cA	c #676762",
"dA	c #686763",
"eA	c #6A6961",
"fA	c #686862",
"gA	c #6B6B63",
"hA	c #6B6B65",
"iA	c #6B6B67",
"jA	c #6C6A67",
"kA	c #6D6D67",
"lA	c #6F6C66",
"mA	c #6D6D68",
"nA	c #6F706B",
"oA	c #70706A",
"pA	c #72726A",
"qA	c #72736E",
"rA	c #73736E",
"sA	c #75756F",
"tA	c #737470",
"uA	c #747470",
"vA	c #787773",
"wA	c #777871",
"xA	c #777872",
"yA	c #777873",
"zA	c #777874",
"0A	c #787972",
"1A	c #797A75",
"2A	c #797A76",
"3A	c #7A7B76",
"4A	c #7B7B76",
"5A	c #7B7B77",
"6A	c #7D7B78",
"7A	c #7C7D79",
"8A	c #7E7E7A",
"9A	c #7E7F7A",
"+A	c #7E7E7B",
"/A	c #7F807C",
"AB	c #81817E",
"BB	c #82827E",
"CB	c #838482",
"DB	c #888786",
"EB	c #898882",
"FB	c #898985",
"GB	c #898A86",
"HB	c #898A87",
"IB	c #8A8A87",
"JB	c #8A8B89",
"KB	c #8C8B89",
"LB	c #8C8D8B",
"MB	c #8F8D8B",
"NB	c #8E8E8B",
"OB	c #8E8F8C",
"PB	c #90928E",
"QB	c #94948F",
"RB	c #929291",
"SB	c #969692",
"  	c None",
"                                ",
"                                ",
"            KBJBNBRBMB6A        ",
"        uAFBGBPBSBQBEB          ",
"        9A8AHBIB                ",
"      iABByAOB                  ",
"      qA/AtALB                  ",
"    aAzA7AmACB                  ",
"    nA1A5AYA2A                  ",
"  WAdArA4AkAcA+A      DBvAjA    ",
"CANAZALApA0AUAhA3AxAoAbAIA      ",
"WARAfANAgAwAsAOADAKAGAEA        ",
"eAQAMAJATAgAlAXASAPAHA          ",
"VAFABA                          ",
"AA                              ",
"                                "
};
