/* XPM */
static char *windows_16x16[] = {
/* columns rows colors chars-per-pixel */
"16 16 3 1 ",
"  c black",
". c white",
"X c None",
/* pixels */
"XXXXXXXXXXXXXXXX",
"..........XXXXXX",
".        .XXXXXX",
".        .XXXXXX",
". ...... ....XXX",
". ..        .XXX",
". ..        .XXX",
". .. ...... ....",
".    ..        .",
".... ..        .",
"XXX. .. ...... .",
"XXX.    .XXXX. .",
"XXX.... .XXXX. .",
"XXXXXX. ...... .",
"XXXXXX.        .",
"XXXXXX.........."
};
