/* XPM */
static char * xisp_16x16_xpm[] = {
"16 16 153 2",
"  	c None",
". 	c #4A7D9C",
"+ 	c #4B7B97",
"@ 	c #708897",
"# 	c #BEC0C1",
"$ 	c #C7C8C7",
"% 	c #C5C5C5",
"& 	c #C8C8C8",
"* 	c #C7C7C7",
"= 	c #C6C6C6",
"- 	c #A3ABB1",
"; 	c #587B90",
"> 	c #4A7C9B",
", 	c #8A99A2",
"' 	c #D8D6D8",
") 	c #DDDBDD",
"! 	c #DCDADC",
"~ 	c #DAD8DA",
"{ 	c #DBD9DB",
"] 	c #CDCCCD",
"^ 	c #59788A",
"/ 	c #9FA9AF",
"( 	c #9D9D9D",
"_ 	c #767776",
": 	c #777877",
"< 	c #B9B8B9",
"[ 	c #5B7A8C",
"} 	c #919191",
"| 	c #4C4B4C",
"1 	c #4D6070",
"2 	c #517898",
"3 	c #4A4D52",
"4 	c #4B5158",
"5 	c #4F6D86",
"6 	c #4A484A",
"7 	c #4E4D4E",
"8 	c #CBCACB",
"9 	c #4A4C51",
"0 	c #5592C2",
"a 	c #5697C9",
"b 	c #558FBD",
"c 	c #4C5865",
"d 	c #4B535C",
"e 	c #5AAEEE",
"f 	c #5699CC",
"g 	c #4A4D53",
"h 	c #4B4F56",
"i 	c #5592C1",
"j 	c #4D5B69",
"k 	c #5593C3",
"l 	c #5595C6",
"m 	c #3E6379",
"n 	c #8A8E4F",
"o 	c #7B7C3A",
"p 	c #393839",
"q 	c #4D5C6B",
"r 	c #4C5661",
"s 	c #4A4C50",
"t 	c #4F6C85",
"u 	c #4C5966",
"v 	c #53715B",
"w 	c #E4E400",
"x 	c #A3A24E",
"y 	c #B8B860",
"z 	c #EAEA51",
"A 	c #9F9F2F",
"B 	c #7A7B53",
"C 	c #B2B2B2",
"D 	c #B7B7B7",
"E 	c #CFCDCF",
"F 	c #57672F",
"G 	c #77760C",
"H 	c #8D8D0C",
"I 	c #999839",
"J 	c #969600",
"K 	c #9C9B49",
"L 	c #E2E250",
"M 	c #ABAB1B",
"N 	c #75766F",
"O 	c #7D7F7D",
"P 	c #798287",
"Q 	c #758690",
"R 	c #52798F",
"S 	c #426474",
"T 	c #C1C03F",
"U 	c #CACA47",
"V 	c #DFDF37",
"W 	c #B0B003",
"X 	c #C4C236",
"Y 	c #818000",
"Z 	c #FFFF52",
"` 	c #B0B038",
" .	c #9F9F9F",
"..	c #BCBCBC",
"+.	c #A9AAA9",
"@.	c #B9B9B9",
"#.	c #5B8197",
"$.	c #466D83",
"%.	c #BCBF41",
"&.	c #C9C955",
"*.	c #ABAB53",
"=.	c #AAA941",
"-.	c #EDED06",
";.	c #D9D82F",
">.	c #7B7A02",
",.	c #EBEB44",
"'.	c #87851E",
").	c #727272",
"!.	c #CBC9CB",
"~.	c #A8A7A8",
"{.	c #C4C6C8",
"].	c #5A8199",
"^.	c #919281",
"/.	c #FDFD86",
"(.	c #D6D62E",
"_.	c #B7B73C",
":.	c #E8E800",
"<.	c #D9D72F",
"[.	c #89870F",
"}.	c #6D6C00",
"|.	c #B8B62A",
"1.	c #515000",
"2.	c #848484",
"3.	c #B3B2B3",
"4.	c #B6B5B6",
"5.	c #AEAEAE",
"6.	c #989A9C",
"7.	c #868540",
"8.	c #FBFA29",
"9.	c #FFFF86",
"0.	c #FFFF85",
"a.	c #D9D739",
"b.	c #838100",
"c.	c #5A5900",
"d.	c #656914",
"e.	c #44583C",
"f.	c #4E7B96",
"g.	c #527F9B",
"h.	c #507D99",
"i.	c #416A83",
"j.	c #607167",
"k.	c #C5C43B",
"l.	c #FBFB28",
"m.	c #989615",
"n.	c #5B5D0C",
"o.	c #3D554B",
"p.	c #467694",
"q.	c #497C9B",
"r.	c #406983",
"s.	c #617167",
"t.	c #5F6113",
"u.	c #3C554D",
"v.	c #467693",
". . . + @ # $ % & % * = - ; > . ",
". . . , ' ) ! ~ ) ~ ! { ~ ] ^ . ",
". . . / ( _ _ _ _ _ _ _ : < [ . ",
". . . / } | 1 2 3 4 5 6 7 8 [ . ",
". . . / } | 9 0 a b c 6 7 8 [ . ",
". . . / } | 6 d e f g 6 7 8 [ . ",
". . . / } | h i j k l g 7 8 [ . ",
". . m n o p q r 6 s t u 7 8 [ . ",
". v w x y z A B C D D D D E [ . ",
". F G H I J K L M N O O P Q R . ",
". S T U V W X Y Z `  ...+.@.#.. ",
"$.%.&.*.=.-.;.>.,.'.).!.~.( {.].",
"^./.(._.:.<.[.}.|.1.2.3.4.5.3.6.",
"7.8.9.0.a.[.b.c.d.e.f.g.g.g.g.h.",
"i.j.k.l.m.b.n.o.p.. . . . . . . ",
". q.r.s.t.u.v.. . . . . . . . . "};
