/* XPM */
static char *xload_16x16[] = {
/* width height num_colors chars_per_pixel */
"    16    16        2            1",
/* colors */
". c #000000",
"# c none s none",
/* pixels */
"###########..###",
"##########...###",
"#########....###",
"................",
"#######......###",
"#######......###",
"................",
"######.......###",
"#####........###",
"................",
"#####........###",
"####.........###",
"................",
"###..........###",
"##...........###",
"................"
};
