/* XPM */
static char * xterm_32x32_xpm[] = {
"32 32 6 1",
" 	c None",
".	c #808080",
"+	c #D0D0D0",
"@	c #000000",
"#	c #FFFFFF",
"$	c #5050FF",
"                                ",
"                                ",
"          ..................    ",
"          ..................    ",
"        ..++++++++++++++++..@@  ",
"        ..++++++++++++++++..@@  ",
"      ..################....@@  ",
"      ..################....@@  ",
"      ..##@@@@@@@@@@@@##....@@  ",
"      ..##@@@@@@@@@@@@##....@@  ",
"      ..##@@$$$$$$$$$$##....@@  ",
"      ..##@@$$$$$$$$$$##....@@  ",
"      ..##@@$$$$$$$$$$##....@@  ",
"      ..##@@$$$$$$$$$$##....@@  ",
"      ..##@@$$$$$$$$$$##....@@  ",
"      ..##@@$$$$$$$$$$##....@@  ",
"      ..################..@@....",
"      ..################..@@....",
"      ..@@@@@@@@@@@@@@@@@@..++@@",
"      ..@@@@@@@@@@@@@@@@@@..++@@",
"    ..##################..++..@@",
"    ..##################..++..@@",
"    ....@@..@@..@@..@@..@@....@@",
"    ....@@..@@..@@..@@..@@....@@",
"  ..++@@++@@++@@++@@++@@++@@@@  ",
"  ..++@@++@@++@@++@@++@@++@@@@  ",
"..######################++@@    ",
"..######################++@@    ",
"@@@@@@@@@@@@@@@@@@@@@@@@@@      ",
"@@@@@@@@@@@@@@@@@@@@@@@@@@      ",
"                                ",
"                                "};
