/* XPM */
static char * xv_16x16_xpm[] = {
"16 16 4 1",
" 	c None",
".	c #000000",
"+	c #FF0000",
"@	c #FFFFFF",
"                ",
"                ",
"                ",
"                ",
"       ...      ",
"  ++++++.       ",
"+++@@+++++++  . ",
"+++++++++++++.. ",
" +++..++++++++. ",
"   ++.+++++++.. ",
"       ..    .. ",
"        .     . ",
"                ",
"                ",
"                ",
"                "};
