/* XPM */
static char *xv_32x32[] = {
/* width height num_colors chars_per_pixel */
"    32    32       35            1",
/* colors */
". c #4848aa",
"# c #dada55",
"a c #ffb655",
"b c #dadaaa",
"c c #ffda55",
"d c #ffda00",
"e c #ffdaaa",
"f c #ffb600",
"g c #ff9100",
"h c #ff6d00",
"i c #ff9155",
"j c #da9155",
"k c #ffb6aa",
"l c #ff4800",
"m c #da6d55",
"n c #ff4855",
"o c #ff2400",
"p c #da2400",
"q c #da91aa",
"r c #ff0000",
"s c #6d48aa",
"t c #da6daa",
"u c #b691aa",
"v c #da4855",
"w c #ff0055",
"x c #ff2455",
"y c #dab6aa",
"z c #dab600",
"A c #b69155",
"B c #dab655",
"C c #916d55",
"D c #6d6daa",
"E c #6d6d55",
"F c #919155",
"G c #b69100",
/* pixels */
"................................",
"................................",
"................................",
"................................",
"................................",
"................................",
"................................",
"................................",
"...........#a.....bcb#dd...d....",
"..........dcc...ed#.cfdc..cd....",
"..........cf#..cf#..#da#.#fc....",
"..........gfa.ag#...agd..ffa....",
"..........hgiihj....ggk..gij....",
"..........llllm....nhh...ihl....",
"..........oopn....qroq...om.....",
"..........rrr...sqrrr...tou.....",
".........rrrn....orr...urq......",
"........rrrrv..qwrrr..unp.......",
".......orxrrn.qxooro..mru.......",
"......orx.rronr..orrynrt........",
".....mrx..orrrx...rrrrn.........",
".....nr....rrpu...rrrv..........",
"......n.....m......xm...........",
"................................",
"................................",
"................................",
"................................",
"................................",
"................................",
"................................",
"................................",
"................................"
};
