/* XPM */
static char * app_32x32_xpm[] = {
"32 32 432 2",
"  	c None",
". 	c #A4A6AA",
"+ 	c #C4C7CB",
"@ 	c #DADDE0",
"# 	c #B4B7BA",
"$ 	c #A0A2A4",
"% 	c #666768",
"& 	c #EBEFF4",
"* 	c #E6E9ED",
"= 	c #E5E8EB",
"- 	c #9EA1A5",
"; 	c #95989C",
"> 	c #F0F3F6",
", 	c #E1E2E5",
"' 	c #DADCE0",
") 	c #565757",
"! 	c #AFB2B6",
"~ 	c #DEE2E7",
"{ 	c #DEE1E6",
"] 	c #E3E7ED",
"^ 	c #DADDE2",
"/ 	c #E3E6EA",
"( 	c #E4E6EB",
"_ 	c #DFE2E6",
": 	c #C0C5CD",
"< 	c #C7CCD5",
"[ 	c #BDC1C9",
"} 	c #9D9FA5",
"| 	c #BEC2C9",
"1 	c #D0D4DC",
"2 	c #D2D8DE",
"3 	c #D5D9E1",
"4 	c #DBDFE6",
"5 	c #DEE2E8",
"6 	c #DFE3E9",
"7 	c #DDE2E8",
"8 	c #DCDFE5",
"9 	c #DADEE4",
"0 	c #D5D9DF",
"a 	c #747678",
"b 	c #898B8F",
"c 	c #C2C9D3",
"d 	c #C4CAD3",
"e 	c #C6CCD6",
"f 	c #CAD0D9",
"g 	c #C7CCD6",
"h 	c #C8CFD7",
"i 	c #BEC3CB",
"j 	c #9EA1A8",
"k 	c #707379",
"l 	c #5D6066",
"m 	c #64666C",
"n 	c #7D7F85",
"o 	c #A8ABB2",
"p 	c #C3C7CD",
"q 	c #D3D7DE",
"r 	c #CED2D8",
"s 	c #9B9FA5",
"t 	c #A4A7AD",
"u 	c #626263",
"v 	c #787A7E",
"w 	c #BDC4CE",
"x 	c #BCC4CF",
"y 	c #BCC3CE",
"z 	c #BEC5D1",
"A 	c #A1A8B1",
"B 	c #5E6169",
"C 	c #686B76",
"D 	c #6F737F",
"E 	c #757885",
"F 	c #777A87",
"G 	c #757886",
"H 	c #737682",
"I 	c #737580",
"J 	c #83858B",
"K 	c #C6C9D2",
"L 	c #C9CED6",
"M 	c #CDD2D9",
"N 	c #CFD4DB",
"O 	c #B5B9C0",
"P 	c #636363",
"Q 	c #5D5D5D",
"R 	c #85888D",
"S 	c #BAC1CC",
"T 	c #A8AFBA",
"U 	c #56585D",
"V 	c #727682",
"W 	c #747783",
"X 	c #787B89",
"Y 	c #797D8B",
"Z 	c #7B7F8D",
"` 	c #7D8190",
" .	c #7D7F8E",
"..	c #72747D",
"+.	c #ABAFB8",
"@.	c #C0C7CF",
"#.	c #C1C6CF",
"$.	c #BCC1CA",
"%.	c #626262",
"&.	c #5B5C5C",
"*.	c #A2A7AF",
"=.	c #B9C1CC",
"-.	c #787B82",
";.	c #737683",
">.	c #747784",
",.	c #6E717E",
"'.	c #6A6E7A",
").	c #6F727F",
"!.	c #787C89",
"~.	c #7C7F8D",
"{.	c #7E818F",
"].	c #7F8291",
"^.	c #818493",
"/.	c #828695",
"(.	c #7E818D",
"_.	c #999DA5",
":.	c #B5BCC7",
"<.	c #A2A8B1",
"[.	c #646566",
"}.	c #B9C0CC",
"|.	c #B8BFCA",
"1.	c #B4BBC7",
"2.	c #80848C",
"3.	c #6D717E",
"4.	c #7B818E",
"5.	c #808492",
"6.	c #838695",
"7.	c #848897",
"8.	c #878A9A",
"9.	c #858894",
"0.	c #A1A8B3",
"a.	c #A8B0BC",
"b.	c #767879",
"c.	c #AFB5BF",
"d.	c #B1B8C2",
"e.	c #B2B9C3",
"f.	c #B8C0CB",
"g.	c #B6BDC8",
"h.	c #B3BBC6",
"i.	c #848A91",
"j.	c #818593",
"k.	c #868A99",
"l.	c #878C9B",
"m.	c #898D9D",
"n.	c #91959E",
"o.	c #A3ABB8",
"p.	c #9EA6B3",
"q.	c #6B7078",
"r.	c #727374",
"s.	c #B5BDC8",
"t.	c #B9BFCB",
"u.	c #B7BECA",
"v.	c #B6BEC9",
"w.	c #B5BCC8",
"x.	c #B4BCC8",
"y.	c #90949B",
"z.	c #888B9B",
"A.	c #8A8D9D",
"B.	c #8C8FA0",
"C.	c #8E92A0",
"D.	c #9FA6AF",
"E.	c #A0A8B6",
"F.	c #A3ABB9",
"G.	c #A1A9B7",
"H.	c #737882",
"I.	c #6F7071",
"J.	c #B7BEC9",
"K.	c #B5BCC9",
"L.	c #B4BCC7",
"M.	c #B4BAC7",
"N.	c #B2BAC6",
"O.	c #A5ACB5",
"P.	c #9599A0",
"Q.	c #888C9C",
"R.	c #8D91A2",
"S.	c #8D91A3",
"T.	c #9EA4AE",
"U.	c #9FA7B4",
"V.	c #9CA4B2",
"W.	c #8F97A3",
"X.	c #6B6B6C",
"Y.	c #969BA2",
"Z.	c #A4AAB3",
"`.	c #A6ACB6",
" +	c #ACB3BD",
".+	c #B2B9C5",
"++	c #B0B9C4",
"@+	c #B2B8C5",
"#+	c #9CA1A8",
"$+	c #868B9B",
"%+	c #9093A4",
"&+	c #9194A6",
"*+	c #9DA0AE",
"=+	c #9EA7B3",
"-+	c #9DA5B2",
";+	c #959DAA",
">+	c #838A95",
",+	c #686868",
"'+	c #646464",
")+	c #616161",
"!+	c #606161",
"~+	c #727376",
"{+	c #B1B8C4",
"]+	c #AFB6C1",
"^+	c #A9B0BB",
"/+	c #8D91A1",
"(+	c #9296A8",
"_+	c #9BA1AF",
":+	c #9EA6B2",
"<+	c #7D848E",
"[+	c #1B1B1C",
"}+	c #656565",
"|+	c #666666",
"1+	c #5F6061",
"2+	c #606060",
"3+	c #A7ADB5",
"4+	c #B6BEC8",
"5+	c #B3BAC6",
"6+	c #ADB1BA",
"7+	c #9497AA",
"8+	c #A0A5B3",
"9+	c #9CA4B1",
"0+	c #9AA2B0",
"a+	c #828A95",
"b+	c #141212",
"c+	c #585858",
"d+	c #5C5C5C",
"e+	c #5F6060",
"f+	c #75777A",
"g+	c #C1C7D1",
"h+	c #BAC0CB",
"i+	c #B7BFC8",
"j+	c #B5BBC6",
"k+	c #B5BBC3",
"l+	c #969BAC",
"m+	c #A3A9B5",
"n+	c #99A1AF",
"o+	c #98A0AE",
"p+	c #929BA8",
"q+	c #494D53",
"r+	c #545454",
"s+	c #78797C",
"t+	c #BEC4CE",
"u+	c #BBC2CB",
"v+	c #BAC0CA",
"w+	c #BABFC8",
"x+	c #A2A7B4",
"y+	c #969FAD",
"z+	c #959EAC",
"A+	c #9098A6",
"B+	c #828486",
"C+	c #CACFD6",
"D+	c #C7CCD4",
"E+	c #C5CAD3",
"F+	c #C2C8D0",
"G+	c #C0C5CF",
"H+	c #BDC3CC",
"I+	c #BDC3CB",
"J+	c #C0C4CD",
"K+	c #B2BBC5",
"L+	c #ADB3BE",
"M+	c #A5ABB8",
"N+	c #A0A8B5",
"O+	c #9EA5B2",
"P+	c #9AA3B0",
"Q+	c #969EAC",
"R+	c #919AA8",
"S+	c #4B4F55",
"T+	c #6E7072",
"U+	c #DBE0E6",
"V+	c #D2D7DD",
"W+	c #D0D4DB",
"X+	c #CED2D9",
"Y+	c #CCD0D8",
"Z+	c #CACFD7",
"`+	c #C5CAD2",
" @	c #C3C7D0",
".@	c #BFC5CE",
"+@	c #BFC4CD",
"@@	c #BEC3CD",
"#@	c #BDC2CB",
"$@	c #BAC0C9",
"%@	c #B6BCC6",
"&@	c #B1B7C2",
"*@	c #ADB4BF",
"=@	c #ABB3BC",
"-@	c #A6ADB9",
";@	c #A1A9B5",
">@	c #8B919B",
",@	c #9AA1AE",
"'@	c #3A3B44",
")@	c #5C5D5D",
"!@	c #898A8D",
"~@	c #DADDE3",
"{@	c #D7DAE0",
"]@	c #D5D8DE",
"^@	c #D4D9DF",
"/@	c #C5C9D0",
"(@	c #D4D8DF",
"_@	c #CCD0D7",
":@	c #CACED6",
"<@	c #C0C5CE",
"[@	c #BEC3CC",
"}@	c #BBC0CA",
"|@	c #B8BEC8",
"1@	c #B6BCC5",
"2@	c #B3BAC3",
"3@	c #B0B7C2",
"4@	c #80868E",
"5@	c #242628",
"6@	c #393A3E",
"7@	c #7B818A",
"8@	c #5B5B5B",
"9@	c #A6A7AA",
"0@	c #E1E5E9",
"a@	c #D2D5DA",
"b@	c #86888C",
"c@	c #444444",
"d@	c #85878B",
"e@	c #C7CBD0",
"f@	c #D4D8DE",
"g@	c #CFD4DA",
"h@	c #CDD1D8",
"i@	c #CBCFD6",
"j@	c #C8CDD4",
"k@	c #C6CBD2",
"l@	c #C3C8D0",
"m@	c #C1C6CE",
"n@	c #BFC4CC",
"o@	c #BCC2CA",
"p@	c #BBBFC8",
"q@	c #A8ADB5",
"r@	c #212123",
"s@	c #232426",
"t@	c #212223",
"u@	c #181919",
"v@	c #5E5F5F",
"w@	c #595959",
"x@	c #898B8D",
"y@	c #646666",
"z@	c #505051",
"A@	c #4B4C4C",
"B@	c #555657",
"C@	c #939599",
"D@	c #D9DCE1",
"E@	c #D3D7DC",
"F@	c #CACED4",
"G@	c #C7CBD3",
"H@	c #C4C9D0",
"I@	c #C3C7CF",
"J@	c #B7BCC4",
"K@	c #1E1F20",
"L@	c #232427",
"M@	c #222324",
"N@	c #585A5A",
"O@	c #565657",
"P@	c #545555",
"Q@	c #525253",
"R@	c #4C4E4D",
"S@	c #4A4B4B",
"T@	c #606163",
"U@	c #DEE0E5",
"V@	c #DCDEE3",
"W@	c #D9DDE2",
"X@	c #C1C5C9",
"Y@	c #BABCC1",
"Z@	c #B5B7BC",
"`@	c #B5B9BE",
" #	c #808289",
".#	c #1F2022",
"+#	c #5B5B5C",
"@#	c #555557",
"##	c #434244",
"$#	c #4D4E4E",
"%#	c #646567",
"&#	c #E8EAED",
"*#	c #E6E8EC",
"=#	c #E4E7EA",
"-#	c #DEE0E4",
";#	c #555759",
">#	c #39393A",
",#	c #333436",
"'#	c #373839",
")#	c #C2C5CA",
"!#	c #D5D7DD",
"~#	c #D2D6DB",
"{#	c #C6CBD1",
"]#	c #494A4A",
"^#	c #656567",
"/#	c #F2F2F5",
"(#	c #F0F1F3",
"_#	c #EDEFF1",
":#	c #DFE1E4",
"<#	c #4D4E50",
"[#	c #383839",
"}#	c #353537",
"|#	c #2F3031",
"1#	c #5C5E62",
"2#	c #E4E7EB",
"3#	c #D6D8DD",
"4#	c #A9ACB1",
"5#	c #4A4A4B",
"6#	c #5A5A5C",
"7#	c #CCCFD3",
"8#	c #F4F5F7",
"9#	c #FFFFFF",
"0#	c #E4E5E6",
"a#	c #404143",
"b#	c #313132",
"c#	c #343537",
"d#	c #323334",
"e#	c #292A2C",
"f#	c #68696D",
"g#	c #4A4B4D",
"h#	c #1F2123",
"i#	c #474647",
"j#	c #3C3D3D",
"k#	c #353637",
"l#	c #4C4D4D",
"m#	c #78797D",
"n#	c #333435",
"o#	c #2B2B2C",
"p#	c #262728",
"q#	c #474748",
"r#	c #444545",
"s#	c #424344",
"t#	c #3D3D3E",
"u#	c #313334",
"v#	c #2E2F31",
"w#	c #48484A",
"x#	c #484849",
"y#	c #424343",
"                  . + @ #       $                               ",
"                  % & * = -   ; > , '                           ",
"                  ) ! ~ { ] { ^ / ( _                           ",
"          : < [ } | 1 2 3 4 5 6 7 8 9 0 a                       ",
"        b c d e f g h i j k l m n o p q r   s t                 ",
"        u v w x y z A B C D E F G H I J K L M N O               ",
"        P Q R x S T U V W E F X Y Z `  ...+.@.#.$.              ",
"        %.&.*.S =.-.;.>.,.'.).!.~.{.].^./.(._.:.<.              ",
"          [.}.|.1.2.3.            4.5.6.7.8.9.0.a.              ",
"    b.c.d.e.f.g.h.i.                  j.k.l.m.n.o.p.q.          ",
"    r.s.t.u.v.w.x.y.                    z.A.B.C.D.E.F.G.H.      ",
"    I.e.J.K.L.M.N.O.P.                    Q.R.S.T.U.p.V.W.      ",
"    X.Y.Z.`. +.+++@+#+                    $+%+&+*+=+-+;+>+      ",
"    ,+'+)+!+~+.+{+]+^+                      /+(+_+:+V.<+[+      ",
"    }+|+P 1+2+3+4+5+e.6+                      7+8+9+0+a+b+      ",
"      c+d+e+d+f+g+h+i+j+k+                    l+m+n+o+p+q+      ",
"          r+Q s+< #.t+u+v+w+                  x+9+o+y+z+A+      ",
"            B+C+L D+E+F+G+H+I+J+i         K+L+M+N+O+P+o+Q+R+S+  ",
"          T+U+V+W+X+Y+Z+D+`+ @.@+@@@#@$@%@&@*@=@a.-@;@>@,@E.'@  ",
"          )@!@~@{@]@^@/@(@_@:@D+`+ @<@[@}@|@1@2@&@3@4@5@6@7@    ",
"          e+8@9@0@a@b@c@d@e@f@g@h@i@j@k@l@m@n@o@p@q@r@s@t@u@    ",
"          v@Q w@x@y@z@z@A@B@C@D@]@E@W+r _@F@G@H@I@J@K@L@M@      ",
"          N@Q 8@O@P@Q@z@R@S@T@_ U@V@W@X@Y@Z@`@r i@h@ #.#        ",
"              +#@#    ##$#S@%#&#*#=#-#;#>#,#'#)#!#~#{#          ",
"              z@          ]#^#/#(#_#:#<#[#}#|#1#2#3#4#          ",
"                          5#6#7#8#9#0#a#b#c#d#e#f#g#h#          ",
"                          5#i#j#k#l#m#    n#d#|#o#p#            ",
"                          5#q#r#s#t#        u#v#                ",
"                          w#x#y#a#                              ",
"                                                                ",
"                                                                ",
"                                                                "};
