/* XPM */
static char * firefox_16x16_xpm[] = {
"16 16 160 2",
"  	c None",
". 	c #6D94C7",
"+ 	c #90B0D9",
"@ 	c #7DA0CE",
"# 	c #7DA2D3",
"$ 	c #7E747A",
"% 	c #8BAEDC",
"& 	c #99B7DD",
"* 	c #A3C1E8",
"= 	c #93ACCE",
"- 	c #97AFCF",
"; 	c #A9C2E2",
"> 	c #A6B5CE",
", 	c #BE7B4A",
"' 	c #C0661C",
") 	c #C25C05",
"! 	c #BB6F30",
"~ 	c #BED3F0",
"{ 	c #CBD5E4",
"] 	c #ACA7AD",
"^ 	c #B58D70",
"/ 	c #A1B3CF",
"( 	c #A9C2E4",
"_ 	c #A5BEDF",
": 	c #C3D4EA",
"< 	c #E9EDF2",
"[ 	c #E8873D",
"} 	c #CA6A19",
"| 	c #E48125",
"1 	c #EF8826",
"2 	c #E19D60",
"3 	c #E2944A",
"4 	c #F68E28",
"5 	c #C5946C",
"6 	c #A8C5EA",
"7 	c #9CB5D8",
"8 	c #E4EBF5",
"9 	c #FBFFFF",
"0 	c #E7B389",
"a 	c #F38425",
"b 	c #E0832C",
"c 	c #F67A00",
"d 	c #F67800",
"e 	c #F57700",
"f 	c #FB9128",
"g 	c #B7835A",
"h 	c #A59D9F",
"i 	c #A6C1E7",
"j 	c #CEDCEF",
"k 	c #C6D6EA",
"l 	c #DCE7F4",
"m 	c #E6C4AA",
"n 	c #F0730B",
"o 	c #E68124",
"p 	c #EE8724",
"q 	c #F57800",
"r 	c #F57C03",
"s 	c #F57900",
"t 	c #F0A153",
"u 	c #AA8C77",
"v 	c #709DD8",
"w 	c #D1DEF0",
"x 	c #DDE6F3",
"y 	c #B6CCE9",
"z 	c #BD906E",
"A 	c #F68819",
"B 	c #ED8321",
"C 	c #EE8D2E",
"D 	c #F57C01",
"E 	c #F6880F",
"F 	c #F78414",
"G 	c #D19461",
"H 	c #6C95CE",
"I 	c #7EA5D8",
"J 	c #FFFFFF",
"K 	c #FFF9F5",
"L 	c #F5DAC5",
"M 	c #F27E11",
"N 	c #F19525",
"O 	c #EC8829",
"P 	c #F6890E",
"Q 	c #F68D11",
"R 	c #ED8D33",
"S 	c #907F7D",
"T 	c #5689CD",
"U 	c #9697A5",
"V 	c #FFFBF6",
"W 	c #E7C2A3",
"X 	c #D48749",
"Y 	c #F4841A",
"Z 	c #F28C1F",
"` 	c #EB8729",
" .	c #F79417",
"..	c #F78E0F",
"+.	c #F88A1E",
"@.	c #EA913E",
"#.	c #DD802D",
"$.	c #FA9735",
"%.	c #C5946D",
"&.	c #B5CFEF",
"*.	c #E3AC7A",
"=.	c #F38C35",
"-.	c #F57A0E",
";.	c #EE7F1A",
">.	c #CD711D",
",.	c #F98A19",
"'.	c #F6880A",
").	c #F57B03",
"!.	c #F9922E",
"~.	c #D97D29",
"{.	c #E68A34",
"].	c #CE7D35",
"^.	c #6582AE",
"/.	c #5E87C1",
"(.	c #E09146",
"_.	c #F5720C",
":.	c #F68811",
"<.	c #EF8625",
"[.	c #ED7623",
"}.	c #F67304",
"|.	c #F68D12",
"1.	c #F57C00",
"2.	c #F48C28",
"3.	c #A36F47",
"4.	c #62708A",
"5.	c #7D6E69",
"6.	c #CE7D33",
"7.	c #F6891D",
"8.	c #F57C14",
"9.	c #F99025",
"0.	c #CC6C16",
"a.	c #C1681D",
"b.	c #F16222",
"c.	c #F4680F",
"d.	c #F89D1A",
"e.	c #F78404",
"f.	c #F88108",
"g.	c #F37E08",
"h.	c #F78514",
"i.	c #F99424",
"j.	c #F47511",
"k.	c #F77914",
"l.	c #DA741A",
"m.	c #CB751F",
"n.	c #E86625",
"o.	c #F35416",
"p.	c #F35B0E",
"q.	c #F35C0E",
"r.	c #F35A0F",
"s.	c #F46412",
"t.	c #F56911",
"u.	c #F36F13",
"v.	c #D87B27",
"w.	c #BA621D",
"x.	c #E87726",
"y.	c #F77827",
"z.	c #F87928",
"A.	c #F47B23",
"B.	c #CC6D1E",
"C.	c #894B17",
"            . + @ # $           ",
"        % & * = - ; > , '       ",
"  ) ! ~ { ] ^ / ( _ : < [ }     ",
"  | 1 2 3 4 5 6 ( 7 8 9 0 a     ",
"  b c d e f g h i j k l m n o   ",
"  p q r s q t u v w x y z A B   ",
"  C D E q F G H I J J K L M N   ",
"  O P Q q R S T U V J W X Y Z   ",
"  `  ...q +.@.#.$.%.&.*.=.-.;.  ",
"  >.,.'.).!.~.{.].^./.(._.:.<.  ",
"    [.}.|.1.2.3.4.5.6.7.8.9.0.  ",
"    a.b.c.d.e.f.g.h.i.j.k.l.    ",
"      m.n.o.p.q.r.s.t.u.v.      ",
"          w.x.y.z.A.B.C.        ",
"                                ",
"                                "};
