/* XPM */
static char * gimp_32x32_xpm[] = {
"32 32 309 2",
"  	c None",
". 	c #2E3335",
"+ 	c #333737",
"@ 	c #2C3233",
"# 	c #343939",
"$ 	c #474740",
"% 	c #2C3335",
"& 	c #2E3435",
"* 	c #56534A",
"= 	c #4E4B43",
"- 	c #2D3234",
"; 	c #3F4241",
"> 	c #353A38",
", 	c #58554B",
"' 	c #4D493C",
") 	c #4E4A40",
"! 	c #2C3235",
"~ 	c #797468",
"{ 	c #585951",
"] 	c #2D3334",
"^ 	c #303536",
"/ 	c #4F4F47",
"( 	c #5F5A4E",
"_ 	c #4F493B",
": 	c #494437",
"< 	c #504C43",
"[ 	c #767061",
"} 	c #7E7865",
"| 	c #69685C",
"1 	c #3C3F3E",
"2 	c #989A95",
"3 	c #A1A39E",
"4 	c #9FA19C",
"5 	c #838783",
"6 	c #404443",
"7 	c #3C413F",
"8 	c #51514A",
"9 	c #6B6656",
"0 	c #605A4A",
"a 	c #514A3C",
"b 	c #4D483A",
"c 	c #4B4639",
"d 	c #524E43",
"e 	c #2D3235",
"f 	c #7C7B72",
"g 	c #909089",
"h 	c #9C9C95",
"i 	c #858379",
"j 	c #7B7769",
"k 	c #939590",
"l 	c #E2E2DF",
"m 	c #FBFBF9",
"n 	c #FEFEFD",
"o 	c #E5E5E2",
"p 	c #91928D",
"q 	c #6A6351",
"r 	c #645D4B",
"s 	c #5C5644",
"t 	c #575140",
"u 	c #534D3D",
"v 	c #4F493A",
"w 	c #4D473A",
"x 	c #504B42",
"y 	c #2D3335",
"z 	c #0F0F0F",
"A 	c #222324",
"B 	c #141516",
"C 	c #060606",
"D 	c #B6B7B3",
"E 	c #F5F5F3",
"F 	c #D1D1CF",
"G 	c #999997",
"H 	c #85867E",
"I 	c #D0D0CC",
"J 	c #E5E4E1",
"K 	c #DEDEDD",
"L 	c #9C9C9C",
"M 	c #4B4B4A",
"N 	c #B2B2AD",
"O 	c #737164",
"P 	c #605947",
"Q 	c #5C5645",
"R 	c #595242",
"S 	c #554F3F",
"T 	c #514B3C",
"U 	c #4C4A41",
"V 	c #2E3235",
"W 	c #0D0E0E",
"X 	c #A7AAAA",
"Y 	c #F3F3F4",
"Z 	c #797E80",
"` 	c #494D4E",
" .	c #030303",
"..	c #525855",
"+.	c #E2E2E0",
"@.	c #B9B9B8",
"#.	c #FCFCFC",
"$.	c #151717",
"%.	c #7A7C77",
"&.	c #D4D4CD",
"*.	c #AFAFAB",
"=.	c #FDFCFD",
"-.	c #FFFFFF",
";.	c #303435",
">.	c #70706C",
",.	c #818077",
"'.	c #615A47",
").	c #5D5746",
"!.	c #595343",
"~.	c #504B3C",
"{.	c #45443E",
"].	c #1C1E1E",
"^.	c #ECEDEE",
"/.	c #AFB3B4",
"(.	c #323A3C",
"_.	c #333738",
":.	c #1B1B1A",
"<.	c #C8C8C5",
"[.	c #AFAFAE",
"}.	c #181B1C",
"|.	c #282928",
"1.	c #7E8079",
"2.	c #C1C1BA",
"3.	c #ADADA7",
"4.	c #333435",
"5.	c #636869",
"6.	c #1E2325",
"7.	c #5E5E5C",
"8.	c #7B786C",
"9.	c #615A48",
"0.	c #5D5745",
"a.	c #595342",
"b.	c #524C3D",
"c.	c #3B3D3B",
"d.	c #151616",
"e.	c #A0A3A4",
"f.	c #6B7274",
"g.	c #303638",
"h.	c #282C2D",
"i.	c #191B1C",
"j.	c #6B695F",
"k.	c #9EA19D",
"l.	c #7F827E",
"m.	c #7C7A6E",
"n.	c #7D7661",
"o.	c #979894",
"p.	c #C2C2B9",
"q.	c #6A6A66",
"r.	c #040506",
"s.	c #2D2E2C",
"t.	c #858780",
"u.	c #655E4B",
"v.	c #605A48",
"w.	c #585242",
"x.	c #544E3F",
"y.	c #504A3B",
"z.	c #534E41",
"A.	c #353A39",
"B.	c #0B0B0B",
"C.	c #393E3F",
"D.	c #252C2F",
"E.	c #303739",
"F.	c #262C2E",
"G.	c #151819",
"H.	c #1C1F20",
"I.	c #3E392E",
"J.	c #736A54",
"K.	c #746B55",
"L.	c #756C56",
"M.	c #766D57",
"N.	c #797463",
"O.	c #8B8B83",
"P.	c #A7A8A0",
"Q.	c #AEAEA7",
"R.	c #8D8D84",
"S.	c #6B6554",
"T.	c #635C49",
"U.	c #5F5947",
"V.	c #5B5443",
"W.	c #565040",
"X.	c #4E4939",
"Y.	c #544F44",
"Z.	c #333736",
"`.	c #1D1E20",
" +	c #2D3132",
".+	c #1E2224",
"++	c #171A1C",
"@+	c #141718",
"#+	c #141618",
"$+	c #322F26",
"%+	c #706953",
"&+	c #6F6753",
"*+	c #706853",
"=+	c #6F6752",
"-+	c #6F6854",
";+	c #6F6A58",
">+	c #6D6856",
",+	c #67614E",
"'+	c #645D4A",
")+	c #464234",
"!+	c #544D3E",
"~+	c #4A4941",
"{+	c #000000",
"]+	c #161718",
"^+	c #191C1D",
"/+	c #141819",
"(+	c #0E1011",
"_+	c #443F33",
":+	c #6A624E",
"<+	c #6A634F",
"[+	c #6A624F",
"}+	c #69614E",
"|+	c #67604D",
"1+	c #635C4A",
"2+	c #383228",
"3+	c #050200",
"4+	c #454134",
"5+	c #524D3E",
"6+	c #575144",
"7+	c #323635",
"8+	c #050506",
"9+	c #090A0B",
"0+	c #070809",
"a+	c #1D1C18",
"b+	c #635D4B",
"c+	c #625B48",
"d+	c #494436",
"e+	c #332F26",
"f+	c #050505",
"g+	c #573003",
"h+	c #7A440A",
"i+	c #50300C",
"j+	c #554329",
"k+	c #4F4C42",
"l+	c #41423E",
"m+	c #1D2022",
"n+	c #383C3C",
"o+	c #625F55",
"p+	c #696354",
"q+	c #625C4A",
"r+	c #5F5847",
"s+	c #5F5846",
"t+	c #5E5846",
"u+	c #5B5544",
"v+	c #514C3C",
"w+	c #474235",
"x+	c #403C30",
"y+	c #3E3A2F",
"z+	c #5D4528",
"A+	c #7C460C",
"B+	c #C66C0F",
"C+	c #95520B",
"D+	c #76430B",
"E+	c #3A2F20",
"F+	c #1B2020",
"G+	c #383C3A",
"H+	c #55534B",
"I+	c #6C6555",
"J+	c #635C4C",
"K+	c #5A5443",
"L+	c #524C3C",
"M+	c #4E493A",
"N+	c #514736",
"O+	c #64431C",
"P+	c #84480A",
"Q+	c #B9660E",
"R+	c #CE7110",
"S+	c #713F0A",
"T+	c #797263",
"U+	c #232628",
"V+	c #2C3234",
"W+	c #464641",
"X+	c #59564C",
"Y+	c #5C584D",
"Z+	c #5A5547",
"`+	c #575245",
" @	c #555042",
".@	c #544F42",
"+@	c #4C4942",
"@@	c #323738",
"#@	c #40301B",
"$@	c #633606",
"%@	c #844908",
"&@	c #AE7638",
"*@	c #D0D3D4",
"=@	c #A6A8A3",
"-@	c #202323",
";@	c #2A2E2E",
">@	c #323433",
",@	c #323634",
"'@	c #2E3230",
")@	c #212425",
"!@	c #786D5C",
"~@	c #989A96",
"{@	c #D8D9D7",
"]@	c #A3A4A3",
"^@	c #727272",
"/@	c #747474",
"(@	c #111111",
"_@	c #868882",
":@	c #585958",
"<@	c #7D7D7D",
"[@	c #676767",
"}@	c #333333",
"|@	c #4F4F4F",
"1@	c #383838",
"2@	c #1E1E1E",
"3@	c #2A2A2A",
"4@	c #0E0E0E",
"                                                                ",
"                                                                ",
"                                                                ",
"                                                                ",
"                                                  .             ",
"                                                  + @           ",
"                                                # $ %           ",
"                                              & * = -           ",
"              ;                             > , ' ) !           ",
"              ~ { ]                   ^ - / ( _ : < %           ",
"              [ } | 1     2 3 4 5 6 7 8 9 0 a b c d e           ",
"              f g h i j k l m n o p q r s t u v w x y           ",
"  z A B C     D E F G H I J K L M N O P Q R S T _ U V           ",
"W X Y Z `  ...+.@.#.$.%.&.*.=.-.;.>.,.'.).!.S T ~.{.            ",
"].^.-./.(._.:.<.[.}.|.1.2.3.4.5.6.7.8.9.0.a.S T b.c.            ",
"d.e.-.f.g.h.i.j.k.l.m.n.o.p.q.r.s.t.u.v.Q w.x.y.z.A.            ",
"B.C.D.E.F.G.H.I.J.K.L.M.N.O.P.Q.R.S.T.U.V.W.u X.Y.Z.            ",
"  `. +.+++@+#+$+%+&+*+*+=+-+;+>+,+'+)+!+!.x.T ~.~+              ",
"  {+]+^+G./+(+_+:+:+<+<+[+}+|+u.1+W.2+3+4+5+v 6+7+              ",
"      8+9+0+a+b+c+'+u.u.P a.u d+e+f+g+h+i+j+k+l+m+              ",
"          ^+n+o+p+q+r+s+t+u+v+w+x+y+z+A+B+C+D+E+                ",
"              F+G+H+I+J+K+t W.S x.L+M+N+O+P+Q+R+S+T+            ",
"                  U+V+W+X+Y+Z+`+ @.@d +@@@#@$@%@&@*@=@          ",
"                          -@;@>@,@'@)@          !@~@{@]@^@/@(@  ",
"                                                    _@:@<@[@}@  ",
"                                                        |@1@2@  ",
"                                                          3@4@  ",
"                                                                ",
"                                                                ",
"                                                                ",
"                                                                ",
"                                                                "};
