/* XPM */
static char * IceWM_32x32_xpm[] = {
"32 32 179 2",
"  	c None",
". 	c #BBBBBB",
"+ 	c #CACACA",
"@ 	c #C9C9C9",
"# 	c #C4C4C4",
"$ 	c #C5C5C5",
"% 	c #E2E2E2",
"& 	c #E1E1E1",
"* 	c #D4D4D4",
"= 	c #D0D0D0",
"- 	c #DEDCDC",
"; 	c #D9D8D8",
"> 	c #DDDDDD",
", 	c #CECECE",
"' 	c #C1C1C1",
") 	c #CFCFCF",
"! 	c #ACACAC",
"~ 	c #CAC9C9",
"{ 	c #DADADA",
"] 	c #D6D6D6",
"^ 	c #DEDEDE",
"/ 	c #CBCACA",
"( 	c #D7D7D7",
"_ 	c #AAAAAA",
": 	c #D9D9D9",
"< 	c #BFBEBE",
"[ 	c #D2D2D2",
"} 	c #DBDBDB",
"| 	c #B3B3B3",
"1 	c #EBEBEB",
"2 	c #DBDADA",
"3 	c #D3D3D3",
"4 	c #C8C8C8",
"5 	c #C6C6C6",
"6 	c #EAEAEA",
"7 	c #E7E7E7",
"8 	c #E2E1E1",
"9 	c #D1D0D0",
"0 	c #A7A7A7",
"a 	c #E6E6E6",
"b 	c #E5E5E5",
"c 	c #E0E0E0",
"d 	c #DCDBDB",
"e 	c #CDCCCC",
"f 	c #C7C7C7",
"g 	c #E3E3E3",
"h 	c #DDDBDB",
"i 	c #DAD9D9",
"j 	c #D3D4D4",
"k 	c #CCCBCB",
"l 	c #DFDFDF",
"m 	c #DEDFDF",
"n 	c #D1D1D1",
"o 	c #B4B4B4",
"p 	c #CCCCCC",
"q 	c #DDDCDC",
"r 	c #D3D2D2",
"s 	c #CFCDCD",
"t 	c #CBCBCB",
"u 	c #A3A3A3",
"v 	c #B6B6B6",
"w 	c #BDBDBD",
"x 	c #BFBFBF",
"y 	c #B7B7B7",
"z 	c #B1B1B1",
"A 	c #AFAFAF",
"B 	c #B4B6B6",
"C 	c #BCBBBB",
"D 	c #CFCECE",
"E 	c #A5A5A5",
"F 	c #A51105",
"G 	c #B97570",
"H 	c #C8CDCD",
"I 	c #BDBCBC",
"J 	c #999999",
"K 	c #C0C0C0",
"L 	c #C92D28",
"M 	c #E4393A",
"N 	c #CD7677",
"O 	c #B07571",
"P 	c #B9BABA",
"Q 	c #979797",
"R 	c #C7C6C6",
"S 	c #C4C3C3",
"T 	c #DCDCDC",
"U 	c #B51A12",
"V 	c #E34847",
"W 	c #EB4D4D",
"X 	c #DA2D2D",
"Y 	c #C71A1B",
"Z 	c #AA0F06",
"` 	c #C9C8C8",
" .	c #C6C5C5",
"..	c #C2C1C1",
"+.	c #D8D8D8",
"@.	c #B2B2B2",
"#.	c #B31D14",
"$.	c #EC5050",
"%.	c #EA4E4E",
"&.	c #D92B2B",
"*.	c #D62929",
"=.	c #AF120D",
"-.	c #C9C7C7",
";.	c #BEBDBD",
">.	c #B9B8B8",
",.	c #C8C7C7",
"'.	c #BF211B",
").	c #EC5151",
"!.	c #E84848",
"~.	c #DA2C2C",
"{.	c #BD1716",
"].	c #C6C4C4",
"^.	c #BBBABA",
"/.	c #B6B5B5",
"(.	c #BEBEBE",
"_.	c #B7B6B6",
":.	c #BC1F18",
"<.	c #ED5252",
"[.	c #E94848",
"}.	c #D82A2A",
"|.	c #C01818",
"1.	c #A50E06",
"2.	c #A8A8A8",
"3.	c #C5C4C4",
"4.	c #B0AFAF",
"5.	c #E0DFDF",
"6.	c #B9B9B9",
"7.	c #BF1F19",
"8.	c #ED5050",
"9.	c #E54343",
"0.	c #C21A1A",
"a.	c #C1C0C0",
"b.	c #B1B0B0",
"c.	c #ACABAB",
"d.	c #DDDEDE",
"e.	c #B5B5B5",
"f.	c #B41C14",
"g.	c #C11A1A",
"h.	c #A90D08",
"i.	c #B2B1B1",
"j.	c #ADACAC",
"k.	c #D7D6D6",
"l.	c #B1AFAF",
"m.	c #B4170F",
"n.	c #E64848",
"o.	c #E74646",
"p.	c #C11918",
"q.	c #A0A0A0",
"r.	c #DD3C3B",
"s.	c #EB4E4E",
"t.	c #A80F0A",
"u.	c #B4B3B3",
"v.	c #CECDCD",
"w.	c #ABAAAA",
"x.	c #A3A2A2",
"y.	c #C0211C",
"z.	c #E94A4A",
"A.	c #BA1514",
"B.	c #D2D1D1",
"C.	c #A6A5A5",
"D.	c #A09F9F",
"E.	c #AFADAD",
"F.	c #B81C16",
"G.	c #D72727",
"H.	c #CF2323",
"I.	c #B30F0E",
"J.	c #A9100A",
"K.	c #A9A8A8",
"L.	c #A8A7A7",
"M.	c #A5A4A4",
"N.	c #A1A0A0",
"O.	c #9A9999",
"P.	c #AC150F",
"Q.	c #A6110B",
"R.	c #A2A1A1",
"S.	c #9D9C9C",
"T.	c #8F8F8F",
"U.	c #9B9B9B",
"V.	c #9C9B9B",
"                                                                ",
"                                                                ",
"              . + @ #                                           ",
"                $ % & & *                                       ",
"                  = - ; > ,                     ' )             ",
"        !           ~ { ] ^ /                 # ( =             ",
"      _ :           < { ( [ ]                 } [               ",
"      | 1 ( !     | } 2 ] 3 *             4 5                   ",
"      | 6 7 ]     { 8 : ] 3 9             $ |                   ",
"      0 6 a b > ^ c d : ] 3 e         ] 4                       ",
"        f 7 b g & ^ h i ] j k         @ _                       ",
"          l b g & m h i ] 3 n o   ] p                           ",
"          _ : g % l q i ( j r s . t u                           ",
"              v w x y z x * 9 9 , A                             ",
"                          B 9 t C D E                           ",
"                        F G H f I J K ( y                       ",
"                      L M N O P Q v R S T x                     ",
"                  U V W X Y Z   z `  ...< ) +.@.                ",
"                #.$.%.&.*.=.    A -. ...;.>.,.{ |               ",
"              '.).!.&.~.{.        K ]...;.^./.(.l _.            ",
"            :.<.[.}.}.|.1.        2.3...;.^._.4.>.5.6.          ",
"          7.8.9.}.~.0.              ! ..;.a.a.b.c.4.d.e.        ",
"        f.%.[.}.}.g.h.                _.< I ) i.4.u j.k.l.      ",
"      m.n.o.}.~.p.                      z >.9 o   c.q.c.*       ",
"      r.s.&.}.|.t.                        u.I v.u.w.E x.c..     ",
"    y.z.&.}.A.                              c.>.+ B.t C.D./.E.  ",
"    F.G.H.I.J.                                K.j.L.M.M.N.O.w.  ",
"      P.Q.                                        N.R.D.S.N.    ",
"                                                  T.U.S.V.      ",
"                                                                ",
"                                                                ",
"                                                                "};
