/* XPM */
static char * buttonA_xpm[] = {
"60 19 35 1",
" 	c None",
".	c #4555A4",
"+	c #4757A6",
"@	c #4454A4",
"#	c #505FAC",
"$	c #2F3C7F",
"%	c #29377E",
"&	c #505FA9",
"*	c #172362",
"=	c #101D5D",
"-	c #6A6B6E",
";	c #515FA9",
">	c #14205E",
",	c #85847F",
"'	c #7E7E7E",
")	c #878787",
"!	c #8C8C8C",
"~	c #939393",
"{	c #9B9B9B",
"]	c #A7A7A7",
"^	c #B2B2B2",
"/	c #BCBCBC",
"(	c #C8C8C8",
"_	c #D0D0D0",
":	c #D9D9D9",
"<	c #E5E5E5",
"[	c #FFFFFB",
"}	c #F0F0F0",
"|	c #162261",
"1	c #0C1959",
"2	c #EBECEF",
"3	c #49579E",
"4	c #2A3674",
"5	c #1A276A",
"6	c #4655A2",
"...++++++++++++++++++++++++++++++++++++++++++++++++++++++...",
".@#$%%%%%%%%%%%%%%%%%%%%%%%%%%%%%%%%%%%%%%%%%%%%%%%%%%%%$#@.",
".&*=----------------------------------------------------=*&.",
".;>,'''''''''''''''''''''''''''''''''''''''''''''''''''',>;.",
".;>))))))))))))))))))))))))))))))))))))))))))))))))))))))>;.",
".;>!!!!!!!!!!!!!!!!!!!!!!!!!!!!!!!!!!!!!!!!!!!!!!!!!!!!!!>;.",
".;>~~~~~~~~~~~~~~~~~~~~~~~~~~~~~~~~~~~~~~~~~~~~~~~~~~~~~~>;.",
".;>{{{{{{{{{{{{{{{{{{{{{{{{{{{{{{{{{{{{{{{{{{{{{{{{{{{{{{>;.",
".;>]]]]]]]]]]]]]]]]]]]]]]]]]]]]]]]]]]]]]]]]]]]]]]]]]]]]]]>;.",
".;>^^^^^^^^^^^^^^^^^^^^^^^^^^^^^^^^^^^^^^^^^^^^^^^^^^^^^^>;.",
".;>//////////////////////////////////////////////////////>;.",
".;>((((((((((((((((((((((((((((((((((((((((((((((((((((((>;.",
".;>______________________________________________________>;.",
".;>::::::::::::::::::::::::::::::::::::::::::::::::::::::>;.",
".;><<<<<<<<<<<<<<<<<<<<<<<<<<<<<<<<<<<<<<<<<<<<<<<<<<<<<<>;.",
".;>[}}}}}}}}}}}}}}}}}}}}}}}}}}}}}}}}}}}}}}}}}}}}}}}}}}}}[>;.",
".&|122222222222222222222222222222222222222222222222222221|&.",
".@34555555555555555555555555555555555555555555555555555543@.",
"...666666666666666666666666666666666666666666666666666666..."};
