/* XPM */
static char * close_xpm[] = {
"24 50 40 1",
" 	c None",
".	c #6C7AC3",
"+	c #6675BD",
"@	c #475496",
"#	c #6371B8",
"$	c #14205E",
"%	c #5D6BB3",
"&	c #5B68A8",
"*	c #5866AE",
"=	c #2B3876",
"-	c #4F5C9D",
";	c #5362AB",
">	c #475493",
",	c #4C5BA6",
"'	c #394788",
")	c #F0F0F0",
"!	c #4857A2",
"~	c #2B387D",
"{	c #43529F",
"]	c #263479",
"^	c #3E4D9B",
"/	c #3A4A98",
"(	c #334083",
"_	c #384796",
":	c #3E4A8A",
"<	c #344493",
"[	c #4A5798",
"}	c #32418F",
"|	c #465293",
"1	c #303F8C",
"2	c #2E3C87",
"3	c #2A3983",
"4	c #28367E",
"5	c #253379",
"6	c #233176",
"7	c #212E72",
"8	c #1E2C6F",
"9	c #1B286A",
"0	c #192668",
"a	c #182464",
"........................",
"++++@@@@@@@@@@@@@@@@++++",
"###@$$$$$$$$$$$$$$$$@###",
"%%@$&&&&&&&&&&&&&&&&$@%%",
"*=$------------------$=*",
";=$>>>>>>>>>>>>>>>>>>$=;",
",=$'''''')'''')''''''$=,",
"!=$~~~~~~$)~~)$~~~~~~$=!",
"{=$]]]]]]]$))$]]]]]]]$={",
"^=$]]]]]]]]))]]]]]]]]$=^",
"/=$((((((()$$)((((((($=/",
"_=$::::::)$::$)::::::$=_",
"<=$[[[[[[$[[[[$[[[[[[$=<",
"}}|$&&&&&&&&&&&&&&&&$|}}",
"111|================|111",
"2222||||||||||||||||2222",
"333333333333333333333333",
"444444444444444444444444",
"555555555555555555555555",
"666666666666666666666666",
"777777777777777777777777",
"888888888888888888888888",
"999999999999999999999999",
"000000000000000000000000",
"aaaaaaaaaaaaaaaaaaaaaaaa",
"........................",
"++++@@@@@@@@@@@@@@@@++++",
"###@$$$$$$$$$$$$$$$$@###",
"%%@$&&&&&&&&&&&&&&&&$@%%",
"*=$------------------$=*",
";=$>>>>>>>>>>>>>>>>>>$=;",
",=$'''''')'''')''''''$=,",
"!=$~~~~~~$)~~)$~~~~~~$=!",
"{=$]]]]]]]$))$]]]]]]]$={",
"^=$]]]]]]]]))]]]]]]]]$=^",
"/=$((((((()$$)((((((($=/",
"_=$::::::)$::$)::::::$=_",
"<=$[[[[[[$[[[[$[[[[[[$=<",
"}}|$&&&&&&&&&&&&&&&&$|}}",
"111|================|111",
"2222||||||||||||||||2222",
"333333333333333333333333",
"444444444444444444444444",
"555555555555555555555555",
"666666666666666666666666",
"777777777777777777777777",
"888888888888888888888888",
"999999999999999999999999",
"000000000000000000000000",
"aaaaaaaaaaaaaaaaaaaaaaaa"};
