/* XPM */
static char * dframeIR_xpm[] = {
"5 1 3 1",
" 	c None",
".	c #14205E",
"+	c #222F72",
".+++."};
