/* XPM */
static char * dframeABL_xpm[] = {
"5 5 5 1",
" 	c None",
".	c #131F5D",
"+	c #222F72",
"@	c #233074",
"#	c #14205E",
".+++.",
".@@+@",
".@++@",
".+++@",
"...##"};
