/* XPM */
static char * frameAT_xpm[] = {
"1 33 12 1",
" 	c None",
".	c #494949",
"+	c #8C8C8C",
"@	c #6A6A6A",
"#	c #707070",
"$	c #777777",
"%	c #838383",
"&	c #969696",
"*	c #9D9D9D",
"=	c #A4A4A4",
"-	c #ACA9A9",
";	c #B3B3B3",
" ",
" ",
" ",
".",
"+",
"+",
"+",
".",
"@",
"#",
"$",
"%",
"+",
"&",
"*",
"=",
"-",
";",
";",
"-",
"=",
"*",
"&",
"+",
"%",
"$",
"#",
"@",
".",
"+",
"+",
"+",
"."};
