/* XPM */
static char * maximizeO_xpm[] = {
"24 50 43 1",
" 	c None",
".	c #6371B8",
"+	c #5D6BB3",
"@	c #515FA9",
"#	c #5866AE",
"$	c #14205E",
"%	c #5362AB",
"&	c #5868BA",
"*	c #4C5BA6",
"=	c #2B3876",
"-	c #37479B",
";	c #4857A2",
">	c #4253A6",
",	c #8491D5",
"'	c #43529F",
")	c #4E5FB1",
"!	c #8B98DB",
"~	c #3E4D9B",
"{	c #94A0E0",
"]	c #3A4A98",
"^	c #6575C4",
"/	c #9DA9E5",
"(	c #384796",
"_	c #6F7FCB",
":	c #A3AFEA",
"<	c #344493",
"[	c #7E8CD5",
"}	c #32418F",
"|	c #8694DB",
"1	c #303F8C",
"2	c #929FE3",
"3	c #2E3C87",
"4	c #465293",
"5	c #2A3983",
"6	c #28367E",
"7	c #253379",
"8	c #233176",
"9	c #212E72",
"0	c #1E2C6F",
"a	c #1B286A",
"b	c #192668",
"c	c #182464",
"d	c #172363",
"........................",
"++++@@@@@@@@@@@@@@@@++++",
"###@$$$$$$$$$$$$$$$$@###",
"%%@$&&&&&&&&&&&&&&&&$@%%",
"*=$&----------------&$=*",
";=$&>>>>>,,,,,,>>>>>&$=;",
"'=$&)))))$$$$$$!))))&$='",
"~=$&&&&&&$&&&&${&&&&&$=~",
"]=$&^^^^^$^^^^$/^^^^&$=]",
"(=$&_____$____$:____&$=(",
"<=$&[[[[[$[[[[$:[[[[&$=<",
"}=$&|||||$$$$$$:||||&$=}",
"1=$&2222222222222222&$=1",
"334$&&&&&&&&&&&&&&&&$433",
"5554$$$$$$$$$$$$$$$$4555",
"666644444444444444446666",
"777777777777777777777777",
"888888888888888888888888",
"999999999999999999999999",
"000000000000000000000000",
"aaaaaaaaaaaaaaaaaaaaaaaa",
"bbbbbbbbbbbbbbbbbbbbbbbb",
"cccccccccccccccccccccccc",
"dddddddddddddddddddddddd",
"$$$$$$$$$$$$$$$$$$$$$$$$",
"........................",
"++++@@@@@@@@@@@@@@@@++++",
"###@$$$$$$$$$$$$$$$$@###",
"%%@$&&&&&&&&&&&&&&&&$@%%",
"*=$&----------------&$=*",
";=$&>>>>>>>>>>>>>>>>&$=;",
"'=$&))))),,,,,,)))))&$='",
"~=$&&&&&&$$$$$${&&&&&$=~",
"]=$&^^^^^$^^^^$/^^^^&$=]",
"(=$&_____$____$:____&$=(",
"<=$&[[[[[$[[[[$:[[[[&$=<",
"}=$&|||||$||||$:||||&$=}",
"1=$&22222$$$$$$:2222&$=1",
"334$&&&&&&&&&&&&&&&&$433",
"5554$$$$$$$$$$$$$$$$4555",
"666644444444444444446666",
"777777777777777777777777",
"888888888888888888888888",
"999999999999999999999999",
"000000000000000000000000",
"aaaaaaaaaaaaaaaaaaaaaaaa",
"bbbbbbbbbbbbbbbbbbbbbbbb",
"cccccccccccccccccccccccc",
"dddddddddddddddddddddddd",
"$$$$$$$$$$$$$$$$$$$$$$$$"};
