/* XPM */
static char * maximizeA_xpm[] = {
"24 50 40 1",
" 	c None",
".	c #6371B8",
"+	c #5D6BB3",
"@	c #515FA9",
"#	c #5866AE",
"$	c #14205E",
"%	c #5362AB",
"&	c #B8B8B8",
"*	c #4C5BA6",
"=	c #2B3876",
"-	c #858585",
";	c #4857A2",
">	c #8E8E8E",
",	c #D9D9D9",
"'	c #43529F",
")	c #9F9F9F",
"!	c #FFFFFF",
"~	c #3E4D9B",
"{	c #B3B3B3",
"]	c #3A4A98",
"^	c #C4C4C4",
"/	c #384796",
"(	c #D2D2D2",
"_	c #344493",
":	c #32418F",
"<	c #E1E1E1",
"[	c #303F8C",
"}	c #ECECEC",
"|	c #2E3C87",
"1	c #465293",
"2	c #2A3983",
"3	c #28367E",
"4	c #253379",
"5	c #233176",
"6	c #212E72",
"7	c #1E2C6F",
"8	c #1B286A",
"9	c #192668",
"0	c #182464",
"a	c #172363",
"........................",
"++++@@@@@@@@@@@@@@@@++++",
"###@$$$$$$$$$$$$$$$$@###",
"%%@$&&&&&&&&&&&&&&&&$@%%",
"*=$&----------------&$=*",
";=$&>>>>>,,,,,,>>>>>&$=;",
"'=$&)))))$$$$$$!))))&$='",
"~=$&{{{{{${{{{$!{{{{&$=~",
"]=$&^^^^^$^^^^$!^^^^&$=]",
"/=$&((((($(((($!((((&$=/",
"_=$&,,,,,$,,,,$!,,,,&$=_",
":=$&<<<<<$$$$$$!<<<<&$=:",
"[=$&}}}}}}}}}}}}}}}}&$=[",
"||1$&&&&&&&&&&&&&&&&$1||",
"2221$$$$$$$$$$$$$$$$1222",
"333311111111111111113333",
"444444444444444444444444",
"555555555555555555555555",
"666666666666666666666666",
"777777777777777777777777",
"888888888888888888888888",
"999999999999999999999999",
"000000000000000000000000",
"aaaaaaaaaaaaaaaaaaaaaaaa",
"$$$$$$$$$$$$$$$$$$$$$$$$",
"........................",
"++++@@@@@@@@@@@@@@@@++++",
"###@$$$$$$$$$$$$$$$$@###",
"%%@$&&&&&&&&&&&&&&&&$@%%",
"*=$&----------------&$=*",
";=$&>>>>>,,,,,,>>>>>&$=;",
"'=$&)))))$$$$$$!))))&$='",
"~=$&{{{{{${{{{$!{{{{&$=~",
"]=$&^^^^^$^^^^$!^^^^&$=]",
"/=$&((((($(((($!((((&$=/",
"_=$&,,,,,$,,,,$!,,,,&$=_",
":=$&<<<<<$$$$$$!<<<<&$=:",
"[=$&}}}}}}}}}}}}}}}}&$=[",
"||1$&&&&&&&&&&&&&&&&$1||",
"2221$$$$$$$$$$$$$$$$1222",
"333311111111111111113333",
"444444444444444444444444",
"555555555555555555555555",
"666666666666666666666666",
"777777777777777777777777",
"888888888888888888888888",
"999999999999999999999999",
"000000000000000000000000",
"aaaaaaaaaaaaaaaaaaaaaaaa",
"$$$$$$$$$$$$$$$$$$$$$$$$"};
