/* XPM */
static char * rollupA_xpm[] = {
"24 50 41 1",
" 	c None",
".	c #6371B8",
"+	c #5D6BB3",
"@	c #515FA9",
"#	c #5866AE",
"$	c #14205E",
"%	c #5362AB",
"&	c #B8B8B8",
"*	c #4C5BA6",
"=	c #2B3876",
"-	c #858585",
";	c #4857A2",
">	c #8E8E8E",
",	c #43529F",
"'	c #9F9F9F",
")	c #D9D9D9",
"!	c #3E4D9B",
"~	c #B3B3B3",
"{	c #EAEAEA",
"]	c #3A4A98",
"^	c #C4C4C4",
"/	c #FFFFFF",
"(	c #384796",
"_	c #D2D2D2",
":	c #344493",
"<	c #32418F",
"[	c #E1E1E1",
"}	c #303F8C",
"|	c #ECECEC",
"1	c #2E3C87",
"2	c #465293",
"3	c #2A3983",
"4	c #28367E",
"5	c #253379",
"6	c #233176",
"7	c #212E72",
"8	c #1E2C6F",
"9	c #1B286A",
"0	c #192668",
"a	c #182464",
"b	c #172363",
"........................",
"++++@@@@@@@@@@@@@@@@++++",
"###@$$$$$$$$$$$$$$$$@###",
"%%@$&&&&&&&&&&&&&&&&$@%%",
"*=$&----------------&$=*",
";=$&>>>>>>>>>>>>>>>>&$=;",
",=$&'''''''))'''''''&$=,",
"!=$&~~~~~~{$${~~~~~~&$=!",
"]=$&^^^^^/$^^$/^^^^^&$=]",
"(=$&_____$____$_____&$=(",
":=$&))))))))))))))))&$=:",
"<=$&[[[[[[[[[[[[[[[[&$=<",
"}=$&||||||||||||||||&$=}",
"112$&&&&&&&&&&&&&&&&$211",
"3332$$$$$$$$$$$$$$$$2333",
"444422222222222222224444",
"555555555555555555555555",
"666666666666666666666666",
"777777777777777777777777",
"888888888888888888888888",
"999999999999999999999999",
"000000000000000000000000",
"aaaaaaaaaaaaaaaaaaaaaaaa",
"bbbbbbbbbbbbbbbbbbbbbbbb",
"$$$$$$$$$$$$$$$$$$$$$$$$",
"........................",
"++++@@@@@@@@@@@@@@@@++++",
"###@$$$$$$$$$$$$$$$$@###",
"%%@$&&&&&&&&&&&&&&&&$@%%",
"*=$&----------------&$=*",
";=$&>>>>>>>>>>>>>>>>&$=;",
",=$&'''''''))'''''''&$=,",
"!=$&~~~~~~{$${~~~~~~&$=!",
"]=$&^^^^^/$^^$/^^^^^&$=]",
"(=$&_____$____$_____&$=(",
":=$&))))))))))))))))&$=:",
"<=$&[[[[[[[[[[[[[[[[&$=<",
"}=$&||||||||||||||||&$=}",
"112$&&&&&&&&&&&&&&&&$211",
"3332$$$$$$$$$$$$$$$$2333",
"444422222222222222224444",
"555555555555555555555555",
"666666666666666666666666",
"777777777777777777777777",
"888888888888888888888888",
"999999999999999999999999",
"000000000000000000000000",
"aaaaaaaaaaaaaaaaaaaaaaaa",
"bbbbbbbbbbbbbbbbbbbbbbbb",
"$$$$$$$$$$$$$$$$$$$$$$$$"};
