/* XPM */
static char * rolldownO_xpm[] = {
"24 50 39 1",
" 	c None",
".	c #6371B8",
"+	c #5D6BB3",
"@	c #515FA9",
"#	c #5866AE",
"$	c #14205E",
"%	c #5362AB",
"&	c #5868BA",
"*	c #4C5BA6",
"=	c #2B3876",
"-	c #37479B",
";	c #4857A2",
">	c #4253A6",
",	c #43529F",
"'	c #4E5FB1",
")	c #3E4D9B",
"!	c #919EDE",
"~	c #3A4A98",
"{	c #6575C4",
"]	c #384796",
"^	c #6F7FCB",
"/	c #344493",
"(	c #7E8CD5",
"_	c #32418F",
":	c #8694DB",
"<	c #303F8C",
"[	c #929FE3",
"}	c #2E3C87",
"|	c #465293",
"1	c #2A3983",
"2	c #28367E",
"3	c #253379",
"4	c #233176",
"5	c #212E72",
"6	c #1E2C6F",
"7	c #1B286A",
"8	c #192668",
"9	c #182464",
"0	c #172363",
"........................",
"++++@@@@@@@@@@@@@@@@++++",
"###@$$$$$$$$$$$$$$$$@###",
"%%@$&&&&&&&&&&&&&&&&$@%%",
"*=$&----------------&$=*",
";=$&>>>>>>>>>>>>>>>>&$=;",
",=$&''''''''''''''''&$=,",
")=$&&&&&&!&&&&!&&&&&&$=)",
"~=$&{{{{{$!{{!${{{{{&$=~",
"]=$&^^^^^^$!!$^^^^^^&$=]",
"/=$&((((((($$(((((((&$=/",
"_=$&::::::::::::::::&$=_",
"<=$&[[[[[[[[[[[[[[[[&$=<",
"}}|$&&&&&&&&&&&&&&&&$|}}",
"111|$$$$$$$$$$$$$$$$|111",
"2222||||||||||||||||2222",
"333333333333333333333333",
"444444444444444444444444",
"555555555555555555555555",
"666666666666666666666666",
"777777777777777777777777",
"888888888888888888888888",
"999999999999999999999999",
"000000000000000000000000",
"$$$$$$$$$$$$$$$$$$$$$$$$",
"........................",
"++++@@@@@@@@@@@@@@@@++++",
"###@$$$$$$$$$$$$$$$$@###",
"%%@$&&&&&&&&&&&&&&&&$@%%",
"*=$&----------------&$=*",
";=$&>>>>>>>>>>>>>>>>&$=;",
",=$&''''''''''''''''&$=,",
")=$&&&&&&&&&&&&&&&&&&$=)",
"~=$&{{{{{!{{{{!{{{{{&$=~",
"]=$&^^^^^$!^^!$^^^^^&$=]",
"/=$&(((((($!!$((((((&$=/",
"_=$&:::::::$$:::::::&$=_",
"<=$&[[[[[[[[[[[[[[[[&$=<",
"}}|$&&&&&&&&&&&&&&&&$|}}",
"111|$$$$$$$$$$$$$$$$|111",
"2222||||||||||||||||2222",
"333333333333333333333333",
"444444444444444444444444",
"555555555555555555555555",
"666666666666666666666666",
"777777777777777777777777",
"888888888888888888888888",
"999999999999999999999999",
"000000000000000000000000",
"$$$$$$$$$$$$$$$$$$$$$$$$"};
