/* XPM */
static char * titleAM_xpm[] = {
"7 25 30 1",
" 	c None",
".	c #515FA9",
"+	c #6675BD",
"@	c #14205E",
"#	c #6371B8",
"$	c #B8B8B8",
"%	c #5D6BB3",
"&	c #858585",
"*	c #2B3876",
"=	c #888888",
"-	c #8C8C8C",
";	c #919191",
">	c #969696",
",	c #9D9D9D",
"'	c #A6A6A6",
")	c #AEAEAE",
"!	c #B5B5B5",
"~	c #BDBDBD",
"{	c #C6C6C6",
"]	c #CDCDCD",
"^	c #D2D2D2",
"/	c #D9D9D9",
"(	c #E1E1E1",
"_	c #ECECEC",
":	c #212E72",
"<	c #1E2C6F",
"[	c #465293",
"}	c #1B286A",
"|	c #192668",
"1	c #182464",
"....+++",
"@@@@.##",
"$$$$@.%",
"&&&&$@*",
"====$@*",
"----$@*",
";;;;$@*",
">>>>$@*",
",,,,$@*",
"''''$@*",
"))))$@*",
"!!!!$@*",
"~~~~$@*",
"{{{{$@*",
"]]]]$@*",
"^^^^$@*",
"////$@*",
"(((($@*",
"____$@*",
"$$$$@*:",
"@@@@*<<",
"[[[[}}}",
"}}}}}}}",
"|||||||",
"1111111"};
