/* XPM */
static char * titleIT_xpm[] = {
"1 25 17 1",
" 	c None",
".	c #515FA9",
"+	c #14205E",
"@	c #5B68A8",
"#	c #4F5C9D",
"$	c #4A5798",
"%	c #3E4A8A",
"&	c #394788",
"*	c #334083",
"=	c #2B387D",
"-	c #263479",
";	c #233177",
">	c #475493",
",	c #465293",
"'	c #1F2C70",
")	c #192668",
"!	c #182464",
".",
"+",
"@",
"@",
"#",
"$",
"%",
"&",
"*",
"=",
"-",
";",
"-",
"=",
"*",
"&",
">",
"$",
"#",
"@",
"+",
",",
"'",
")",
"!"};
