/* XPM */
static char * m_xpm[] = {
"10 20 31 1",
" 	c None",
".	c #313831",
"+	c #414041",
"@	c #413841",
"#	c #313431",
"$	c #413441",
"%	c #393039",
"&	c #292C29",
"*	c #292829",
"=	c #292429",
"-	c #312C31",
";	c #202420",
">	c #30A6FA",
",	c #2B628E",
"'	c #2E9DEB",
")	c #2D98E4",
"!	c #1F485B",
"~	c #2C618B",
"{	c #2E9BE9",
"]	c #2E96E1",
"^	c #1D3F4E",
"/	c #2F76A5",
"(	c #403D4A",
"_	c #305F7E",
":	c #30A1F1",
"<	c #3075A4",
"[	c #3290D4",
"}	c #000000",
"|	c #020B11",
"1	c #000406",
"2	c #2EA0F2",
".+.+.+.+.+",
"@#@#@#@#@#",
"#$#$#$#$#$",
"%&%&%&%&%&",
"*%*%*%*%*%",
"&*&*&*&*&*",
"=-=-=-=-;-",
";>,')!~{]^",
"#>/(_:<(_[",
"}>|}1>|}12",
"}>}}}>}}}>",
"}>}}}>}}}>",
"}>}}}>}}}>",
"}>}}}>}}}>",
"}}}}}}}}}}",
"}}}}}}}}}}",
"}}}}}}}}}}",
"}}}}}}}}}}",
"}}}}}}}}}}",
"}}}}}}}}}}"};
