/* XPM */
static char * n0_xpm[] = {
"9 20 46 1",
" 	c None",
".	c #313831",
"+	c #414041",
"@	c #413841",
"#	c #313431",
"$	c #413441",
"%	c #393039",
"&	c #292C29",
"*	c #292829",
"=	c #292429",
"-	c #312C31",
";	c #6D6A6D",
">	c #DDDCDD",
",	c #F8F8F8",
"'	c #6C686C",
")	c #202420",
"!	c #4A504A",
"~	c #EDECED",
"{	c #5F5F5F",
"]	c #2C302C",
"^	c #5A5F5A",
"/	c #4F4F4F",
"(	c #BEBBBE",
"_	c #898B89",
":	c #8B8D8B",
"<	c #BCB9BC",
"[	c #000000",
"}	c #E1E1E1",
"|	c #232323",
"1	c #E0E0E0",
"2	c #F9F9F9",
"3	c #0A0A0A",
"4	c #F7F7F7",
"5	c #A8A8A8",
"6	c #6E6E6E",
"7	c #6F6F6F",
"8	c #A6A6A6",
"9	c #393939",
"0	c #EAEAEA",
"a	c #484848",
"b	c #0D0D0D",
"c	c #363636",
"d	c #535353",
"e	c #D7D7D7",
"f	c #D6D6D6",
"g	c #515151",
".+.+.+.+.",
"@#@#@#@#@",
"#$#$#$#$#",
"%&%&%&%&%",
"*%*%*%*%*",
"&*&*&*&*&",
"=-;>,>'-)",
")!~{]^~/)",
"#(_@#@:<#",
"[}|[[[|1[",
"[23[[[3,[",
"[23[[[34[",
"[}|[[[|1[",
"[56[[[78[",
"[90aba0c[",
"[[de2fg[[",
"[[[[[[[[[",
"[[[[[[[[[",
"[[[[[[[[[",
"[[[[[[[[["};
