/* XPM */
static char * n0_xpm[] = {
"8 20 48 1",
" 	c None",
".	c #414041",
"+	c #313831",
"@	c #313431",
"#	c #413841",
"$	c #413441",
"%	c #292C29",
"&	c #393039",
"*	c #292829",
"=	c #282C29",
"-	c #2C6B98",
";	c #2F9DEB",
">	c #2C6C96",
",	c #282829",
"'	c #312C31",
")	c #2B577C",
"!	c #308DD1",
"~	c #293342",
"{	c #303A49",
"]	c #2E8BD0",
"^	c #305B7F",
"/	c #202420",
"(	c #182018",
"_	c #2D88CA",
":	c #24465E",
"<	c #2B4964",
"[	c #2C86C6",
"}	c #2F9FEE",
"|	c #3F404E",
"1	c #303D41",
"2	c #319FED",
"3	c #000000",
"4	c #2FA4F7",
"5	c #000204",
"6	c #2EA3F6",
"7	c #2C9CEB",
"8	c #030C13",
"9	c #030D14",
"0	c #2C9BE9",
"a	c #2480C1",
"b	c #0D2F47",
"c	c #247FBF",
"d	c #134365",
"e	c #2684C8",
"f	c #05141F",
"g	c #124061",
"h	c #195986",
"i	c #195884",
".+.+.+.+",
"@#@#@#@#",
"$@$@$@$@",
"%&%&%&%&",
"&*&*&*&*",
"*=-;;>,%",
"')!~{]^/",
"(_:/(<[/",
"#}|@#12@",
"34533563",
"37833903",
"3ab33bc3",
"3deffeg3",
"33h00i33",
"33333333",
"33333333",
"33333333",
"33333333",
"33333333",
"33333333"};
