/* XPM */
static char * n3_xpm[] = {
"8 20 51 1",
" 	c None",
".	c #414041",
"+	c #313831",
"@	c #313431",
"#	c #413841",
"$	c #413441",
"%	c #292C29",
"&	c #393039",
"*	c #292829",
"=	c #2A4E65",
"-	c #2D87C6",
";	c #2FA1F3",
">	c #2E99E4",
",	c #2C77AB",
"'	c #29323B",
")	c #312C31",
"!	c #2E84C3",
"~	c #30526F",
"{	c #292B35",
"]	c #30313A",
"^	c #2C638F",
"/	c #3085C5",
"(	c #202420",
"_	c #182018",
":	c #292429",
"<	c #202020",
"[	c #282932",
"}	c #2E9FF0",
"|	c #403C48",
"1	c #30698F",
"2	c #3584C2",
"3	c #000000",
"4	c #30A6FA",
"5	c #2B97E3",
"6	c #061622",
"7	c #02080D",
"8	c #17527C",
"9	c #247DBD",
"0	c #2D9EEE",
"a	c #1D689E",
"b	c #071A27",
"c	c #000204",
"d	c #04121B",
"e	c #1B5F8F",
"f	c #2174AF",
"g	c #0F3652",
"h	c #2687CC",
"i	c #2EA1F3",
"j	c #2A92DD",
"k	c #1C6294",
"l	c #020B11",
".+.+.+.+",
"@#@#@#@#",
"$@$@$@$@",
"%&%&%&%&",
"&*&*&*&*",
"*=-;>,'%",
")!~{]^/(",
"_:<(_[}(",
"#@#@|12@",
"33344563",
"33337893",
"33333703",
"3abcdef3",
"3ghijkl3",
"33333333",
"33333333",
"33333333",
"33333333",
"33333333",
"33333333"};
