/* XPM */
static char * n3_xpm[] = {
"9 20 54 1",
" 	c None",
".	c #313831",
"+	c #414041",
"@	c #413841",
"#	c #313431",
"$	c #413441",
"%	c #393039",
"&	c #292C29",
"*	c #292829",
"=	c #292429",
"-	c #636063",
";	c #B8B7B8",
">	c #EFEFEF",
",	c #F5F5F5",
"'	c #DFDEDF",
")	c #989698",
"!	c #3C373C",
"~	c #202420",
"{	c #C9CBC9",
"]	c #777477",
"^	c #363636",
"/	c #232723",
"(	c #343B34",
"_	c #A7A5A7",
":	c #C4C4C4",
"<	c #3C3F3C",
"[	c #F7F7F7",
"}	c #000000",
"|	c #010101",
"1	c #1C1C1C",
"2	c #909090",
"3	c #AAAAAA",
"4	c #FFFFFF",
"5	c #D6D6D6",
"6	c #111111",
"7	c #040404",
"8	c #2B2B2B",
"9	c #B9B9B9",
"0	c #A1A1A1",
"a	c #181818",
"b	c #F1F1F1",
"c	c #1F1F1F",
"d	c #EBEBEB",
"e	c #AEAEAE",
"f	c #3C3C3C",
"g	c #090909",
"h	c #0B0B0B",
"i	c #383838",
"j	c #868686",
"k	c #494949",
"l	c #BEBEBE",
"m	c #ECECEC",
"n	c #C8C8C8",
"o	c #626262",
".+.+.+.+.",
"@#@#@#@#@",
"#$#$#$#$#",
"%&%&%&%&%",
"*%*%*%*%*",
"&*&*&*&*&",
"=-;>,')!~",
"~{]^/(_:~",
"#@#@#@<[#",
"}}}}|123}",
"}}}44456}",
"}}}}7890}",
"}}}}}}ab}",
"}}}}}}cd}",
"}efghi:j}",
"}kl,mno}}",
"}}}}}}}}}",
"}}}}}}}}}",
"}}}}}}}}}",
"}}}}}}}}}"};
