/* XPM */
static char * n4_xpm[] = {
"9 20 30 1",
" 	c None",
".	c #313831",
"+	c #414041",
"@	c #413841",
"#	c #313431",
"$	c #413441",
"%	c #393039",
"&	c #292C29",
"*	c #292829",
"=	c #292429",
"-	c #312C31",
";	c #474347",
">	c #DCDBDC",
",	c #FFFFFF",
"'	c #202420",
")	c #182018",
"!	c #252525",
"~	c #CFD0CF",
"{	c #4A504A",
"]	c #202020",
"^	c #ADAAAD",
"/	c #8F918F",
"(	c #000000",
"_	c #4E4E4E",
":	c #B5B5B5",
"<	c #1C1C1C",
"[	c #D1D1D1",
"}	c #131313",
"|	c #BFBFBF",
"1	c #3D3D3D",
".+.+.+.+.",
"@#@#@#@#@",
"#$#$#$#$#",
"%&%&%&%&%",
"*%*%*%*%*",
"&*&*&*&*&",
"=-=-;>,-'",
"')=!~{,]'",
"#@#^/@,@#",
"((_:((,((",
"(<[}((,((",
"(|1(((,((",
"(,,,,,,,(",
"((((((,((",
"((((((,((",
"((((((,((",
"(((((((((",
"(((((((((",
"(((((((((",
"((((((((("};
