/* XPM */
static char * n5_xpm[] = {
"8 20 41 1",
" 	c None",
".	c #414041",
"+	c #313831",
"@	c #313431",
"#	c #413841",
"$	c #413441",
"%	c #292C29",
"&	c #393039",
"*	c #292829",
"=	c #30A6FA",
"-	c #312C31",
";	c #292429",
">	c #202420",
",	c #182018",
"'	c #202020",
")	c #309CEA",
"!	c #2FA0F1",
"~	c #3292D9",
"{	c #306587",
"]	c #403842",
"^	c #000000",
"/	c #000406",
"(	c #092132",
"_	c #247FBF",
":	c #1A5C8B",
"<	c #05131C",
"[	c #2C9BE9",
"}	c #04111A",
"|	c #2A95E1",
"1	c #1E6CA3",
"2	c #071C2A",
"3	c #000305",
"4	c #071A27",
"5	c #2279B6",
"6	c #1A5E8E",
"7	c #0F3652",
"8	c #2687CC",
"9	c #2EA0F2",
"0	c #288ED7",
"a	c #185580",
"b	c #010407",
".+.+.+.+",
"@#@#@#@#",
"$@$@$@$@",
"%&%&%&%&",
"&*&*&*&*",
"*=====*%",
"-=-;-;->",
",='>,;'>",
"#=)!~{]@",
"^^^/(_:^",
"^^^^^<[^",
"^^^^^}|^",
"^123456^",
"^7890ab^",
"^^^^^^^^",
"^^^^^^^^",
"^^^^^^^^",
"^^^^^^^^",
"^^^^^^^^",
"^^^^^^^^"};
