/* XPM */
static char * n5_xpm[] = {
"9 20 44 1",
" 	c None",
".	c #313831",
"+	c #414041",
"@	c #413841",
"#	c #313431",
"$	c #413441",
"%	c #393039",
"&	c #292C29",
"*	c #292829",
"=	c #292429",
"-	c #FFFFFF",
";	c #312C31",
">	c #202420",
",	c #202020",
"'	c #182018",
")	c #000000",
"!	c #E7E7E7",
"~	c #F8F8F8",
"{	c #DDDDDD",
"]	c #A8A8A8",
"^	c #2F2F2F",
"/	c #B0B0B0",
"(	c #3C3C3C",
"_	c #070707",
":	c #161616",
"<	c #5C5C5C",
"[	c #E4E4E4",
"}	c #4D4D4D",
"|	c #464646",
"1	c #D4D4D4",
"2	c #0C0C0C",
"3	c #3F3F3F",
"4	c #DADADA",
"5	c #B2B2B2",
"6	c #404040",
"7	c #0A0A0A",
"8	c #0E0E0E",
"9	c #E0E0E0",
"0	c #636363",
"a	c #494949",
"b	c #BEBEBE",
"c	c #F5F5F5",
"d	c #E9E9E9",
"e	c #BFBFBF",
".+.+.+.+.",
"@#@#@#@#@",
"#$#$#$#$#",
"%&%&%&%&%",
"*%*%*%*%*",
"&*&*&*&*&",
"=------;>",
">-=,>'=,>",
"#-#@#@#@#",
")-!~{]^))",
")/(_:<[})",
"))))))|1)",
"))))))2~)",
"))))))34)",
")5678}90)",
")abcdea))",
")))))))))",
")))))))))",
")))))))))",
")))))))))"};
