/* XPM */
static char * n8_xpm[] = {
"8 20 53 1",
" 	c None",
".	c #414041",
"+	c #313831",
"@	c #313431",
"#	c #413841",
"$	c #413441",
"%	c #292C29",
"&	c #393039",
"*	c #292829",
"=	c #293B43",
"-	c #2D80BA",
";	c #2F9EEB",
">	c #2D81BA",
",	c #293843",
"'	c #312C31",
")	c #2D88CA",
"!	c #306A98",
"~	c #292B35",
"{	c #30323C",
"]	c #2C6795",
"^	c #2F89CC",
"/	c #202420",
"(	c #182018",
"_	c #2E9FF0",
":	c #20252A",
"<	c #292A33",
"[	c #2F7FB7",
"}	c #376F9D",
"|	c #303A3C",
"1	c #3F3D4B",
"2	c #306D97",
"3	c #3481BD",
"4	c #000000",
"5	c #041119",
"6	c #2991DB",
"7	c #30A6FA",
"8	c #041018",
"9	c #2279B6",
"0	c #185682",
"a	c #02090F",
"b	c #2D9FF0",
"c	c #01070C",
"d	c #02080D",
"e	c #2D9EEF",
"f	c #2480C1",
"g	c #18547F",
"h	c #185681",
"i	c #247FBF",
"j	c #061723",
"k	c #2176B2",
"l	c #2C9BEA",
"m	c #2175B1",
"n	c #061621",
".+.+.+.+",
"@#@#@#@#",
"$@$@$@$@",
"%&%&%&%&",
"&*&*&*&*",
"*=-;;>,%",
"')!~{]^/",
"(_:/(<_/",
"#[}|123@",
"45677684",
"490aa094",
"4bc44de4",
"4fgaahi4",
"4jkllmn4",
"44444444",
"44444444",
"44444444",
"44444444",
"44444444",
"44444444"};
