/* XPM */
static char * n9_xpm[] = {
"9 20 60 1",
" 	c None",
".	c #313831",
"+	c #414041",
"@	c #413841",
"#	c #313431",
"$	c #413441",
"%	c #393039",
"&	c #292C29",
"*	c #292829",
"=	c #292429",
"-	c #353035",
";	c #939193",
">	c #E3E2E3",
",	c #F8F8F8",
"'	c #D9D8D9",
")	c #646064",
"!	c #312C31",
"~	c #202420",
"{	c #989B98",
"]	c #C6C5C6",
"^	c #454545",
"/	c #262926",
"(	c #3E453E",
"_	c #C2C1C2",
":	c #494949",
"<	c #ECECEC",
"[	c #464946",
"}	c #BAB7BA",
"|	c #000000",
"1	c #E7E7E7",
"2	c #1A1A1A",
"3	c #DFDFDF",
"4	c #8F8F8F",
"5	c #BABABA",
"6	c #292929",
"7	c #070707",
"8	c #B8B8B8",
"9	c #060606",
"0	c #808080",
"a	c #DBDBDB",
"b	c #F7F7F7",
"c	c #D7D7D7",
"d	c #5B5B5B",
"e	c #F4F4F4",
"f	c #434343",
"g	c #CFCFCF",
"h	c #ADADAD",
"i	c #777777",
"j	c #B3B3B3",
"k	c #303030",
"l	c #040404",
"m	c #202020",
"n	c #969696",
"o	c #C7C7C7",
"p	c #565656",
"q	c #D4D4D4",
"r	c #F9F9F9",
"s	c #DDDDDD",
"t	c #868686",
"u	c #0A0A0A",
".+.+.+.+.",
"@#@#@#@#@",
"#$#$#$#$#",
"%&%&%&%&%",
"*%*%*%*%*",
"&*&*&*&*&",
"=-;>,')!~",
"~{]^/(_:~",
"#<[@#@[}#",
"|12|||23|",
"|456768,|",
"|90abcde|",
"||||||fg|",
"||||||hi|",
"|jklmno9|",
"|pqrstu||",
"|||||||||",
"|||||||||",
"|||||||||",
"|||||||||"};
