/* XPM */
static char * dot_xpm[] = {
"6 20 46 1",
" 	c None",
".	c #AC9674",
"+	c #BC9E7C",
"@	c #BCA684",
"#	c #AC926C",
"$	c #B49E7C",
"%	c #B49A74",
"&	c #B49A7C",
"*	c #BCA27C",
"=	c #BCA284",
"-	c #B49674",
";	c #C4A684",
">	c #C4AA8C",
",	c #CCB28C",
"'	c #C4AE8C",
")	c #A48E6C",
"!	c #C4AA84",
"~	c #CCAE8C",
"{	c #CCB294",
"]	c #B8A37D",
"^	c #4B4234",
"/	c #615642",
"(	c #BAA581",
"_	c #817158",
":	c #43392A",
"<	c #978567",
"[	c #C4B08E",
"}	c #B29C7A",
"|	c #8F7F64",
"1	c #D7CBB7",
"2	c #C5B18F",
"3	c #C1A983",
"4	c #C0AA83",
"5	c #BFAA86",
"6	c #BDA985",
"7	c #B49E74",
"8	c #B4A27C",
"9	c #BCAA84",
"0	c #C4B694",
"a	c #C4B28C",
"b	c #BCB28C",
"c	c #CCB68C",
"d	c #CCBA94",
"e	c #D4BE9C",
"f	c #BCA67C",
"g	c #C4A27C",
".+@+.#",
"+$%&**",
"*=*--*",
"$*;$%=",
"+$%*>,",
";;$-%+",
"'';-).",
"!;=*!~",
"##-=',",
";@*@!>",
"=+%%+*",
";*=+@;",
"{]^/(@",
",_:<[+",
"!}|12@",
".34567",
"8900ab",
"aacdde",
"$*=f=f",
">~,~g$"};
