/* XPM */
static char * m_xpm[] = {
"9 20 40 1",
" 	c None",
".	c #AC9674",
"+	c #BC9E7C",
"@	c #BCA684",
"#	c #AC926C",
"$	c #AC9274",
"%	c #AC966C",
"&	c #B49E7C",
"*	c #B49A74",
"=	c #B49A7C",
"-	c #BCA27C",
";	c #AC8E6C",
">	c #505050",
",	c #B49674",
"'	c #C4AA8C",
")	c #C4AE8C",
"!	c #BCA284",
"~	c #A48E6C",
"{	c #C4A684",
"]	c #C4A27C",
"^	c #CCAE8C",
"/	c #C4AA84",
"(	c #CCB28C",
"_	c #D4B694",
":	c #CCB294",
"<	c #CCB68C",
"[	c #B4967C",
"}	c #B49E74",
"|	c #B4A27C",
"1	c #BCAA84",
"2	c #C4B694",
"3	c #C4B28C",
"4	c #BCB28C",
"5	c #CCC29C",
"6	c #CCBA94",
"7	c #D4BE9C",
"8	c #DCC69C",
"9	c #BCA67C",
"0	c #BC9A7C",
"a	c #C4A68C",
".+@+.#$%@",
"+&*=--=;.",
"->-,,-'>)",
"&>>&*!>>@",
"+>*>'>'>~",
"{>&,>+->]",
")>{,~.@>^",
"/>!-/^/>=",
"#>,!)('>-",
"{@-@/'/-)",
"!+**+-@{~",
"{-!+@{)^_",
":<:)/@--=",
"(:(({+[*$",
"/'(){@/)(",
".,***}@^@",
"|12234<5<",
"33<667778",
"&-!9!9-|.",
"'^(^]&0-a"};
