/* XPM */
static char * n0_xpm[] = {
"14 20 138 2",
"  	c None",
". 	c #AC9674",
"+ 	c #BC9E7C",
"@ 	c #BCA684",
"# 	c #AC926C",
"$ 	c #AC9274",
"% 	c #AC966C",
"& 	c #C4AA84",
"* 	c #B4A27C",
"= 	c #BCA27C",
"- 	c #BCAA84",
"; 	c #B49E7C",
"> 	c #B49A74",
", 	c #B49A7C",
"' 	c #AC8E6C",
") 	c #BCA284",
"! 	c #B49674",
"~ 	c #C4AA8C",
"{ 	c #CCB28C",
"] 	c #C4AE8C",
"^ 	c #C4B28C",
"/ 	c #C4A684",
"( 	c #D4BA94",
"_ 	c #CCAE8C",
": 	c #A48E6C",
"< 	c #BFA886",
"[ 	c #BAA380",
"} 	c #BEA984",
"| 	c #BFAB86",
"1 	c #C3AE89",
"2 	c #BCA681",
"3 	c #BDA883",
"4 	c #BFA884",
"5 	c #C4A27C",
"6 	c #B9A27E",
"7 	c #BEA783",
"8 	c #BBA380",
"9 	c #70614C",
"0 	c #493F31",
"a 	c #43392B",
"b 	c #6F614B",
"c 	c #AD9977",
"d 	c #BDA782",
"e 	c #C1A883",
"f 	c #BCA07E",
"g 	c #BCA583",
"h 	c #4F4636",
"i 	c #5F5647",
"j 	c #9C8F7B",
"k 	c #998362",
"l 	c #957B59",
"m 	c #A38E6D",
"n 	c #B59D78",
"o 	c #BEA681",
"p 	c #665945",
"q 	c #5B5144",
"r 	c #DDD2C1",
"s 	c #C1A885",
"t 	c #A89271",
"u 	c #7B674D",
"v 	c #AC9370",
"w 	c #BAA37D",
"x 	c #B49A6C",
"y 	c #BFA883",
"z 	c #AD9472",
"A 	c #30281D",
"B 	c #B6AD9D",
"C 	c #C0A884",
"D 	c #BBA27E",
"E 	c #C0A682",
"F 	c #6A5B47",
"G 	c #827058",
"H 	c #C1AD8B",
"I 	c #BCA67C",
"J 	c #BDA986",
"K 	c #786B54",
"L 	c #4D4231",
"M 	c #D2C3AA",
"N 	c #BAA480",
"O 	c #C2AC87",
"P 	c #C1AB86",
"Q 	c #6D604B",
"R 	c #766B58",
"S 	c #C8B799",
"T 	c #B4967C",
"U 	c #BFAC88",
"V 	c #695E49",
"W 	c #564A34",
"X 	c #C8B798",
"Y 	c #BEAB85",
"Z 	c #C0AB86",
"` 	c #B8A480",
" .	c #463E31",
"..	c #A0998D",
"+.	c #CCAE94",
"@.	c #CCB294",
"#.	c #BDA585",
"$.	c #6B5D49",
"%.	c #62543B",
"&.	c #A39070",
"*.	c #9B8A6C",
"=.	c #978568",
"-.	c #584D3D",
";.	c #645B4E",
">.	c #DACEBC",
",.	c #BFA985",
"'.	c #BC9E84",
").	c #8A785D",
"!.	c #685841",
"~.	c #A38963",
"{.	c #6D5D43",
"].	c #524633",
"^.	c #837869",
"/.	c #D5CABA",
"(.	c #BBA581",
"_.	c #BFA984",
":.	c #BCA480",
"<.	c #B9A484",
"[.	c #C7B698",
"}.	c #D4C7AF",
"|.	c #D5C8AD",
"1.	c #BCA883",
"2.	c #CCB68C",
"3.	c #B49E74",
"4.	c #C4A67C",
"5.	c #CCAE84",
"6.	c #C4AE84",
"7.	c #C4B694",
"8.	c #BCB28C",
"9.	c #CCC29C",
"0.	c #BCAA7C",
"a.	c #CCBA94",
"b.	c #D4BE9C",
"c.	c #DCC69C",
"d.	c #BC9A74",
"e.	c #BC9A7C",
"f.	c #C4A68C",
"g.	c #C4A284",
". + @ + . # $ % @ & @ * = - ",
"+ ; > , = = , ' . > . % , & ",
"= ) = ! ! = ~ { ] { ] & & ^ ",
"; = / ; > ) { ( @ _ { ] @ ) ",
"+ ; > = ~ { ~ + : ! ; + + = ",
"/ / ; < [ } | 1 2 3 4 ) 5 @ ",
"] ] 6 7 8 9 0 a b c d + + + ",
"& e f g h i j k l m 2 + + 5 ",
"# n o p q r s t u v w x # # ",
"/ y z A B C D E F G H @ I @ ",
") J K L M N O P Q R S # T = ",
"/ U V W X Y Z `  ...H +.@.@.",
"@.#.$.%.&.*.=.-.;.>.,.'.= '.",
"{ D ).!.~.{.].^./.(., ; = ) ",
"& _.:.&.<.[.}.|.1.2.{ { ] / ",
". ! > > > 3.@ _ @ 4.& & 5.6.",
"* - 7.7.^ 8.2.9.2.0.= I I = ",
"^ ^ 2.a.a.b.b.b.c.( { @ + d.",
"; = ) I ) I = * . . . . $ $ ",
"~ _ { _ 5 ; e.= f.@ g.~ _ ~ "};
