/* XPM */
static char * n1_xpm[] = {
"14 20 112 2",
"  	c None",
". 	c #AC9674",
"+ 	c #BC9E7C",
"@ 	c #BCA684",
"# 	c #AC926C",
"$ 	c #AC9274",
"% 	c #AC966C",
"& 	c #C4AA84",
"* 	c #B4A27C",
"= 	c #BCA27C",
"- 	c #BCAA84",
"; 	c #B49E7C",
"> 	c #B49A74",
", 	c #B49A7C",
"' 	c #AC8E6C",
") 	c #BCA284",
"! 	c #B49674",
"~ 	c #C4AA8C",
"{ 	c #CCB28C",
"] 	c #C4AE8C",
"^ 	c #C4B28C",
"/ 	c #C4A684",
"( 	c #D4BA94",
"_ 	c #CCAE8C",
": 	c #BEA883",
"< 	c #BCA681",
"[ 	c #BFA984",
"} 	c #C1A985",
"| 	c #BFA881",
"1 	c #C0A883",
"2 	c #BFAB84",
"3 	c #BCA784",
"4 	c #BBA481",
"5 	c #C1AB87",
"6 	c #C4A27C",
"7 	c #B9A17E",
"8 	c #BDA37D",
"9 	c #BAA47E",
"0 	c #AB9574",
"a 	c #6E614C",
"b 	c #A69172",
"c 	c #BEA37F",
"d 	c #7F6D55",
"e 	c #5D5240",
"f 	c #372F23",
"g 	c #685D4B",
"h 	c #CBBA9E",
"i 	c #BEA581",
"j 	c #6B5C48",
"k 	c #86755C",
"l 	c #78644B",
"m 	c #BDAE98",
"n 	c #BFA785",
"o 	c #B49A6C",
"p 	c #BBA47F",
"q 	c #BBA37F",
"r 	c #6C5E49",
"s 	c #594B37",
"t 	c #D2C3AC",
"u 	c #BCA67C",
"v 	c #C6B18C",
"w 	c #C1AB86",
"x 	c #474031",
"y 	c #706048",
"z 	c #D7C9B1",
"A 	c #A48E6C",
"B 	c #B4967C",
"C 	c #BCA57F",
"D 	c #B19E7A",
"E 	c #342D21",
"F 	c #9B8B74",
"G 	c #C7B393",
"H 	c #CCB294",
"I 	c #CCAE94",
"J 	c #CCB68C",
"K 	c #BBA580",
"L 	c #BCA47E",
"M 	c #BCA480",
"N 	c #776852",
"O 	c #473D2D",
"P 	c #C6B9A6",
"Q 	c #BC9E84",
"R 	c #B8A27B",
"S 	c #BBA883",
"T 	c #BCAB85",
"U 	c #4A4333",
"V 	c #655B49",
"W 	c #DACDB7",
"X 	c #C0AE88",
"Y 	c #C1AE87",
"Z 	c #8E8063",
"` 	c #554C3F",
" .	c #D4CBBF",
"..	c #BEA983",
"+.	c #BDA881",
"@.	c #B29C7A",
"#.	c #C8B398",
"$.	c #C4A67C",
"%.	c #CCAE84",
"&.	c #C4AE84",
"*.	c #C2A983",
"=.	c #BCA37C",
"-.	c #BEA47E",
";.	c #CCC29C",
">.	c #BCAA7C",
",.	c #CCBA94",
"'.	c #D4BE9C",
").	c #DCC69C",
"!.	c #BC9A74",
"~.	c #BC9A7C",
"{.	c #C4A68C",
"].	c #C4A284",
". + @ + . # $ % @ & @ * = - ",
"+ ; > , = = , ' . > . % , & ",
"= ) = ! ! = ~ { ] { ] & & ^ ",
"; = / ; > ) { ( @ _ { ] @ ) ",
"+ ; > = ~ { : < [ } ; + + = ",
"/ / ; ! | 1 2 3 4 5 / ) 6 @ ",
"] ] / ! 7 8 9 0 a b / + + + ",
"& / ) = c d e f g h , + + 6 ",
"# # ! ) i j k l m n > o # # ",
"/ @ = @ p q r s t & / @ u @ ",
") + > > v w x y z A ' # B = ",
"/ = ) C p D E F G H H I H H ",
"H J K L M N O P , Q ; Q = Q ",
"{ H R S T U V W $ ! , ; = ) ",
"& ~ X Y Z `  .] { J { { ] / ",
". ! ..+.@.#.v _ @ $.& & %.&.",
"* - *.=.8 -.J ;.J >.= u u = ",
"^ ^ J ,.,.'.'.'.).( { @ + !.",
"; = ) u ) u = * . . . . $ $ ",
"~ _ { _ 6 ; ~.= {.@ ].~ _ ~ "};
