/* XPM */
static char * n2_xpm[] = {
"14 20 140 2",
"  	c None",
". 	c #AC9674",
"+ 	c #BC9E7C",
"@ 	c #BCA684",
"# 	c #AC926C",
"$ 	c #AC9274",
"% 	c #AC966C",
"& 	c #C4AA84",
"* 	c #B4A27C",
"= 	c #BCA27C",
"- 	c #BCAA84",
"; 	c #B49E7C",
"> 	c #B49A74",
", 	c #B49A7C",
"' 	c #AC8E6C",
") 	c #BCA284",
"! 	c #B49674",
"~ 	c #C4AA8C",
"{ 	c #CCB28C",
"] 	c #C4AE8C",
"^ 	c #C4B28C",
"/ 	c #C4A684",
"( 	c #D4BA94",
"_ 	c #CCAE8C",
": 	c #C0A884",
"< 	c #B99F7C",
"[ 	c #BBA37F",
"} 	c #BDA582",
"| 	c #BCA583",
"1 	c #BEA783",
"2 	c #B9A080",
"3 	c #BEA984",
"4 	c #C3AF8A",
"5 	c #BDA883",
"6 	c #BCA782",
"7 	c #C0AA86",
"8 	c #BCA580",
"9 	c #C1AB86",
"0 	c #C4A27C",
"a 	c #BEA581",
"b 	c #BEA682",
"c 	c #88775D",
"d 	c #665945",
"e 	c #564C3A",
"f 	c #6B5E49",
"g 	c #8F7D61",
"h 	c #BDA682",
"i 	c #BBA380",
"j 	c #BCA582",
"k 	c #C1A983",
"l 	c #5C503E",
"m 	c #42382A",
"n 	c #998F81",
"o 	c #AE9F89",
"p 	c #89785C",
"q 	c #7F6D52",
"r 	c #AD9776",
"s 	c #C0AA83",
"t 	c #B89E7B",
"u 	c #AC9572",
"v 	c #332B20",
"w 	c #978874",
"x 	c #CAB599",
"y 	c #BAA17E",
"z 	c #5D513E",
"A 	c #5F4F38",
"B 	c #C8B396",
"C 	c #BEA680",
"D 	c #BDA57D",
"E 	c #A89270",
"F 	c #655846",
"G 	c #D1C5B4",
"H 	c #B69E7E",
"I 	c #4F4435",
"J 	c #3E3425",
"K 	c #A1927E",
"L 	c #D0BEA4",
"M 	c #BDA580",
"N 	c #BCA67C",
"O 	c #C3AD8A",
"P 	c #BBA580",
"Q 	c #C1AC87",
"R 	c #A89677",
"S 	c #423A2D",
"T 	c #463C2C",
"U 	c #AEA494",
"V 	c #D6C9B3",
"W 	c #B4967C",
"X 	c #C1AD84",
"Y 	c #BEAB85",
"Z 	c #948468",
"` 	c #373024",
" .	c #726A5C",
"..	c #D5CCBE",
"+.	c #CBBA9C",
"@.	c #C2AE89",
"#.	c #CCB294",
"$.	c #CCAE94",
"%.	c #BBA582",
"&.	c #86775D",
"*.	c #433A2C",
"=.	c #9E8F7A",
"-.	c #BFB3A1",
";.	c #9D8A6D",
">.	c #7B6C56",
",.	c #7E7059",
"'.	c #BC9E84",
").	c #A69171",
"!.	c #393225",
"~.	c #706046",
"{.	c #89775A",
"].	c #5C4F3B",
"^.	c #493E2D",
"/.	c #615441",
"(.	c #C3B9AB",
"_.	c #C2AA85",
":.	c #968466",
"<.	c #92846D",
"[.	c #BBAA8D",
"}.	c #C2B092",
"|.	c #C0AF92",
"1.	c #C8BAA0",
"2.	c #D9CEB8",
"3.	c #C4B291",
"4.	c #B49E74",
"5.	c #C4A67C",
"6.	c #CCAE84",
"7.	c #C4AE84",
"8.	c #C4B694",
"9.	c #BCB28C",
"0.	c #CCB68C",
"a.	c #CCC29C",
"b.	c #BCAA7C",
"c.	c #CCBA94",
"d.	c #D4BE9C",
"e.	c #DCC69C",
"f.	c #BC9A74",
"g.	c #BC9A7C",
"h.	c #C4A68C",
"i.	c #C4A284",
". + @ + . # $ % @ & @ * = - ",
"+ ; > , = = , ' . > . % , & ",
"= ) = ! ! = ~ { ] { ] & & ^ ",
"; = / ; > ) { ( @ _ { ] @ ) ",
"+ ; > = : < [ } | 1 2 + + = ",
"/ / ; ! 3 4 5 6 7 8 9 ) 0 @ ",
"] ] / a b c d e f g h i + + ",
"& / j k l m n o p q r s + 0 ",
"# # t u v w x y z A B C # # ",
"/ @ D E F G H I J K L M N @ ",
") + O P Q R S T U V ' # W = ",
"/ X 3 Y Z `  ...+.@.#.$.#.#.",
"#.s %.&.*.=.-.;.>.,.; '.= '.",
"{ [ ).!.~.{.].^./.(., ; = ) ",
"& _.:.<.[.}.|.1.2.3.{ { ] / ",
". ! > > > 4.@ _ @ 5.& & 6.7.",
"* - 8.8.^ 9.0.a.0.b.= N N = ",
"^ ^ 0.c.c.d.d.d.e.( { @ + f.",
"; = ) N ) N = * . . . . $ $ ",
"~ _ { _ 0 ; g.= h.@ i.~ _ ~ "};
