/* XPM */
static char * n3_xpm[] = {
"14 20 159 2",
"  	c None",
". 	c #AC9674",
"+ 	c #BC9E7C",
"@ 	c #BCA684",
"# 	c #AC926C",
"$ 	c #AC9274",
"% 	c #AC966C",
"& 	c #C4AA84",
"* 	c #B4A27C",
"= 	c #BCA27C",
"- 	c #BCAA84",
"; 	c #B49E7C",
"> 	c #B49A74",
", 	c #B49A7C",
"' 	c #AC8E6C",
") 	c #BCA284",
"! 	c #B49674",
"~ 	c #C4AA8C",
"{ 	c #CCB28C",
"] 	c #C4AE8C",
"^ 	c #C4B28C",
"/ 	c #C4A684",
"( 	c #D4BA94",
"_ 	c #CCAE8C",
": 	c #A48E6C",
"< 	c #BCA683",
"[ 	c #BBA481",
"} 	c #C1AB87",
"| 	c #BAA382",
"1 	c #BBA381",
"2 	c #BFA886",
"3 	c #B9A380",
"4 	c #BDA884",
"5 	c #C4A27C",
"6 	c #BBA37F",
"7 	c #BDA680",
"8 	c #89765E",
"9 	c #645643",
"0 	c #655843",
"a 	c #6B5D49",
"b 	c #84735B",
"c 	c #B8A07D",
"d 	c #BFA682",
"e 	c #BBA17E",
"f 	c #C1A884",
"g 	c #BCA480",
"h 	c #4A4031",
"i 	c #3F3628",
"j 	c #93897B",
"k 	c #A3937E",
"l 	c #867259",
"m 	c #76644C",
"n 	c #9D896A",
"o 	c #BDA57F",
"p 	c #BBA27E",
"q 	c #A99272",
"r 	c #322A1F",
"s 	c #9E907D",
"t 	c #C6B398",
"u 	c #BAA37E",
"v 	c #7B6B54",
"w 	c #63513B",
"x 	c #C2AD8F",
"y 	c #BEA480",
"z 	c #BCA380",
"A 	c #BDA581",
"B 	c #B49F7E",
"C 	c #675B49",
"D 	c #D8CEBD",
"E 	c #BEA986",
"F 	c #78664F",
"G 	c #403629",
"H 	c #786C5A",
"I 	c #DDD0BB",
"J 	c #C1AB86",
"K 	c #C0AE88",
"L 	c #BBA580",
"M 	c #6E614C",
"N 	c #665C48",
"O 	c #393227",
"P 	c #584D3A",
"Q 	c #9E927E",
"R 	c #DFD3C1",
"S 	c #BEA884",
"T 	c #C0AA85",
"U 	c #BEAA83",
"V 	c #C1AA83",
"W 	c #7E6E55",
"X 	c #3C3325",
"Y 	c #6B593E",
"Z 	c #8F7B5B",
"` 	c #A58F68",
" .	c #A6946F",
"..	c #A89674",
"+.	c #CCAE94",
"@.	c #CCB294",
"#.	c #CCB68C",
"$.	c #BDA684",
"%.	c #BFA883",
"&.	c #A99474",
"*.	c #C4B193",
"=.	c #CCBC9E",
"-.	c #C7B497",
";.	c #A58F71",
">.	c #98825D",
",.	c #B6A282",
"'.	c #BC9E84",
").	c #BDAA84",
"!.	c #B9A47F",
"~.	c #C0AB86",
"{.	c #C2AC86",
"].	c #BAA47F",
"^.	c #BAA27E",
"/.	c #968366",
"(.	c #504432",
"_.	c #C0B097",
":.	c #C0AC85",
"<.	c #BFA882",
"[.	c #BBA380",
"}.	c #BCA582",
"|.	c #BEA885",
"1.	c #BDAA85",
"2.	c #B19E7B",
"3.	c #4D4334",
"4.	c #6A6052",
"5.	c #DBCEB9",
"6.	c #C0A883",
"7.	c #B29A79",
"8.	c #494132",
"9.	c #463D2E",
"0.	c #534938",
"a.	c #524837",
"b.	c #3B3326",
"c.	c #7A7162",
"d.	c #D9CFBF",
"e.	c #CCAE84",
"f.	c #C4AE84",
"g.	c #BDA37D",
"h.	c #71614B",
"i.	c #5E5443",
"j.	c #918165",
"k.	c #A39276",
"l.	c #AB9C88",
"m.	c #C8BBA9",
"n.	c #D3C3AA",
"o.	c #BDA783",
"p.	c #BCA67C",
"q.	c #BEA582",
"r.	c #B39979",
"s.	c #BCA786",
"t.	c #C6B191",
"u.	c #C5AF91",
"v.	c #BFA685",
"w.	c #BDA380",
"x.	c #BA9E7B",
"y.	c #BC9A74",
"z.	c #BC9A7C",
"A.	c #C4A68C",
"B.	c #C4A284",
". + @ + . # $ % @ & @ * = - ",
"+ ; > , = = , ' . > . % , & ",
"= ) = ! ! = ~ { ] { ] & & ^ ",
"; = / ; > ) { ( @ _ { ] @ ) ",
"+ ; > = ~ { ~ + : ! ; + + = ",
"/ / ; ! < [ } | 1 2 3 4 5 @ ",
"] ] / ! 6 7 8 9 0 a b c d + ",
"& / e f g h i j k l m n o 5 ",
"# # g p q r s t u v w x y # ",
"/ @ z A B C D E F G H I p @ ",
") + J K L M N O P Q R S T = ",
"/ = U V W X Y Z `  ...+.@.@.",
"@.#.$.%.&.*.=.-.;.>.,.'.= '.",
"{ @.).!.~.{.].^./.(._.; = ) ",
"& :.<.[.}.|.1.2.3.4.5.{ ] / ",
". 6.7.8.9.0.a.b.c.d.{.& e.f.",
"* g.h.i.j.k.l.m.n.o.= p.p.= ",
"^ q.r.s.t.u.v.w.x.( { @ + y.",
"; = ) p.) p.= * . . . . $ $ ",
"~ _ { _ 5 ; z.= A.@ B.~ _ ~ "};
