/* XPM */
static char * n4_xpm[] = {
"14 20 150 2",
"  	c None",
". 	c #AC9674",
"+ 	c #BC9E7C",
"@ 	c #BCA684",
"# 	c #AC926C",
"$ 	c #AC9274",
"% 	c #AC966C",
"& 	c #C4AA84",
"* 	c #B4A27C",
"= 	c #BCA27C",
"- 	c #BCAA84",
"; 	c #B49E7C",
"> 	c #B49A74",
", 	c #B49A7C",
"' 	c #AC8E6C",
") 	c #BCA284",
"! 	c #B49674",
"~ 	c #C4AA8C",
"{ 	c #CCB28C",
"] 	c #C4AE8C",
"^ 	c #C4B28C",
"/ 	c #C4A684",
"( 	c #D4BA94",
"_ 	c #CCAE8C",
": 	c #A48E6C",
"< 	c #C1A983",
"[ 	c #C1A982",
"} 	c #C0AA84",
"| 	c #BBA683",
"1 	c #BEA783",
"2 	c #C4A27C",
"3 	c #BCA582",
"4 	c #B79E7B",
"5 	c #BDA47F",
"6 	c #9F8A6A",
"7 	c #615442",
"8 	c #938164",
"9 	c #BBA37F",
"0 	c #B8A07C",
"a 	c #C1AB84",
"b 	c #B19977",
"c 	c #584B3B",
"d 	c #453B2D",
"e 	c #5D4E3A",
"f 	c #C9BAA3",
"g 	c #BDA580",
"h 	c #BFA782",
"i 	c #BCA37E",
"j 	c #BBA27E",
"k 	c #9E8A6B",
"l 	c #3D3528",
"m 	c #877B6B",
"n 	c #A28D6D",
"o 	c #817360",
"p 	c #CCBB9F",
"q 	c #B49A6C",
"r 	c #B7A07A",
"s 	c #BCA47F",
"t 	c #9E896C",
"u 	c #393125",
"v 	c #A59D92",
"w 	c #B1A48F",
"x 	c #4B3F30",
"y 	c #AFA491",
"z 	c #C4AD8A",
"A 	c #BCA67C",
"B 	c #B8A17C",
"C 	c #C1AD8A",
"D 	c #AC9978",
"E 	c #362F24",
"F 	c #948D80",
"G 	c #D5C5AB",
"H 	c #726650",
"I 	c #504633",
"J 	c #CCBEA8",
"K 	c #BDA781",
"L 	c #B4967C",
"M 	c #C1AD8B",
"N 	c #C1AB87",
"O 	c #504738",
"P 	c #60584A",
"Q 	c #D9CDB8",
"R 	c #574D3B",
"S 	c #5F523A",
"T 	c #D3C2A8",
"U 	c #BAA17C",
"V 	c #CCAE94",
"W 	c #CCB294",
"X 	c #BBA47F",
"Y 	c #8F7E63",
"Z 	c #B0A491",
"` 	c #BCA57F",
" .	c #3D3428",
"..	c #86775F",
"+.	c #B4A387",
"@.	c #74654F",
"#.	c #BC9E84",
"$.	c #BAA37F",
"%.	c #534938",
"&.	c #514331",
"*.	c #968160",
"=.	c #3E3629",
"-.	c #3B3427",
";.	c #544B38",
">.	c #8E7B5B",
",.	c #615540",
"'.	c #B1A999",
").	c #BAA581",
"!.	c #605745",
"~.	c #A19279",
"{.	c #BAA98A",
"].	c #B8A889",
"^.	c #AD9B77",
"/.	c #957F5B",
"(.	c #BEAC90",
"_.	c #CFC3B0",
":.	c #D0C0A6",
"<.	c #B9A481",
"[.	c #C0AA87",
"}.	c #C1AD87",
"|.	c #796A52",
"1.	c #61523E",
"2.	c #D9CCB5",
"3.	c #C4A67C",
"4.	c #CCAE84",
"5.	c #C4AE84",
"6.	c #C4B694",
"7.	c #B99E7B",
"8.	c #C1A682",
"9.	c #BDA47E",
"0.	c #413829",
"a.	c #8D8375",
"b.	c #C8B698",
"c.	c #BCAA7C",
"d.	c #CCB68C",
"e.	c #BEA17E",
"f.	c #C2A782",
"g.	c #88765D",
"h.	c #51473A",
"i.	c #D7CCBD",
"j.	c #DCC69C",
"k.	c #BC9A74",
"l.	c #BDA27F",
"m.	c #B99C79",
"n.	c #847057",
"o.	c #D0C3B2",
"p.	c #C3AA89",
"q.	c #BC9A7C",
"r.	c #C4A68C",
"s.	c #C4A284",
". + @ + . # $ % @ & @ * = - ",
"+ ; > , = = , ' . > . % , & ",
"= ) = ! ! = ~ { ] { ] & & ^ ",
"; = / ; > ) { ( @ _ { ] @ ) ",
"+ ; > = ~ { ~ + : ! ; + + = ",
"/ / ; ! > + < [ } | 1 ) 2 @ ",
"] ] / ! : 3 4 5 6 7 8 9 + + ",
"& / ) = 0 a b c d e f g + 2 ",
"# # h i j k l m n o p q # # ",
"/ @ r s t u v w x y z @ A @ ",
") B C D E F G H I J K # L = ",
"/ M N O P Q B R S T U V W W ",
"W X Y l Z 3 `  ...+.@.#.= #.",
"{ $.%.&.*.=.-.;.>.,.'.; = ) ",
"& ).!.~.{.].^./.(._.:.{ ] / ",
". ! > <.[.}.|.1.2.3.& & 4.5.",
"* - 6.7.8.9.0.a.b.c.= A A = ",
"^ ^ d.e.f.g.h.i.j.( { @ + k.",
"; = ) l.m.n.o.p.. . . . $ $ ",
"~ _ { _ 2 ; q.= r.@ s.~ _ ~ "};
