/* XPM */
static char * n5_xpm[] = {
"14 20 148 2",
"  	c None",
". 	c #AC9674",
"+ 	c #BC9E7C",
"@ 	c #BCA684",
"# 	c #AC926C",
"$ 	c #AC9274",
"% 	c #AC966C",
"& 	c #C4AA84",
"* 	c #B4A27C",
"= 	c #BCA27C",
"- 	c #BCAA84",
"; 	c #B49E7C",
"> 	c #B49A74",
", 	c #B49A7C",
"' 	c #AC8E6C",
") 	c #BCA284",
"! 	c #B49674",
"~ 	c #C4AA8C",
"{ 	c #CCB28C",
"] 	c #C4AE8C",
"^ 	c #C4B28C",
"/ 	c #C4A684",
"( 	c #D4BA94",
"_ 	c #CCAE8C",
": 	c #BCA681",
"< 	c #BDA782",
"[ 	c #BEA481",
"} 	c #B89F7B",
"| 	c #A48E6C",
"1 	c #BCA783",
"2 	c #BDA984",
"3 	c #C2AE88",
"4 	c #C0AB86",
"5 	c #BFAB85",
"6 	c #BAA27E",
"7 	c #C3AD88",
"8 	c #C4A27C",
"9 	c #BDA580",
"0 	c #B09A78",
"a 	c #635643",
"b 	c #544837",
"c 	c #574C3A",
"d 	c #584E3C",
"e 	c #635743",
"f 	c #AD9876",
"g 	c #BEA785",
"h 	c #C1A983",
"i 	c #494030",
"j 	c #4F4332",
"k 	c #816E53",
"l 	c #8D7759",
"m 	c #8D795B",
"n 	c #A39681",
"o 	c #C8B69B",
"p 	c #BBA17D",
"q 	c #937F62",
"r 	c #3C3326",
"s 	c #C6B8A5",
"t 	c #978977",
"u 	c #A1927D",
"v 	c #C3AF8F",
"w 	c #C7B394",
"x 	c #B49A6C",
"y 	c #B79F78",
"z 	c #5E523E",
"A 	c #685843",
"B 	c #867358",
"C 	c #695B49",
"D 	c #685640",
"E 	c #6D5E46",
"F 	c #AD9775",
"G 	c #BCA67C",
"H 	c #C7B089",
"I 	c #BBA685",
"J 	c #362F24",
"K 	c #897B65",
"L 	c #D7CDBD",
"M 	c #CEBC9E",
"N 	c #89775B",
"O 	c #8F7B5B",
"P 	c #B29F7E",
"Q 	c #B4967C",
"R 	c #C3AF86",
"S 	c #86775B",
"T 	c #655E51",
"U 	c #DED5C4",
"V 	c #BFAB86",
"W 	c #B8A480",
"X 	c #7B6E58",
"Y 	c #655842",
"Z 	c #C6B598",
"` 	c #CCAE94",
" .	c #CCB294",
"..	c #CCB68C",
"+.	c #BFA882",
"@.	c #B09C79",
"#.	c #C2B197",
"$.	c #C1AB87",
"%.	c #C0A985",
"&.	c #C0A884",
"*.	c #625643",
"=.	c #564835",
"-.	c #D6C8B1",
";.	c #BC9E84",
">.	c #BCA480",
",.	c #BDA581",
"'.	c #BEA882",
").	c #BFA982",
"!.	c #BAA37F",
"~.	c #A89473",
"{.	c #373024",
"].	c #8E8473",
"^.	c #CFBDA1",
"/.	c #BEA681",
"(.	c #BFA883",
"_.	c #BDA882",
":.	c #B19E7A",
"<.	c #4C4435",
"[.	c #5C5344",
"}.	c #DBD2C0",
"|.	c #BEA781",
"1.	c #B39D7A",
"2.	c #504736",
"3.	c #3A3326",
"4.	c #3F372A",
"5.	c #41392C",
"6.	c #7C7365",
"7.	c #D8D1C0",
"8.	c #C0AD8A",
"9.	c #B7A37E",
"0.	c #CCAE84",
"a.	c #C4AE84",
"b.	c #BEA682",
"c.	c #8A795E",
"d.	c #736855",
"e.	c #9C8D75",
"f.	c #B5A790",
"g.	c #CCBFAC",
"h.	c #D5C6AE",
"i.	c #BBA682",
"j.	c #BCAA7C",
"k.	c #CCBA94",
"l.	c #D4BE9C",
"m.	c #DCC69C",
"n.	c #BC9A74",
"o.	c #BC9A7C",
"p.	c #C4A68C",
"q.	c #C4A284",
". + @ + . # $ % @ & @ * = - ",
"+ ; > , = = , ' . > . % , & ",
"= ) = ! ! = ~ { ] { ] & & ^ ",
"; = / ; > ) { ( @ _ { ] @ ) ",
"+ ; > = : < [ } | ! ; + + = ",
"/ / ; ! 1 2 3 4 < 5 6 7 8 @ ",
"] ] / ! 9 0 a b c d e f + + ",
"& / ) g h i j k l m n o + 8 ",
"# # ! p q r s t u v w x # # ",
"/ @ = y z A B C D E F @ G @ ",
") + H I J K L M N O P # Q = ",
"/ = R S T U V W X Y Z `  . .",
" ...+.@.#.$.%.&.*.=.-.;.= ;.",
"{  .>.,.'.).!.~.{.].^.; = ) ",
"& &./.(.7 _.:.<.[.}.2 { ] / ",
". |.1.2.3.4.5.6.7.8.9.& 0.a.",
"* b.c.d.e.f.g.h.i.j.= G G = ",
"^ ^ ..k.k.l.l.l.m.( { @ + n.",
"; = ) G ) G = * . . . . $ $ ",
"~ _ { _ 8 ; o.= p.@ q.~ _ ~ "};
