/* XPM */
static char * colon_xpm[] = {
"3 20 18 1",
" 	c None",
".	c #6C7AC3",
"+	c #6675BD",
"@	c #6371B8",
"#	c #5D6BB3",
"$	c #5866AE",
"%	c #5362AB",
"&	c #4C5BA6",
"*	c #233176",
"=	c #C4C4C4",
"-	c #3E4D9B",
";	c #3A4A98",
">	c #384796",
",	c #344493",
"'	c #2E3C87",
")	c #2A3983",
"!	c #28367E",
"~	c #253379",
"...",
"+++",
"@@@",
"###",
"$$$",
"%%%",
"&*&",
"*=*",
"*=*",
"-*-",
";;;",
">>>",
",*,",
"*=*",
"*=*",
"'*'",
")))",
"!!!",
"~~~",
"***"};
