/* XPM */
static char * menu_xpm[] = {
"16 16 5 1",
" 	c None",
".	c #C0C0C0",
"+	c #FFFFFF",
"@	c #000000",
"#	c #808080",
"................",
"................",
"................",
"................",
"................",
"................",
"..+++++++++++@..",
"..+.........#@..",
"..+##########@..",
"..@@@@@@@@@@@@..",
"................",
"................",
"................",
"................",
"................",
"................"};
