/* XPM */
static char * collapse_xpm[] = {
"24 24 47 1",
" 	c None",
".	c #000000",
"+	c #A4A1A4",
"@	c #000408",
"#	c #000410",
"$	c #000C29",
"%	c #001841",
"&	c #001031",
"*	c #000820",
"=	c #000008",
"-	c #000818",
";	c #001C52",
">	c #31AAFF",
",	c #002C7B",
"'	c #00184A",
")	c #000C20",
"!	c #00205A",
"~	c #083894",
"{	c #081431",
"]	c #001C4A",
"^	c #00389C",
"/	c #0840AC",
"(	c #002873",
"_	c #001439",
":	c #08389C",
"<	c #002462",
"[	c #837983",
"}	c #00348B",
"|	c #7B717B",
"1	c #6A656A",
"2	c #626162",
"3	c #5A555A",
"4	c #525052",
"5	c #001431",
"6	c #4A444A",
"7	c #413C41",
"8	c #000810",
"9	c #2FAFFF",
"0	c #002C73",
"a	c #393439",
"b	c #312C31",
"c	c #001441",
"d	c #292829",
"e	c #201C20",
"f	c #181818",
"g	c #100C10",
"h	c #080C08",
"                        ",
"                        ",
"  ...................   ",
"  .+++++++++++++++++.   ",
"  .+...............+.   ",
"  .+...............+.   ",
"  .+....@##........+.   ",
"  .+...#$%&*=......+.   ",
"  .+...-;>,')=.....+.   ",
"  .+...)!>>~!{#@...+.   ",
"  .+...#]^>>/(_#...+.   ",
"  .+...#_:>>>><)...+.   ",
"  .[...=_}>>>>,)...|.   ",
"  .|...#_:>>>><)...1.   ",
"  .2...#]^>>/(_#...3.   ",
"  .4...*!>>:!5#@...6.   ",
"  .7...8]90')=.....a.   ",
"  .b...#)c&-==.....d.   ",
"  .e....@@#........f.   ",
"  .g...............h.   ",
"  ...................   ",
"  ...................   ",
"                        ",
"                        "};
