/* XPM */
static char * expand_xpm[] = {
"24 24 47 1",
" 	c None",
".	c #000000",
"+	c #A4A1A4",
"@	c #000410",
"#	c #000408",
"$	c #000008",
"%	c #000820",
"&	c #001031",
"*	c #001841",
"=	c #000C29",
"-	c #000C20",
";	c #00184A",
">	c #002C7B",
",	c #31AAFF",
"'	c #001C52",
")	c #000818",
"!	c #081431",
"~	c #00205A",
"{	c #083894",
"]	c #001439",
"^	c #002873",
"/	c #0840AC",
"(	c #00389C",
"_	c #001C4A",
":	c #002462",
"<	c #08389C",
"[	c #7B717B",
"}	c #00348B",
"|	c #837983",
"1	c #6A656A",
"2	c #5A555A",
"3	c #626162",
"4	c #4A444A",
"5	c #001431",
"6	c #525052",
"7	c #393439",
"8	c #002C73",
"9	c #2FAFFF",
"0	c #000810",
"a	c #413C41",
"b	c #292829",
"c	c #001441",
"d	c #312C31",
"e	c #181818",
"f	c #201C20",
"g	c #080C08",
"h	c #100C10",
"                        ",
"                        ",
"  ...................   ",
"  .+++++++++++++++++.   ",
"  .+...............+.   ",
"  .+...............+.   ",
"  .+........@@#....+.   ",
"  .+......$%&*=@...+.   ",
"  .+.....$-;>,')...+.   ",
"  .+...#@!~{,,~-...+.   ",
"  .+...@]^/,,(_@...+.   ",
"  .+...-:,,,,<]@...+.   ",
"  .[...->,,,,}]$...|.   ",
"  .1...-:,,,,<]@...[.   ",
"  .2...@]^/,,(_@...3.   ",
"  .4...#@5~<,,~%...6.   ",
"  .7.....$-;89_0...a.   ",
"  .b.....$$)&c-@...d.   ",
"  .e........@##....f.   ",
"  .g...............h.   ",
"  ...................   ",
"  ...................   ",
"                        ",
"                        "};
