/* XPM */
static char * icewm_xpm[] = {
"57 25 61 1",
" 	c None",
".	c #000000",
"+	c #A4A1A4",
"@	c #BDAABD",
"#	c #B4AAB4",
"$	c #B4A1B4",
"%	c #000408",
"&	c #000008",
"*	c #000820",
"=	c #000C29",
"-	c #000410",
";	c #000818",
">	c #08104A",
",	c #001C5A",
"'	c #08207B",
")	c #002473",
"!	c #082483",
"~	c #001039",
"{	c #00206A",
"]	c #31AAFF",
"^	c #000C20",
"/	c #0034AC",
"(	c #083CCD",
"_	c #083CBD",
":	c #0840CD",
"<	c #08206A",
"[	c #001029",
"}	c #0838B4",
"|	c #0834B4",
"1	c #083094",
"2	c #0830A4",
"3	c #002C8B",
"4	c #837983",
"5	c #0838C5",
"6	c #003094",
"7	c #08309C",
"8	c #082C8B",
"9	c #7B717B",
"0	c #000C39",
"a	c #0034A4",
"b	c #8B798B",
"c	c #6A616A",
"d	c #001852",
"e	c #002873",
"f	c #00246A",
"g	c #002483",
"h	c #08246A",
"i	c #625D62",
"j	c #524C52",
"k	c #001452",
"l	c #001031",
"m	c #000C31",
"n	c #080C41",
"o	c #001441",
"p	c #6A506A",
"q	c #413C41",
"r	c #312C31",
"s	c #201C20",
"t	c #181C18",
"u	c #080C08",
"v	c #101010",
"                                                         ",
"                                                         ",
"   ............................................          ",
"   .+@+#+@+#+@+#+@+#+@+#+@+#+@+#+@+#+@+#+@+#+@.          ",
"   .$........................................+.          ",
"   .+..............%&%&%&%&%&%.&.............#.          ",
"   .$...........&%**=========**-&............+.          ",
"   .+..........%;>,')!)!)!)!)',~;%...........@.          ",
"   .$..........%~{]]]]]]]]]]]]]{~-...........+.          ",
"   .+..........^,]/(((_:(:_(((/],^...........#.          ",
"   .$.........&*<](]]]]]]]]]]](]<*&..........+.          ",
"   .+.........&[)](]}|12321|}](])~&..........@.          ",
"   .4.........&=)](]567383765](])=&..........4.          ",
"   .9..........0{]a]]]]]]]]]]]a]{=...........b.          ",
"   .c..........;d]efg{f{h{f{gfe]d;...........i.          ",
"   .j..........-=klm=~=[=~=[=nlo=-...........p.          ",
"   .q...........%--&&&&.&&&.&&--%............q.          ",
"   .r..........................&.............r.          ",
"   .s........................................t.          ",
"   .u........................................v.          ",
"   ............................................          ",
"   ............................................          ",
"                                                         ",
"                                                         ",
"                                                         "};
