/* XPM */
static char * taskbuttonactive_xpm[] = {
"123 29 39 1",
" 	c None",
".	c #000400",
"+	c #080408",
"@	c #000000",
"#	c #413841",
"$	c #313431",
"%	c #182018",
"&	c #202420",
"*	c #202020",
"=	c #292429",
"-	c #312C31",
";	c #292829",
">	c #292C29",
",	c #393039",
"'	c #292B29",
")	c #413441",
"!	c #303330",
"~	c #403340",
"{	c #413C41",
"]	c #413741",
"^	c #404041",
"/	c #313731",
"(	c #403F41",
"_	c #413F41",
":	c #414041",
"<	c #313831",
"[	c #403C41",
"}	c #49444A",
"|	c #3C3B3D",
"1	c #474248",
"2	c #3E3B3E",
"3	c #484348",
"4	c #3F3B3F",
"5	c #494349",
"6	c #403B40",
"7	c #4A444A",
"8	c #393C41",
"9	c #413C39",
"0	c #31AAFF",
".+.+.+.+.+.+.+.+.+.+.+.+.+.+.+.+.+.+.+.+.+.+.+.+.+.+.+.+.+.+.+.+.+.+.+.+.+.+.+.+.+.+.+.+.+.+.+.+.+.+.+.+.+.+.+.+.+.+.+.+.+.",
"@@@@@@@@@@@@@@@@@@@@@@@@@@@@@@@@@@@@@@@@@@@@@@@@@@@@@@@@@@@@@@@@@@@@@@@@@@@@@@@@@@@@@@@@@@@@@@@@@@@@@@@@@@@@@@@@@@@@@@@@@@@",
"@@@@@@@@@@@@@@@@@@@@@@@@@@@@@@@@@@@@@@@@@@@@@@@@@@@@@@@@@@@@@@@@@@@@@@@@@@@@@@@@@@@@@@@@@@@@@@@@@@@@@@@@@@@@@@@@@@@@@@@@@@@",
"@@@@@@@@@@@@@@@@@@@@@@@@@@@@@@@@@@@@@@@@@@@@@@@@@@@@@@@@@@@@@@@@@@@@@@@@@@@@@@@@@@@@@@@@@@@@@@@@@@@@@@@@@@@@@@@@@@@@@@@@@@@",
"@@@@@@@@@@@@@@@@@@@@@@@@@@@@@@@@@@@@@@@@@@@@@@@@@@@@@@@@@@@@@@@@@@@@@@@@@@@@@@@@@@@@@@@@@@@@@@@@@@@@@@@@@@@@@@@@@@@@@@@@@@@",
"@@@@@@@@@@@@@@@@@@@@@@@@@@@@@@@@@@@@@@@@@@@@@@@@@@@@@@@@@@@@@@@@@@@@@@@@@@@@@@@@@@@@@@@@@@@@@@@@@@@@@@@@@@@@@@@@@@@@@@@@@@@",
"@@@@@@@@@@@@@@@@@@@@@@@@@@@@@@@@@@@@@@@@@@@@@@@@@@@@@@@@@@@@@@@@@@@@@@@@@@@@@@@@@@@@@@@@@@@@@@@@@@@@@@@@@@@@@@@@@@@@@@@@@@@",
"@@@@@@@@@@@@@@@@@@@@@@@@@@@@@@@@@@@@@@@@@@@@@@@@@@@@@@@@@@@@@@@@@@@@@@@@@@@@@@@@@@@@@@@@@@@@@@@@@@@@@@@@@@@@@@@@@@@@@@@@@@@",
"@@@@@@@@@@@@@@@@@@@@@@@@@@@@@@@@@@@@@@@@@@@@@@@@@@@@@@@@@@@@@@@@@@@@@@@@@@@@@@@@@@@@@@@@@@@@@@@@@@@@@@@@@@@@@@@@@@@@@@@@@@@",
"@@@@@@@@@@@@@@@@@@@@@@@@@@@@@@@@@@@@@@@@@@@@@@@@@@@@@@@@@@@@@@@@@@@@@@@@@@@@@@@@@@@@@@@@@@@@@@@@@@@@@@@@@@@@@@@@@@@@@@@@@@@",
"@@@@@@@@@@@@@@@@@@@@@@@@@@@@@@@@@@@@@@@@@@@@@@@@@@@@@@@@@@@@@@@@@@@@@@@@@@@@@@@@@@@@@@@@@@@@@@@@@@@@@@@@@@@@@@@@@@@@@@@@@@@",
"@@@@@@@@@@@@@@@@@@@@@@@@@@@@@@@@@@@@@@@@@@@@@@@@@@@@@@@@@@@@@@@@@@@@@@@@@@@@@@@@@@@@@@@@@@@@@@@@@@@@@@@@@@@@@@@@@@@@@@@@@@@",
"@@@@@@@@@@@@@@@@@@@@@@@@@@@@@@@@@@@@@@@@@@@@@@@@@@@@@@@@@@@@@@@@@@@@@@@@@@@@@@@@@@@@@@@@@@@@@@@@@@@@@@@@@@@@@@@@@@@@@@@@@@@",
"@@@@@@@@@@@@@@@@@@@@@@@@@@@@@@@@@@@@@@@@@@@@@@@@@@@@@@@@@@@@@@@@@@@@@@@@@@@@@@@@@@@@@@@@@@@@@@@@@@@@@@@@@@@@@@@@@@@@@@@@@@@",
"@@@@@@@@@@@@@@@@@@@@@@@@@@@@@@@@@@@@@@@@@@@@@@@@@@@@@@@@@@@@@@@@@@@@@@@@@@@@@@@@@@@@@@@@@@@@@@@@@@@@@@@@@@@@@@@@@@@@@@@@@@@",
"#$#$#$#$#$#$#$#$#$#$#$#$#$#$#$#$#$#$#$#$#$#$#$#$#$#$#$#$#$#$#$#$#$#$#$#$#$#$#$#$#$#$#$#$#$#$#$#$#$#$#$#$#$#$#$#$#$#$#$#$#$#",
"%&*=%&*=%&*=%&*=%&*=%&*=*&*=%&*=%&*=%&*=%&*=%&*=%&*=*&*=%&*=%&*=%&*=%&*=%&*=%&*=*&*=%&*=%&*=%&*=%&*=%&*=%&*=*&*=%&*=%&*=%&*",
"-&-=-=-=-=-=-&-=-=-=-=-=-=-=-&-=-=-=-=-=-&-=-=-=-=-=-=-=-&-=-=-=-=-=-&-=-=-=-=-=-=-=-&-=-=-=-=-=-&-=-=-=-=-=-=-=-&-=-=-=-=-",
";>;>;>;>;>;>;>;>;>;>;>;>;>;>;>;>;>;>;>;>;>;>;>;>;>;>;>;>;>;>;>;>;>;>;>;>;>;>;>;>;>;>;>;>;>;>;>;>;>;>;>;>;>;>;>;>;>;>;>;>;>;",
",;,;,;,;,;,;,;,;,;,;,;,;,;,;,;,;,;,;,;,;,;,;,;,;,;,;,;,;,;,;,;,;,;,;,;,;,;,;,;,;,;,;,;,;,;,;,;,;,;,;,;,;,;,;,;,;,;,;,;,;,;,",
">,',',',',>,>,>,>,>,>,>,>,>,>,>,>,>,>,>,>,>,>,>,>,>,>,>,>,>,>,>,>,>,>,>,>,>,>,>,>,>,>,>,>,>,>,>,>,>,>,>,>,>,>,>,>,>,>,>,>,>",
")!~!~!~!~!~!)$)$)$)${$)$)${$)$)$)$)$)$)$)$)$)$)${$)$)${$)$)$)$)$)$)$)$)$)$)${$)$)${$)$)$)$)$)$)$)$)$)$)${$)$)${$)$)$)$)$)$)",
"$]$]$]$]$]$]$#$#$#$#$#$#$#$#$#$#$#$#$#$#$#$#$#$#$#$#$#$#$#$#$#$#$#$#$#$#$#$#$#$#$#$#$#$#$#$#$#$#$#$#$#$#$#$#$#$#$#$#$#$#$#$",
"^/(/(/_/_/_/_/:<:<:<:<:#:<:<:<:<:<:<:<:<:<:<:<:<:<:#:<:<:<:<:<:<:<:<:<:<:<:<:<:#:<:<:<:<:<:<:<:<:<:<:<:<:<:#:<:<:<:<:<:<:<:",
"<[<[<[<{<{<{<{<{<{<{<{<{<{<{<{<{<{<{<{<{<{<{<{<{<{<{<{<{<{<{<{<{<{<{<{<{<{<{<{<{<{<{<{<{<{<{<{<{<{<{<{<{<{<{<{<{<{<{<{<{<{<",
"}|1|1|123456565{7{7{7{7{78797{7{7{7{7{7{7{7{7{7{7{7{78797{7{7{7{7{7{7{7{7{7{7{7{78797{7{7{7{7{7{7{7{7{7{7{7{78797{7{7{7{7{7",
"000000000000000000000000000000000000000000000000000000000000000000000000000000000000000000000000000000000000000000000000000",
"000000000000000000000000000000000000000000000000000000000000000000000000000000000000000000000000000000000000000000000000000",
"000000000000000000000000000000000000000000000000000000000000000000000000000000000000000000000000000000000000000000000000000"};
