/* XPM */
static char * toolbuttonbg_xpm[] = {
"123 29 27 1",
" 	c None",
".	c #737173",
"+	c #736D73",
"@	c #837183",
"#	c #837583",
"$	c #393839",
"%	c #4A404A",
"&	c #393C39",
"*	c #4A484A",
"=	c #4A444A",
"-	c #413C41",
";	c #413C39",
">	c #393C41",
",	c #313831",
"'	c #414041",
")	c #413841",
"!	c #313431",
"~	c #413441",
"{	c #292C29",
"]	c #393039",
"^	c #292829",
"/	c #312C31",
"(	c #292429",
"_	c #202420",
":	c #202020",
"<	c #182018",
"[	c #000000",
".+@+.+@+.+@+.+#+#+@+.+@+.+@+.+@+.+@+.+@+.+#+#+@+.+@+.+@+.+@+.+@+.+@+.+#+#+@+.+@+.+@+.+@+.+@+.+@+.+#+#+@+.+@+.+@+.+@+.+@+.+@",
"$%$%$%$%$%$%$%&*&%$%$%$%$%$%$%$%$%$%$%$%$%&*&%$%$%$%$%$%$%$%$%$%$%$%$%&*&%$%$%$%$%$%$%$%$%$%$%$%$%&*&%$%$%$%$%$%$%$%$%$%$%$",
"=-=-=-=-=-=;=>=-=-=-=-=-=-=-=-=-=-=-=-=;=>=-=-=-=-=-=-=-=-=-=-=-=-=;=>=-=-=-=-=-=-=-=-=-=-=-=-=;=>=-=-=-=-=-=-=-=-=-=-=-=-=",
",-,-,-,-,-,-,-,-,-,-,-,-,-,-,-,-,-,-,-,-,-,-,-,-,-,-,-,-,-,-,-,-,-,-,-,-,-,-,-,-,-,-,-,-,-,-,-,-,-,-,-,-,-,-,-,-,-,-,-,-,-,",
"',',',',',',',')',',',',',',',',',',',',',')',',',',',',',',',',',',',')',',',',',',',',',',',',',')',',',',',',',',',',','",
"!)!)!)!)!)!)!)!)!)!)!)!)!)!)!)!)!)!)!)!)!)!)!)!)!)!)!)!)!)!)!)!)!)!)!)!)!)!)!)!)!)!)!)!)!)!)!)!)!)!)!)!)!)!)!)!)!)!)!)!)!)!",
"~!~!~!~!~!~!-!~!~!-!~!~!~!~!~!~!~!~!~!~!-!~!~!-!~!~!~!~!~!~!~!~!~!~!-!~!~!-!~!~!~!~!~!~!~!~!~!~!-!~!~!-!~!~!~!~!~!~!~!~!~!~",
"{]{]{]{]{]{]{]{]{]{]{]{]{]{]{]{]{]{]{]{]{]{]{]{]{]{]{]{]{]{]{]{]{]{]{]{]{]{]{]{]{]{]{]{]{]{]{]{]{]{]{]{]{]{]{]{]{]{]{]{]{]{",
"]^]^]^]^]^]^]^]^]^]^]^]^]^]^]^]^]^]^]^]^]^]^]^]^]^]^]^]^]^]^]^]^]^]^]^]^]^]^]^]^]^]^]^]^]^]^]^]^]^]^]^]^]^]^]^]^]^]^]^]^]^]",
"^{^{^{^{^{^{^{^{^{^{^{^{^{^{^{^{^{^{^{^{^{^{^{^{^{^{^{^{^{^{^{^{^{^{^{^{^{^{^{^{^{^{^{^{^{^{^{^{^{^{^{^{^{^{^{^{^{^{^{^{^{^",
"/(/(/(/(/_/(/(/(/(/(/(/(/_/(/(/(/(/(/_/(/(/(/(/(/(/(/_/(/(/(/(/(/_/(/(/(/(/(/(/(/_/(/(/(/(/(/_/(/(/(/(/(/(/(/_/(/(/(/(/(/_/",
":_<(:_<(:_<(:_:(:_<(:_<(:_<(:_<(:_<(:_<(:_:(:_<(:_<(:_<(:_<(:_<(:_<(:_:(:_<(:_<(:_<(:_<(:_<(:_<(:_:(:_<(:_<(:_<(:_<(:_<(:_<",
")!)!)!)!)!)!)!)!)!)!)!)!)!)!)!)!)!)!)!)!)!)!)!)!)!)!)!)!)!)!)!)!)!)!)!)!)!)!)!)!)!)!)!)!)!)!)!)!)!)!)!)!)!)!)!)!)!)!)!)!)!)",
"[[[[[[[[[[[[[[[[[[[[[[[[[[[[[[[[[[[[[[[[[[[[[[[[[[[[[[[[[[[[[[[[[[[[[[[[[[[[[[[[[[[[[[[[[[[[[[[[[[[[[[[[[[[[[[[[[[[[[[[[[[[",
"[[[[[[[[[[[[[[[[[[[[[[[[[[[[[[[[[[[[[[[[[[[[[[[[[[[[[[[[[[[[[[[[[[[[[[[[[[[[[[[[[[[[[[[[[[[[[[[[[[[[[[[[[[[[[[[[[[[[[[[[[[[",
"[[[[[[[[[[[[[[[[[[[[[[[[[[[[[[[[[[[[[[[[[[[[[[[[[[[[[[[[[[[[[[[[[[[[[[[[[[[[[[[[[[[[[[[[[[[[[[[[[[[[[[[[[[[[[[[[[[[[[[[[[[[",
"[[[[[[[[[[[[[[[[[[[[[[[[[[[[[[[[[[[[[[[[[[[[[[[[[[[[[[[[[[[[[[[[[[[[[[[[[[[[[[[[[[[[[[[[[[[[[[[[[[[[[[[[[[[[[[[[[[[[[[[[[[[",
"[[[[[[[[[[[[[[[[[[[[[[[[[[[[[[[[[[[[[[[[[[[[[[[[[[[[[[[[[[[[[[[[[[[[[[[[[[[[[[[[[[[[[[[[[[[[[[[[[[[[[[[[[[[[[[[[[[[[[[[[[[[",
"[[[[[[[[[[[[[[[[[[[[[[[[[[[[[[[[[[[[[[[[[[[[[[[[[[[[[[[[[[[[[[[[[[[[[[[[[[[[[[[[[[[[[[[[[[[[[[[[[[[[[[[[[[[[[[[[[[[[[[[[[[[",
"[[[[[[[[[[[[[[[[[[[[[[[[[[[[[[[[[[[[[[[[[[[[[[[[[[[[[[[[[[[[[[[[[[[[[[[[[[[[[[[[[[[[[[[[[[[[[[[[[[[[[[[[[[[[[[[[[[[[[[[[[[[",
"[[[[[[[[[[[[[[[[[[[[[[[[[[[[[[[[[[[[[[[[[[[[[[[[[[[[[[[[[[[[[[[[[[[[[[[[[[[[[[[[[[[[[[[[[[[[[[[[[[[[[[[[[[[[[[[[[[[[[[[[[[[",
"[[[[[[[[[[[[[[[[[[[[[[[[[[[[[[[[[[[[[[[[[[[[[[[[[[[[[[[[[[[[[[[[[[[[[[[[[[[[[[[[[[[[[[[[[[[[[[[[[[[[[[[[[[[[[[[[[[[[[[[[[[[",
"[[[[[[[[[[[[[[[[[[[[[[[[[[[[[[[[[[[[[[[[[[[[[[[[[[[[[[[[[[[[[[[[[[[[[[[[[[[[[[[[[[[[[[[[[[[[[[[[[[[[[[[[[[[[[[[[[[[[[[[[[[[",
"[[[[[[[[[[[[[[[[[[[[[[[[[[[[[[[[[[[[[[[[[[[[[[[[[[[[[[[[[[[[[[[[[[[[[[[[[[[[[[[[[[[[[[[[[[[[[[[[[[[[[[[[[[[[[[[[[[[[[[[[[[[",
"[[[[[[[[[[[[[[[[[[[[[[[[[[[[[[[[[[[[[[[[[[[[[[[[[[[[[[[[[[[[[[[[[[[[[[[[[[[[[[[[[[[[[[[[[[[[[[[[[[[[[[[[[[[[[[[[[[[[[[[[[[[",
"[[[[[[[[[[[[[[[[[[[[[[[[[[[[[[[[[[[[[[[[[[[[[[[[[[[[[[[[[[[[[[[[[[[[[[[[[[[[[[[[[[[[[[[[[[[[[[[[[[[[[[[[[[[[[[[[[[[[[[[[[[[",
"[[[[[[[[[[[[[[[[[[[[[[[[[[[[[[[[[[[[[[[[[[[[[[[[[[[[[[[[[[[[[[[[[[[[[[[[[[[[[[[[[[[[[[[[[[[[[[[[[[[[[[[[[[[[[[[[[[[[[[[[[[[",
"[[[[[[[[[[[[[[[[[[[[[[[[[[[[[[[[[[[[[[[[[[[[[[[[[[[[[[[[[[[[[[[[[[[[[[[[[[[[[[[[[[[[[[[[[[[[[[[[[[[[[[[[[[[[[[[[[[[[[[[[[[[",
"[[[[[[[[[[[[[[[[[[[[[[[[[[[[[[[[[[[[[[[[[[[[[[[[[[[[[[[[[[[[[[[[[[[[[[[[[[[[[[[[[[[[[[[[[[[[[[[[[[[[[[[[[[[[[[[[[[[[[[[[[[["};
