/* XPM */
static char * windows_xpm[] = {
"24 24 42 1",
" 	c None",
".	c #000000",
"+	c #A4A1A4",
"@	c #000008",
"#	c #000810",
"$	c #000820",
"%	c #000C29",
"&	c #000818",
"*	c #001031",
"=	c #001C52",
"-	c #001C5A",
";	c #08246A",
">	c #31AAFF",
",	c #A49DA4",
"'	c #082C8B",
")	c #002883",
"!	c #083094",
"~	c #002C8B",
"{	c #08287B",
"]	c #00206A",
"^	c #9C9DA4",
"/	c #0834A4",
"(	c #000C31",
"_	c #000408",
":	c #837983",
"<	c #08184A",
"[	c #7B717B",
"}	c #00287B",
"|	c #00205A",
"1	c #001439",
"2	c #000410",
"3	c #626162",
"4	c #001C62",
"5	c #080C31",
"6	c #525052",
"7	c #000418",
"8	c #001852",
"9	c #413C41",
"0	c #000C20",
"a	c #312C31",
"b	c #201C20",
"c	c #100C10",
"                        ",
"                        ",
"  ...................   ",
"  .+++++++++++++++++.   ",
"  .+...............+.   ",
"  .+.....@.@.......+.   ",
"  .+....#$%&#@.....+.   ",
"  .+...&*=-=*&.....+.   ",
"  .+..#*;>>>;*#....,.   ",
"  .+..&=>')!>=&@...+.   ",
"  .+.@%->~{~>]%@...^.   ",
"  .+.@&=>!~/>{(_...+.   ",
"  .:..#*;>>>>)<&_..:.   ",
"  .[...&*=]{}>|12@.[.   ",
"  .3....#$%*<4>=5_.3.   ",
"  .6.....@._718>(2.6.   ",
"  .9........_#5*0_@9.   ",
"  .a.........@@2@..a.   ",
"  .b............@..b.   ",
"  .c...............c.   ",
"  ...................   ",
"  ...................   ",
"                        ",
"                        "};
