/* XPM */
static char * windows_xpm[] = {
"23 29 63 1",
" 	c None",
".	c #000000",
"+	c #736D73",
"@	c #737173",
"#	c #837183",
"$	c #4A404A",
"%	c #393839",
"&	c #413C41",
"*	c #4A444A",
"=	c #413C39",
"-	c #393C41",
";	c #313831",
">	c #414041",
",	c #A4A1A4",
"'	c #313431",
")	c #413841",
"!	c #413441",
"~	c #000008",
"{	c #292C29",
"]	c #393039",
"^	c #000810",
"/	c #000820",
"(	c #000C29",
"_	c #000818",
":	c #292829",
"<	c #001031",
"[	c #001C52",
"}	c #001C5A",
"|	c #08246A",
"1	c #31AAFF",
"2	c #A49DA4",
"3	c #312C31",
"4	c #292429",
"5	c #082C8B",
"6	c #002883",
"7	c #083094",
"8	c #182018",
"9	c #002C8B",
"0	c #08287B",
"a	c #00206A",
"b	c #9C9DA4",
"c	c #202420",
"d	c #0834A4",
"e	c #000C31",
"f	c #000408",
"g	c #837983",
"h	c #08184A",
"i	c #7B717B",
"j	c #00287B",
"k	c #00205A",
"l	c #001439",
"m	c #000410",
"n	c #626162",
"o	c #001C62",
"p	c #080C31",
"q	c #525052",
"r	c #000418",
"s	c #001852",
"t	c #000C20",
"u	c #201C20",
"v	c #100C10",
"w	c #080408",
"x	c #000400",
".......................",
"+@+#+@+#+@+#+@+#+@+#+@+",
"$%$%$%$%$%$%$%$%$%$%$%$",
"&*&*&*&*&*&*&*&*&*&*=*-",
";&...................&&",
">;.,,,,,,,,,,,,,,,,,.;;",
"').,...............,.))",
"!'.,.....~.~.......,.''",
"{].,....^/(_^~.....,.]]",
"]:.,..._<[}[<_.....,.::",
":{.,..^<|111|<^....2.{{",
"34.,.._[15671[_~...,.44",
"84.,.~(}19091a(~...b.4c",
")'.,.~_[179d10ef...,.''",
"...g..^<|11116h_f..g...",
"...i..._<[a0j1klm~.i...",
"...n....^/(<ho1[pf.n...",
"...q.....~.frls1em.q...",
"...&........f^p<tf~&...",
"...3.........~~m~..3...",
"...u............~..u...",
"...v...............v...",
".......................",
".......................",
".......................",
".......................",
".......................",
".......................",
"wxwxwxwxwxwxwxwxwxwxwxw"};
