/* XPM */
static char * desktop_xpm[] = {
"23 23 308 2",
"  	c None",
". 	c #60636D",
"+ 	c #636670",
"@ 	c #575D75",
"# 	c #555C76",
"$ 	c #565C75",
"% 	c #545B76",
"& 	c #535B76",
"* 	c #535B71",
"= 	c #525A71",
"- 	c #515971",
"; 	c #525E77",
"> 	c #627088",
", 	c #6E7E95",
"' 	c #73849B",
") 	c #71839B",
"! 	c #6B7B93",
"~ 	c #5C6A83",
"{ 	c #515C75",
"] 	c #50586E",
"^ 	c #4F576E",
"/ 	c #4D566E",
"( 	c #61728D",
"_ 	c #90A4BA",
": 	c #B0C7DA",
"< 	c #C5DCEE",
"[ 	c #D0E7F7",
"} 	c #CEE5F5",
"| 	c #C1D8EA",
"1 	c #AAC0D3",
"2 	c #869AB1",
"3 	c #576882",
"4 	c #4E576E",
"5 	c #4D5569",
"6 	c #4C5469",
"7 	c #4A546A",
"8 	c #697D98",
"9 	c #B7CEE1",
"0 	c #D0E8FA",
"a 	c #D2EBFF",
"b 	c #CFE8FF",
"c 	c #CCE7FF",
"d 	c #CDE8FF",
"e 	c #D1EAFF",
"f 	c #D5EDFF",
"g 	c #CEE5F7",
"h 	c #AFC6D8",
"i 	c #596D87",
"j 	c #4A5369",
"k 	c #4B5265",
"l 	c #4A5164",
"m 	c #485064",
"n 	c #647892",
"o 	c #B9D1E7",
"p 	c #C8E4FF",
"q 	c #BFDFFE",
"r 	c #B7DAFC",
"s 	c #B2D7FC",
"t 	c #B0D6FB",
"u 	c #B5D8FC",
"v 	c #B5D9FC",
"w 	c #BBDCFD",
"x 	c #C5E2FE",
"y 	c #CFE9FE",
"z 	c #B5CBDD",
"A 	c #536781",
"B 	c #495064",
"C 	c #484E61",
"D 	c #464D60",
"E 	c #454D60",
"F 	c #52637E",
"G 	c #A6C1DC",
"H 	c #BADCFC",
"I 	c #A7D0F9",
"J 	c #9CC8F6",
"K 	c #93C3F3",
"L 	c #8EBFF1",
"M 	c #AFD2F4",
"N 	c #D4E7FA",
"O 	c #A4CCF4",
"P 	c #98C7F5",
"Q 	c #A3CDF8",
"R 	c #B1D6FB",
"S 	c #C5E2FD",
"T 	c #A2BACF",
"U 	c #495971",
"V 	c #454C5D",
"W 	c #434A5C",
"X 	c #414C61",
"Y 	c #748CA8",
"Z 	c #ABCFF3",
"` 	c #9DCAF6",
" .	c #8ABDEF",
"..	c #87B9EB",
"+.	c #90BDEA",
"@.	c #7FB2E5",
"#.	c #B9D4EF",
"$.	c #ECF3FA",
"%.	c #9DC5EB",
"&.	c #8EBDEC",
"*.	c #99C5F1",
"=.	c #97C5F4",
"-.	c #AAD2FA",
";.	c #B5D2EF",
">.	c #6E839B",
",.	c #404A5E",
"'.	c #424958",
").	c #3F4757",
"!.	c #45556B",
"~.	c #83A4C6",
"{.	c #9CC9F5",
"].	c #82B7EC",
"^.	c #71A9E1",
"/.	c #8CB7E3",
"(.	c #CEE0F2",
"_.	c #AFCCE8",
":.	c #91B7DE",
"<.	c #D2E2F1",
"[.	c #94BBE1",
"}.	c #C7DCF2",
"|.	c #C3DBF3",
"1.	c #89BAEA",
"2.	c #90C1F2",
"3.	c #ADD3F8",
"4.	c #849FBA",
"5.	c #404E63",
"6.	c #404757",
"7.	c #3F4553",
"8.	c #3C4351",
"9.	c #4E5F76",
"0.	c #87AED6",
"a.	c #84B8EC",
"b.	c #6CA5DF",
"c.	c #5A95D1",
"d.	c #6E9FD1",
"e.	c #B7CEE5",
"f.	c #D3E1EF",
"g.	c #99B9D9",
"h.	c #B4CAE2",
"i.	c #B5CDE5",
"j.	c #D3E2F1",
"k.	c #A9C8E6",
"l.	c #71A7DC",
"m.	c #7AB1E7",
"n.	c #97C5F3",
"o.	c #88ABCE",
"p.	c #48586D",
"q.	c #3D4351",
"r.	c #3C4252",
"s.	c #394050",
"t.	c #51647C",
"u.	c #85B1DC",
"v.	c #76ADE5",
"w.	c #609BD7",
"x.	c #4986C3",
"y.	c #417BB4",
"z.	c #5A88B7",
"A.	c #7096BC",
"B.	c #85A5C6",
"C.	c #BCCFE0",
"D.	c #7FA2C4",
"E.	c #6E98C0",
"F.	c #588BBE",
"G.	c #508BC5",
"H.	c #6CA6DF",
"I.	c #88BBEE",
"J.	c #84ACD5",
"K.	c #495B74",
"L.	c #3A4050",
"M.	c #1A1C1C",
"N.	c #161818",
"O.	c #324555",
"P.	c #5C8DBD",
"Q.	c #3A72A9",
"R.	c #235B93",
"S.	c #1E568C",
"T.	c #507CA7",
"U.	c #B6C9DB",
"V.	c #CDDAE7",
"W.	c #89A7C6",
"X.	c #A6BED4",
"Y.	c #D2DDE8",
"Z.	c #8FAAC6",
"`.	c #2E6194",
" +	c #1F578E",
".+	c #3D73A9",
"++	c #4979AA",
"@+	c #223444",
"#+	c #161817",
"$+	c #171717",
"%+	c #121213",
"&+	c #223344",
"*+	c #3C6D9E",
"=+	c #235A92",
"-+	c #1C548C",
";+	c #225A92",
">+	c #5C86B0",
",+	c #BBCDDF",
"'+	c #95B1CD",
")+	c #759ABE",
"!+	c #7A9DC1",
"~+	c #B3C7DB",
"{+	c #A2BAD2",
"]+	c #386A9D",
"^+	c #1D558D",
"/+	c #1E568F",
"(+	c #225383",
"_+	c #162533",
":+	c #121212",
"<+	c #17222D",
"[+	c #36618D",
"}+	c #2C659E",
"|+	c #1F5890",
"1+	c #225C96",
"2+	c #30679E",
"3+	c #4D7DAE",
"4+	c #3F74A9",
"5+	c #8BABCB",
"6+	c #E2EAF2",
"7+	c #6A94BC",
"8+	c #497AAC",
"9+	c #4878AA",
"0+	c #276098",
"a+	c #205992",
"b+	c #215A93",
"c+	c #1E4771",
"d+	c #131B24",
"e+	c #121619",
"f+	c #294866",
"g+	c #336CA4",
"h+	c #245E98",
"i+	c #25609A",
"j+	c #2A649E",
"k+	c #2F6AA4",
"l+	c #306BA6",
"m+	c #608EBC",
"n+	c #99B7D4",
"o+	c #4C7FB2",
"p+	c #306AA5",
"q+	c #2C67A1",
"r+	c #27619B",
"s+	c #235D97",
"t+	c #22578E",
"u+	c #193450",
"v+	c #121417",
"w+	c #16232F",
"x+	c #326190",
"y+	c #2D67A2",
"z+	c #28639E",
"A+	c #2B67A3",
"B+	c #306CA8",
"C+	c #3470AB",
"D+	c #3974B0",
"E+	c #407AB3",
"F+	c #3671AD",
"G+	c #316DA9",
"H+	c #2C68A4",
"I+	c #28649F",
"J+	c #245E97",
"K+	c #1D4873",
"L+	c #131E28",
"M+	c #121314",
"N+	c #17283A",
"O+	c #316394",
"P+	c #2E6AA5",
"Q+	c #3874B0",
"R+	c #3E7BB8",
"S+	c #417EBC",
"T+	c #3E7CB9",
"U+	c #2A66A1",
"V+	c #22517F",
"W+	c #152332",
"X+	c #121416",
"Y+	c #172839",
"Z+	c #2A5987",
"`+	c #326AA3",
" @	c #3F7BB8",
".@	c #5491CD",
"+@	c #5E99D4",
"@@	c #548FCC",
"#@	c #3E7AB7",
"$@	c #2E669E",
"%@	c #234F7B",
"&@	c #192735",
"*@	c #121315",
"=@	c #15212D",
"-@	c #1F3C5A",
";@	c #2C5680",
">@	c #3E6FA0",
",@	c #4B7FB4",
"'@	c #4C7FB3",
")@	c #3C6E9F",
"!@	c #2A537D",
"~@	c #1E3955",
"{@	c #141F29",
"]@	c #171718",
"^@	c #121518",
"/@	c #19222B",
"(@	c #192837",
"_@	c #1C2E40",
":@	c #192736",
"<@	c #141D25",
"[@	c #121517",
"}@	c #16171B",
"|@	c #111216",
"1@	c #111217",
"2@	c #181824",
"3@	c #13131F",
". + + + + + + + . + + + + + + + . + + + + + + ",
"@ # # # # # # # $ % & & % % # # @ # # # # # # ",
"* = = = = = - ; > , ' ) ! ~ { - * = = = = = = ",
"] ^ ^ ^ ^ / ( _ : < [ } | 1 2 3 4 ^ ^ ^ ^ ^ ^ ",
"5 6 6 6 7 8 9 0 a b c d e f g h i j 6 6 6 6 6 ",
"k l l m n o p q r s t u v w x y z A B l l l l ",
"C D E F G H I J K L M N O P Q R S T U E D D D ",
"V W X Y Z `  ...+.@.#.$.%.&.*.=.-.;.>.,.W W W ",
"'.).!.~.{.].^./.(._.:.<.[.}.|.1.2.3.4.5.).6.6.",
"7.8.9.0.a.b.c.d.e.f.g.h.i.j.k.l.m.n.o.p.8.q.q.",
"r.s.t.u.v.w.x.y.z.A.B.C.D.E.F.G.H.I.J.K.s.L.L.",
"M.N.O.P.Q.R.S.T.U.V.W.X.X.Y.Z.`. +.+++@+#+#+#+",
"$+%+&+*+=+-+;+>+,+'+)+V.!+~+{+]+^+/+(+_+:+:+:+",
"$+:+<+[+}+|+1+2+3+4+5+6+7+8+9+0+a+b+c+d+:+:+:+",
"$+:+e+f+g+h+i+j+k+l+m+n+o+p+q+r+s+t+u+v+:+:+:+",
"$+:+:+w+x+y+z+A+B+C+D+E+F+G+H+I+J+K+L+:+:+:+:+",
"$+:+:+M+N+O+P+G+Q+R+S+S+T+Q+G+U+V+W+%+:+:+:+:+",
"$+:+:+:+X+Y+Z+`+ @.@+@+@@@#@$@%@&@*@:+:+:+:+:+",
"$+:+:+:+:+M+=@-@;@>@,@'@)@!@~@{@]@:+:+:+:+:+:+",
"$+:+:+:+:+:+:+^@/@(@_@_@:@<@[@:+$+:+:+:+:+:+:+",
"}@|@|@|@|@|@|@|@}@|@1@1@|@|@|@|@}@|@|@|@|@|@|@",
"2@3@3@3@3@3@3@3@2@3@3@3@3@3@3@3@2@3@3@3@3@3@3@",
"2@3@3@3@3@3@3@3@2@3@3@3@3@3@3@3@2@3@3@3@3@3@3@"};
