/* XPM */
static char * frameITL_xpm[] = {
"25 25 139 2",
"  	c None",
". 	c #70624E",
"+ 	c #70604E",
"@ 	c #74654E",
"# 	c #6B5945",
"$ 	c #6B5B45",
"% 	c #665945",
"& 	c #6B5E49",
"* 	c #6B5B49",
"= 	c #74624E",
"- 	c #706049",
"; 	c #746553",
"> 	c #705E49",
", 	c #706249",
"' 	c #796A53",
") 	c #83765C",
"! 	c #83715C",
"~ 	c #887661",
"{ 	c #88765C",
"] 	c #7D6E56",
"^ 	c #78654B",
"/ 	c #7D6B56",
"( 	c #72654B",
"_ 	c #786550",
": 	c #7D6B50",
"< 	c #786850",
"[ 	c #8E7C67",
"} 	c #93816C",
"| 	c #72604B",
"1 	c #78634B",
"2 	c #8E7F67",
"3 	c #725D45",
"4 	c #72634B",
"5 	c #796C58",
"6 	c #837356",
"7 	c #968163",
"8 	c #897156",
"9 	c #89745C",
"0 	c #A38B70",
"a 	c #A38E70",
"b 	c #9C8B69",
"c 	c #A39176",
"d 	c #A38E76",
"e 	c #9C8B70",
"f 	c #9C8469",
"g 	c #9C8870",
"h 	c #9C8869",
"i 	c #967E63",
"j 	c #907B5C",
"k 	c #90785C",
"l 	c #907B63",
"m 	c #968469",
"n 	c #746A53",
"o 	c #A28A68",
"p 	c #B8A485",
"q 	c #B0A07E",
"r 	c #B09C77",
"s 	c #A28E68",
"t 	c #A9956F",
"u 	c #A2926F",
"v 	c #A9926F",
"w 	c #B09C7E",
"x 	c #A99568",
"y 	c #A99C77",
"z 	c #B8A785",
"A 	c #B0A47E",
"B 	c #B0A077",
"C 	c #B09577",
"D 	c #796A58",
"E 	c #7D6E50",
"F 	c #A39170",
"G 	c #A99577",
"H 	c #BCA67C",
"I 	c #BCAA84",
"J 	c #C4AE8C",
"K 	c #B49E74",
"L 	c #C4AA84",
"M 	c #BCAA7C",
"N 	c #B49A74",
"O 	c #BCA284",
"P 	c #B4A27C",
"Q 	c #CCBE9C",
"R 	c #DCC69C",
"S 	c #CCBA94",
"T 	c #C4AE84",
"U 	c #88795C",
"V 	c #BC9E7C",
"W 	c #A4926C",
"X 	c #C4A67C",
"Y 	c #CCB28C",
"Z 	c #CCAA84",
"` 	c #BC9A7C",
" .	c #C4A684",
"..	c #CCB694",
"+.	c #C4B28C",
"@.	c #BCA684",
"#.	c #B49E7C",
"$.	c #B4A274",
"%.	c #B4A67C",
"&.	c #B09977",
"*.	c #7D7156",
"=.	c #615440",
"-.	c #88735C",
";.	c #968169",
">.	c #B8A07E",
",.	c #887961",
"'.	c #BCA27C",
").	c #9B8768",
"!.	c #887C61",
"~.	c #897456",
"{.	c #938361",
"].	c #A99476",
"^.	c #665940",
"/.	c #A2956F",
"(.	c #B4A684",
"_.	c #968463",
":.	c #8C805A",
"<.	c #CCB294",
"[.	c #6B6045",
"}.	c #887656",
"|.	c #9B8061",
"1.	c #C4A27C",
"2.	c #9B8368",
"3.	c #746A4E",
"4.	c #887356",
"5.	c #A98A6F",
"6.	c #AC9274",
"7.	c #837156",
"8.	c #B49674",
"9.	c #A48A64",
"0.	c #A28E6F",
"a.	c #A48E6C",
"b.	c #746753",
"c.	c #83735C",
"d.	c #B49A7C",
"e.	c #74674E",
"f.	c #A99977",
"g.	c #A28768",
"h.	c #B4966C",
". . + @ + # $ @ % & $ % * & & = - = ; @ + > , ; - ",
"' ) ! ~ { ] ^ ^ ! / ( _ : < ] [ } ] | 1 ~ 2 ! 3 4 ",
"5 6 7 8 9 7 0 a b c d e d e f g h g f i j k l i m ",
"n < b o p q q q r s t r u v q w x y q z p A B B C ",
"D E F G H I J I H K L M N N I O M P K J Q R S T P ",
"5 U a w V W J J X L Y Z N `  . .H T ..+.@.#.$.%.T ",
"; U b &.H N                                       ",
"% *.b G Y @.                                      ",
"=.-.;.>.V I                                       ",
"% ,.;.v #.'.                                      ",
"- [ k ).'.#.                                      ",
". !.~.{.L T                                       ",
"$ { ;.u J J                                       ",
"=.{ ].q J I                                       ",
"^.{ ]./.(.I                                       ",
"- ) _.:.P <.                                      ",
"[.}.F |.1.'.                                      ",
"@ 6 b 2.V `                                       ",
"3.4.h 5.N 6.                                      ",
"5 7._.v 8.9.                                      ",
"' 6 m 0.N a.                                      ",
"b.c.f o #.d.                                      ",
"e.~ 7 0.'.'.                                      ",
"b.,.7 f.I N                                       ",
"- c.9 g.h.@.                                      "};
