/* XPM */
static char * frameIB_xpm[] = {
"96 6 171 2",
"  	c None",
". 	c #BCA67C",
"+ 	c #BCAA84",
"@ 	c #C4AA84",
"# 	c #BCA684",
"$ 	c #B4966C",
"% 	c #A4926C",
"& 	c #B49A74",
"* 	c #BCA27C",
"= 	c #B49E7C",
"- 	c #C4AE84",
"; 	c #C4AE8C",
"> 	c #CCB294",
", 	c #BC9A7C",
"' 	c #AC9274",
") 	c #A48A64",
"! 	c #A48E6C",
"~ 	c #B49A7C",
"{ 	c #C4A684",
"] 	c #AC926C",
"^ 	c #B49674",
"/ 	c #B49E74",
"( 	c #BC9E7C",
"_ 	c #AC9A74",
": 	c #B4A27C",
"< 	c #CCB68C",
"[ 	c #BCA284",
"} 	c #CCB28C",
"| 	c #B4A67C",
"1 	c #B4A274",
"2 	c #C4B28C",
"3 	c #CCB694",
"4 	c #CCAA84",
"5 	c #C4A67C",
"6 	c #B4A684",
"7 	c #C4A27C",
"8 	c #AC966C",
"9 	c #CCBA94",
"0 	c #CCAE8C",
"a 	c #DCC69C",
"b 	c #CCBE9C",
"c 	c #BCAA7C",
"d 	c #AC9674",
"e 	c #B89C7E",
"f 	c #A28E68",
"g 	c #9B8361",
"h 	c #A28A68",
"i 	c #A99577",
"j 	c #B09C7E",
"k 	c #B09977",
"l 	c #B8A07E",
"m 	c #A9926F",
"n 	c #9B8768",
"o 	c #938361",
"p 	c #A2926F",
"q 	c #B0A07E",
"r 	c #A2956F",
"s 	c #8C805A",
"t 	c #9B8061",
"u 	c #9B8368",
"v 	c #A98A6F",
"w 	c #A28E6F",
"x 	c #A99977",
"y 	c #A28768",
"z 	c #B0997E",
"A 	c #B8A485",
"B 	c #A9956F",
"C 	c #B09C77",
"D 	c #B09577",
"E 	c #B0A077",
"F 	c #B0A47E",
"G 	c #B8A785",
"H 	c #A99C77",
"I 	c #A99568",
"J 	c #B0A485",
"K 	c #9C8869",
"L 	c #908163",
"M 	c #968163",
"N 	c #9C8B69",
"O 	c #A39170",
"P 	c #A38E70",
"Q 	c #968169",
"R 	c #90785C",
"S 	c #897456",
"T 	c #A99476",
"U 	c #968463",
"V 	c #968469",
"W 	c #9C8469",
"X 	c #89745C",
"Y 	c #89785C",
"Z 	c #907B63",
"` 	c #907E63",
" .	c #836E56",
"..	c #7C6B50",
"+.	c #907E5C",
"@.	c #9C8B70",
"#.	c #9C8E70",
"$.	c #837456",
"%.	c #907B5C",
"&.	c #897B5C",
"*.	c #897856",
"=.	c #968B69",
"-.	c #7C6E50",
";.	c #A38B70",
">.	c #967E63",
",.	c #9C8870",
"'.	c #A38E76",
").	c #A39176",
"!.	c #897156",
"~.	c #907863",
"{.	c #837156",
"].	c #83765C",
"^.	c #837356",
"/.	c #786850",
"(.	c #7D6E50",
"_.	c #88795C",
":.	c #7D7156",
"<.	c #88735C",
"[.	c #887961",
"}.	c #8E7C67",
"|.	c #887C61",
"1.	c #88765C",
"2.	c #887656",
"3.	c #887356",
"4.	c #83735C",
"5.	c #887661",
"6.	c #8E7C61",
"7.	c #8E7F67",
"8.	c #7D6850",
"9.	c #7D6E56",
"0.	c #78684B",
"a.	c #786550",
"b.	c #7D6B50",
"c.	c #72634B",
"d.	c #725D45",
"e.	c #83715C",
"f.	c #78634B",
"g.	c #72604B",
"h.	c #93816C",
"i.	c #72654B",
"j.	c #7D6B56",
"k.	c #78654B",
"l.	c #7D6856",
"m.	c #70624E",
"n.	c #796A53",
"o.	c #796C58",
"p.	c #746A53",
"q.	c #796A58",
"r.	c #746553",
"s.	c #665945",
"t.	c #615440",
"u.	c #706049",
"v.	c #6B5B45",
"w.	c #665940",
"x.	c #6B6045",
"y.	c #74654E",
"z.	c #746A4E",
"A.	c #746753",
"B.	c #74674E",
"C.	c #6B5B49",
"D.	c #665B45",
"E.	c #70604E",
"F.	c #6B5E49",
"G.	c #706249",
"H.	c #70654E",
"I.	c #6B6049",
"J.	c #74624E",
"K.	c #796753",
"L.	c #796C53",
"M.	c #705E49",
"N.	c #6B5945",
". + @ # $ % & # + * = - ; + + > * , ' ) ! ~ * & # { . @ - ; - + ] % ] ^ / ( = * % _ : * : = # + * * / & & & / ( # . ( / * . @ ; < @ : [ - } - - | 1 = # 2 3 - . { { , & 4 } @ 5 ; ; + ; ; + : # ",
"* * . # . ( . } ( = * @ ; ; 6 : 7 ( & ^ & = * + $ 8 ^ = . @ . | ; { # ; @ # * # - } 9 < @ * = & @ @ { # * { @ 0 @ & % 8 # } 2 @ # * * - } ; { : - 9 a b ; / : c [ + & & c @ / . + ; + . d % = - ",
"e f g h i j k i l m n o p q r s t u v m w h w x y y w m j l j k z i m m i i k l A j m w i x x i m k k k m m m B i i k k j k k i l C B D x B B D E E F A G q H I j q m p C B f C q q q A J x p p ",
"K L M N O P N N Q Q R S Q T T U O N K U V W M M X Y Z ` Z Y  ...` +.M @.#.M $...%.&.X *.` #.P =.$.` V +.-...*.V M W @.;.K M Z %.%.Q V ` >.W ,.V >.Z R %.>.W ,.K ,.W @.'.@.'.).N P ;.M X !.R ~.R ",
"{.].^./.(._._.:.<.[.}.|.1.1.1.].2.^.3.{.^.4.5.[.4.4.<.4.1.5.4.{.|.[._.|.6.[.[.7.8.9.{.[.6.|.].].6.[.].1.[.[.].4.5.^.9.0.a.b.4.6.[.6.1.{.9.9.b.c.d.e.7.5.f.g.9.h.}.9./.b.a.i.j.e.k.k.9.1.5.e.l.l.",
"m.n.o.p.q.o.r.s.t.s.u.m.v.t.w.u.x.y.z.o.n.A.B.A.u.C.D.v.E.y.A.A.y.F.s.s.F.G.B.p.u.F.G.A.p.m.H.o.p.G.v.I.H.n.m.v.v.E.A.o.o.n.m.u.E.H.J.H.K.L.A.u.r.G.M.E.y.r.J.u.J.F.F.C.s.v.F.s.y.v.N.E.y.E.m.q."};
