/* XPM */
static char * frameATR_xpm[] = {
"25 25 139 2",
"  	c None",
". 	c #706049",
"+ 	c #746753",
"@ 	c #74674E",
"# 	c #796A53",
"$ 	c #796C58",
"% 	c #746A4E",
"& 	c #74654E",
"* 	c #6B6045",
"= 	c #665940",
"- 	c #615440",
"; 	c #6B5B45",
"> 	c #70624E",
", 	c #665945",
"' 	c #746553",
") 	c #796A58",
"! 	c #746A53",
"~ 	c #83735C",
"{ 	c #887961",
"] 	c #887661",
"^ 	c #837356",
"/ 	c #837156",
"( 	c #887356",
"_ 	c #887656",
": 	c #83765C",
"< 	c #88765C",
"[ 	c #887C61",
"} 	c #8E7C67",
"| 	c #88735C",
"1 	c #7D7156",
"2 	c #88795C",
"3 	c #7D6E50",
"4 	c #786850",
"5 	c #89745C",
"6 	c #968163",
"7 	c #9C8469",
"8 	c #968469",
"9 	c #968463",
"0 	c #9C8869",
"a 	c #9C8B69",
"b 	c #A39170",
"c 	c #A99476",
"d 	c #968169",
"e 	c #897456",
"f 	c #90785C",
"g 	c #A38E70",
"h 	c #83715C",
"i 	c #70604E",
"j 	c #A28768",
"k 	c #A99977",
"l 	c #A28E6F",
"m 	c #A28A68",
"n 	c #A9926F",
"o 	c #A98A6F",
"p 	c #9B8368",
"q 	c #9B8061",
"r 	c #8C805A",
"s 	c #A2956F",
"t 	c #B0A07E",
"u 	c #A2926F",
"v 	c #938361",
"w 	c #9B8768",
"x 	c #B8A07E",
"y 	c #A99577",
"z 	c #B09977",
"A 	c #B09C7E",
"B 	c #897156",
"C 	c #B4966C",
"D 	c #BCAA84",
"E 	c #BCA27C",
"F 	c #B49E7C",
"G 	c #B49A74",
"H 	c #B49674",
"I 	c #BC9E7C",
"J 	c #C4A27C",
"K 	c #B4A27C",
"L 	c #B4A684",
"M 	c #C4AE8C",
"N 	c #C4AA84",
"O 	c #CCB28C",
"P 	c #BCA67C",
"Q 	c #B8A485",
"R 	c #BCA684",
"S 	c #B49A7C",
"T 	c #A48E6C",
"U 	c #A48A64",
"V 	c #AC9274",
"W 	c #BC9A7C",
"X 	c #CCB294",
"Y 	c #C4AE84",
"Z 	c #A4926C",
"` 	c #7D6E56",
" .	c #6B5945",
"..	c #A38B70",
"+.	c #78654B",
"@.	c #C4A67C",
"#.	c #B09C77",
"$.	c #B49E74",
"%.	c #A28E68",
"&.	c #A39176",
"*.	c #7D6B56",
"=.	c #6B5E49",
"-.	c #A9956F",
";.	c #A38E76",
">.	c #72654B",
",.	c #CCAA84",
"'.	c #BCAA7C",
").	c #9C8B70",
"!.	c #786550",
"~.	c #7D6B50",
"{.	c #6B5B49",
"].	c #C4A684",
"^.	c #BCA284",
"/.	c #9C8870",
"(.	c #74624E",
"_.	c #A99568",
":.	c #93816C",
"<.	c #A99C77",
"[.	c #CCB694",
"}.	c #72604B",
"|.	c #C4B28C",
"1.	c #B8A785",
"2.	c #967E63",
"3.	c #78634B",
"4.	c #CCBE9C",
"5.	c #907B5C",
"6.	c #DCC69C",
"7.	c #B0A47E",
"8.	c #8E7F67",
"9.	c #705E49",
"0.	c #B4A274",
"a.	c #CCBA94",
"b.	c #B0A077",
"c.	c #907B63",
"d.	c #706249",
"e.	c #B4A67C",
"f.	c #725D45",
"g.	c #B09577",
"h.	c #72634B",
". + @ + # $ % & * . = - ; > . , - , ' $ ) ! $ # > ",
"~ { ] ~ ^ / ( ^ _ : < < < [ } { | 1 2 2 3 4 ^ : > ",
"5 6 6 7 8 9 0 a b 9 c c d e f d d a a g b a 6 h i ",
"j k l m l n o p q r s t u v w n x y z A y m B ] & ",
"C D E F G H G I J K L M M N E F I O P I P Q 5 < i ",
"R G E S T U V W E X D D M Y F E D R G Z D t 6 `  .",
"                                      M M t ..+.; ",
"                                      M D t g +.& ",
"                                      @.P #.a h , ",
"                                      N $.%.&.*.=.",
"                                      O N -.;.>.; ",
"                                      ,.'.#.).!., ",
"                                      G G u ;.~.{.",
"                                      W G n ).4 =.",
"                                      ].D t 7 ` =.",
"                                      ].^.A /.} (.",
"                                      P '._.0 :.. ",
"                                      Y K <./.` (.",
"                                      [.$.t 7 }.' ",
"                                      |.M 1.2.3.& ",
"                                      R 4.Q 5.] i ",
"                                      F 6.7.f 8.9.",
"                                      0.a.b.c.h d.",
"                                      e.Y b.2.f.' ",
"                                      Y K g.8 h.. "};
