/* XPM */
static char * frameIL_xpm[] = {
"6 96 171 2",
"  	c None",
". 	c #70624E",
"+ 	c #837156",
"@ 	c #9C8869",
"# 	c #B89C7E",
"$ 	c #BCA27C",
"% 	c #BCA67C",
"& 	c #796A53",
"* 	c #83765C",
"= 	c #908163",
"- 	c #A28E68",
"; 	c #BCAA84",
"> 	c #796C58",
", 	c #837356",
"' 	c #968163",
") 	c #9B8361",
"! 	c #C4AA84",
"~ 	c #746A53",
"{ 	c #786850",
"] 	c #9C8B69",
"^ 	c #A28A68",
"/ 	c #BCA684",
"( 	c #796A58",
"_ 	c #7D6E50",
": 	c #A39170",
"< 	c #A99577",
"[ 	c #B4966C",
"} 	c #88795C",
"| 	c #A38E70",
"1 	c #B09C7E",
"2 	c #BC9E7C",
"3 	c #A4926C",
"4 	c #746553",
"5 	c #B09977",
"6 	c #B49A74",
"7 	c #665945",
"8 	c #7D7156",
"9 	c #CCB28C",
"0 	c #615440",
"a 	c #88735C",
"b 	c #968169",
"c 	c #B8A07E",
"d 	c #887961",
"e 	c #A9926F",
"f 	c #B49E7C",
"g 	c #706049",
"h 	c #8E7C67",
"i 	c #90785C",
"j 	c #9B8768",
"k 	c #887C61",
"l 	c #897456",
"m 	c #938361",
"n 	c #C4AE84",
"o 	c #6B5B45",
"p 	c #88765C",
"q 	c #A2926F",
"r 	c #C4AE8C",
"s 	c #A99476",
"t 	c #B0A07E",
"u 	c #665940",
"v 	c #A2956F",
"w 	c #B4A684",
"x 	c #968463",
"y 	c #8C805A",
"z 	c #B4A27C",
"A 	c #CCB294",
"B 	c #6B6045",
"C 	c #887656",
"D 	c #9B8061",
"E 	c #C4A27C",
"F 	c #74654E",
"G 	c #9B8368",
"H 	c #BC9A7C",
"I 	c #746A4E",
"J 	c #887356",
"K 	c #A98A6F",
"L 	c #AC9274",
"M 	c #B49674",
"N 	c #A48A64",
"O 	c #968469",
"P 	c #A28E6F",
"Q 	c #A48E6C",
"R 	c #746753",
"S 	c #83735C",
"T 	c #9C8469",
"U 	c #B49A7C",
"V 	c #74674E",
"W 	c #887661",
"X 	c #A99977",
"Y 	c #89745C",
"Z 	c #A28768",
"` 	c #6B5B49",
" .	c #89785C",
"..	c #AC966C",
"+.	c #C4A684",
"@.	c #665B45",
"#.	c #907B63",
"$.	c #907E63",
"%.	c #70604E",
"&.	c #836E56",
"*.	c #7C6B50",
"=.	c #B4A67C",
"-.	c #B0997E",
";.	c #AC926C",
">.	c #6B5E49",
",.	c #907E5C",
"'.	c #9C8B70",
").	c #8E7C61",
"!.	c #9C8E70",
"~.	c #B49E74",
"{.	c #706249",
"].	c #837456",
"^.	c #8E7F67",
"/.	c #7D6850",
"(.	c #907B5C",
"_.	c #B8A485",
":.	c #7D6E56",
"<.	c #897B5C",
"[.	c #AC9A74",
"}.	c #CCBA94",
"|.	c #897856",
"1.	c #CCB68C",
"2.	c #70654E",
"3.	c #968B69",
"4.	c #6B6049",
"5.	c #7C6E50",
"6.	c #A9956F",
"7.	c #CCAE8C",
"8.	c #78684B",
"9.	c #A38B70",
"0.	c #786550",
"a.	c #7D6B50",
"b.	c #C4B28C",
"c.	c #B09C77",
"d.	c #74624E",
"e.	c #B09577",
"f.	c #BCA284",
"g.	c #796753",
"h.	c #967E63",
"i.	c #796C53",
"j.	c #9C8870",
"k.	c #72634B",
"l.	c #725D45",
"m.	c #B0A077",
"n.	c #83715C",
"o.	c #B4A274",
"p.	c #705E49",
"q.	c #B0A47E",
"r.	c #DCC69C",
"s.	c #CCBE9C",
"t.	c #78634B",
"u.	c #B8A785",
"v.	c #72604B",
"w.	c #CCB694",
"x.	c #A99C77",
"y.	c #93816C",
"z.	c #A99568",
"A.	c #BCAA7C",
"B.	c #A38E76",
"C.	c #CCAA84",
"D.	c #72654B",
"E.	c #7D6B56",
"F.	c #A39176",
"G.	c #C4A67C",
"H.	c #78654B",
"I.	c #6B5945",
"J.	c #897156",
"K.	c #B0A485",
"L.	c #AC9674",
"M.	c #7D6856",
"N.	c #907863",
". + @ # $ % ",
"& * = - $ ; ",
"> , ' ) % ! ",
"~ { ] ^ / / ",
"( _ : < % [ ",
"> } | 1 2 3 ",
"4 } ] 5 % 6 ",
"7 8 ] < 9 / ",
"0 a b c 2 ; ",
"7 d b e f $ ",
"g h i j $ f ",
". k l m ! n ",
"o p b q r r ",
"0 p s t r ; ",
"u p s v w ; ",
"g * x y z A ",
"B C : D E $ ",
"F , ] G 2 H ",
"I J @ K 6 L ",
"> + x e M N ",
"& , O P 6 Q ",
"R S T ^ f U ",
"V W ' P $ $ ",
"R d ' X ; 6 ",
"g S Y Z [ / ",
"` S  .Z ..+.",
"@.a #.P M % ",
"o S $.e f ! ",
"%.p #.1 % n ",
"F W  .c ! r ",
"R S &.1 % n ",
"R + *.5 =.; ",
"F k $.-.r ;.",
">.d ,.< +.3 ",
"7 } ' e / ;.",
"7 k '.e r M ",
">.).!.< ! ~.",
"{.d ' < / 2 ",
"V d ].5 $ f ",
"~ ^.*.c / $ ",
"g /.(._.n 3 ",
">.:.<.1 9 [.",
"{.+ Y e }.z ",
"R d |.P 1.$ ",
"~ ).$.< ! z ",
". k !.X $ f ",
"2.* | X f / ",
"> * 3.< 6 ; ",
"~ ).].e ! $ ",
"{.d $.5 ! $ ",
"o * O 5 +.~.",
"4.p ,.5 / 6 ",
"2.d 5.e $ 6 ",
"& d *.e +.6 ",
". * |.e ! ~.",
"o S O 6.7.2 ",
"o W ' < ! / ",
"%., T < 6 % ",
"R :.'.5 3 2 ",
"> 8.9.5 ..~.",
"> 0.@ 1 / $ ",
"& a.' 5 9 % ",
". S #.5 b.! ",
"g ).(.< ! r ",
"%.d (.c / 1.",
"2.).b c.$ ! ",
"d.p O 6.$ z ",
"2.+ $.e.n f.",
"g.:.h.X 9 n ",
"i.:.T 6.r 9 ",
"R a.j.6.+.n ",
"g k.O e.z n ",
"4 l.h.m.n =.",
"{.n.#.m.}.o.",
"p.^.i q.r.f ",
"%.W (._.s./ ",
"F t.h.u.r b.",
"4 v.T t ~.w.",
"d.:.j.x.z n ",
"g y.@ z.A.% ",
"d.h j.1 f.+.",
">.:.T t ; +.",
">.{ '.e 6 H ",
"` a.B.q 6 6 ",
"7 0.'.c.A.C.",
"o D.B.6.! 9 ",
">.E.F.- ~.! ",
"7 n.] c.% G.",
"F H.| t ; r ",
"o H.9.t r r ",
"I.:.' t ; ; ",
"%.p Y _.% r ",
"F W J.K.L.r ",
"%.n.i X 3 ; ",
". M.N.q f z ",
"( M.i q n / "};
