/* XPM */
static char * maximizeI_xpm[] = {
"16 40 58 1",
" 	c None",
".	c #BCA684",
"+	c #BC9E7C",
"@	c #AC9674",
"#	c #AC926C",
"$	c #AC9274",
"%	c #AC966C",
"&	c #C4AA84",
"*	c #B4A27C",
"=	c #BCA27C",
"-	c #BCAA84",
";	c #B49E7C",
">	c #AC9A74",
",	c #B49A74",
"'	c #B49A7C",
")	c #AC8E6C",
"!	c #BCA284",
"~	c #B49674",
"{	c #C4AA8C",
"]	c #CCB28C",
"^	c #C4AE8C",
"/	c #C4B28C",
"(	c #C4A684",
"_	c #D4BA94",
":	c #CCAE8C",
"<	c #A48E6C",
"[	c #409640",
"}	c #365920",
"|	c #CCB294",
"1	c #4F7F2F",
"2	c #000000",
"3	c #C4A284",
"4	c #BCA67C",
"5	c #B4967C",
"6	c #C4B294",
"7	c #D4B694",
"8	c #CCAE94",
"9	c #CCB694",
"0	c #BC9E84",
"a	c #B49E84",
"b	c #B49E74",
"c	c #C4B694",
"d	c #C4A27C",
"e	c #CCB68C",
"f	c #CCBA94",
"g	c #D4BE9C",
"h	c #DCC69C",
"i	c #BC9A74",
"j	c #B49274",
"k	c #BC9A7C",
"l	c #C4A68C",
"m	c #CCAA8C",
"n	c #CCB69C",
"o	c #C4A67C",
"p	c #CCAE84",
"q	c #C4AE84",
"r	c #CCB284",
"s	c #BCB28C",
".+@#$%.&.*=-;#>*",
",'==')@,@%'&&!-*",
"=~~={]^]^&&/]^/]",
"(;,!]_.:]^.!+,,.",
",={]{+<~;++==;/]",
";~[[[[[[[[[[}|&&",
"(~111111111123&/",
"!=11111111112((!",
"~!12222222212#%#",
"=.12&=^&(.412&&&",
",,12<(<<)#512:6/",
"!+12|:7||8|12779",
"|^120='0;0=12a.&",
"]]12=.*=-;#12=,b",
"]^12'@%'&&!12+^^",
",,11111111112]9_",
"cc22222222222d'=",
"effgggh_].+i(]^^",
"!4!4=*@@@@$$j'.=",
"]:d;k=l.3{:{+$,+",
".+@#$%.&.*=-;#>*",
",'==')@,@%'&&!-*",
"=~~={]^]^&&/]^/]",
"(;,!]_.:]^.!+,,.",
",={]{+<~;++==;/]",
";~,+=;d!(!d.m|&&",
"(~<@[[[[[[[[[[}/",
"!=&:11111111112!",
"~!^]11111111112#",
"=.&{12222222212&",
",,+=12&='0;0=12/",
"!+.(12<||8||n129",
"|^&.12|0;0=0+12&",
"]](+120~';=!!12b",
"]^(.12=e]]^(=12^",
",,,b12'o&&pqr12_",
"cc/s11111111112=",
"effg22222222222^",
"!4!4=*@@@@$$j'.=",
"]:d;k=l.3{:{+$,+"};
