/* XPM */
static char * minimizeI_xpm[] = {
"16 40 54 1",
" 	c None",
".	c #BCA684",
"+	c #BC9E7C",
"@	c #AC9674",
"#	c #AC926C",
"$	c #AC9274",
"%	c #AC966C",
"&	c #C4AA84",
"*	c #B4A27C",
"=	c #BCA27C",
"-	c #BCAA84",
";	c #B49E7C",
">	c #AC9A74",
",	c #B49A74",
"'	c #B49A7C",
")	c #AC8E6C",
"!	c #BCA284",
"~	c #B49674",
"{	c #C4AA8C",
"]	c #CCB28C",
"^	c #C4AE8C",
"/	c #C4B28C",
"(	c #C4A684",
"_	c #D4BA94",
":	c #CCAE8C",
"<	c #A48E6C",
"[	c #C4A27C",
"}	c #CCAA8C",
"|	c #CCB294",
"1	c #C4A284",
"2	c #BC9A74",
"3	c #BC9E74",
"4	c #B49A6C",
"5	c #BCA67C",
"6	c #C4B294",
"7	c #B4967C",
"8	c #D4B694",
"9	c #CCB694",
"0	c #CCAE94",
"a	c #CCB69C",
"b	c #000000",
"c	c #B49E74",
"d	c #365920",
"e	c #4F7F2F",
"f	c #409640",
"g	c #C4B694",
"h	c #CCB68C",
"i	c #CCBA94",
"j	c #D4BE9C",
"k	c #DCC69C",
"l	c #B49274",
"m	c #BC9A7C",
"n	c #C4A68C",
"o	c #BCB28C",
".+@#$%.&.*=-;#>*",
",'==')@,@%'&&!-*",
"=~~={]^]^&&/]^/]",
"(;,!]_.:]^.!+,,.",
",={]{+<~;++==;/]",
";~,+=;[!(![.}|&&",
"(~<@.::((+++=1&/",
"!=&:&='2'++[!((!",
"~!^]{==3,4####%#",
"=.&{&=^&(.5.&&&&",
",,{&=^&(.5.&&&6/",
"!+=.(<<)#7=^:689",
"|^(^:8||0||a88.&",
"]]((bbbbbbbba=,c",
"]^(bdddddddd++^^",
",,,ddeeeeeeef]9_",
"gg/.ffffffff=['=",
"hiijjjk_].+2(]^^",
"!5!5=*@@@@$$l'.=",
"]:[;m=n.1{:{+$,+",
".+@#$%.&.*=-;#>*",
",'==')@,@%'&&!-*",
"=~~={]^]^&&/]^/]",
"(;,!]_.:]^.!+,,.",
",={]{+<~;++==;/]",
";~,+=;[!(![.}|&&",
"(~<@.::((+++=1&/",
"!=&:&='2'++[!((!",
"~!^]{==3,4####%#",
"=.&{&=^&(.5.&&&&",
",,+=.(<<)#7=^:6/",
"!+.{&=^&(.5.&&&9",
"|^&=.(<<)#7=^:6&",
"]]((^:8||0||a88c",
"]^(.==bbbbbbbb.^",
",,,c7bdddddddd,_",
"gg/o&ddeeeeeeef=",
"hiij.:ffffffff9^",
"!5!5=*@@@@$$l'.=",
"]:[;m=n.1{:{+$,+"};
