/* XPM */
static char * rollupI_xpm[] = {
"16 40 54 1",
" 	c None",
".	c #BCA684",
"+	c #BC9E7C",
"@	c #AC9674",
"#	c #AC926C",
"$	c #AC9274",
"%	c #AC966C",
"&	c #C4AA84",
"*	c #B4A27C",
"=	c #BCA27C",
"-	c #BCAA84",
";	c #B49E7C",
">	c #AC9A74",
",	c #B49A74",
"'	c #B49A7C",
")	c #AC8E6C",
"!	c #BCA284",
"~	c #B49674",
"{	c #C4AA8C",
"]	c #CCB28C",
"^	c #C4AE8C",
"/	c #C4B28C",
"(	c #C4A684",
"_	c #D4BA94",
":	c #CCAE8C",
"<	c #A48E6C",
"[	c #CCB294",
"}	c #C4A284",
"|	c #C4A27C",
"1	c #CCAA8C",
"2	c #409640",
"3	c #365920",
"4	c #4F7F2F",
"5	c #000000",
"6	c #C4B294",
"7	c #D4B694",
"8	c #CCB694",
"9	c #B49E84",
"0	c #B49E74",
"a	c #C4B694",
"b	c #CCB68C",
"c	c #CCBA94",
"d	c #D4BE9C",
"e	c #DCC69C",
"f	c #BC9A74",
"g	c #BCA67C",
"h	c #B49274",
"i	c #BC9A7C",
"j	c #C4A68C",
"k	c #C4A67C",
"l	c #CCAE84",
"m	c #C4AE84",
"n	c #CCB284",
"o	c #BCB28C",
".+@#$%.&.*=-;#>*",
",'==')@,@%'&&!-*",
"=~~={]^]^&&/]^/]",
"(;,!]_.:]^.!+,,.",
",={]{+<~;++==;/]",
";~{]^,,&&/]^/[&&",
"(~]_.;_^.!+,,}&/",
"!={+<~;++==;/((!",
"~!=;|!(!|.1[&#%#",
"=.22222222223&&&",
",,44444444445:6/",
"!+44444444445778",
"[^555555555559.&",
"]]^/=.*=-;#^/=,0",
"]^,,'@%'&&!,,+^^",
",,;__.:]^.!;_]8_",
"aa;_+<~;++=;_|'=",
"bccddde'..+f(]^^",
"!g!g=*@$,@$$h'.=",
"]:|;i=j#>{:{+$,+",
".+@#$%.!-*=-;#>*",
",'==')@^/%'&&!-*",
"=~~={]^,,&&/]^/]",
"(;,!]_.;_^.!+,,.",
",={]{+<~;++==;/]",
";~,+=;|!(!|.1[&&",
"(~<@{]^,,&&/]^//",
"!=&:]_.;_^.!+,,!",
"~!^]{+<~;++==;/#",
"=.&{=;|!(!|.1[&&",
",,+=22222222223/",
"!+.(444444444458",
"[^&.44444444445&",
"]](+555555555550",
"]^(.^/=b]]^(=^/^",
",,,0,,'k&&lmn,,_",
"aa/o;_.:]^.!+;/=",
"bccd[+<~;++==[&^",
"!g!g=*@@@@$$h'.=",
"]:|;i=j.}{:{+$,+"};
