/* XPM */
static char * titleAM_xpm[] = {
"6 20 57 1",
" 	c None",
".	c #94421C",
"+	c #8C4224",
"@	c #8C3A14",
"#	c #843A14",
"$	c #7C2E0C",
"%	c #641E04",
"&	c #7C3214",
"*	c #6C1A04",
"=	c #842E0B",
"-	c #7C2604",
";	c #6C1E04",
">	c #8C3A1C",
",	c #843A1C",
"'	c #7C320C",
")	c #641A04",
"!	c #843614",
"~	c #7C2A09",
"{	c #7C2E14",
"]	c #8C3614",
"^	c #742604",
"/	c #641604",
"(	c #74260C",
"_	c #9C4A2C",
":	c #742A0C",
"<	c #843A24",
"[	c #7C321C",
"}	c #540604",
"|	c #5C0E04",
"1	c #6C2204",
"2	c #4C0604",
"3	c #843214",
"4	c #84361C",
"5	c #5C1604",
"6	c #7C3A20",
"7	c #540E04",
"8	c #944624",
"9	c #842E14",
"0	c #540A04",
"a	c #84320C",
"b	c #944224",
"c	c #7C260C",
"d	c #6C1604",
"e	c #742204",
"f	c #640E04",
"g	c #641204",
"h	c #A4522E",
"i	c #A44E2C",
"j	c #741E04",
"k	c #943E14",
"l	c #8C360C",
"m	c #943E1C",
"n	c #9C4A24",
"o	c #943614",
"p	c #9C3E1E",
"q	c #842A08",
"r	c #7C2205",
".+@#$%",
"&*=-;%",
">$..,'",
")!~!={",
",;,]^,",
"//^(~_",
":<[:}~",
"|12/,3",
"4&5{:;",
"6748@9",
"209]a=",
"b!)>a]",
"=+cd_.",
"ef:=bg",
"+>=4$-",
">-*h]i",
"j.=.k~",
"lm~@]@",
".nmopq",
"~lr]@@"};
