/* XPM */
static char * titleIM_xpm[] = {
"6 20 30 1",
" 	c None",
".	c #AC9674",
"+	c #BC9E7C",
"@	c #BCA684",
"#	c #AC926C",
"$	c #B49E7C",
"%	c #B49A74",
"&	c #B49A7C",
"*	c #BCA27C",
"=	c #BCA284",
"-	c #B49674",
";	c #C4A684",
">	c #C4AA8C",
",	c #CCB28C",
"'	c #C4AE8C",
")	c #A48E6C",
"!	c #C4AA84",
"~	c #CCAE8C",
"{	c #CCB294",
"]	c #CCB68C",
"^	c #B49E74",
"/	c #B4A27C",
"(	c #BCAA84",
"_	c #C4B694",
":	c #C4B28C",
"<	c #BCB28C",
"[	c #CCBA94",
"}	c #D4BE9C",
"|	c #BCA67C",
"1	c #C4A27C",
".+@+.#",
"+$%&**",
"*=*--*",
"$*;$%=",
"+$%*>,",
";;$-%+",
"'';-).",
"!;=*!~",
"##-=',",
";@*@!>",
"=+%%+*",
";*=+@;",
"{]{'!@",
",{,,;+",
"!>,';@",
".-%%%^",
"/(__:<",
"::][[}",
"$*=|=|",
">~,~1$"};
