/* XPM */
static char * titleAT_xpm[] = {
"92 20 137 2",
"  	c None",
". 	c #94421C",
"+ 	c #8C4224",
"@ 	c #8C3A14",
"# 	c #843A14",
"$ 	c #7C2E0C",
"% 	c #641E04",
"& 	c #843E24",
"* 	c #7C321C",
"= 	c #7C3214",
"- 	c #74321C",
"; 	c #641A04",
"> 	c #5C1604",
", 	c #742A14",
"' 	c #742A0C",
") 	c #6C2604",
"! 	c #540A04",
"~ 	c #843A1C",
"{ 	c #4C0A04",
"] 	c #843A24",
"^ 	c #6C2A0C",
"/ 	c #6C260C",
"( 	c #843E1C",
"_ 	c #7C3614",
": 	c #74361C",
"< 	c #5C1E04",
"[ 	c #440204",
"} 	c #4C0204",
"| 	c #84361C",
"1 	c #4C0E04",
"2 	c #6C2204",
"3 	c #642209",
"4 	c #7C320C",
"5 	c #944624",
"6 	c #8C360C",
"7 	c #9C4214",
"8 	c #842E0B",
"9 	c #842E14",
"0 	c #7C2E14",
"a 	c #540E04",
"b 	c #6C1A04",
"c 	c #944224",
"d 	c #742604",
"e 	c #944A2C",
"f 	c #6C1E04",
"g 	c #A4522E",
"h 	c #9C4A34",
"i 	c #8C3A1C",
"j 	c #7C2A09",
"k 	c #5C0A04",
"l 	c #365920",
"m 	c #743214",
"n 	c #7C3A20",
"o 	c #8C4628",
"p 	c #74260C",
"q 	c #541604",
"r 	c #742E13",
"s 	c #5C1A04",
"t 	c #5C1204",
"u 	c #84320C",
"v 	c #843214",
"w 	c #641604",
"x 	c #944E2F",
"y 	c #8C3614",
"z 	c #843614",
"A 	c #9C4E2E",
"B 	c #741E04",
"C 	c #641204",
"D 	c #6C1604",
"E 	c #7C2604",
"F 	c #640E04",
"G 	c #9C4625",
"H 	c #6C2A14",
"I 	c #4C0604",
"J 	c #9C4A24",
"K 	c #9C3E14",
"L 	c #540604",
"M 	c #8C320C",
"N 	c #5C0E04",
"O 	c #94461C",
"P 	c #9C4A2C",
"Q 	c #6C220C",
"R 	c #9C4A1C",
"S 	c #9C421C",
"T 	c #741A04",
"U 	c #943A0C",
"V 	c #8C3E1C",
"W 	c #B45A34",
"X 	c #A44E24",
"Y 	c #6C2614",
"Z 	c #8C3E24",
"` 	c #843204",
" .	c #AC562C",
"..	c #AC522C",
"+.	c #5C0604",
"@.	c #742204",
"#.	c #84360C",
"$.	c #7C260C",
"%.	c #943E1C",
"&.	c #9C461B",
"*.	c #943E14",
"=.	c #540204",
"-.	c #A44A24",
";.	c #AC4E24",
">.	c #AC5A2C",
",.	c #AC4E2C",
"'.	c #A44E2C",
").	c #B46240",
"!.	c #AC5A35",
"~.	c #641E0C",
"{.	c #A45224",
"].	c #AC5224",
"^.	c #A44E1C",
"/.	c #A44A1C",
"(.	c #742614",
"_.	c #943E24",
":.	c #A4461C",
"<.	c #9C4224",
"[.	c #943614",
"}.	c #7C2205",
"|.	c #6C1204",
"1.	c #640A04",
"2.	c #8C361C",
"3.	c #943A14",
"4.	c #BC5E34",
"5.	c #9C3E1E",
"6.	c #7C1E04",
"7.	c #8C3214",
"8.	c #842A08",
"9.	c #B45A2B",
"0.	c #A44A14",
"a.	c #A44624",
"b.	c #84321C",
"c.	c #6C0E04",
"d.	c #B45E3C",
"e.	c #AC5634",
"f.	c #8C3204",
". + @ # $ % & * = = - ; = > * , ' ) ! ~ { ] = $ ^ ; > / ( ~ _ : ^ / < % % [ ) } ( | ^ = / ^ ^ 1 % 2 3 2 > > % 4 5 6 7 8 @ $ 9 0 a + b c . @ | % d c c $ e f g . h ~ c i 4 f j d k ; 8 f ",
"l l l l l l l l l l l l l l l l l l l l l l l l l l l l l l l l l l l l l l l l l l l l l l l l l l l l l l l l l l l l l l l l l l l l l l l l l l l l l l l l l l l l l l l l l l l l ",
"i $ . . ~ 4 m / n m a o ( = = p q % ~ 0 ' r % / ^ ^ s % ) m 0 d ; ' ! ~ t ~ ~ u | $ $ ' # = = d ! ( c ~ b + i f . v | v _ w ! x e + c @ @ y w | = d ' f 2 = k 0 = w z v f = z = w f i y ",
"; z j z 8 0 a m 2 % % q % 1 ' a > # | = a n - % ~ ) > o ( ~ % n 0 ' ) d _ w @ v = > = c t A x e + ~ ~ d @ . B @ 8 d ' 2 2 ! $ f C c @ v d z ~ w . . + f z + i v 0 j D @ v $ E z = F . G ",
"~ f ~ y d ~ ~ > ~ = = H ^ = e + ~ z > = , f % I 2 % a f b ) t % d = 4 + c # % | r ) f % % ! b d w f z C J K J G . . w e | J + i i ; z 8 z u L c y M E ' F $ z N c c c i D c O . f c @ E ",
"w w d p j P + + ~ 2 n = - , t = I ~ ' | ~ ~ | = b u $ 9 f 8 d f 2 ! > 3 > > Q a a / I ) % > ' f ! @ @ B R . S . c i p u e J . z v 0 p a . i L . @ 6 T U 6 @ B . i . | f g g J 8 J . @ 9 ",
"' ] * ' L j d N 2 p > % a ! , I 0 ' d f ' N L c @ P $ V W g X . i _ 0 Y 2 n m > Z # > + = + $ e # P J . @ 6 8 u 8 B 0 v ` 8 f 8 w 4 2 # j f V g g y W  ...J . z E E f +.B 8 y @.#.u $.d ",
"N 2 I w ~ v f ~ ' / 2 r Q I + P c c i z | > @ y E y | w . . E . @ 0 = f ! ] ~ = ; ' f f $ 0 2 = ! ~ = f u E d d @.> 0 % f $ J y E J %.y $ w $ u N f 8 j B d D ; u u D ' &.j . *.z 0 b * ",
"| = > 0 ' f 0 w = % N - p 2 > L v 8 8 j f p ' @ c ~ z = ~ =.e . z 9 ' ; ' = p > $.P c i z 4 f % 4 0 f ; w A c @ z i $ L @ @ j 8 &.%.7 R J J . V i ' @ y ~ b J . -.G d J S 6 E $ 8 @.F f ",
"n a | 5 @ 9 / f w d s N d p w N + B @ P c z 9 d f > 2 ; % % % a 2 > f f I r f 8 d v ; i f . d J V f V z = w V E R &.j R . 8 X R . ;.>.,.J %.$ c . 8 . '.f ).!.X J . %.F X ;.R @ . . y $ ",
"I ! 9 y u 8 N ; + + = % P . + $ @ 8 D u D v d = 0 ; , p 3 < , ~.3 f ' + + w + c @ i N | {.G . @ 4 8 2 $ ~ % z j >.].6 ..&.. . 6 6 8 8 8 @.B y j u E 8 u D 2 *.@ E f P %.7 *.@.G ;.&.. j ",
"c z ; i u y v N V i @ y w + + 6 f @ 8 j z = p j d 2 b ; ; * ; ~ | ' d J # g 5 i 0 ' B C $.F j u 9 f | = * N @ 6 8 6 j N . ^.. {./.&.;.R J @.].&.7 U u 8 $ B $ j b $.(.$.@.b D . X . y E ",
"8 + $.D P . u c @ d %.. #.$ R f {.G . @ y p 8 | P V c = p ' w w N c V 6 8 8 F 0 y L p g P . _.z ' ' f w N d g R ;.R . y 6 ` C y u y b . '.E  .].:.X G @ @ j B @.f f k w P %.c i 8 @.g @.",
"@.F ' 8 c C '.G j -.J . T &.7 . @ u . %.i f P . i v = 9 = , f 4 ' z C N g X J $.!.. !.g P <.%.i z 0 ' = F y B B 7 {.U {.;.R 8 J . c p B g '.&.S @ [.U E . F '.c <.i | v F c i $.. @ y }.",
"+ i 8 | $ E $ D B y &.B >.g /.7 @ B @ 8 B u @.8 8 p 8 p @.w @ y y u v 4 8 8 p j f B B k B E N z = $ w f g g X @ ^./.&.6 &.. y 8 w j w ; u |.@ B 8 . 6 '.J i u 1.y M F B . 2.b $.:.3.8 E ",
"i E b g y './.&.. J B '.P F 4.>.>.g &.{.R %.z u ! Z c 2.f J !.g ..J . . y z 9 t | ; v 8 B 0 = ; i # 8 S j X R %.@ 8 E j B B @.d f 2 @.F @.F @ U B %.S @ 9 8 B u b 8 i %.5.B 6  .7  .;.g ",
"B . 8 . *.j . 5.M B . @ @.E . U 1.R 6./.. V u z 0 ; v C @ 6 D @ *.E 5.. B + 0 ' ' N 0 C 0 u f | t B G R &.. @.. 3.@ @ B d c i V V d @ A '.R 3.G @ 7.u 7.8 T E J %.. 5.|.8.9.].;.0.:.|.a.",
"6 %.j @ y @ E C &.M &.. y z 9 C 6 E @ 6 D j %.z 9 ; b.N i v f y 0 C E @ v 8 9 j f p B B 2 +.N $ @ 6 v D B R &.6 @...J G y . @ f i @.i j @ y B u 8 E B v @.E 8 8 ;.&.T '.&.:.R b 7 :.. [.",
"l l l l l l l l l l l l l l l l l l l l l l l l l l l l l l l l l l l l l l l l l l l l l l l l l l l l l l l l l l l l l l l l l l l l l l l l l l l l l l l l l l l l l l l l l l l l ",
"j 6 }.y @ @ c.j ;.J <.j u P S @ y y M E %.j . B J . *.@ @ 3.E U E . z 8 d v 0 $.F u C F . @ 6 8 j @.N b.D B . *.B 3.K X P B d.g ..'.X /.k e.e.a.. y i %.T a.:.:.}.X %.,.R f.X f.X a.5.}."};
