/* XPM */
static char * maximizeunfocused_xpm[] = {
"16 44 7 1",
" 	c None",
".	c #4C4C4C",
"+	c #CCCCCC",
"@	c #B3B2B0",
"#	c #AAA9A8",
"$	c #777675",
"%	c #CCCBCA",
"................",
"++++++++++++++++",
"@@@@@@@@@@@@@@@@",
"@@@@@@@@@@@@@@@@",
"@@@@@@@@@@@@@@@@",
"@@@@@@@@@@@@@@@@",
"@@@@@@@@@@@@@@@@",
"@@@########@@@@@",
"@@@#$$$$$$$%@@@@",
"@@@#$$$$$$$%@@@@",
"@@@#$%%%%@$%@@@@",
"@@@#$%@@@#$%@@@@",
"@@@#$%@@@#$%@@@@",
"@@@#$@####$%@@@@",
"@@@#$$$$$$$%@@@@",
"@@@@%%%%%%%%@@@@",
"@@@@@@@@@@@@@@@@",
"@@@@@@@@@@@@@@@@",
"@@@@@@@@@@@@@@@@",
"@@@@@@@@@@@@@@@@",
"@@@@@@@@@@@@@@@@",
"................",
"................",
"++++++++++++++++",
"@@@@@@@@@@@@@@@@",
"@@@@@@@@@@@@@@@@",
"@@@@@@@@@@@@@@@@",
"@@@@@@@@@@@@@@@@",
"@@@@@@@@@@@@@@@@",
"@@@########@@@@@",
"@@@#$$$$$$$%@@@@",
"@@@#$$$$$$$%@@@@",
"@@@#$%%%%@$%@@@@",
"@@@#$%@@@#$%@@@@",
"@@@#$%@@@#$%@@@@",
"@@@#$@####$%@@@@",
"@@@#$$$$$$$%@@@@",
"@@@@%%%%%%%%@@@@",
"@@@@@@@@@@@@@@@@",
"@@@@@@@@@@@@@@@@",
"@@@@@@@@@@@@@@@@",
"@@@@@@@@@@@@@@@@",
"@@@@@@@@@@@@@@@@",
"................"};
