/* XPM */
static char * menu_xpm[] = {
"22 44 9 1",
" 	c None",
".	c #000000",
"+	c #FFFFFF",
"@	c #CCCCCC",
"#	c #B3B2B0",
"$	c #999999",
"%	c #AAAAA8",
"&	c #7A7978",
"*	c #CBCAC9",
"......................",
".+++++++++++++++++++++",
".+@@@@@@@@@@@@@@@@@@@@",
".+@###################",
".+@###################",
".+@###################",
".+@###################",
".+@#####$$$#$$$#######",
".+@#####$..+$..+######",
".+@#####$..+$..+######",
".+@######+++#+++######",
".+@#####$$$#$$$#######",
".+@#####$..+$..+######",
".+@#####$..+$..+######",
".+@######+++#+++######",
".+@###################",
".+@###################",
".+@###################",
".+@###################",
".+@###################",
".+@$$$$$$$$$$$$$$$$$$$",
"......................",
"......................",
".+++++++++++++++++++++",
".+@@@@@@@@@@@@@@@@@@@@",
".+@###################",
".+@###################",
".+@###################",
".+@###################",
".+@###################",
".+@######%%%#%%%######",
".+@######%&&*%&&*#####",
".+@######%&&*%&&*#####",
".+@#######***#***#####",
".+@######%%%#%%%######",
".+@######%&&*%&&*#####",
".+@######%&&*%&&*#####",
".+@#######***#***#####",
".+@###################",
".+@###################",
".+@###################",
".+@###################",
".+@$$$$$$$$$$$$$$$$$$$",
"......................"};
