/* XPM */
static char * menuunfocused_xpm[] = {
"22 44 7 1",
" 	c None",
".	c #4C4C4C",
"+	c #CCCCCC",
"@	c #B3B2B0",
"#	c #AAAAA8",
"$	c #7A7978",
"%	c #CBCAC9",
"......................",
".+++++++++++++++++++++",
".+@@@@@@@@@@@@@@@@@@@@",
".+@@@@@@@@@@@@@@@@@@@@",
".+@@@@@@@@@@@@@@@@@@@@",
".+@@@@@@@@@@@@@@@@@@@@",
".+@@@@@@@@@@@@@@@@@@@@",
".+@@@@@@###@###@@@@@@@",
".+@@@@@@#$$%#$$%@@@@@@",
".+@@@@@@#$$%#$$%@@@@@@",
".+@@@@@@@%%%@%%%@@@@@@",
".+@@@@@@###@###@@@@@@@",
".+@@@@@@#$$%#$$%@@@@@@",
".+@@@@@@#$$%#$$%@@@@@@",
".+@@@@@@@%%%@%%%@@@@@@",
".+@@@@@@@@@@@@@@@@@@@@",
".+@@@@@@@@@@@@@@@@@@@@",
".+@@@@@@@@@@@@@@@@@@@@",
".+@@@@@@@@@@@@@@@@@@@@",
".+@@@@@@@@@@@@@@@@@@@@",
".+@@@@@@@@@@@@@@@@@@@@",
"......................",
"......................",
".+++++++++++++++++++++",
".+@@@@@@@@@@@@@@@@@@@@",
".+@@@@@@@@@@@@@@@@@@@@",
".+@@@@@@@@@@@@@@@@@@@@",
".+@@@@@@@@@@@@@@@@@@@@",
".+@@@@@@@@@@@@@@@@@@@@",
".+@@@@@@###@###@@@@@@@",
".+@@@@@@#$$%#$$%@@@@@@",
".+@@@@@@#$$%#$$%@@@@@@",
".+@@@@@@@%%%@%%%@@@@@@",
".+@@@@@@###@###@@@@@@@",
".+@@@@@@#$$%#$$%@@@@@@",
".+@@@@@@#$$%#$$%@@@@@@",
".+@@@@@@@%%%@%%%@@@@@@",
".+@@@@@@@@@@@@@@@@@@@@",
".+@@@@@@@@@@@@@@@@@@@@",
".+@@@@@@@@@@@@@@@@@@@@",
".+@@@@@@@@@@@@@@@@@@@@",
".+@@@@@@@@@@@@@@@@@@@@",
".+@@@@@@@@@@@@@@@@@@@@",
"......................"};
