/* XPM */
static char * middletitlebarthing_xpm[] = {
"158 22 6 1",
" 	c None",
".	c #111111",
"+	c #FBFBFB",
"@	c #EFEFEF",
"#	c #E6E6E6",
"$	c #94849D",
"..............................................................................................................................................................",
"++++++++++++++++++++++++++++++++++++++++++++++++++++++++++++++++++++++++++++++++++++++++++++++++++++++++++++++++++++++++++++++++++++++++++++++++++++++++++++++",
"@@@@@@@@@@@@@@@@@@@@@@@@@@@@@@@@@@@@@@@@@@@@@@@@@@@@@@@@@@@@@@@@@@@@@@@@@@@@@@@@@@@@@@@@@@@@@@@@@@@@@@@@@@@@@@@@@@@@@@@@@@@@@@@@@@@@@@@@@@@@@@@@@@@@@@@@@@@@@@",
"##############################################################################################################################################################",
"##############################################################################################################################################################",
"##############################################################################################################################################################",
"##############################################################################################################################################################",
"##############################################################################################################################################################",
"##############################################################################################################################################################",
"##############################################################################################################################################################",
"##############################################################################################################################################################",
"##############################################################################################################################################################",
"##############################################################################################################################################################",
"##############################################################################################################################################################",
"##############################################################################################################################################################",
"##############################################################################################################################################################",
"##############################################################################################################################################################",
"##############################################################################################################################################################",
"##############################################################################################################################################################",
"##############################################################################################################################################################",
"$$$$$$$$$$$$$$$$$$$$$$$$$$$$$$$$$$$$$$$$$$$$$$$$$$$$$$$$$$$$$$$$$$$$$$$$$$$$$$$$$$$$$$$$$$$$$$$$$$$$$$$$$$$$$$$$$$$$$$$$$$$$$$$$$$$$$$$$$$$$$$$$$$$$$$$$$$$$$$",
".............................................................................................................................................................."};
