/* XPM */
static char * expand_xpm[] = {
"12 21 40 1",
" 	c None",
".	c #6675BD",
"+	c #6371B8",
"@	c #233176",
"#	c #5D6BB3",
"$	c #858585",
"%	c #5866AE",
"&	c #888888",
"*	c #5362AB",
"=	c #8C8C8C",
"-	c #4C5BA6",
";	c #919191",
">	c #4857A2",
",	c #969696",
"'	c #43529F",
")	c #9D9D9D",
"!	c #3E4D9B",
"~	c #A6A6A6",
"{	c #3A4A98",
"]	c #AEAEAE",
"^	c #384796",
"/	c #B5B5B5",
"(	c #344493",
"_	c #BDBDBD",
":	c #32418F",
"<	c #C6C6C6",
"[	c #303F8C",
"}	c #CDCDCD",
"|	c #2E3C87",
"1	c #D2D2D2",
"2	c #2A3983",
"3	c #D9D9D9",
"4	c #28367E",
"5	c #E1E1E1",
"6	c #253379",
"7	c #ECECEC",
"8	c #F1F1F1",
"9	c #212E72",
"0	c #465293",
"a	c #1E2C6F",
"............",
"+++@@@@@@+++",
"##@@$$$$@@##",
"%%@&&&&&&@%%",
"**@======@**",
"--@;;;;;;@--",
">>@,,,,,,@>>",
"''@))))))@''",
"!!@~~~~~~@!!",
"{{@]]]]]]@{{",
"^^@//////@^^",
"((@______@((",
"::@<<<<<<@::",
"[[@}}}}}}@[[",
"||@111111@||",
"22@333333@22",
"44@555555@44",
"66@777777@66",
"@@@@8888@@@@",
"990999999099",
"aaa000000aaa"};
