/* XPM */
static char * icewm_xpm[] = {
"50 17 18 1",
" 	c None",
".	c #253277",
"+	c #848FC4",
"@	c #2D3B82",
"#	c #384794",
"$	c #43529F",
"%	c #D5D5D5",
"&	c #5160AB",
"*	c #5866B0",
"=	c #5F6EB8",
"-	c #6A78C1",
";	c #7482C8",
">	c #7F8CCF",
",	c #7886CB",
"'	c #8793D4",
")	c #929ED9",
"!	c #9CA8E0",
"~	c #A5B0E5",
"   ............................................   ",
"  .++++++++++++++++++++++++++++++++++++++++++++.  ",
" .+@@@@@@@@@@@@@@@@@@@@@@@@@@@@@@@@@@@@@@@@@@@@+. ",
".+###...####...#################################+.",
".+$$.%%%.$$.%%%.$$$$$$$$$$$$$$$$$$$$$$$$$$$$$$$$+.",
".+&&.%%%.&&.%%%.&&&.....&&&&.......&&&..&&&..&&&+.",
".+**.%%%%..%%%%.**.%%%%%.**.%%%%%%%.*.%%.*.%%.**+.",
".+==.%%%%..%%%%.=.%%%.%%%.=.%%%.%%%.=.%%.=.%%.==+.",
".+--.%%.%%%%.%%.-.%%...%%.-.%%.=.%%.-.%%.-.%%.--+.",
".+;;.%%.%%%%.%%.;.%%%%%%%.;.%%.-.%%.;.%%.;.%%.;;+.",
".+>>.%%..%%..%%.>.%%.....,>.%%.;.%%.>.%%.>.%%.>>+.",
".+''.%%.'..'.%%.'.%%%..%%.'.%%.'.%%.'.%%%.%%%.''+.",
".+)).%%.)))).%%.)).%%%%%.)).%%.).%%.)).%%%%%%.))+.",
".+!!!..!!!!!!..!!!!.....!!!!..!!!..!!!!......!!!+.",
" .+~~~~~~~~~~~~~~~~~~~~~~~~~~~~~~~~~~~~~~~~~~~~+. ",
"  .++++++++++++++++++++++++++++++++++++++++++++.  ",
"   ............................................   "};
