/* XPM */
static char * taskbuttonactive_xpm[] = {
"1 25 26 1",
" 	c None",
".	c #6F6F6F",
"+	c #7B7B7B",
"@	c #858585",
"#	c #888888",
"$	c #8C8C8C",
"%	c #919191",
"&	c #969696",
"*	c #9D9D9D",
"=	c #A6A6A6",
"-	c #AEAEAE",
";	c #B5B5B5",
">	c #BDBDBD",
",	c #C6C6C6",
"'	c #CDCDCD",
")	c #D2D2D2",
"!	c #D9D9D9",
"~	c #E1E1E1",
"{	c #ECECEC",
"]	c #F1F1F1",
"^	c #F6F6F6",
"/	c #3F3F3F",
"(	c #253379",
"_	c #233176",
":	c #212E72",
"<	c #1E2C6F",
".",
"+",
"@",
"#",
"$",
"%",
"&",
"*",
"=",
"-",
";",
">",
",",
"'",
")",
"!",
"~",
"{",
"]",
"^",
"/",
"(",
"_",
":",
"<"};
