/* XPM */
static char * workspacebuttonactive_xpm[] = {
"26 26 48 1",
" 	c None",
".	c #7987CF",
"+	c #515FA9",
"@	c #7381C9",
"#	c #14205E",
"$	c #6C7AC3",
"%	c #6F6F6F",
"&	c #6675BD",
"*	c #7B7B7B",
"=	c #6371B8",
"-	c #858585",
";	c #5D6BB3",
">	c #888888",
",	c #5866AE",
"'	c #8C8C8C",
")	c #5362AB",
"!	c #919191",
"~	c #4C5BA6",
"{	c #969696",
"]	c #4857A2",
"^	c #9D9D9D",
"/	c #43529F",
"(	c #A6A6A6",
"_	c #3E4D9B",
":	c #AEAEAE",
"<	c #3A4A98",
"[	c #B5B5B5",
"}	c #384796",
"|	c #BDBDBD",
"1	c #344493",
"2	c #C6C6C6",
"3	c #32418F",
"4	c #CDCDCD",
"5	c #303F8C",
"6	c #D2D2D2",
"7	c #2E3C87",
"8	c #D9D9D9",
"9	c #2A3983",
"0	c #E1E1E1",
"a	c #28367E",
"b	c #ECECEC",
"c	c #253379",
"d	c #F1F1F1",
"e	c #233176",
"f	c #F6F6F6",
"g	c #212E72",
"h	c #465293",
"i	c #1E2C6F",
"..........................",
"...++++++++++++++++++++...",
"@@+####################+@@",
"$+##%%%%%%%%%%%%%%%%%%##+$",
"&+#********************#+&",
"=+#--------------------#+=",
";+#>>>>>>>>>>>>>>>>>>>>#+;",
",+#''''''''''''''''''''#+,",
")+#!!!!!!!!!!!!!!!!!!!!#+)",
"~+#{{{{{{{{{{{{{{{{{{{{#+~",
"]+#^^^^^^^^^^^^^^^^^^^^#+]",
"/+#((((((((((((((((((((#+/",
"_+#::::::::::::::::::::#+_",
"<+#[[[[[[[[[[[[[[[[[[[[#+<",
"}+#||||||||||||||||||||#+}",
"1+#22222222222222222222#+1",
"3+#44444444444444444444#+3",
"5+#66666666666666666666#+5",
"7+#88888888888888888888#+7",
"9+#00000000000000000000#+9",
"a+#bbbbbbbbbbbbbbbbbbbb#+a",
"c+#dddddddddddddddddddd#+c",
"e+##ffffffffffffffffff##+e",
"ggh####################hgg",
"iiihhhhhhhhhhhhhhhhhhhhiii",
"iiiiiiiiiiiiiiiiiiiiiiiiii"};
