/* XPM */
static char * closeO_xpm[] = {
"25 50 220 2",
"  	c None",
". 	c #394039",
"+ 	c #4A3C4A",
"@ 	c #414041",
"# 	c #393C4A",
"$ 	c #4A3C39",
"% 	c #413C41",
"& 	c #524052",
"* 	c #413841",
"= 	c #413E44",
"- 	c #404047",
"; 	c #3F494E",
"> 	c #3D4851",
", 	c #3D4A53",
"' 	c #3D4B54",
") 	c #3E4651",
"! 	c #3F444A",
"~ 	c #414047",
"{ 	c #303E3B",
"] 	c #3C4957",
"^ 	c #2C565F",
"/ 	c #365F76",
"( 	c #2D6374",
"_ 	c #35657E",
": 	c #2D6677",
"< 	c #35667F",
"[ 	c #2D6271",
"} 	c #2D5F6D",
"| 	c #375669",
"1 	c #30494C",
"2 	c #3C3E48",
"3 	c #4A384A",
"4 	c #393439",
"5 	c #313431",
"6 	c #384654",
"7 	c #072426",
"8 	c #0C383C",
"9 	c #0E4A4F",
"0 	c #11565B",
"a 	c #135A61",
"b 	c #125D62",
"c 	c #135D63",
"d 	c #0B383D",
"e 	c #072327",
"f 	c #2D464A",
"g 	c #312C31",
"h 	c #393039",
"i 	c #2A4D5B",
"j 	c #6AB9CF",
"k 	c #6FBDD2",
"l 	c #72BFD5",
"m 	c #75C2D7",
"n 	c #74C6DA",
"o 	c #74C6E1",
"p 	c #78CBE3",
"q 	c #7CCFE5",
"r 	c #80CFE7",
"s 	c #7ED1E6",
"t 	c #7BCCE3",
"u 	c #78C9E0",
"v 	c #7BC8DC",
"w 	c #79C5D9",
"x 	c #71BFD4",
"y 	c #335064",
"z 	c #292C31",
"A 	c #2E596F",
"B 	c #73BBCF",
"C 	c #000000",
"D 	c #000206",
"E 	c #000C1D",
"F 	c #011938",
"G 	c #00234A",
"H 	c #001E43",
"I 	c #011C3C",
"J 	c #79C0D4",
"K 	c #275567",
"L 	c #292829",
"M 	c #312831",
"N 	c #202C29",
"O 	c #24586C",
"P 	c #11545B",
"Q 	c #7BBCCE",
"R 	c #000202",
"S 	c #012E5D",
"T 	c #034FA0",
"U 	c #055FB8",
"V 	c #0558AE",
"W 	c #0351A2",
"X 	c #81C1D3",
"Y 	c #245C6C",
"Z 	c #292C29",
"` 	c #202429",
" .	c #285B72",
"..	c #82BDCD",
"+.	c #00020A",
"@.	c #011B38",
"#.	c #0450A0",
"$.	c #33AAFD",
"%.	c #33A0FD",
"&.	c #88C2D2",
"*.	c #23576B",
"=.	c #202420",
"-.	c #202020",
";.	c #313031",
">.	c #313039",
",.	c #275F71",
"'.	c #135C63",
").	c #83B7C6",
"!.	c #00050A",
"~.	c #00244A",
"{.	c #0761B8",
"].	c #43ACFD",
"^.	c #8FC2D0",
"/.	c #2D5F77",
"(.	c #000408",
"_.	c #0B4256",
":.	c #7DAAB8",
"<.	c #002043",
"[.	c #085CAE",
"}.	c #89B7C4",
"|.	c #0B4257",
"1.	c #7298A2",
"2.	c #011E3C",
"3.	c #0555A2",
"4.	c #8AB0BC",
"5.	c #68828B",
"6.	c #00060A",
"7.	c #095EAE",
"8.	c #7E9DA6",
"9.	c #0A4155",
"0.	c #586970",
"a.	c #00264A",
"b.	c #0A67B8",
"c.	c #6D858B",
"d.	c #0B4155",
"e.	c #0A3D52",
"f.	c #444E52",
"g.	c #021E38",
"h.	c #0857A0",
"i.	c #5C676A",
"j.	c #0A3F53",
"k.	c #09384B",
"l.	c #0F4A50",
"m.	c #2D2E33",
"n.	c #000D1D",
"o.	c #04345D",
"p.	c #0958A0",
"q.	c #0C69B8",
"r.	c #0C61AE",
"s.	c #075AA2",
"t.	c #0C62AE",
"u.	c #03345D",
"v.	c #404748",
"w.	c #09384C",
"x.	c #000008",
"y.	c #082B39",
"z.	c #0F1010",
"A.	c #000E1D",
"B.	c #021D38",
"C.	c #00284A",
"D.	c #002243",
"E.	c #02203C",
"F.	c #1F2021",
"G.	c #041214",
"H.	c #135D66",
"I.	c #135F66",
"J.	c #02090A",
"K.	c #051D1F",
"L.	c #082529",
"M.	c #092A2F",
"N.	c #0A2E32",
"O.	c #0A2F33",
"P.	c #413C4A",
"Q.	c #393C41",
"R.	c #313839",
"S.	c #39445A",
"T.	c #394462",
"U.	c #314862",
"V.	c #394862",
"W.	c #314462",
"X.	c #294452",
"Y.	c #414462",
"Z.	c #313C41",
"`.	c #393841",
" +	c #010E0F",
".+	c #020D0E",
"++	c #010B0B",
"@+	c #000909",
"#+	c #000808",
"$+	c #000708",
"%+	c #000707",
"&+	c #020C0E",
"*+	c #010D0F",
"=+	c #293839",
"-+	c #393852",
";+	c #413C5A",
">+	c #293C52",
",+	c #20384A",
"'+	c #29385A",
")+	c #000809",
"!+	c #293C5A",
"~+	c #203852",
"{+	c #18344A",
"]+	c #313C5A",
"^+	c #393C62",
"/+	c #001829",
"(+	c #081831",
"_+	c #081839",
":+	c #001429",
"<+	c #010A0B",
"[+	c #001018",
"}+	c #000A0B",
"|+	c #000D0E",
"1+	c #020E0F",
"2+	c #020D0F",
"3+	c #020D10",
"4+	c #020E10",
"5+	c #000103",
"6+	c #00090A",
"7+	c #000B0B",
". + @ + . + @ + . # @ + . $ @ + . $ @ + . + @ % & ",
"* % = - ; > , ' ' ' ' ' ' ' ' ' ' ' , ) ! ~ = % * ",
"* * { ] ^ / ( _ : < : < : < : < : _ [ } | 1 2 * 3 ",
"4 5 6 7 8 9 0 a b c c c c c c c c a 0 9 d e f 4 4 ",
"g h i d j k l m n o p q r s t u v w m m x d y h 4 ",
"g z A 9 B C C D E F G H I H G F E D C C J 9 K L L ",
"M N O P Q C R E S T U V W V U T S E R C X 0 Y Z g ",
"L `  .a ..C +.@.#.$.%.$.C $.%.$.#.@.+.C &.a *.=.-.",
";.>.,.'.).C !.~.{.%.].%.C %.].%.{.~.!.C ^.c /.g h ",
"C (._.c :.C !.<.[.$.%.$.C $.%.$.[.<.!.C }.c |.C C ",
"C (._.c 1.C +.2.3.C C C ].C C C 3.2.+.C 4.c |.C C ",
"C (._.'.5.C 6.<.7.$.%.$.C $.%.$.7.<.6.C 8.c _.C C ",
"C (.9.a 0.C 6.a.b.%.].%.C %.].%.b.a.6.C c.a d.C C ",
"C (.e.P f.C +.g.h.$.%.$.C $.%.$.h.g.+.C i.0 j.C C ",
"C (.k.l.m.C R n.o.p.q.r.s.t.q.p.u.n.R C v.l.w.C C ",
"C x.y.d z.C C D A.B.C.D.E.D.C.B.A.D C C F.d y.C C ",
"C C G.7 8 9 0 a b H.I.I.H.I.I.H.c a 0 9 d e G.C C ",
"C C J.G.K.L.M.N.O.O.O.O.O.O.O.O.O.N.M.L.K.G.J.C C ",
"C C C C C C C C C C C C C C C C C C C C C C C C C ",
"C C C C C C C C C C C C C C C C C C C C C C C C C ",
"C C C C C C C C C C C C C C C C C C C C C C C C C ",
"C C C C C C C C C C C C C C C C C C C C C C C C C ",
"C C C C C C C C C C C C C C C C C C C C C C C C C ",
"C C C C C C C C C C C C C C C C C C C C C C C C C ",
"C C C C C C C C C C C C C C C C C C C C C C C C C ",
". + @ + . + @ + . # @ + . $ @ + . $ @ + . + @ % & ",
"* % * % @ P.Q.P.Q.P.Q.P.Q.P.Q.P.Q.P.Q.P.* % * % * ",
"* * R.# S.T.U.T.V.T.U.T.V.T.U.T.V.T.W.X.Y.Z.* * 3 ",
"4 5 `. +.+++@+#+$+%+%+%+%+%+%+%+%+#+@+++&+*+=+4 4 ",
"g h -+&+j k l m n o p q r s t u v w m m x &+;+h 4 ",
"g z >+++B C C D E F G H I H G F E D C C J ++,+L L ",
"M N '+)+Q C R E S T U V W V U T S E R C X @+!+Z g ",
"L ` ~+#+..C +.@.#.$.%.$.C $.%.$.#.@.+.C &.#+{+=.-.",
";.>.]+%+).C !.~.{.%.].%.C %.].%.{.~.!.C ^.%+^+g h ",
"C (./+%+:.C !.<.[.$.%.$.C $.%.$.[.<.!.C }.%+/+C C ",
"C (.(+%+1.C +.2.3.C C C ].C C C 3.2.+.C 4.%+(+C C ",
"C (./+%+5.C 6.<.7.$.%.$.C $.%.$.7.<.6.C 8.%+/+C C ",
"C (._+#+0.C 6.a.b.%.].%.C %.].%.b.a.6.C c.#+_+C C ",
"C (.:+)+f.C +.g.h.$.%.$.C $.%.$.h.g.+.C i.@+/+C C ",
"C (.(+<+m.C R n.o.p.q.r.s.t.q.p.u.n.R C v.<+(+C C ",
"C x.[+&+z.C C D A.B.C.D.E.D.C.B.A.D C C F.&+[+C C ",
"C C C  +.+++@+#+$+%+%+%+%+%+%+%+%+#+@+++&+*+(.C C ",
"C C C }+|+1+2+3+4+4+4+4+4+4+4+4+4+3+2+1+|+}+C C C ",
"C C C 5+%+6+7+}+}+}+}+}+}+}+}+}+}+}+7+6+%+5+C C C ",
"C C C C C C C C C C C C C C C C C C C C C C C C C ",
"C C C C C C C C C C C C C C C C C C C C C C C C C ",
"C C C C C C C C C C C C C C C C C C C C C C C C C ",
"C C C C C C C C C C C C C C C C C C C C C C C C C ",
"C C C C C C C C C C C C C C C C C C C C C C C C C ",
"C C C C C C C C C C C C C C C C C C C C C C C C C "};
