/* XPM */
static char * closeA_xpm[] = {
"25 50 98 2",
"  	c None",
". 	c #394039",
"+ 	c #4A3C4A",
"@ 	c #414041",
"# 	c #393C4A",
"$ 	c #4A3C39",
"% 	c #413C41",
"& 	c #524052",
"* 	c #413841",
"= 	c #413C4A",
"- 	c #393C41",
"; 	c #313839",
"> 	c #39445A",
", 	c #394462",
"' 	c #314862",
") 	c #394862",
"! 	c #314462",
"~ 	c #294452",
"{ 	c #414462",
"] 	c #313C41",
"^ 	c #4A384A",
"/ 	c #393439",
"( 	c #313431",
"_ 	c #393841",
": 	c #000000",
"< 	c #293839",
"[ 	c #312C31",
"} 	c #393039",
"| 	c #393852",
"1 	c #9C959C",
"2 	c #949594",
"3 	c #A49DA4",
"4 	c #9C999C",
"5 	c #A4A5AC",
"6 	c #9C9DAC",
"7 	c #ACAABD",
"8 	c #A4AAB4",
"9 	c #B4AEBD",
"0 	c #ACAEBD",
"a 	c #9CA1AC",
"b 	c #ACA5AC",
"c 	c #9C9D9C",
"d 	c #ACA1AC",
"e 	c #413C5A",
"f 	c #292C31",
"g 	c #293C52",
"h 	c #948D94",
"i 	c #000008",
"j 	c #000408",
"k 	c #001020",
"l 	c #001429",
"m 	c #20384A",
"n 	c #292829",
"o 	c #312831",
"p 	c #202C29",
"q 	c #29385A",
"r 	c #000400",
"s 	c #000810",
"t 	c #081C41",
"u 	c #083062",
"v 	c #084083",
"w 	c #083873",
"x 	c #083473",
"y 	c #003062",
"z 	c #A499A4",
"A 	c #293C5A",
"B 	c #292C29",
"C 	c #202429",
"D 	c #203852",
"E 	c #8B8D8B",
"F 	c #33AAFD",
"G 	c #33A0FD",
"H 	c #949194",
"I 	c #18344A",
"J 	c #202420",
"K 	c #202020",
"L 	c #313031",
"M 	c #313039",
"N 	c #313C5A",
"O 	c #43ACFD",
"P 	c #393C62",
"Q 	c #001829",
"R 	c #7B757B",
"S 	c #00386A",
"T 	c #838183",
"U 	c #081831",
"V 	c #736D73",
"W 	c #8B818B",
"X 	c #525052",
"Y 	c #6A696A",
"Z 	c #081839",
"` 	c #625962",
" .	c #393C39",
"..	c #201C20",
"+.	c #001018",
"@.	c #080808",
"#.	c #000410",
"$.	c #101010",
". + @ + . + @ + . # @ + . $ @ + . $ @ + . + @ % & ",
"* % * % @ = - = - = - = - = - = - = - = * % * % * ",
"* * ; # > , ' , ) , ' , ) , ' , ) , ! ~ { ] * * ^ ",
"/ ( _ : : : : : : : : : : : : : : : : : : : < / / ",
"[ } | : 1 2 3 4 5 6 7 8 9 8 0 a b c d 4 3 : e } / ",
"[ f g : h : : i j k l l k l l k j : : : 2 : m n n ",
"o p q : 1 : r s t u v w x w v y t s r : z : A B [ ",
"n C D : E : : k y F G F : F G F y k : : H : I J K ",
"L M N : h : j l v G O G : G O G v l j : z : P [ } ",
": j Q : R : : l S F G F : F G F S l : : T : Q : : ",
": j U : V : j k x : : : O : : : x k j : W : U : : ",
": j Q : X : : l w F G F : F G F w l : : Y : Q : : ",
": j Z : @ : j l v G O G : G O G v l j : ` : Z : : ",
": j l : B : : k y F G F : F G F y k : :  .: Q : : ",
": j U : ..: r s t u v w x w v y t s r : o : U : : ",
": i +.: @.: : : #.k l l k l l k #.i : : $.: +.: : ",
": : : : : : : : r : j j j r j i r : : : : : j : : ",
": : : : : : : : : : : : : : : : : : : : : : : : : ",
": : : : : : : : : : : : : : : : : : : : : : : : : ",
": : : : : : : : : : : : : : : : : : : : : : : : : ",
": : : : : : : : : : : : : : : : : : : : : : : : : ",
": : : : : : : : : : : : : : : : : : : : : : : : : ",
": : : : : : : : : : : : : : : : : : : : : : : : : ",
": : : : : : : : : : : : : : : : : : : : : : : : : ",
": : : : : : : : : : : : : : : : : : : : : : : : : ",
". + @ + . + @ + . # @ + . $ @ + . $ @ + . + @ % & ",
"* % * % @ = - = - = - = - = - = - = - = * % * % * ",
"* * ; # > , ' , ) , ' , ) , ' , ) , ! ~ { ] * * ^ ",
"/ ( _ : : : : : : : : : : : : : : : : : : : < / / ",
"[ } | : 1 2 3 4 5 6 7 8 9 8 0 a b c d 4 3 : e } / ",
"[ f g : h : : i j k l l k l l k j : : : 2 : m n n ",
"o p q : 1 : r s t u v w x w v y t s r : z : A B [ ",
"n C D : E : : k y F G F : F G F y k : : H : I J K ",
"L M N : h : j l v G O G : G O G v l j : z : P [ } ",
": j Q : R : : l S F G F : F G F S l : : T : Q : : ",
": j U : V : j k x : : : O : : : x k j : W : U : : ",
": j Q : X : : l w F G F : F G F w l : : Y : Q : : ",
": j Z : @ : j l v G O G : G O G v l j : ` : Z : : ",
": j l : B : : k y F G F : F G F y k : :  .: Q : : ",
": j U : ..: r s t u v w x w v y t s r : o : U : : ",
": i +.: @.: : : #.k l l k l l k #.i : : $.: +.: : ",
": : : : : : : : r : j j j r j i r : : : : : j : : ",
": : : : : : : : : : : : : : : : : : : : : : : : : ",
": : : : : : : : : : : : : : : : : : : : : : : : : ",
": : : : : : : : : : : : : : : : : : : : : : : : : ",
": : : : : : : : : : : : : : : : : : : : : : : : : ",
": : : : : : : : : : : : : : : : : : : : : : : : : ",
": : : : : : : : : : : : : : : : : : : : : : : : : ",
": : : : : : : : : : : : : : : : : : : : : : : : : ",
": : : : : : : : : : : : : : : : : : : : : : : : : "};
