/* XPM */
static char * dframeABL_xpm[] = {
"12 14 46 1",
" 	c None",
".	c #000000",
"+	c #837183",
"@	c #625D62",
"#	c #525052",
"$	c #5A595A",
"%	c #626562",
"&	c #7B6D7B",
"*	c #736973",
"=	c #626162",
"-	c #5A555A",
";	c #7B717B",
">	c #7B757B",
",	c #737173",
"'	c #837D83",
")	c #837983",
"!	c #6A656A",
"~	c #7B797B",
"{	c #6A6D6A",
"]	c #838183",
"^	c #393C39",
"/	c #6A696A",
"(	c #8B858B",
"_	c #8B898B",
":	c #948594",
"<	c #949194",
"[	c #948D94",
"}	c #7B7D7B",
"|	c #8B818B",
"1	c #8B8D8B",
"2	c #949594",
"3	c #948994",
"4	c #9C959C",
"5	c #9C999C",
"6	c #8B8583",
"7	c #8B918B",
"8	c #9C9D9C",
"9	c #A4A1A4",
"0	c #001820",
"a	c #A49DA4",
"b	c #ACA5AC",
"c	c #B4AAB4",
"d	c #B4B2B4",
"e	c #BDBABD",
"f	c #C5BEC5",
"g	c #001420",
".+@#$%#.....",
".&*#@=-.....",
".+;#$%#.....",
".&>,>',.....",
".+)!,>~.....",
".&'{,~]^....",
".+'/>~($....",
".&(,>'_'....",
".+:>~]_<@...",
".&[>}|1<2...",
".+1~'(345(..",
".&24]67489~.",
"0.&aabcddefd",
"g0.........."};
