/* XPM */
static char * frameATR_xpm[] = {
"12 27 61 1",
" 	c None",
".	c #000000",
"+	c #B4B2B4",
"@	c #C5BEC5",
"#	c #BDBABD",
"$	c #B4AAB4",
"%	c #ACA5AC",
"&	c #A49DA4",
"*	c #7B6D7B",
"=	c #4A3C4A",
"-	c #7B797B",
";	c #ACA1A4",
">	c #9C9D9C",
",	c #9C959C",
"'	c #949194",
")	c #8B8583",
"!	c #838183",
"~	c #413C41",
"{	c #413841",
"]	c #8B858B",
"^	c #9C999C",
"/	c #948994",
"(	c #837D83",
"_	c #8B8D8B",
":	c #837183",
"<	c #393839",
"[	c #4A404A",
"}	c #949594",
"|	c #8B818B",
"1	c #7B7D7B",
"2	c #7B757B",
"3	c #948D94",
"4	c #413441",
"5	c #393439",
"6	c #313431",
"7	c #625D62",
"8	c #8B898B",
"9	c #948594",
"0	c #393039",
"a	c #312C31",
"b	c #737173",
"c	c #292829",
"d	c #5A595A",
"e	c #6A696A",
"f	c #292C29",
"g	c #393C39",
"h	c #6A6D6A",
"i	c #292429",
"j	c #202420",
"k	c #6A656A",
"l	c #837983",
"m	c #313031",
"n	c #524C52",
"o	c #626162",
"p	c #525552",
"q	c #525052",
"r	c #7B717B",
"s	c #4A4C4A",
"t	c #5A555A",
"u	c #6A6D73",
"v	c #626562",
"..........  ",
"+@#++$%&&*. ",
"=-;>,')!,,*.",
"~{]^,/](-_:.",
"{<[}'_|123*.",
"4567'8!-29:.",
"060a(8(2b]*.",
"cacad]-2e(:.",
"fcfcg!-bh(*.",
"icjci-2bkl:.",
"amamab(2b2*.",
".....nopqb:.",
".....qodnr*.",
".....sotqr:.",
".....qodnr*.",
".....nopqu:.",
".....qodne*.",
".....sotne:.",
".....qodnk*.",
".....nopq7:.",
".....qodnd*.",
".....sotqp:.",
".....qodsq*.",
".....qvdqn:.",
".....to7qq*.",
".....qvdqn:.",
".....to7qq*."};
