/* XPM */
static char * frameAT_xpm[] = {
"8 2 5 1",
" 	c None",
".	c #000000",
"+	c #737173",
"@	c #736D73",
"#	c #7B6D7B",
"........",
"+@++@+#+"};
