/* XPM */
static char * menusep_xpm[] = {
"99 1 99 2",
"  	c None",
". 	c #2B607A",
"+ 	c #2B5F7A",
"@ 	c #2B5F79",
"# 	c #2A5E78",
"$ 	c #2A5D76",
"% 	c #2A5C76",
"& 	c #295C75",
"* 	c #295B74",
"= 	c #295A72",
"- 	c #285A71",
"; 	c #285970",
"> 	c #27586F",
", 	c #27576E",
"' 	c #27566E",
") 	c #26556D",
"! 	c #26546B",
"~ 	c #25546B",
"{ 	c #255369",
"] 	c #255268",
"^ 	c #255168",
"/ 	c #245066",
"( 	c #245065",
"_ 	c #234F64",
": 	c #224E63",
"< 	c #224D62",
"[ 	c #224C61",
"} 	c #224B61",
"| 	c #224B5F",
"1 	c #214A5E",
"2 	c #21495C",
"3 	c #20485C",
"4 	c #20475B",
"5 	c #1F465A",
"6 	c #1F4659",
"7 	c #1F4557",
"8 	c #1E4456",
"9 	c #1E4355",
"0 	c #1E4255",
"a 	c #1E4153",
"b 	c #1D4052",
"c 	c #1D4051",
"d 	c #1C3F50",
"e 	c #1C3E4F",
"f 	c #1C3E4E",
"g 	c #1B3D4D",
"h 	c #1B3C4C",
"i 	c #1A3B4B",
"j 	c #1A3A4A",
"k 	c #1A3949",
"l 	c #1A3848",
"m 	c #193847",
"n 	c #193746",
"o 	c #183645",
"p 	c #183543",
"q 	c #173443",
"r 	c #173342",
"s 	c #163340",
"t 	c #16323F",
"u 	c #16313E",
"v 	c #16303D",
"w 	c #152F3C",
"x 	c #152F3B",
"y 	c #152E3A",
"z 	c #142D39",
"A 	c #142C38",
"B 	c #132B37",
"C 	c #132A36",
"D 	c #132935",
"E 	c #122934",
"F 	c #122833",
"G 	c #112732",
"H 	c #112632",
"I 	c #112530",
"J 	c #11252F",
"K 	c #10242D",
"L 	c #10232D",
"M 	c #0F222C",
"N 	c #0F212A",
"O 	c #0F2029",
"P 	c #0E1F27",
"Q 	c #0E1E26",
"R 	c #0D1D26",
"S 	c #0D1C25",
"T 	c #0C1C23",
"U 	c #0C1B22",
"V 	c #0C1A21",
"W 	c #0B1920",
"X 	c #0B191F",
"Y 	c #0A181E",
"Z 	c #0A171D",
"` 	c #0A161C",
" .	c #09151B",
"..	c #09141A",
"+.	c #091419",
"@.	c #081318",
"#.	c #081216",
"$.	c #081115",
"%.	c #081015",
". + @ # $ % & * = - ; > , ' ) ! ~ { ] ^ / ( _ : < [ } | 1 2 3 4 5 6 7 8 9 0 a b c d e f g h i j k l m n o p q r s t u v w x y z A B C D E F G H I J K L M N N O P Q R S T U V W X Y Z `  ...+.@.#.$.%."};
