/* XPM */
static char * minimizeI_xpm[] = {
"25 50 21 1",
" 	c None",
".	c #4A404A",
"+	c #393C39",
"@	c #413841",
"#	c #413C41",
"$	c #393839",
"%	c #313831",
"&	c #393439",
"*	c #313431",
"=	c #413441",
"-	c #293429",
";	c #312C31",
">	c #393039",
",	c #292C29",
"'	c #292829",
")	c #292429",
"!	c #202420",
"~	c #202020",
"{	c #312831",
"]	c #313031",
"^	c #000000",
".+.+.+.+.+.+.+..+.+.+.+.+",
"@#@#@#@#@#@#@#@@#@#@#@#@#",
"$@@%$@@%@%$@@%@$@@%$@@%@%",
"&*&=&*&=-&&*&=-&*&=&*&=-&",
";>&,;>&,&,;>&,&;>&,;>&,&,",
";''>;''>'>;''>';''>;''>'>",
"',,)',,),)',,),',,)',,),)",
"'!~{'!~{~{'!~{~'!~{'!~{~{",
"];>,];>,>,];>,>];>,];>,>,",
"^^^^^^^^^^^^^^^^^^^^^^^^^",
"^^^^^^^^^^^^^^^^^^^^^^^^^",
"^^^^^^^^^^^^^^^^^^^^^^^^^",
"^^^^^^^^^^^^^^^^^^^^^^^^^",
"^^^^^^^^^^^^^^^^^^^^^^^^^",
"^^^^^^^^^^^^^^^^^^^^^^^^^",
"^^^^^^^^^^^^^^^^^^^^^^^^^",
"^^^^^^^^^^^^^^^^^^^^^^^^^",
"^^^^^^^^^^^^^^^^^^^^^^^^^",
"^^^^^^^^^^^^^^^^^^^^^^^^^",
"^^^^^^^^^^^^^^^^^^^^^^^^^",
"^^^^^^^^^^^^^^^^^^^^^^^^^",
"^^^^^^^^^^^^^^^^^^^^^^^^^",
"^^^^^^^^^^^^^^^^^^^^^^^^^",
"^^^^^^^^^^^^^^^^^^^^^^^^^",
"^^^^^^^^^^^^^^^^^^^^^^^^^",
".+..+.+.+.+.+..+..+.+.+.+",
"@#@@#@#@#@#@#@@#@@#@#@#@#",
"$@@$@@%$@@%$@@$@@$@$@@%@%",
"&*&&*&=&*&=&*&&*&&*&*&=-&",
";>&;>&,;>&,;>&;>&;>;>&,&,",
";'';''>;''>;'';'';';''>'>",
"',,',,)',,)',,',,',',,),)",
"'!~'!~{'!~{'!~'!~'!'!~{~{",
"];>];>,];>,];>];>];];>,>,",
"^^^^^^^^^^^^^^^^^^^^^^^^^",
"^^^^^^^^^^^^^^^^^^^^^^^^^",
"^^^^^^^^^^^^^^^^^^^^^^^^^",
"^^^^^^^^^^^^^^^^^^^^^^^^^",
"^^^^^^^^^^^^^^^^^^^^^^^^^",
"^^^^^^^^^^^^^^^^^^^^^^^^^",
"^^^^^^^^^^^^^^^^^^^^^^^^^",
"^^^^^^^^^^^^^^^^^^^^^^^^^",
"^^^^^^^^^^^^^^^^^^^^^^^^^",
"^^^^^^^^^^^^^^^^^^^^^^^^^",
"^^^^^^^^^^^^^^^^^^^^^^^^^",
"^^^^^^^^^^^^^^^^^^^^^^^^^",
"^^^^^^^^^^^^^^^^^^^^^^^^^",
"^^^^^^^^^^^^^^^^^^^^^^^^^",
"^^^^^^^^^^^^^^^^^^^^^^^^^",
"^^^^^^^^^^^^^^^^^^^^^^^^^"};
